<?xml version="1.0" standalone="no"?>
<!DOCTYPE svg PUBLIC "-//W3C//DTD SVG 1.1//EN" "http://www.w3.org/Graphics/SVG/1.1/DTD/svg11.dtd" >
<svg>
<metadata>
Created by FontForge 20110222 at Mon Oct 14 23:08:31 2013
 By Orthosie Webhosting
2011, Dan Sayers (i@iotic.com)
</metadata>
<defs>
<font id="Averia-Gruesa" horiz-adv-x="1060" >
  <font-face 
    font-family="Averia"
    font-weight="500"
    font-style="italic"
    font-stretch="normal"
    units-per-em="2048"
    panose-1="2 0 6 3 0 0 0 0 0 4"
    ascent="1594"
    descent="-454"
    x-height="964"
    cap-height="1409"
    bbox="-227 -411 2113 1825"
    underline-thickness="98"
    underline-position="-142"
    slope="-2.70001"
    unicode-range="U+0020-25CA"
  />
<missing-glyph horiz-adv-x="1152" 
d="M53 40v200l1 25v451q0 692 2 697q7 18 83 18h845q99 0 103 -16.5t4 -402.5v-424l1 -100v-475q0 -35 -31.5 -38.5t-276.5 -3.5h-449q-261 0 -271.5 6t-10.5 63zM677 1331h-31l-10 -1h-61q-356 0 -356 -8.5t52 -84t79.5 -118t49.5 -73.5t96 -145.5t79 -114.5t63 89.5
t67 103.5t23 34l123 186q80 114 80 123t-254 9zM993 635v119q0 478 -5 478t-54 -75t-175.5 -256t-126.5 -198t76.5 -126.5t175 -260.5t104 -151t5.5 470zM150 725v-368q0 -196 5 -196t110 161l61 90q22 34 35 52.5t34.5 51.5t68.5 100t47 73v10q0 8 -132 201t-139 204
l-86 127q-4 0 -4 -506zM814 65q109 0 109 10q0 21 -248 382q-8 12 -54 83t-50 71l-49 -75l-5 -9l-38 -58q-4 -7 -11 -17q-247 -359 -247 -382q0 -1 18 -1l10 -1l9 -1l69 -2h487z" />
    <glyph glyph-name=".notdef" horiz-adv-x="1152" 
d="M53 40v200l1 25v451q0 692 2 697q7 18 83 18h845q99 0 103 -16.5t4 -402.5v-424l1 -100v-475q0 -35 -31.5 -38.5t-276.5 -3.5h-449q-261 0 -271.5 6t-10.5 63zM677 1331h-31l-10 -1h-61q-356 0 -356 -8.5t52 -84t79.5 -118t49.5 -73.5t96 -145.5t79 -114.5t63 89.5
t67 103.5t23 34l123 186q80 114 80 123t-254 9zM993 635v119q0 478 -5 478t-54 -75t-175.5 -256t-126.5 -198t76.5 -126.5t175 -260.5t104 -151t5.5 470zM150 725v-368q0 -196 5 -196t110 161l61 90q22 34 35 52.5t34.5 51.5t68.5 100t47 73v10q0 8 -132 201t-139 204
l-86 127q-4 0 -4 -506zM814 65q109 0 109 10q0 21 -248 382q-8 12 -54 83t-50 71l-49 -75l-5 -9l-38 -58q-4 -7 -11 -17q-247 -359 -247 -382q0 -1 18 -1l10 -1l9 -1l69 -2h487z" />
    <glyph glyph-name=".notdef" horiz-adv-x="1152" 
d="M53 40v200l1 25v451q0 692 2 697q7 18 83 18h845q99 0 103 -16.5t4 -402.5v-424l1 -100v-475q0 -35 -31.5 -38.5t-276.5 -3.5h-449q-261 0 -271.5 6t-10.5 63zM677 1331h-31l-10 -1h-61q-356 0 -356 -8.5t52 -84t79.5 -118t49.5 -73.5t96 -145.5t79 -114.5t63 89.5
t67 103.5t23 34l123 186q80 114 80 123t-254 9zM993 635v119q0 478 -5 478t-54 -75t-175.5 -256t-126.5 -198t76.5 -126.5t175 -260.5t104 -151t5.5 470zM150 725v-368q0 -196 5 -196t110 161l61 90q22 34 35 52.5t34.5 51.5t68.5 100t47 73v10q0 8 -132 201t-139 204
l-86 127q-4 0 -4 -506zM814 65q109 0 109 10q0 21 -248 382q-8 12 -54 83t-50 71l-49 -75l-5 -9l-38 -58q-4 -7 -11 -17q-247 -359 -247 -382q0 -1 18 -1l10 -1l9 -1l69 -2h487z" />
    <glyph glyph-name="glyph1" horiz-adv-x="0" 
 />
    <glyph glyph-name="glyph2" horiz-adv-x="682" 
 />
    <glyph glyph-name="space" unicode=" " horiz-adv-x="658" 
 />
    <glyph glyph-name="exclam" unicode="!" horiz-adv-x="636" 
d="M377 1423h33q38 0 56 -18t18 -73l-1 -11v-11q0 -52 -49 -443.5t-50 -397.5q-13 -69 -69 -69h-10q-45 0 -45 73v624q0 215 14 262q19 64 103 64zM181 111q0 135 143 135h4l4 -1l25 -2q4 -1 7 -1q62 0 62 -90v-21l-2 -17q0 -49 -34 -83t-94 -34h-33l-24 4q-58 0 -58 76v34z
" />
    <glyph glyph-name="quotedbl" unicode="&#x22;" horiz-adv-x="822" 
d="M634 1452h25q66 0 66 -44v-26q-5 -30 -5 -52l-9 -66q0 -157 -56 -311q-13 -37 -63 -37l-6 1q-32 0 -37 28q-8 44 -8 232l-1 7v13l-1 21v21l-1 27v80l4 52q0 54 92 54zM376 1309q0 -89 -58 -340q-12 -52 -60 -52h-18q-40 0 -40 42l-2 13v14l-1 14v13l-1 14v14l-1 14v14
l-1 14v14l-1 14v27l-2 28v14l-1 13v28l-1 21v40l-1 27v13q0 85 20 107.5t82 22.5h19q74 0 74 -59l-1 -6v-13l-2 -26q-4 -28 -4 -39z" />
    <glyph glyph-name="numbersign" unicode="#" horiz-adv-x="1206" 
d="M1043 506q0 -50 -31 -68q-15 -9 -89.5 -18t-99 -41.5t-50.5 -151t-36 -143.5q-23 -56 -94 -56q-38 0 -38 50q0 8 28.5 137t28.5 160t-166 31q-46 0 -65 -44q-1 -2 -31.5 -134.5t-51.5 -169.5t-70.5 -37t-49.5 33q0 14 26.5 128t26.5 167q0 43 -74.5 60t-74.5 53
q0 46 34 69q13 8 79 20t89 34q50 49 50 215q0 41 -90 54.5t-90 60.5t43 65q13 5 83 15t92.5 31.5t55.5 162.5t41 155q22 39 72.5 39t50.5 -41q0 -24 -27 -146.5t-27 -150.5q0 -39 161 -39q49 0 67 38q3 5 31 132.5t49.5 162.5t70 35t48.5 -37q0 -8 -22.5 -110t-22.5 -153
t57 -70q89 -29 89 -70q0 -52 -77 -67q-123 -24 -137 -48q-41 -69 -41 -195q0 -38 11 -47t91 -19t80 -52zM775 850v4q0 14 -56 14h-48l-5 -1l-81 -7q-44 0 -56 -30q-68 -170 -68 -274v-4q0 -10 19 -10h15l5 1l48 4q30 5 45 5l5 1l6 1l32 2q56 0 70 29q11 19 21 79l3 12l1 6
l3 11q12 61 26.5 108.5t14.5 48.5z" />
    <glyph glyph-name="dollar" unicode="$" horiz-adv-x="1126" 
d="M960 1170q0 -59 -46 -59q-33 0 -98.5 52t-118.5 52q-67 0 -67 -306q0 -63 34 -102q11 -12 111 -78.5t150 -136t50 -155.5v-31q0 -141 -100 -248q-49 -53 -119 -84q-10 -4 -73 -26t-79 -38t-25 -43l-6 -24q-10 -37 -16 -46q-15 -23 -55 -23q-26 0 -44 53t-42.5 74.5
t-100 50.5t-121.5 79t-46 114.5t56 64.5q24 0 104.5 -70t155.5 -70q37 0 52 66q22 99 22 274q0 79 -47 125q-13 13 -64 47t-61 41q-159 117 -159 265t96 249q50 52 101 73.5t95 35.5t52.5 21.5t33.5 58t49 50.5h18q20 0 47 -29q75 -80 88 -88q101 -58 119 -76
q54 -54 54 -113zM548 1221q0 14 -13 14h-4q-8 -2 -13 -2q-47 0 -95.5 -55.5t-48.5 -94.5l-3 -25v-32q0 -59 47 -124.5t92 -65.5h7q17 0 17 175v31l1 16v10l1 11v10l1 6v10l7 68l1 5l3 34v9zM617 136h15q60 0 117.5 66t57.5 138v35q0 61 -58 127.5t-101 66.5h-8
q-17 0 -17 -151v-17l-1 -17v-17l-1 -11v-11l-1 -6v-12l-4 -45l-1 -5l-1 -11l-3 -27l-2 -22q-4 -20 -4 -32l-2 -22v-10q0 -17 14 -17z" />
    <glyph glyph-name="percent" unicode="%" horiz-adv-x="1630" 
d="M733 1118v-34q0 -162 -90 -279.5t-209 -117.5h-30q-103 0 -169.5 90.5t-66.5 223.5v11q0 158 83.5 276.5t211.5 118.5h20l10 -1q113 0 176.5 -86.5t63.5 -201.5zM397 -13h-17q-47 0 -47 18q0 10 29 57q410 661 811 1242q61 88 114 88h17q47 0 47 -18q0 -11 -29 -58
q-410 -661 -811 -1242q-60 -87 -114 -87zM1512 408v-23q0 -171 -92.5 -285t-219.5 -114h-10q-104 0 -170.5 83t-66.5 213v23q0 171 92 284.5t210 113.5h30q95 0 161 -82.5t66 -212.5zM583 1105q0 81 -33 131t-76 50h-5q-50 0 -94.5 -67t-44.5 -164q-2 -14 -2 -21l-1 -29v-14
l1 -7q0 -84 29 -136.5t77 -52.5h5q45 0 93 62t48 162l1 8l1 7l1 21v50zM1369 396l-2 34q0 54 -31 100.5t-69 46.5h-21q-56 0 -94 -84t-38 -167v-56q0 -66 29 -124t80 -58h5q66 0 104 83.5t38 175.5v42z" />
    <glyph glyph-name="ampersand" unicode="&#x26;" horiz-adv-x="1447" 
d="M905 1106q0 -48 -44.5 -205.5t-44.5 -199.5t35 -82.5t89 -40.5t119 53t128 53t63 -51q0 -17 -30 -75q-69 -135 -69 -215.5t71 -153.5t71 -88q0 -32 -65 -32q-34 0 -89 11t-108 11l-23 -1l-47 -3q-23 -1 -88 -1t-173 -25t-176 -25q-265 0 -358 204q-30 65 -30 157
t49.5 169.5t141 157.5t91.5 117q0 5 -31.5 103t-31.5 187.5t71.5 173.5t181.5 84h27q113 0 191.5 -78.5t78.5 -204.5zM535 1091l2 -26q0 -44 55 -143q19 -35 35 -35h5q53 0 112 88.5t59 149.5v28q0 56 -34.5 95.5t-83.5 39.5h-10q-55 0 -98 -49.5t-43 -121.5v-21zM803 249
v12q0 9 -77 109t-141.5 193.5t-84.5 93.5h-6q-54 0 -111 -78.5t-57 -149.5v-41q0 -101 78.5 -173t171.5 -72h31q84 0 157 60q39 32 39 46z" />
    <glyph glyph-name="quotesingle" unicode="'" horiz-adv-x="502" 
d="M391 1276q0 -73 -57 -320q-12 -50 -61 -50h-19q-45 0 -45 259l-1 21v20l-1 20v14l-1 20v87q0 48 17 70t61 22l12 2h39q66 0 66 -54v-13l-1 -6l-4 -52q-5 -33 -5 -40z" />
    <glyph glyph-name="parenleft" unicode="(" horiz-adv-x="744" 
d="M659 1500q33 0 33 -26v-14q0 -19 -56 -94t-106 -155.5t-89 -201.5q-79 -243 -79 -548t130 -544q100 -184 100 -200q0 -35 -41 -35q-61 0 -140 98.5t-135 222.5q-109 244 -109 498v45q0 297 143 581q83 166 186.5 269.5t162.5 103.5z" />
    <glyph glyph-name="parenright" unicode=")" horiz-adv-x="740" 
d="M592 686v-44l-1 -22q-1 -147 -41 -299q-89 -333 -301 -553q-86 -89 -134 -89t-48 35q0 22 56.5 97.5t78.5 109.5q199 310 199 762q0 330 -127 574q-23 45 -63.5 110.5t-40.5 90.5q0 41 35 41h16q52 0 134 -105t135 -227q102 -234 102 -481z" />
    <glyph glyph-name="asterisk" unicode="*" horiz-adv-x="934" 
d="M533 1417q63 0 63 -56l-26 -178q0 -12 14 -12t78 38t88 38q62 0 62 -42v-13q0 -57 -70.5 -102.5t-70.5 -53.5q0 -20 25.5 -62.5t25.5 -83.5t-38 -41l-88 14q-23 0 -42 -34.5t-40 -34.5l-42 6l-29 -4q-26 0 -38.5 31.5t-29.5 31.5l-42 -6l-69 -5q-22 0 -22 47q0 26 68 104
q25 29 25 50q0 5 -35.5 23.5t-45.5 27.5q-48 42 -48 92q0 58 69 58q30 0 93 -42.5t81 -42.5q11 0 11 64l-2 93q0 51 14.5 73t60.5 22z" />
    <glyph glyph-name="plus" unicode="+" horiz-adv-x="1187" 
d="M540 871q0 176 3 185q11 32 89 32h18q38 0 38 -120l-9 -221q0 -37 15 -43q28 -11 197 -11t169 -43v-17q0 -67 -18.5 -80t-146.5 -13l-77 -2q-19 -1 -38 -1l-37 -2q-19 -1 -37 -1q-49 0 -49 -25l4 -168q0 -176 -2 -182q-11 -33 -87 -33h-18q-38 0 -38 136l6 146l2 38
q1 19 1 39q0 44 -288 44q-94 0 -94 36v17q0 67 17 82t144 15l152 5q75 0 83 10q1 1 1 177z" />
    <glyph glyph-name="comma" unicode="," horiz-adv-x="576" 
d="M275 260h29q51 0 75 -24t24 -83v-39q-2 -16 -2 -24q0 -115 -91 -246.5t-158 -131.5h-12q-29 0 -29 31v10q1 11 31 47q81 95 81 169v2q-1 18 -15 36q-43 53 -43 118q0 135 110 135z" />
    <glyph glyph-name="hyphen" unicode="-" horiz-adv-x="741" 
d="M612 630q46 0 46 -35v-19l-1 -7l-2 -26q-1 -7 -1 -13q0 -44 -43 -54q-22 -5 -244 -5h-15l-21 -1h-51l-7 -1h-36l-29 -1h-70q-40 0 -40 29v32l2 19l2 26q0 39 42 49q26 6 251 6l109 1h108z" />
    <glyph glyph-name="period" unicode="." horiz-adv-x="571" 
d="M147 115l2 22q0 42 30.5 78.5t82.5 36.5l9 2h39q10 -2 13 -2q76 0 76 -92v-36l-4 -26q0 -49 -34 -77t-73 -28l-27 -3h-13q-97 0 -97 65l-3 12l-2 22v22z" />
    <glyph glyph-name="slash" unicode="/" horiz-adv-x="849" 
d="M841 1471q0 -12 -35 -99q-309 -774 -599 -1407q-50 -109 -117 -109h-18q-48 0 -48 20.5t65 172.5l30 71q33 78 40.5 94.5t24 55.5t42 98.5t63 149.5t130.5 307t161 380.5t92 212.5q37 76 103 76t66 -23z" />
    <glyph glyph-name="zero" unicode="0" horiz-adv-x="1147" 
d="M625 1390h36q71 0 144 -39q146 -78 200 -297q28 -115 28 -256v-21q0 -175 -39 -323q-79 -300 -260 -413q-85 -53 -189 -53q-105 0 -175 43q-139 85 -191 297q-28 115 -28 256v20q0 160 36.5 315t104 261.5t155.5 158t178 51.5zM354 530q0 -195 54 -298t129 -103h22
q59 0 108 52t81 138q70 187 70 453v76l-1 15l-1 29q-1 15 -1 29q0 132 -51.5 230t-136.5 98h-11q-51 0 -98 -41.5t-78 -112.5q-83 -191 -83 -425l-2 -32l-1 -47v-61z" />
    <glyph glyph-name="one" unicode="1" horiz-adv-x="1074" 
d="M601 4h-57q-82 0 -152 34t-70 75.5t60 116.5t73 128q37 148 37 487q0 174 -29.5 215.5t-100.5 63.5t-71 49q0 33 56 60q239 116 291 116h16q41 0 52 -29t11 -129l-5 -142l-4 -82q-3 -62 -3 -98t-11 -190t-11 -253.5t39 -167.5q64 -111 64 -138v-15q0 -35 -57.5 -68
t-127.5 -33z" />
    <glyph glyph-name="two" unicode="2" horiz-adv-x="1122" 
d="M224 1027q-44 0 -44 57.5t46 114t110 95.5q122 74 274 74t262 -90t110 -247.5t-103 -293.5q-59 -78 -268 -269.5t-209 -246.5q0 -38 148 -38t264 13l26 4q36 5 48 5q81 0 81 -63q0 -74 -46 -101.5t-124 -27.5h-249l-32 1h-32q-259 0 -310.5 9.5t-51.5 49.5
q0 82 101.5 200.5t244 255t220 242.5t77.5 212.5t-57.5 161t-147.5 54.5t-204 -86t-134 -86z" />
    <glyph glyph-name="three" unicode="3" horiz-adv-x="1121" 
d="M255 1112q-41 0 -41 39q0 84 120.5 150.5t265.5 66.5h32q142 0 228 -70t86 -206t-129 -260q-72 -70 -72 -82q1 -5 75 -54q156 -103 156 -286t-136 -305q-68 -62 -162 -95.5t-185 -33.5h-32q-133 0 -240.5 58t-107.5 127.5t75 69.5q10 0 115 -52.5t205 -52.5t176.5 72.5
t76.5 187.5q0 178 -176 236q-14 5 -68 16t-81.5 24.5t-27.5 48.5q0 44 99.5 83t143.5 83q81 81 81 164t-50 124t-128.5 41t-159.5 -33q-13 -5 -67.5 -33t-71.5 -28z" />
    <glyph glyph-name="four" unicode="4" horiz-adv-x="1144" 
d="M119 459.5q0 62.5 70 166.5q284 421 486 669q67 82 133.5 82t82.5 -24.5t16 -76.5l-10 -134q-3 -49 -14.5 -172.5t-11.5 -233t31 -171.5q13 -26 49.5 -62.5t36.5 -55.5q0 -76 -59.5 -127.5t-59.5 -80.5q6 -51 6 -90q0 -91 -39 -121t-137.5 -30t-98.5 123l15 115
q0 20 -36.5 50.5t-87 44.5t-171.5 19.5t-148 19.5q-53 27 -53 89.5zM697 1070v21q0 11 -5 11q-12 0 -123 -166.5t-168 -239.5l-80 -103l-10 -14q-46 -54 -46 -63.5t52 -9.5h130q153 0 181 18t28 106q4 36 5.5 53.5l3 35t3.5 37.5q18 184 18 200l3 27q3 27 3 35l3 27
q2 18 2 25z" />
    <glyph glyph-name="five" unicode="5" horiz-adv-x="1123" 
d="M983 1312q0 -84 -84 -115q-49 -18 -221.5 -18t-211.5 -33q-73 -61 -73 -234q0 -43 109 -43q225 0 353 -113t128 -309q0 -96 -39 -185q-79 -181 -266 -252q-91 -35 -213 -35t-236 52.5t-114 124t65 71.5q27 0 129 -52t195 -52q124 0 208 106q64 81 64 208q0 62 -31 125
t-101 104.5t-281 41.5q-79 0 -111 29t-32 84t35.5 240.5t61.5 226.5t74.5 52.5t179 11.5t183.5 3.5t91 6.5t53 3h27q58 0 58 -49z" />
    <glyph glyph-name="six" unicode="6" horiz-adv-x="1134" 
d="M753 1363q202 0 202 -77q0 -34 -147 -49t-225 -71.5t-127.5 -139t-49.5 -144.5t49 -62q12 0 65 13t115.5 13t134.5 -30q139 -59 200 -210q34 -85 34 -167v-25q0 -83 -31 -163q-31 -81 -87 -137q-112 -112 -266 -112h-24q-89 0 -174 36q-176 76 -251 295q-38 112 -38 228
v52q0 143 50 282t134.5 242.5t204 164.5t231.5 61zM797 428v58q0 106 -53 182.5t-144 76.5h-8q-98 0 -162.5 -83.5t-64.5 -210.5v-38q0 -123 56.5 -204.5t141.5 -81.5l8 1q92 0 159 87.5t67 212.5z" />
    <glyph glyph-name="seven" unicode="7" horiz-adv-x="1115" 
d="M324 1360h22l22 -1l46 -4l223 1q265 0 332.5 -11.5t67.5 -53.5v-19q0 -36 -23 -86t-154.5 -307t-192.5 -381t-122.5 -290t-68.5 -181q-29 -56 -102 -56q-41 0 -63.5 12.5t-22.5 58.5q0 86 249 574t249 512q0 52 -144 52t-272 -24t-129 -24q-72 0 -72 72.5t45 114
t110 41.5z" />
    <glyph glyph-name="eight" unicode="8" horiz-adv-x="1132" 
d="M987 1125q0 -91 -33.5 -157.5t-99 -134.5t-65.5 -73t63.5 -60.5t99.5 -118.5t36 -157t-35 -174q-69 -159 -235 -228q-88 -37 -188 -37q-179 0 -284.5 94.5t-105.5 233.5v44q0 89 45 162.5t80.5 106.5t72.5 62.5t37 44.5t-50.5 62.5t-77 100t-26.5 131t33 154t96 130.5
q123 107 283.5 107t257 -83t96.5 -210zM620 839h14q62 0 120 79.5t58 157.5v7q0 75 -49.5 131t-135.5 56h-22q-84 0 -144.5 -60.5t-60.5 -137.5v-13l1 -7q0 -81 74 -147t145 -66zM800 342v25q0 95 -72 174q-99 108 -201 108h-16q-62 0 -122.5 -81t-60.5 -155l-2 -16v-34
q0 -89 66.5 -162t157.5 -73h33q82 0 149.5 61t67.5 153z" />
    <glyph glyph-name="nine" unicode="9" horiz-adv-x="1137" 
d="M201 92q0 42 150 54q244 19 357 206q50 83 50 161q0 47 -55 47q-6 0 -60 -10q-53 -10 -111 -11q-58 1 -130 31q-148 63 -209 224q-30 79 -30 169q0 184 109.5 305t299 121t312.5 -139q64 -72 106 -185.5t42 -256.5v-26q0 -164 -55 -308q-106 -277 -331 -392
q-121 -62 -249 -62h-23q-102 0 -152 38q-21 16 -21 34zM803 999q0 93 -57 175.5t-146 82.5h-8q-90 0 -159.5 -90.5t-69.5 -224.5v-47q0 -105 55.5 -178.5t140.5 -73.5h8q110 0 174 83t64 208v37q-2 20 -2 28z" />
    <glyph glyph-name="colon" unicode=":" horiz-adv-x="590" 
d="M451 878v-35q0 -60 -32 -97t-94 -37h-30q-12 3 -21 3q-73 0 -73 102v14q0 66 30.5 102.5t74.5 36.5q8 2 13 2l17 2h18l29 -4q68 0 68 -89zM411 143q0 -54 -29.5 -95.5t-98.5 -41.5h-26q-47 0 -72 21t-25 72v31q0 60 32 98.5t96 38.5h26l29 -4q65 0 65 -72l3 -26v-22z" />
    <glyph glyph-name="semicolon" unicode=";" horiz-adv-x="605" 
d="M468 853q0 -63 -31.5 -100t-80.5 -37l-26 -3h-13q-99 0 -99 77q-2 8 -2 13l-2 21v9q0 66 30.5 102.5t75.5 36.5l31 4h18l30 -4q66 0 66 -72l3 -25v-22zM422 182v-54q0 -127 -92.5 -260.5t-162.5 -133.5q-35 0 -35 37q0 4 54.5 82.5t54.5 140.5q0 16 -15.5 36.5t-28 46
t-12.5 83t28.5 89t81.5 31.5h28q57 0 78 -26t21 -72z" />
    <glyph glyph-name="less" unicode="&#x3c;" horiz-adv-x="1174" 
d="M1025 132q0 -45 -24 -45q-54 0 -782 407q-80 45 -80 93v18q0 46 61 81t289 149t449 231q57 30 78.5 30t21.5 -49q0 -73 -72 -122t-343.5 -185t-271.5 -145.5t269 -151.5t312 -169q93 -59 93 -142z" />
    <glyph glyph-name="equal" unicode="=" horiz-adv-x="1185" 
d="M1037 875q55 0 55 -42v-40q0 -44 -19.5 -51.5t-207.5 -7.5h-44l-11 1h-280l-33 -1h-310q-56 0 -56 51l1 11v10q0 60 42 66q13 2 443 2l89 1h331zM1032 497q54 0 54 -52l-1 -10v-11q0 -58 -34 -63q-19 -3 -452 -3l-22 -1h-399q-53 0 -53 33v50q0 48 34 53q19 3 464 3l56 1
h353z" />
    <glyph glyph-name="greater" unicode="&#x3e;" horiz-adv-x="1172" 
d="M842 591q0 19 -266.5 156t-321.5 174q-87 59 -87 145q0 36 17 36h13q16 0 157 -77t374 -200t250 -133q72 -42 72 -98.5t-74 -96.5q-742 -403 -797 -403q-26 0 -26 41v17q0 64 71.5 112.5t344.5 185t273 141.5z" />
    <glyph glyph-name="question" unicode="?" horiz-adv-x="968" 
d="M448 400q-76 0 -76 136q0 72 38 137.5t111 141.5t108 139.5t35 133.5t-45 113t-117 43t-158 -63.5t-122 -63.5q-56 0 -56 81t107.5 148t241.5 67h20q142 0 243.5 -90t101.5 -217v-38q0 -156 -178 -320q-126 -117 -150 -147t-34 -115.5t-55 -85.5h-15zM540 99
q0 -51 -38 -78t-86 -27h-29q-52 0 -71.5 24.5t-19.5 75.5l1 4q0 70 29 104.5t71 34.5l12 3l21 2h17l28 -4q65 0 65 -68l3 -21v-29q-3 -12 -3 -21z" />
    <glyph glyph-name="at" unicode="@" horiz-adv-x="1653" 
d="M1125 516q0 -99 77 -99q32 0 81.5 38.5t92.5 126.5t43 190q0 224 -142 351.5t-351 127.5t-375 -127q-131 -99 -195.5 -251.5t-64.5 -299.5t49 -259q96 -219 308 -300q103 -39 216.5 -39t216.5 30q21 6 86 31.5t92.5 25.5t27.5 -13q0 -49 -160 -105q-161 -56 -301 -57
q-297 0 -486.5 191.5t-189.5 512.5q0 262 166 481q123 162 312 239q143 58 296 58q288 0 455.5 -167.5t167.5 -415.5q0 -212 -117 -366q-50 -66 -116.5 -107t-130 -41t-90.5 11l-35 22l-25 26l-23 17q-12 0 -94.5 -40t-169.5 -40t-152 90q-48 66 -48 195.5t94.5 239.5
t205.5 110l43 -4l78 -10l36 5l37 11l37 8q76 0 76 -79q0 -47 -14 -148.5t-14 -169.5zM757 330h12q80 0 171 142t91 297v29q-2 14 -2 29.5t-23.5 39t-58.5 23.5h-20q-91 0 -179.5 -128t-88.5 -250v-40q2 -16 2 -23q0 -50 31 -84.5t65 -34.5z" />
    <glyph glyph-name="A" unicode="A" horiz-adv-x="1342" 
d="M740 1392q87 0 139 -127q11 -26 123 -415t137.5 -461t59 -123.5t33.5 -101.5t-43 -86t-130 -36t-109 48q-6 15 -12 66q-22 204 -67.5 246t-228 42t-222 -36t-82.5 -176q-17 -54 -27 -103.5t-14 -56.5q-19 -35 -81 -35t-96.5 31.5t-34.5 78t66 143t229 503.5t200 477.5
t73 96t87 25.5zM827 583v13q0 29 -115 527q-5 21 -12 21h-3q-7 0 -29 -73l-89 -254l-28 -80q-1 -5 -9.5 -25.5t-13 -33.5t-22 -52t-17.5 -43v-10q0 -9 163 -9l72 -2h50q53 0 53 21z" />
    <glyph glyph-name="B" unicode="B" horiz-adv-x="1271" 
d="M264 1100q1 24 1 71.5t-16 100t-16 60.5q0 51 84 63q116 17 317 17h71q273 0 356 -164q31 -62 31 -148t-37.5 -151t-67 -91t-63.5 -50t-34 -35q0 -1 71 -47q164 -105 164 -283v-25q0 -83 -39.5 -166.5t-116.5 -139.5t-171.5 -79t-226.5 -23h-270q-148 0 -148 43
q0 8 31 80t42 144q31 208 31 561l6 238zM451 857q0 -34 61 -34h31l8 1l66 3q9 1 17 1q99 0 182.5 62.5t83.5 157.5l2 17v16l-1 8q0 84 -66 126t-185 42l-8 -1h-17l-49 -3q-51 0 -78 -27t-27 -101l-6 -53q-5 -40 -5 -46l-9 -149v-20zM434 521q-4 -32 -4 -52l-1 -9l-1 -8
l-2 -35l-1 -9l-9 -171v-8q0 -40 31.5 -52t103.5 -12h48q149 0 238.5 68.5t89.5 178.5v36q0 104 -100 168q-68 44 -227 44h-10q-101 0 -128.5 -22.5t-27.5 -116.5z" />
    <glyph glyph-name="C" unicode="C" horiz-adv-x="1326" 
d="M1243 1181q0 -95 -64 -95q-19 0 -90 56q-147 116 -318.5 116t-296.5 -165q-125 -166 -125 -417t109.5 -387t282.5 -136q113 0 232 56q189 89 202 89q39 0 39 -53q0 -29 -39 -80t-117 -91q-151 -77 -314 -77q-440 0 -578 380q-42 116 -42 227v68q0 147 52 289.5
t145.5 242.5t211.5 150.5t241 50.5h31q230 0 344 -61q38 -21 66 -69.5t28 -93.5z" />
    <glyph glyph-name="D" unicode="D" horiz-adv-x="1429" 
d="M160 52v15q0 13 22.5 54.5t36 81.5t23.5 137q45 423 45 760q0 114 -22 168t-22 77q0 37 76.5 51.5t293.5 14.5h69q286 0 438 -148q83 -80 133 -199.5t50 -269.5v-52q0 -153 -63 -307t-171.5 -253t-233.5 -137.5t-335 -38.5h-22l-22 1h-44q-252 0 -252 45zM490 907
q0 -10 -21 -335l-3 -47l-3 -32l-2 -31q-3 -32 -4 -50.5t-7 -76t-6 -88.5v-14q0 -40 27 -59t104 -19h43q102 0 186 44q169 88 236 312q34 117 34 234v52q0 91 -30 185q-57 183 -201 250q-70 32 -161 32h-29q-97 0 -126 -33t-29 -158q-2 -30 -2 -46l-3 -63l-2 -31
q-1 -16 -1 -26z" />
    <glyph glyph-name="E" unicode="E" horiz-adv-x="1195" 
d="M919 749q0 -154 -115 -154q-6 0 -72.5 19t-152.5 19t-119.5 -40t-33.5 -187t37.5 -198.5t159.5 -51.5t186 13t129.5 30t79.5 17q52 0 52 -43q0 -100 -84 -137q-56 -25 -249 -25h-116q-260 0 -401 29q-81 17 -81 91q0 7 30.5 67t43.5 137q52 308 52 668q0 154 -27.5 219
t-27.5 81q0 44 70 59q169 36 473 36h152q93 0 134.5 -24.5t41.5 -94.5t-54 -70h-3q-22 0 -60 11q-119 34 -290 34q-102 0 -139 -52q-66 -93 -66 -277q0 -82 156 -82q42 0 92 13l28 8q47 15 57 15q70 0 93.5 -31.5t23.5 -98.5z" />
    <glyph glyph-name="F" unicode="F" horiz-adv-x="1127" 
d="M465 915q1 -88 131 -88q54 0 119 16.5t95.5 16.5t61.5 -45t31 -114q0 -121 -89 -121q-15 0 -65 15t-96 15q-139 0 -179 -53.5t-40 -230.5q0 -85 12.5 -145.5t12.5 -76.5q0 -74 -125 -74h-27q-160 0 -160 122q0 15 35.5 77t46.5 135q27 177 27 458l2 60l1 90
q0 182 -22.5 253t-22.5 75q0 55 98 71q156 26 426 26h154q127 0 162 -28.5t35 -98.5t-53 -70q-18 0 -67 14q-140 42 -311 42q-108 0 -138 -48q-55 -87 -55 -293z" />
    <glyph glyph-name="G" unicode="G" horiz-adv-x="1438" 
d="M1280 1199q0 -96 -62 -96q-8 0 -142 75t-250 75q-219 0 -344.5 -164.5t-125.5 -407.5q0 -352 234 -481q74 -41 172.5 -41t176 57.5t77.5 173.5q0 58 -24 99t-47.5 74t-23.5 42q0 32 47 46.5t156.5 14.5t149.5 -22t40 -60q0 -9 -22 -78.5t-32 -135.5l-18 -112
q-21 -114 -55.5 -145.5t-136.5 -52.5q-305 -63 -317 -63q-275 0 -441 187t-166 483.5t179 508.5q91 108 219 169t259 61h40q350 0 427 -122q30 -47 30 -85z" />
    <glyph glyph-name="H" unicode="H" horiz-adv-x="1461" 
d="M1105 49q-159 0 -159 102q0 10 16 62q44 149 44 341q0 86 -42.5 109.5t-239 23.5t-250.5 -45t-54 -330q0 -54 10 -111.5t10 -79.5q0 -47 -74 -78q-51 -21 -130.5 -21t-99.5 20t-20 45.5t36 84.5t46 150q43 387 43 787q0 35 -9 67l-11 28q-18 45 -18 55q0 54 36.5 78.5
t140.5 24.5q173 0 173 -94q0 -10 -16 -60q-43 -133 -43 -297q0 -86 42 -111.5t242 -25.5t248 38t48 246q0 87 -12 146t-12 90t56 61t138 30h38q101 0 101 -49v-31q0 -6 -32 -67.5t-44 -149.5q-53 -381 -53 -791q0 -35 10 -68l11 -28q17 -43 17 -58q0 -53 -35 -73.5
t-152 -20.5z" />
    <glyph glyph-name="I" unicode="I" horiz-adv-x="688" 
d="M380 7h-112q-68 0 -102.5 22.5t-34.5 60.5q0 11 43 86t56 170q40 304 40 715q0 86 -14.5 124t-35 72.5t-20.5 61.5q0 49 58 74q37 16 139 16h56q83 0 110.5 -24.5t27.5 -43.5v-15q0 -12 -41.5 -83.5t-52.5 -154.5q-47 -348 -47 -737q0 -83 13.5 -117t35.5 -75t22 -71
t-36.5 -55.5t-104.5 -25.5z" />
    <glyph glyph-name="J" unicode="J" horiz-adv-x="937" 
d="M466 1307q0 101 218 101l22 -1h21q37 0 75 -33t38 -62t-24.5 -102.5t-34.5 -164.5t-29 -401.5t-64.5 -436t-149 -199.5t-227.5 -74h-22q-114 0 -190.5 51t-76.5 115v18q0 23 22.5 47.5t51.5 24.5t90 -27t117.5 -27t108.5 57t82 155q57 189 57 590q0 141 -14.5 185
t-28.5 72l-17 31q-25 53 -25 81z" />
    <glyph glyph-name="K" unicode="K" horiz-adv-x="1341" 
d="M231 1310q0 89 146 89h36q73 0 105.5 -27.5t32.5 -68.5q0 -8 -19 -63q-54 -160 -54 -343q0 -57 36 -57q54 0 244 221q117 135 150 209.5t49 89.5q39 35 137 35t98 -39q0 -32 -144 -176t-220.5 -239.5t-76.5 -157.5t221 -399q88 -135 162 -221t74 -113q0 -41 -121 -41
t-173 58q-21 23 -62 127t-142 251.5t-151 147.5t-81 -84q-24 -64 -24 -143t10 -136l15 -86q0 -55 -43 -94.5t-135 -39.5q-126 0 -126 62v27l8 28l23 59q21 58 27 141q36 468 36 801q0 41 -19 98t-19 84z" />
    <glyph glyph-name="L" unicode="L" horiz-adv-x="1119" 
d="M300 1410h47q90 0 134 -20q65 -30 65 -78q0 -14 -31 -87.5t-43 -156.5q-48 -336 -48 -762q0 -88 33.5 -115.5t147 -27.5t248 46t146.5 46q52 0 52 -79t-19.5 -109t-54.5 -42.5t-342 -12.5h-52l-79 -1h-79q-152 0 -221 13t-69 52v18q0 18 16.5 55t28.5 71t21 125
q50 500 50 773q0 58 -25.5 120.5t-25.5 89.5t28.5 54.5t71.5 27.5z" />
    <glyph glyph-name="M" unicode="M" horiz-adv-x="1726" 
d="M346 175q0 -125 -136 -125q-66 0 -90 35l-11 30q0 21 31 93.5t43 152.5q66 453 66 767q0 65 -4 98l-8 43l-5 35q0 66 103 66q58 0 121 -35t101.5 -94.5t163 -422t137.5 -362.5q22 0 189 355.5t213.5 422t108.5 102t119 35.5t79 -11.5t22 -48.5l-7 -37l-11 -43
q-18 -86 -29.5 -401t-11.5 -418t7.5 -138.5t24.5 -82.5t17 -84l-15 -28q-35 -40 -112.5 -40t-116 40t-38.5 103l5 39q14 106 26 319t12 345t-19 132q-26 0 -198 -381.5t-195 -422.5q-52 -92 -99 -92q-63 0 -97 69q-15 29 -144 428.5t-158 399.5l-11 -12
q-14 -30 -43.5 -288.5t-29.5 -542.5z" />
    <glyph glyph-name="N" unicode="N" horiz-adv-x="1457" 
d="M1120 1299q0 95 133 95q62 0 93.5 -30t31.5 -70.5t-33 -126t-40.5 -168t-16.5 -213.5l-13 -222q-23 -407 -27 -436q-12 -92 -75 -92q-81 0 -180 124q-30 38 -281 447t-283 409q-18 0 -25 -16q-36 -78 -36 -629q0 -58 9.5 -133t9.5 -78q0 -62 -54.5 -102.5t-138.5 -40.5
t-84 55q0 22 35.5 87.5t46.5 149.5q43 324 43 831q0 50 -17.5 111.5t-17.5 92t70 30.5q149 0 265 -132q61 -70 299 -458.5t256 -388.5l12 14q5 14 20.5 271t15.5 365.5t-6 160.5l-5 34q-7 46 -7 59z" />
    <glyph glyph-name="O" unicode="O" horiz-adv-x="1490" 
d="M814 1432h42q218 0 360 -170q77 -92 110.5 -206.5t33.5 -222.5v-69q0 -134 -52 -288t-144 -264q-190 -224 -445 -225h-21q-237 0 -380 171q-142 171 -142 449v24q0 323 199 576q82 104 200 164.5t239 60.5zM402 665v-53q0 -204 89 -346q41 -66 102.5 -100.5t124.5 -34.5
h14h4q82 0 150 45q137 89 206 324q32 110 32 238v70q0 194 -82 331q-41 69 -103.5 107t-129.5 38h-28q-74 0 -146 -50q-143 -99 -200 -329q-33 -132 -33 -240z" />
    <glyph glyph-name="P" unicode="P" horiz-adv-x="1203" 
d="M734 1401q195 0 294 -89t99 -228v-23q0 -187 -142 -319q-85 -80 -233 -120q-220 -60 -237 -73q-90 -68 -90 -189q0 -46 21.5 -114.5t21.5 -85.5q0 -59 -54.5 -103.5t-142.5 -44.5h-43q-97 0 -97 68v18q0 15 30 89.5t39 159.5q64 589 64 817q0 56 -8.5 100t-8.5 56
q0 39 64 52q138 29 423 29zM678 1256h-17q-122 0 -155.5 -41t-33.5 -214l-5 -44q-4 -36 -4 -45l-13 -123l-2 -16l-1 -25q0 -40 76 -40h33q150 0 245 87t95 222v38q0 100 -62 150.5t-156 50.5z" />
    <glyph glyph-name="Q" unicode="Q" horiz-adv-x="1497" 
d="M1070 73q0 -45 127.5 -130t127.5 -95q0 -36 -175 -36h-24q-151 0 -380 97.5t-327.5 196t-160 283t-61.5 349.5q0 308 166 501q89 103 189 144t220 41q247 0 394 -169q78 -90 120 -206.5t42 -232.5v-56q0 -282 -175 -540q-83 -123 -83 -147zM397 675v-55q0 -204 91 -335
q48 -68 110 -100.5t117.5 -32.5t82 22.5t58.5 80.5t97.5 112t81.5 79q78 120 78 315v53q0 198 -83 328t-223 131h-15q-70 0 -144.5 -41.5t-131.5 -129.5q-119 -182 -119 -427z" />
    <glyph glyph-name="R" unicode="R" horiz-adv-x="1311" 
d="M491 135q0 -115 -157.5 -115t-157.5 96q0 42 27 96t34 111q46 381 46 825q0 88 -11 141.5t-11 58.5q0 33 40 47t156 14l86 3h117q448 0 448 -361q0 -179 -157 -310q-74 -62 -74 -106t127 -303q43 -88 103 -158.5t60 -111.5t-93.5 -41t-147.5 55q-32 33 -105 196.5
t-114 219.5q-65 90 -139 90q-49 0 -88 -68q-22 -39 -22 -127t16.5 -160t16.5 -92zM454 793q0 -39 43 -39h38l8 1h8q244 0 329 160q32 60 32 118v45q0 78 -59 126.5t-158 48.5h-18l-8 -1h-9q-121 0 -149 -39q-42 -58 -42 -244l-4 -34q-9 -76 -9 -97l-2 -16v-29z" />
    <glyph glyph-name="S" unicode="S" horiz-adv-x="1133" 
d="M97 252q0 45 22 65.5t47.5 20.5t91 -63.5t136 -99.5t175.5 -36t174.5 60.5t69.5 156t-87 167.5q-37 31 -218 124.5t-242 159.5q-92 101 -92 248t117 249q60 53 143.5 82t168.5 29t199 -21.5t140 -39.5q73 -50 73 -166q0 -25 -17.5 -51.5t-55.5 -26.5q-15 0 -84 56.5
t-123 80.5t-117 24q-113 0 -177.5 -53.5t-64.5 -138t78 -150.5q47 -40 222 -126q176 -86 234 -146q112 -115 112 -274t-125.5 -274t-330.5 -115h-36q-42 0 -176.5 25t-170 47.5t-61 71t-25.5 85.5v29z" />
    <glyph glyph-name="T" unicode="T" horiz-adv-x="1210" 
d="M592 5h-27q-155 0 -155 78q0 14 33.5 92.5t46.5 180.5q42 330 42 686q0 108 -19.5 145.5t-84 37.5t-151.5 -32t-91 -32q-39 0 -39 61q0 143 89 170q55 16 384 16h79l27 -1l53 1h133q169 0 195 -10q54 -21 54 -92t-14.5 -103t-52.5 -32q-5 0 -83 29.5t-134 29.5t-81 -24
t-37 -103q-49 -319 -49 -794q0 -51 15 -96l34 -102q0 -106 -167 -106z" />
    <glyph glyph-name="U" unicode="U" horiz-adv-x="1409" 
d="M1078 1309q0 82 126 82q68 0 92 -20q44 -37 44 -82t-31.5 -107t-41 -126.5t-26 -370t-74 -429t-182 -195t-314.5 -71.5q-235 0 -360 138q-56 63 -83.5 151.5t-27.5 254.5l26 520q0 57 -13 93l-11 25l-13 24q-16 33 -16 54q0 63 46 112q29 31 109 31q162 0 162 -91
q0 -14 -20 -90.5t-37.5 -334.5t-17.5 -359q0 -208 77.5 -296.5t227.5 -88.5q95 0 173.5 53.5t113.5 137.5q85 205 85 785q0 77 -7 135.5t-7 64.5z" />
    <glyph glyph-name="V" unicode="V" horiz-adv-x="1306" 
d="M246.5 1388q74.5 0 116.5 -25.5t53 -51.5t17.5 -100.5t15.5 -124.5t107.5 -404.5t121.5 -354.5q18 0 151.5 334t164 423t41.5 160.5t21 88.5q34 57 127 57h28q92 0 92 -78q0 -33 -86 -157q-29 -41 -242 -532.5t-227 -517.5q-50 -90 -123.5 -90t-115.5 99
q-19 44 -58.5 187t-66 228t-91 302t-78 255.5t-60 103t-46.5 114t40 71.5q23 13 97.5 13z" />
    <glyph glyph-name="W" unicode="W" horiz-adv-x="1841" 
d="M1714 1353q84 0 84 -88q0 -35 -36 -108.5t-162.5 -456.5t-158.5 -462t-71.5 -117.5t-64.5 -38.5q-53 0 -85 35t-62.5 113.5t-112.5 396t-91 317.5q-19 0 -132.5 -313.5t-176.5 -430t-123 -116.5q-87 0 -130 116q-34 91 -106.5 457.5t-104 478.5t-31.5 143t26.5 58.5
t57.5 27.5h3q127 0 157 -97q15 -46 30.5 -162.5t72.5 -395.5t76 -279t146 366q15 44 63 200l42 140l11 44l15 43q33 77 77 101l41 13q56 0 84.5 -19.5t48 -66t38 -146.5t83.5 -381.5t82 -281.5q44 0 224 596q14 47 32.5 121t24.5 90q21 58 58.5 80.5t70.5 22.5z" />
    <glyph glyph-name="X" unicode="X" horiz-adv-x="1312" 
d="M1175 67q0 -60 -149 -60h-35q-101 0 -138 43q-17 19 -25 81t-36 129q-117 277 -148 277q-42 0 -180 -237q-62 -107 -71.5 -170.5t-16.5 -73.5q-33 -49 -173 -49q-99 0 -99 45.5t66.5 112t145.5 180.5q219 316 219 374q0 34 -110.5 237t-167 274t-56.5 99q0 52 53 65
q29 7 133.5 7t138.5 -49q5 -7 17 -79t55 -169q82 -183 118 -183t177 264q32 60 39.5 113t17.5 66q31 41 123 41t113.5 -10.5t21.5 -44t-67.5 -105.5t-130.5 -165q-193 -285 -193 -336t176 -370q60 -108 121 -188.5t61 -118.5z" />
    <glyph glyph-name="Y" unicode="Y" horiz-adv-x="1259" 
d="M154 1340q0 60 173 60q103 0 138 -56q10 -16 14.5 -56t10.5 -71t47 -132q118 -293 140 -293q34 0 190 306q49 96 59 129t16.5 73.5t16.5 54.5q34 47 142 47t108 -42v-16q0 -18 -68.5 -105t-191 -298.5t-155.5 -285.5q-55 -124 -55 -364q0 -44 20.5 -105.5t20.5 -73.5
q0 -111 -167 -111h-53q-50 0 -85 26q-34 26 -34 59q0 34 25 86q57 120 57 325q0 91 -69 251q-159 366 -229.5 457.5t-70.5 116.5v18z" />
    <glyph glyph-name="Z" unicode="Z" horiz-adv-x="1224" 
d="M231 1182q-57 0 -57 86t94 119q43 15 305 15h37l37 -1h111q285 0 322 -6q67 -11 67 -70t-375.5 -571t-375.5 -556t166.5 -44t252.5 19.5t156.5 42.5t96.5 23q57 0 57 -87q0 -44 -33 -79t-86.5 -49.5t-307.5 -14.5l-37 1h-111q-355 0 -399 9q-63 13 -63 71.5t379 578.5
t379 555.5t-139.5 35.5t-220.5 -15t-156 -39t-99 -24z" />
    <glyph glyph-name="bracketleft" unicode="[" horiz-adv-x="731" 
d="M593 1498h23q73 0 73 -35.5t-30 -53.5t-94 -34t-88.5 -37.5t-36.5 -79t-45.5 -620t-33.5 -657t24 -121.5t113 -54.5t89 -72t-66 -44.5h-69l-23 1q-172 0 -212 17t-40 99v47l1 24q1 24 1 63.5t41.5 731.5t55 743.5t60 67t257.5 15.5z" />
    <glyph glyph-name="backslash" unicode="\" horiz-adv-x="873" 
d="M805 -100q0 -30 -57.5 -30t-78.5 30t-53 117q-516 1389 -516 1447q0 27 53.5 27t73 -20.5t43.5 -80.5q137 -347 213 -575t287 -797q35 -94 35 -118z" />
    <glyph glyph-name="bracketright" unicode="]" horiz-adv-x="729" 
d="M175 -312h-66q-43 0 -43 39q0 44 80 70q125 41 133 48q23 22 34.5 71t44 594t32.5 668t-32 159q-18 20 -106 47t-88 75q0 38 68 38h66q187 0 228 -21t41 -102v-47l-1 -24q0 -129 -64 -1196q-17 -286 -32.5 -338.5t-66.5 -66.5t-228 -14z" />
    <glyph glyph-name="asciicircum" unicode="^" horiz-adv-x="1112" 
d="M571 1409h16q50 0 92 -66q17 -26 103.5 -193.5t105.5 -202.5l56 -101q65 -117 65 -133t-45 -16h-15q-67 0 -129 86q-21 29 -130 233.5t-115 204.5q-13 0 -127.5 -207t-144.5 -245q-55 -69 -116 -69t-61 18q0 14 69.5 129t87.5 146l16 29q19 35 25.5 45.5t69.5 125
t96.5 165.5t80.5 51z" />
    <glyph glyph-name="underscore" unicode="_" horiz-adv-x="1098" 
d="M869 -270h-85l-12 1h-170l-36 1h-36q-496 0 -518 4t-22 47l1 11q0 45 23 49.5t212 4.5h60l12 -1l737 -3q45 0 45 -39v-21l-1 -11q0 -33 -20.5 -38t-189.5 -5z" />
    <glyph glyph-name="grave" unicode="`" horiz-adv-x="780" 
d="M278 1477h22q74 0 120 -54q157 -183 157 -255v-4q0 -19 -31 -19h-26q-79 0 -291 242q-26 30 -26 53v4q0 33 75 33z" />
    <glyph glyph-name="a" unicode="a" horiz-adv-x="1056" 
d="M902 91q0 -71 -128 -71q-35 0 -74.5 27.5t-55.5 27.5t-102 -40.5t-158 -40.5h-22q-114 0 -174 69t-60 168v23q0 211 275 310q41 15 115.5 34.5t101.5 33.5q65 34 65 102.5t-49 105t-121 36.5t-161 -59t-129 -59q-74 0 -74 72t127.5 126.5t245.5 54.5h25q161 0 253 -92
q73 -73 73 -227q0 -35 -5 -92l-10 -115q-10 -153 -10 -205t26 -108t26 -81zM678 457q0 40 -33 40h-10q-132 0 -258 -88q-87 -61 -87 -148v-12q0 -53 36.5 -80.5t74.5 -27.5h25q91 0 181 80q65 58 65 158l3 25l3 37v16z" />
    <glyph glyph-name="b" unicode="b" horiz-adv-x="1126" 
d="M181 1354q0 57 38.5 77.5t98.5 20.5t83 -22t23 -98q0 -5 -11.5 -137t-11.5 -192.5t63 -60.5q3 0 64.5 11t128 11t137.5 -36.5t119 -97.5q93 -118 93 -324t-118 -353.5t-281 -147.5h-22q-51 0 -130.5 26.5t-93 26.5t-42.5 -9t-61 -9t-54 31.5t-22 98.5l14 186
q10 153 10 215l1 23q1 24 1 48l2 48l1 47l3 117l2 93l3 114q0 120 -3.5 147t-19 75t-15.5 71zM645 859h-24q-39 0 -93 -33q-138 -84 -138 -383v-93q0 -219 151 -219h26q36 0 84.5 29t90.5 104q65 116 65 274v44q0 119 -47.5 198t-114.5 79z" />
    <glyph glyph-name="c" unicode="c" horiz-adv-x="984" 
d="M901 848v-17q0 -30 -23.5 -52.5t-48 -22.5t-108 48.5t-167.5 48.5q-109 0 -182.5 -107.5t-73.5 -266.5t72 -244.5t185 -85.5q71 0 167 41.5t122 41.5q40 0 40 -40q0 -61 -113 -127.5t-235 -66.5h-46q-82 0 -159.5 35.5t-129.5 95.5q-106 121 -106 312v23q0 97 34 194
q75 213 265 296q87 38 205 38t210 -42t92 -102z" />
    <glyph glyph-name="d" unicode="d" horiz-adv-x="1150" 
d="M814 1144.5q0 79.5 -12 143t-12 69.5q0 42 39.5 69t111.5 27h21q42 0 57.5 -26.5t15.5 -114t-43 -500.5t-43 -491t14.5 -132.5t14.5 -66.5q0 -78 -136 -78q-26 0 -72.5 20.5t-60 20.5t-103.5 -35t-163 -35q-138 0 -220 109.5t-82 255.5v50v5q0 98 37 205q77 223 259 313
q78 38 191 38l75 -3q69 0 90 38.5t21 118zM503 144h24q45 0 97.5 35t75.5 79q66 125 66 330v61q-3 33 -3 50q0 82 -48.5 130.5t-116.5 48.5h-8q-102 0 -175.5 -118t-73.5 -293v-55q0 -129 49.5 -198.5t112.5 -69.5z" />
    <glyph glyph-name="e" unicode="e" horiz-adv-x="1032" 
d="M913 198q0 -61 -122 -127t-247 -66h-45q-73 0 -149 32q-147 61 -208 220q-32 85 -32 174v23q0 106 42 210q82 205 273 290q98 44 218.5 44t207.5 -80.5t87 -202.5v-21q0 -94 -77 -135q-44 -24 -244 -48.5t-223 -30.5q-84 -23 -84 -93q0 -109 87 -182q61 -51 171 -51
q60 0 173 44.5t139 44.5q33 0 33 -45zM751 682v27q0 71 -54 113t-112 42h-19q-18 -3 -31 -3q-82 0 -148 -85t-66 -134v-11q0 -23 39 -23h47l6 1l128 10l89 9l23 2q98 0 98 52z" />
    <glyph glyph-name="f" unicode="f" horiz-adv-x="730" 
d="M260 -65q-65 0 -86 12q-38 22 -38 94q0 25 26 93q60 160 60 469q0 113 -14.5 149.5t-36 71.5t-21.5 63.5t50 104t86 179.5q100 288 362 288q83 0 122.5 -26t39.5 -47v-18q0 -25 -22.5 -47.5t-64.5 -22.5l-112 15q-60 0 -100.5 -55.5t-40.5 -142t79 -134t79 -82.5
t-69.5 -74.5t-90.5 -98.5q-61 -174 -61 -536l3 -121q0 -67 -42.5 -100.5t-107.5 -33.5z" />
    <glyph glyph-name="g" unicode="g" horiz-adv-x="1149" 
d="M504 -395h-30q-121 0 -229 51t-108 115t65 64q21 0 127.5 -34t180.5 -34q112 0 185.5 89t73.5 215q0 22 -9 22q-9 -1 -42 -15q-90 -39 -184.5 -39t-168.5 45.5t-117 113.5q-81 127 -81 359q0 99 30 189q63 189 217 260q77 36 150 36h26q66 0 139 -31l92 -39l11 6l23 15
q21 11 59 11q75 0 75 -95q0 -53 -22 -169t-32 -194.5t-10 -240.5l9 -244q0 -305 -248 -417q-86 -39 -177 -39h-5zM529 202h23q32 0 81 30q139 85 139 371v21q0 138 -41.5 203t-128.5 65h-16q-104 0 -184 -150q-44 -83 -44 -218l-1 -21v-21q0 -126 49.5 -203t122.5 -77z" />
    <glyph glyph-name="h" unicode="h" horiz-adv-x="1145" 
d="M771 620q0 198 -124 198q-64 0 -117.5 -43t-85.5 -121q-50 -121 -50 -381l3 -138q0 -63 -42 -92.5t-103 -29.5t-82 25.5t-21 52.5v27q0 5 23.5 108t38 351t14.5 412t-2.5 192t-10.5 89q-7 55 -7 82v6q0 70 102 70q76 0 99 -33t23 -121l-14 -291q0 -52 37 -52
q11 0 92 28.5t151 28.5q135 0 211 -109q55 -78 55 -273l-7 -264q0 -40 10.5 -115t10.5 -83q0 -77 -30 -95.5t-93.5 -18.5t-88.5 43q-13 22 -13 134.5t10.5 248.5t10.5 164z" />
    <glyph glyph-name="i" unicode="i" horiz-adv-x="579" 
d="M219 1276v32q3 12 3 20q0 43 34 71t82 28h37q78 0 78 -55q3 -9 3 -11l2 -19v-28q0 -43 -25.5 -78.5t-68.5 -35.5q-12 -3 -16 -3l-21 -2h-16l-31 4q-61 0 -61 77zM206 661v66q0 53 -27.5 109t-27.5 88q0 69 187 69h12q38 0 51 -26t13 -107l-8 -139l-5 -70q-4 -56 -4 -70
l-3 -42q-5 -70 -5 -97l-1 -27v-27q0 -103 9.5 -134.5t27.5 -70t18 -59.5v-10q0 -102 -196 -102h-36q-29 0 -53.5 21t-24.5 47v23q0 24 16.5 69.5t30 129.5t13.5 149l5 70q7 98 7 126z" />
    <glyph glyph-name="j" unicode="j" horiz-adv-x="584" 
d="M247 1304l2 21q0 39 30 69t73 30l25 3h25q83 0 83 -87v-17q0 -62 -28.5 -96t-71.5 -34q-12 -3 -16 -3l-25 -2h-8q-90 0 -90 79v33zM227 517q3 57 3 145.5t-29.5 153t-29.5 96t37.5 52.5t124.5 21h16q41 0 65.5 -37t24.5 -100v-91q0 -298 -40 -688q-17 -161 -52.5 -257.5
t-119.5 -159.5t-194 -63h-17q-57 0 -79 22t-22 51t25.5 52t79.5 31.5t88 30.5q115 73 115 655v10z" />
    <glyph glyph-name="k" unicode="k" horiz-adv-x="1080" 
d="M175 1387q0 41 29 54.5t102 13.5t96 -42q12 -22 12 -112l-8 -131q-18 -297 -18 -417t32 -120q64 0 215 198q38 50 67 72q55 43 177 43q58 0 58 -36q0 -23 -99.5 -111t-134.5 -137.5t-35 -103.5t157 -273q42 -59 108.5 -127t66.5 -98t-97 -30h-31q-81 0 -127 42
q-8 7 -125 193.5t-149.5 186.5t-48.5 -50.5t-16 -193.5q0 -72 -41.5 -111t-107 -39t-92.5 16t-27 77q0 20 16 113t22.5 230.5t19.5 357t13 303.5t-11 133l-7 26l-6 25q-10 41 -10 48z" />
    <glyph glyph-name="l" unicode="l" horiz-adv-x="598" 
d="M185 1389q0 70 148 70q74 0 92 -24.5t18 -70t-8.5 -153t-15.5 -240.5l-3 -39l-1 -19l-3 -38l-12 -246l-2 -38l-3 -128q0 -140 10 -190.5t34 -99t24 -70.5q0 -49 -37 -72.5t-144 -23.5h-16q-58 0 -84.5 28t-26.5 70v14q0 7 6.5 57t14.5 149l3 36l1 17l3 37l1 18l8 94l2 39
q31 403 31 494l3 56v53q0 68 -21.5 143.5t-21.5 76.5z" />
    <glyph glyph-name="m" unicode="m" horiz-adv-x="1666" 
d="M1526 184q0 -140 -103 -140h-25q-47 0 -59 70q-24 135 -24 351l2 85q0 129 -42 188.5t-110 59.5q-93 0 -137 -110q-67 -169 -67 -387l1 -36q2 -47 2 -71q0 -78 -59 -114q-34 -21 -112 -21t-96 22t-18 48q1 26 17 112t16 279t-26.5 242.5t-104.5 49.5q-42 0 -101.5 -48.5
t-86.5 -121t-47 -296.5t-30 -259t-65.5 -35t-87.5 40.5t-32 90.5v36l7 36l10 34l9 34q11 43 23.5 248t29.5 299q11 61 60 61q28 0 82.5 -31t88.5 -31t109.5 30.5t155 30.5t142.5 -35q13 -7 49.5 -38t45 -31t121.5 66t195 66q139 0 205 -112q49 -83 49 -269q0 -29 -2 -86
l-3 -85q0 -48 3 -80l5 -36q10 -65 10 -72v-34z" />
    <glyph glyph-name="n" unicode="n" horiz-adv-x="1153" 
d="M276.5 953q60.5 0 106.5 -48t52 -48t113.5 56t185.5 56q149 0 216 -98q46 -66 46 -281l-5 -222q0 -81 7.5 -110.5t19 -63t11.5 -52.5v-17q0 -37 -27 -56t-123 -19q-52 0 -70 34.5t-18 111.5l-2 48l1 163q0 262 -30 331q-41 94 -131 94q-64 0 -116.5 -37t-83.5 -102
q-67 -140 -67 -473q0 -93 -18 -123q-34 -56 -99 -56h-22q-57 0 -83 18.5t-26 64.5q0 48 20 102q42 113 43 372l-2 50v75l4 139q0 51 18.5 71t79 20z" />
    <glyph glyph-name="o" unicode="o" horiz-adv-x="1118" 
d="M532 -3h-46q-63 0 -130 29.5t-116 86.5q-101 118 -101 305v17l1 17q0 110 40 218q79 216 267 310q80 40 173 40h30q77 0 150 -35t119 -95q93 -120 93 -295v-16q0 -235 -123 -389q-68 -86 -160.5 -139.5t-196.5 -53.5zM541 125h18q97 0 167.5 120t70.5 280v57
q0 127 -53 215.5t-132 88.5h-36q-90 0 -161.5 -121.5t-71.5 -289.5v-34q0 -127 53 -221.5t145 -94.5z" />
    <glyph glyph-name="p" unicode="p" horiz-adv-x="1137" 
d="M196 -397q-107 0 -107 77q0 29 21 85.5t34.5 133.5t45.5 378t32 399.5t-4 121.5t-13.5 60.5t-9.5 43.5q0 70 118 70q32 0 82 -19.5t60.5 -19.5t87.5 36.5t141 36.5h20q130 0 227 -107.5t97 -259.5v-50q0 -133 -49 -243q-95 -215 -269 -283q-78 -31 -181.5 -31
t-142.5 -29.5t-39 -99.5q0 -33 14.5 -94t14.5 -93.5t-35 -72.5t-103 -40h-42zM401 342q0 -98 43 -148.5t115 -50.5h8l8 1q44 0 90.5 30t80.5 90q73 130 73 302v21q0 128 -48 203t-111 75h-33q-37 0 -89 -35q-134 -89 -134 -355l-2 -20l-1 -31v-82z" />
    <glyph glyph-name="q" unicode="q" horiz-adv-x="1140" 
d="M910 988q74 0 74 -133q0 -15 -18 -193t-19 -409l-2 -48q-1 -24 -1 -48l-1 -24q-1 -24 -1 -47l-2 -69q0 -134 7 -163t25 -71.5t18 -73.5q0 -101 -150 -101h-21q-46 0 -82 22.5t-36 65.5q0 8 25.5 105t25.5 148t-27.5 73t-91.5 22q-9 0 -49 -5t-100.5 -5t-130 34t-113.5 89
q-100 126 -100 312v26q0 219 127 373q56 68 137 107.5t145 39.5h22q72 0 145 -30t90 -30t48 16.5t56 16.5zM507 147h24q42 0 92.5 32.5t80.5 85.5q61 108 61 266l2 22q2 22 2 32v84q0 219 -170 219l-9 -1q-41 0 -89.5 -29t-86.5 -94q-74 -126 -74 -287v-34q0 -130 50 -213
t117 -83z" />
    <glyph glyph-name="r" unicode="r" horiz-adv-x="810" 
d="M123 103q0 18 31.5 110.5t33 215t1.5 139.5l1 18v35q0 61 -15 154t-15 102q0 46 31.5 66t99.5 20t92.5 -18.5t35 -52t28.5 -33.5q3 0 79.5 53t134.5 53h15q38 0 63.5 -20.5t25.5 -54.5v-13q0 -48 -36 -66q-17 -8 -80.5 -13t-106.5 -20.5t-81 -71.5q-75 -108 -75 -374
q0 -43 9 -112.5t9 -91.5q0 -60 -55 -98q-33 -23 -111 -23h-34q-81 0 -81 81v15z" />
    <glyph glyph-name="s" unicode="s" horiz-adv-x="908" 
d="M484 1002q311 0 311 -142q0 -83 -54 -83q-16 0 -109 49t-160 49t-108.5 -33t-41.5 -86t59 -96q16 -11 159 -79.5t188 -115.5q73 -75 73 -170v-24q0 -55 -30 -111t-80 -93q-99 -73 -232 -73h-26q-163 0 -256.5 42t-93.5 121v21q0 71 64 71q5 0 106.5 -65t184 -65t128.5 38
t46 97t-67 108q-32 23 -163 84.5t-187 125t-56 167.5t92.5 183.5t226.5 79.5h26z" />
    <glyph glyph-name="t" unicode="t" horiz-adv-x="747" 
d="M112 917q0 39 41 56q71 29 84 47.5t29.5 86.5t41.5 111t72 43h14q34 0 48 -26.5t22.5 -95.5t35 -99t93 -47.5t66.5 -44.5v-13q0 -53 -91 -81t-112 -83q-42 -112 -42 -379q0 -133 31 -175.5t113.5 -54t82.5 -54.5t-36 -65q-60 -37 -142 -37h-39q-214 0 -214 320l15 354
q0 101 -14.5 126t-56.5 48.5t-42 62.5z" />
    <glyph glyph-name="u" unicode="u" horiz-adv-x="1141" 
d="M361 413q0 -264 152 -264q72 0 128.5 44t84.5 102q65 133 65 460q0 123 24.5 159t88 36t80.5 -18t17 -54v-23l-22 -423l1 -23q1 -23 2 -47l1 -24q3 -46 3 -49l13 -155q0 -94 -144 -94q-45 0 -77 36.5t-50 36.5t-63 -26t-97 -49.5t-123 -23.5h-26q-60 0 -118.5 31
t-91.5 82q-52 79 -52 261l12 332q0 58 -6 80.5t-19.5 60t-13.5 45.5v18q0 40 92 40t120 -40t28 -205z" />
    <glyph glyph-name="v" unicode="v" horiz-adv-x="1029" 
d="M78 905q0 43 28 56t114.5 13t118.5 -69q11 -23 27.5 -106.5t46.5 -203.5q83 -331 113 -331t160 328q40 101 51 137.5t27 107t20 78.5q32 63 133 63q71 0 71 -55v-15q0 -34 -47.5 -117t-145 -303.5t-184.5 -378.5q-54 -98 -122 -98t-105 67q-7 13 -58 173t-78 251
t-54 164.5t-71.5 129.5t-44.5 94v15z" />
    <glyph glyph-name="w" unicode="w" horiz-adv-x="1500" 
d="M172 969h30q88 0 123 -89q13 -32 28 -126q69 -436 119 -437q36 0 119 251q16 48 48.5 169t45.5 146q38 70 108 70t97 -56q5 -10 66 -296t91 -286q39 0 124 246q27 78 61 200t37 128q35 76 118 76q50 0 50 -76q0 -115 -258 -708q-61 -140 -129 -140h-25q-50 0 -99 95
q-33 64 -98.5 275.5t-77.5 211.5t-92 -196.5t-131.5 -284t-100.5 -87.5q-82 0 -120 104q-8 21 -38.5 146t-53.5 209t-69 197.5t-46 162t24.5 72t48.5 23.5z" />
    <glyph glyph-name="x" unicode="x" horiz-adv-x="1046" 
d="M933 73q0 -63 -156 -63q-93 0 -125 42q-9 12 -30 62.5t-31 70.5q-79 161 -101.5 161t-113.5 -147q-25 -40 -48.5 -92.5t-29.5 -60.5q-31 -41 -120 -41h-24q-74 0 -74 34q0 8 160.5 202.5t160.5 248.5t-118 233q-42 64 -90.5 117t-48.5 83.5t24 41.5q44 21 129 21t117 -33
q16 -17 34 -67l7 -20q4 -10 20 -43q68 -139 89 -139t74 83t73 130.5t31 58.5q26 28 113.5 28t87.5 -33q0 -4 -144.5 -183.5t-144.5 -245.5q0 -34 139 -252q31 -49 85.5 -109t54.5 -88z" />
    <glyph glyph-name="y" unicode="y" horiz-adv-x="1037" 
d="M250 972q91 0 122 -73q6 -14 19 -74.5t73.5 -284.5t75.5 -224q30 0 138 296q42 114 66 232l4 23l3 21q5 28 9 38q24 60 98 60h23q72 0 72 -63q0 -24 -46.5 -132.5t-180.5 -452.5t-210.5 -480t-148.5 -197t-149 -61h-25q-94 0 -94 56.5t94.5 94t154.5 119t60 167.5
t-97.5 363t-111.5 307q-72 154 -72 187t29.5 55.5t93.5 22.5z" />
    <glyph glyph-name="z" unicode="z" horiz-adv-x="980" 
d="M132 884q0 108 176 108h25l27 -1l134 -2l54 -2l161 -2q138 0 149 -3q34 -10 34 -39q0 -52 -51.5 -131t-264 -334t-212.5 -303q0 -30 123.5 -30t226 25t118.5 25q54 -1 54 -67q0 -123 -170 -123h-3h-131l-26 1l-54 1q-27 1 -54 1l-54 2q-27 1 -54 1l-54 1h-53
q-109 0 -125 5q-30 9 -30 50.5t44 108.5t267.5 343.5t223.5 309.5q0 23 -114 23t-203 -23.5t-110 -23.5q-54 0 -54 79z" />
    <glyph glyph-name="braceleft" unicode="{" horiz-adv-x="786" 
d="M276 44q0 9 11 121.5t11 176.5t-24.5 105.5t-84 76t-59.5 73t70 70t100 91.5t30 294t70 327q42 56 114.5 91.5t167.5 35.5q44 0 44 -19q0 -54 -81.5 -107.5t-107.5 -118.5t-26 -244t-29 -250t-57.5 -96t-62 -48t-33.5 -26.5t45 -42t64 -73.5q37 -67 37 -188
q0 -25 -8 -125t-8 -170t26 -110.5t86 -90.5t60 -98q0 -22 -41 -22h-23q-143 0 -217 87t-74 280z" />
    <glyph glyph-name="bar" unicode="|" horiz-adv-x="720" 
d="M392 -365h-56q-46 0 -46 116v41l1 20v164l1 41v102l1 61v143l1 61v204l1 40v102l1 20v82l1 61v61l1 61v41l1 61v41l1 62v40l1 21v41l2 122q0 75 48 75h56q46 0 46 -76v-183l-1 -21v-183l-1 -41v-102l-1 -40v-82l-1 -41v-81l-1 -41v-61l-1 -41v-103l-1 -61v-41l-1 -61v-62
l-1 -61v-41l-1 -61v-102l-1 -41v-61l-2 -121q0 -75 -48 -75z" />
    <glyph glyph-name="braceright" unicode="}" horiz-adv-x="782" 
d="M672 593q0 -36 -70.5 -72t-101 -94t-30.5 -238.5t-16 -260.5q-32 -158 -172 -219q-80 -35 -141 -35t-61 17v14q0 37 79 93t108 122t29 253t34 260t93 115l20 13q34 22 34 23q0 13 -46 52.5t-72 92.5t-26 178l17 248q0 96 -25.5 137.5t-87 93t-61.5 94.5q0 25 34 25h23
q69 0 134 -28.5t103 -79.5q57 -76 57 -226l-24 -303q0 -84 24.5 -127.5t84.5 -77.5t60 -70z" />
    <glyph glyph-name="asciitilde" unicode="~" horiz-adv-x="1190" 
d="M384 804h24q79 0 220 -79t201.5 -79t123 70.5t93.5 70.5q45 0 45 -48v-11q0 -84 -89.5 -159t-176.5 -75h-12q-77 0 -224 79.5t-206 79.5t-127.5 -72.5t-92.5 -72.5q-45 0 -45 47v12q0 75 100 169q72 68 166 68z" />
    <glyph glyph-name="uni00A0" unicode="&#xa0;" horiz-adv-x="658" 
 />
    <glyph glyph-name="exclamdown" unicode="&#xa1;" horiz-adv-x="675" 
d="M480 1042v-35q0 -48 -25 -78t-66 -30l-8 -2l-9 -2l-22 -2h-36l-29 4q-58 0 -58 56q-2 8 -2 11l-1 16v7l1 4v8l5 31q0 24 23.5 52t74.5 28q10 2 13 2l23 2h13l5 -1l21 -1l24 -4q53 0 53 -66zM214 -226v22l1 12l3 68q2 24 2 35q0 275 63 737q9 69 67 69q43 0 50 -55
q15 -110 15 -470l3 -110v-24l1 -24v-36l1 -12v-24l1 -11v-48l1 -35v-45q0 -84 -23.5 -111.5t-91.5 -27.5h-10q-44 0 -63.5 17.5t-19.5 72.5z" />
    <glyph glyph-name="cent" unicode="&#xa2;" horiz-adv-x="1142" 
d="M601 377q0 -125 105 -125q20 0 87 19.5t97 19.5t30 -47t-125 -123q-83 -50 -122 -99q-73 -91 -96 -91t-36 24q-66 119 -156 203t-111 118q-68 109 -68 270v28q0 103 35.5 201t87.5 160.5t175.5 112t140 62.5t53 77t62.5 64t39 -37q34 -98 56 -123q87 -99 87 -148
q0 -69 -64 -69q-23 0 -66 20t-65 20q-55 0 -78 -90q-68 -261 -68 -447zM383 599v-37l1 -9l2 -36q2 -18 2 -27q0 -94 62 -177q33 -44 51 -44h5q35 0 35 104l3 40l3 31q12 96 12 125t30.5 191.5t30.5 167.5q0 38 -20 38h-12q-26 0 -73 -35t-89.5 -120.5t-42.5 -211.5z" />
    <glyph glyph-name="sterling" unicode="&#xa3;" horiz-adv-x="1173" 
d="M1046 123q0 -126 -200 -126q-92 0 -242 13t-265 13l-34 -1l-64 -3q-110 0 -110 62q0 46 64.5 127.5t80.5 114.5q43 89 43 207q0 51 -66 94t-66 77q0 8 63 100q28 41 54 197q47 274 243 361q93 41 195 41t198 -39.5t96 -101.5q0 -71 -75 -71q-11 0 -94 23t-145 23
q-97 0 -156.5 -93t-59.5 -212q0 -64 30.5 -94t125.5 -63.5t95 -75.5t-91.5 -76t-120.5 -72t-56 -138t-27 -146t30 -67t102.5 -21t188.5 13.5t163 13.5t73.5 -22.5t26.5 -57.5z" />
    <glyph glyph-name="currency" unicode="&#xa4;" horiz-adv-x="1205" 
d="M194 253q0 15 55 75.5t55 82t-25.5 91t-25.5 144.5t10.5 117t27.5 92t17 73.5t-54 83t-54 79t32.5 51t60.5 31.5q11 0 60.5 -49.5t72 -49.5t59 16t67 26t84.5 10t125.5 -24.5t75.5 -24.5q21 0 68 49t64.5 49t42.5 -25t25 -40.5t-55 -76t-55 -91.5q0 -5 16.5 -54.5
t24.5 -84t8 -104.5t-28 -162.5t-28 -99.5q0 -25 55.5 -86t55.5 -79t-31 -50t-61 -32q-12 0 -61 51t-72 51t-59 -16t-69.5 -27t-85 -11t-121.5 24t-82 24t-63 -49t-67.5 -49t-40.5 25t-24 40zM635 983h-32q-81 0 -151.5 -83t-70.5 -207v-30q0 -117 65 -199.5t157 -82.5h15
q102 0 166 90t64 191v49q0 114 -67 193t-146 79z" />
    <glyph glyph-name="yen" unicode="&#xa5;" horiz-adv-x="1206" 
d="M578 0q-140 0 -140 77q0 28 10 72t10 79q0 70 -106 129q-69 39 -69 60q0 31 83.5 62.5t83.5 60.5q0 52 -78 89t-78 72q0 17 39.5 62.5t39.5 98t-88.5 235t-88.5 214t33 58t79 26.5h33q94 0 115 -58q190 -535 192 -535q22 0 105 191t98 263.5t17 77.5q26 59 108.5 59
t82.5 -52v-21v-1q0 -28 -45 -97q-158 -244 -158 -378q0 -25 37.5 -71.5t37.5 -60.5q0 -29 -83.5 -71.5t-83.5 -89.5q0 -30 79.5 -64.5t79.5 -47.5q0 -22 -93 -85.5t-93 -124.5l14 -98q0 -62 -51.5 -96.5t-121.5 -34.5z" />
    <glyph glyph-name="brokenbar" unicode="&#xa6;" horiz-adv-x="751" 
d="M301 809v219l1 9v79q0 307 3 322q6 29 44 29h45q50 0 50 -67v-79l-1 -9v-149l-1 -9v-43q0 -316 -3 -331q-6 -30 -59 -30h-30q-49 0 -49 59zM402 -297h-60q-44 0 -44 100v8l1 9v246q0 308 3 323q6 31 51 31h45q43 0 43 -74v-62l-1 -9v-500l-1 -25q0 -47 -37 -47z" />
    <glyph glyph-name="section" unicode="&#xa7;" horiz-adv-x="1121" 
d="M885 594q0 -90 -42 -178t-42 -103.5t17.5 -56.5t28 -75t10.5 -95t-30.5 -119t-75.5 -95q-95 -78 -225 -78h-32q-113 0 -200 50t-87 105q0 69 63 69q24 0 92 -53t148.5 -53t130.5 44t50 114t-65 133q-4 4 -144 109t-189 173q-71 98 -71 224q0 67 47 150.5t47 94
t-17.5 51.5t-27.5 68t-10 95q0 107 91 190t229 83h34q120 0 212 -50t92 -111q0 -68 -70 -68q-17 0 -88 52.5t-148 52.5t-126.5 -40.5t-49.5 -99.5t51 -113q22 -23 169 -129q228 -163 228 -341zM779 469v14q0 63 -57 137t-213 202q-46 38 -60 38l-5 -1h-5q-13 0 -40.5 -34.5
t-27.5 -83.5v-23q0 -83 57.5 -165.5t181.5 -191.5q34 -30 60 -30h11q26 0 62 40t36 98z" />
    <glyph glyph-name="dieresis" unicode="&#xa8;" horiz-adv-x="900" 
d="M783 1365l-4 -43q0 -18 -25.5 -43.5t-81.5 -25.5h-4l-4 1l-27 3q-4 1 -6 1q-40 0 -40 35q-4 12 -4 16l-3 25v22l1 4v7l6 33q0 70 70 70q9 3 14 3l18 2h18q69 0 69 -49q2 -6 2 -10l2 -17v-30zM277 1253h-10l-4 1h-10q-15 3 -16 3q-46 0 -46 41l-4 17l-2 26v15l1 4v7l6 33
q0 27 22.5 49.5t53.5 22.5l18 3h28q67 0 67 -51q2 -6 2 -10l2 -18v-23l-2 -19l-4 -22q0 -30 -24.5 -54.5t-77.5 -24.5z" />
    <glyph glyph-name="copyright" unicode="&#xa9;" horiz-adv-x="1576" 
d="M806 1394h40q105 0 213 -52q109 -52 181 -140q152 -183 152 -468l-1 -23v-24q0 -133 -51 -269q-98 -262 -310 -364q-118 -57 -240 -57h-20q-120 1 -224 51q-228 110 -317 364q-40 114 -40 242v24q0 135 46 264t130.5 228.5t202 161.5t238.5 62zM831 1114q267 0 267 -155
q0 -38 -35 -38q-13 0 -80.5 46t-148.5 46q-105 0 -172 -104q-53 -82 -53 -225t65 -223t182 -80q52 0 121.5 38.5t86.5 38.5q38 0 38 -28q0 -54 -89.5 -105t-188.5 -51h-39q-71 0 -142 31.5t-124 90.5q-97 109 -97 268v41q0 78 31 158q59 151 194 216q74 35 146 35h38z
M759 82h52q86 0 184.5 49t172.5 139.5t113 204t39 227.5v20l-1 20q0 221 -140 393q-63 77 -154.5 124.5t-176.5 47.5h-51q-100 0 -199 -56q-192 -108 -274 -337q-39 -108 -39 -207v-60q0 -218 142 -393q62 -76 152 -124t180 -48z" />
    <glyph glyph-name="ordfeminine" unicode="&#xaa;" horiz-adv-x="759" 
d="M642 828v-12q0 -48 -102 -48q-24 0 -48.5 16.5t-30 16.5t-63 -22.5t-98.5 -22.5q-158 0 -158 164q0 80 61 135t154 83q138 41 138 91q0 91 -113 91q-39 0 -102 -35.5t-102.5 -35.5t-39.5 37v11q0 40 88 76t157 36h35q215 0 215 -202l-25 -278q0 -27 17 -52t17 -49z
M490 1052q0 21 -19 21h-6q-15 -5 -30 -5q-70 0 -127.5 -46t-57.5 -88v-20q0 -45 47 -45l7 -2h31q12 3 19 3q38 0 83.5 38t45.5 80q2 8 2 11l4 26v7l1 7v13z" />
    <glyph glyph-name="guillemotleft" unicode="&#xab;" horiz-adv-x="1058" 
d="M957 920q0 -47 -128 -192.5t-128 -173t116.5 -177t116.5 -201.5q0 -33 -40 -33h-9q-33 0 -160 152q-198 238 -198 255t173.5 213.5t215 196.5t41.5 -32v-8zM570 933q0 -48 -130 -204t-130 -173.5t119 -179t119 -203.5q0 -34 -41.5 -34t-169.5 153q-202 242 -202 258.5
t175.5 215.5t217.5 199t42 -32z" />
    <glyph glyph-name="logicalnot" unicode="&#xac;" horiz-adv-x="1230" 
d="M1108 227h-25q-66 0 -89 38t-23 189t-58 171q-32 11 -373 11t-368 5q-62 11 -62 81v27q0 28 28 28h14l14 -1l423 -2q473 0 493 -12q29 -17 29 -255v-31l1 -31v-31l1 -30q0 -2 4 -60l4 -57v-13q0 -27 -13 -27z" />
    <glyph glyph-name="uni00AD" unicode="&#xad;" horiz-adv-x="811" 
d="M651 637q54 0 54 -44v-7l-1 -7l-1 -23q0 -79 -45 -89q-22 -5 -258 -5h-16l-15 -1h-76l-31 -1h-105q-47 0 -47 37v36l1 7q0 78 46 89q26 6 266 6l167 2h61z" />
    <glyph glyph-name="registered" unicode="&#xae;" horiz-adv-x="1424" 
d="M708 1139h58q110 0 169 -50t59 -131t-50 -148.5t-50 -75.5t44 -90.5t71.5 -124.5t27.5 -59v-9q0 -22 -53 -22t-76 22t-79.5 120t-97.5 98q-67 0 -67 -83q0 -27 7.5 -63t7.5 -45q0 -55 -65 -55t-86 17.5t-21 47.5v14q0 7 7.5 33t9 39t1.5 97l19 343l-8 89q0 36 172 36z
M779 1392h36q193 0 328 -158q60 -71 100 -184t40 -230v-61q0 -241 -167 -422q-73 -78 -177 -128.5t-226 -50.5h-51q-87 0 -168.5 45.5t-143 120.5t-92.5 156.5t-31 193.5v41q0 278 180 494q75 90 174 136.5t198 46.5zM638 846q0 -42 23 -42h21l4 1l62 5l38 5q36 0 73 31
t37 61l3 26v4q0 39 -32 65.5t-96 26.5h-20l-5 -1h-5q-92 0 -92 -43q-2 -8 -2 -13l-2 -8l-3 -33v-8l-3 -36v-19l-1 -11v-11zM816 1300h-44q-80 0 -164 -40q-173 -83 -254 -294q-42 -109 -42 -214v-51q0 -84 34 -173q68 -181 216 -253q83 -40 165 -40l15 1h15q79 0 163 46
q84 44 148 124q133 166 133 375v3v35q0 190 -107 327q-59 75 -135 114.5t-143 39.5z" />
    <glyph glyph-name="macron" unicode="&#xaf;" horiz-adv-x="889" 
d="M820 1415v-37q0 -37 -27.5 -42.5t-269.5 -5.5h-362q-58 0 -58 40v15l1 7q0 45 30 51q20 4 343 4l42 1h236q65 0 65 -33z" />
    <glyph glyph-name="degree" unicode="&#xb0;" horiz-adv-x="887" 
d="M718 1207v-33q0 -91 -88 -172.5t-207 -81.5h-28q-105 0 -178 67t-73 174.5t92.5 185.5t202.5 78h19l10 -1q111 0 180.5 -69.5t69.5 -147.5zM570 1163v28q0 71 -43 114t-89 43h-10q-50 0 -92.5 -49.5t-42.5 -116.5v-28q3 -18 3 -28q0 -47 41 -88t84 -41h14q45 0 90 45
t45 121z" />
    <glyph glyph-name="plusminus" unicode="&#xb1;" horiz-adv-x="1237" 
d="M1135 725q0 -50 -28 -58.5t-195 -8.5t-179 -8q-23 -16 -23 -150t-12.5 -152.5t-74.5 -18.5h-18q-40 0 -47.5 17.5t-7.5 147.5t-15 146.5t-180.5 16.5t-186.5 4q-38 7 -38 50v16q0 50 33 59q19 5 189 5q170 1 186 13t16 146.5t12 153t76 18.5h19q40 0 47 -17t7 -155
t26 -152q12 -6 182.5 -6t191 -7t20.5 -44v-16zM221 131h849q57 0 57 -51v-9q0 -63 -38 -69q-20 -3 -480 -3h-333l-35 -1h-23q-90 0 -90 43v38q0 36 17 44t76 8z" />
    <glyph glyph-name="uni00B2" unicode="&#xb2;" horiz-adv-x="810" 
d="M670 768v-15q0 -60 -77 -60h-34l-18 1l-56 1h-38l-59 1q-259 0 -259 39q0 56 68 138q31 38 138 134t142 148.5t35 102.5t-31.5 81.5t-85.5 31.5t-122 -47t-97 -47q-37 0 -37 48.5t84.5 100.5t180.5 52h41q89 0 152 -58t63 -143.5t-47 -147.5t-175 -166t-128 -135
q0 -21 69 -21h7q76 1 94 1l148 16q42 0 42 -56z" />
    <glyph glyph-name="uni00B3" unicode="&#xb3;" horiz-adv-x="811" 
d="M454 1477q191 0 191 -164q0 -80 -93 -153q-32 -26 -32 -37q0 -3 50 -33q102 -61 103 -170q0 -107 -87 -173t-205 -66h-21q-92 0 -167.5 35.5t-75.5 81.5q0 41 50 41q22 0 89 -29t127 -29t101 39t41 95q0 110 -143 132q-78 12 -78 60q0 27 64.5 52t95.5 57.5t31 81.5
q0 74 -124 74q-41 0 -101 -25t-77 -25q-34 0 -34 45q0 40 83 75t170 35h42z" />
    <glyph glyph-name="acute" unicode="&#xb4;" horiz-adv-x="836" 
d="M678 1478v-8q0 -53 -244 -243q-60 -47 -110 -47h-27q-23 0 -23 14q0 23 38.5 67.5t79.5 103t67 80.5q61 53 121 53l11 2h32q55 0 55 -22z" />
    <glyph glyph-name="uni00B5" unicode="&#xb5;" horiz-adv-x="1153" 
d="M357 370v-4v-3q0 -247 141 -247q135 0 193 121q33 72 49 321.5t27 289t46.5 62.5t81 23t64 -34.5t18.5 -203.5l-1 -31q-1 -30 -1 -59l-5 -200q0 -120 20.5 -179.5t20.5 -75.5q0 -86 -97 -86q-48 0 -95.5 34t-65.5 34t-76.5 -30.5t-96.5 -45.5t-159 -15q-40 0 -53.5 -38
t-19.5 -148t-24 -150q-28 -61 -94 -61h-25q-41 0 -53 28.5t-12 91t11 178t20.5 324.5t9.5 319t-7.5 188.5t-7.5 122.5q0 67 72 67h28q57 0 82 -36t25 -130z" />
    <glyph glyph-name="paragraph" unicode="&#xb6;" horiz-adv-x="1204" 
d="M572 -211q-37 0 -37 284v152l2 78v78q0 145 -24.5 196t-101.5 106.5t-113 108.5q-65 95 -65 210v38q0 69 32 152q65 167 225 210q72 19 198 19h33q150 0 220 -19q41 -11 41 -52q0 -14 -20 -73.5t-29 -94t-9 -156t9.5 -237t9.5 -299.5l-7 -280q-5 -200 -5 -276
q0 -171 -49 -171q-44 0 -53 98q-3 32 -3 246l2 108v72l1 71v219l-1 38v75l-5 190q-3 113 -3 189t-12.5 86t-52 10t-45.5 -9t-6 -131l-2 -142q0 -492 -48 -965q-7 -65 -23 -97t-59 -32z" />
    <glyph glyph-name="periodcentered" unicode="&#xb7;" horiz-adv-x="653" 
d="M286 497q-58 0 -58 58q-2 10 -2 13l-2 22v18q0 74 28.5 114t103.5 40h9l4 -1h8l15 -2q62 0 62 -59l3 -17v-8l1 -14v-9l-1 -5v-14q-3 -20 -3 -23q0 -42 -25 -77t-70 -35q-8 -2 -13 -2l-16 -2h-21l-3 1h-8q-8 2 -12 2z" />
    <glyph glyph-name="cedilla" unicode="&#xb8;" horiz-adv-x="837" 
d="M335 -318q27 0 61 22.5t34 58.5t-48 60q-47 24 -47 52q0 59 45 119q16 21 54 21h15q20 0 20 -22l-11 -56q0 -9 58.5 -62.5t58.5 -100.5v-24q0 -64 -64 -108.5t-174 -44.5h-43q-72 0 -72 26v11q0 46 72 46q14 2 41 2z" />
    <glyph glyph-name="uni00B9" unicode="&#xb9;" horiz-adv-x="783" 
d="M442 682h-68q-68 0 -119 32q-20 13 -20 40t43 73t55 82.5t12 179t-18 176t-70 53t-52 42t34 39.5q142 71 188.5 71t55.5 -48q4 -22 4 -270t3.5 -262t42.5 -63.5t39 -78.5v-11q0 -17 -30.5 -36t-99.5 -19z" />
    <glyph glyph-name="ordmasculine" unicode="&#xba;" horiz-adv-x="786" 
d="M125 994v31q0 74 30.5 149.5t78.5 127.5q100 107 241 107h9q96 0 155 -64t59 -158v-41q0 -68 -28 -144.5t-74 -125.5q-105 -113 -237 -113h-30q-93 0 -148.5 65.5t-55.5 165.5zM428 1324h-21q-41 0 -77.5 -54.5t-36.5 -118.5q-3 -21 -3 -28l-2 -14v-67q0 -82 31 -138
t81 -56h11q57 0 90.5 67t33.5 155v61q0 82 -31 137.5t-76 55.5z" />
    <glyph glyph-name="guillemotright" unicode="&#xbb;" horiz-adv-x="1058" 
d="M555 935q0 31 39 31t169 -156q200 -240 200 -262.5t-180.5 -214.5t-207.5 -192h-9q-34 0 -34 26v7q0 45 131 202.5t131 173t-119.5 177.5t-119.5 208zM169 931q0 31 42.5 31t163.5 -155q196 -252 196 -260.5t-173.5 -205t-209.5 -196.5h-9q-34 0 -34 26v8q0 35 129 200.5
t129 167.5q0 29 -117 179.5t-117 204.5z" />
    <glyph glyph-name="onequarter" unicode="&#xbc;" horiz-adv-x="1639" 
d="M398 620h-22q-70 0 -103.5 26.5t-33.5 54t34.5 77.5t44 92t9.5 153.5t-20 152t-65.5 71.5t-45.5 33v5q0 23 38 42q148 74 184.5 74t45.5 -43q5 -24 5 -262l-1 -25v-25l-2 -63q0 -116 3 -138t33 -67t30 -78v-11q0 -23 -29.5 -46t-104.5 -23zM1251 1381h16q40 0 40 -19
q0 -7 -48 -87q-496 -826 -765 -1223q-41 -61 -93 -61t-52 19q0 6 93 161q568 947 729 1164q34 46 80 46zM1036 176q-37 0 -60 20t-23 58v11q0 63 304 448q47 59 94 59t59.5 -17.5t12.5 -71.5l-3 -40q-2 -27 -2 -40l-6 -95l-3 -40l-1 -27v-25q0 -71 14 -99t40.5 -44t26.5 -27
v-9q0 -60 -33 -80.5t-33 -37.5l2 -22v-23q0 -57 -22 -74.5t-89 -17.5h-24q-42 0 -42 76l7 62q0 9 -16 17q-72 36 -119 37.5t-84 1.5zM1056 279h82l4 1q101 0 119 15t18 163v9l1 5v10l5 52v10l2 18v27q0 3 -2 3q-12 0 -66 -85.5t-111.5 -153t-57.5 -70.5v-2q0 -2 6 -2z" />
    <glyph glyph-name="onehalf" unicode="&#xbd;" horiz-adv-x="1638" 
d="M408 621h-55q-56 0 -91 27.5t-35 57t33.5 75t43.5 88.5t10 155.5t-21.5 159t-66.5 69t-45 38.5q0 25 37 43q152 72 184 72q42 0 50 -55q4 -28 4 -253l-2 -64v-25l-2 -38q0 -100 5 -126t33.5 -71.5t28.5 -74.5v-10q0 -22 -27 -45t-84 -23zM1213 1385h16q48 0 48 -12.5
t-36 -72.5q-496 -826 -757 -1225q-53 -81 -106 -81t-53 15q0 45 782 1280q61 96 106 96zM1522 51q0 -63 -88 -63h-34l-18 1h-56l-38 1h-57q-246 0 -246 33v14q0 62 164 220.5t176 175.5q43 61 43 115.5t-34 84.5t-87.5 30t-117 -48t-95 -48t-31.5 51t84.5 102.5t181.5 51.5
h21q105 0 165.5 -60.5t60.5 -147t-68 -169.5q-23 -28 -151 -139t-128 -132t133 -21q45 0 92 4l78 7q50 0 50 -63z" />
    <glyph glyph-name="threequarters" unicode="&#xbe;" horiz-adv-x="1665" 
d="M400 621h-40q-88 0 -153.5 37.5t-65.5 78t52 40.5q22 0 85 -30.5t124 -30.5t100 39t39 95q0 108 -140 131q-79 13 -79 56q0 33 62 53q128 43 128 135q0 39 -33.5 59t-80.5 20t-106 -27.5t-84.5 -27.5t-25.5 30q0 51 74.5 89.5t170.5 38.5h40q86 0 139 -41t53 -120.5
t-88 -152.5q-30 -24 -30 -36q-1 -2 47 -31q99 -61 99 -171q0 -105 -85 -169q-86 -65 -202 -65zM1303 1381h16q48 0 48 -9.5t-47 -90.5q-385 -663 -765 -1223q-45 -66 -97.5 -66t-52.5 14q0 28 802 1294q51 81 96 81zM1382 771h22q41 0 53 -16t12 -72l-2 -27q-2 -27 -2 -40
l-3 -41q-3 -41 -3 -54l-3 -40q-2 -27 -2 -81q0 -98 53 -126q28 -15 28 -28v-9q0 -64 -32 -80t-32 -78t-22 -79.5t-102 -17.5h-12q-41 0 -41 76l8 63q0 7 -45 29.5t-91 24t-78 1.5q-88 0 -88 79v10q0 32 225 341q120 165 157 165zM1334 586q0 6 -3 6q-11 0 -75 -102
t-112 -150t-48 -54.5t6 -6.5h82l5 1q103 0 119.5 16.5t16.5 161.5l3 33v10l1 5v9l5 60v11z" />
    <glyph glyph-name="questiondown" unicode="&#xbf;" horiz-adv-x="1008" 
d="M490 890q-42 0 -42 81l1 4v17q3 20 3 21q0 41 27.5 73.5t72.5 32.5q12 3 17 3l21 2h17l30 -4q50 0 50 -48l3 -19v-33l-4 -29q0 -49 -33 -76.5t-75 -27.5l-21 -3h-33q-24 6 -34 6zM535 718q51 0 72 -32t21 -100q0 -128 -136 -264q-86 -86 -125 -147.5t-39 -137t48 -123.5
t123.5 -48t170.5 53t116 53q68 0 68 -72.5t-114 -135t-241 -62.5h-20q-150 0 -254 92.5t-104 228.5v20q0 93 48 171.5t156.5 176.5t133 133t31.5 114.5t45 79.5z" />
    <glyph glyph-name="Agrave" unicode="&#xc0;" horiz-adv-x="1353" 
d="M446 1777v12q0 27 75 27l5 -1q80 0 129 -43t163 -189q31 -40 31 -58v-4q0 -11 -20 -11h-20q-69 0 -129 47q-234 182 -234 220zM1078.5 67q-78.5 0 -106.5 44q-4 6 -27.5 143t-55.5 176q-47 57 -197 57q-222 0 -262 -43q-57 -60 -91 -275q-10 -63 -18 -75q-22 -34 -83 -34
h-23q-49 0 -87 40t-38 80q0 2 70.5 130t228 529t165.5 417q53 99 148 99q52 0 87.5 -27.5t67.5 -92.5q1 -1 151 -436t200 -509.5t50 -100.5q0 -66 -76 -108q-25 -14 -103.5 -14zM821 582v14q0 34 -68.5 291.5t-72.5 257.5h-3q-2 0 -92 -270.5t-90 -291.5v-6q0 -15 44 -15
h214q68 0 68 20z" />
    <glyph glyph-name="Aacute" unicode="&#xc1;" horiz-adv-x="1352" 
d="M580 1527v7q0 20 29 53q152 174 169 187q62 48 144 48h5q70 0 70 -26v-8q0 -50 -247 -223q-69 -48 -135 -48h-11q-24 0 -24 10zM1077.5 66q-80.5 0 -110.5 43q-2 3 -28 147.5t-70 186t-222.5 41.5t-217.5 -43q-54 -59 -90 -274q-9 -55 -12 -63q-18 -47 -86 -47h-22
q-43 0 -68 22q-56 48 -56 90.5t39 93.5q91 121 307 706q81 219 109 277t64.5 86.5t88.5 28.5t87.5 -28.5t56 -71t122.5 -348.5t192 -539q21 -54 56 -103t35 -88t-63 -91q-31 -26 -111.5 -26zM820 584v13q0 42 -68 297.5t-72.5 255.5t-95 -272t-90.5 -294v-5q0 -15 57 -15
h209q60 0 60 20z" />
    <glyph glyph-name="Acircumflex" unicode="&#xc2;" horiz-adv-x="1349" 
d="M710 1811h17q50 0 93 -39q198 -182 198 -235v-5q0 -13 -63.5 -13t-124.5 61q-101 101 -119.5 101t-61.5 -43t-62 -59q-73 -62 -138 -62h-8q-42 0 -42 15q0 46 215 243q39 36 96 36zM1252 194q0 -48 -62 -100q-29 -24 -111 -24t-112 44q-4 6 -28 143t-56 177
q-47 57 -197 57q-224 0 -264 -43q-57 -61 -91 -276q-10 -64 -18 -76q-22 -35 -84 -35t-89 22q-56 46 -56 87t63.5 130t293.5 694q75 200 103 256q54 108 152 108q97 0 152 -114q28 -58 80 -218q209 -639 284 -748q40 -57 40 -84zM559 564h147q109 0 109 27q0 42 -68.5 299.5
t-72.5 257.5h-3q-2 0 -14 -38t-34 -104l-10 -32q-18 -58 -21.5 -67t-21.5 -67l-10 -32q-1 -4 -10 -31l-10 -32l-2 -7l-23 -71l-4 -16l-15 -45q-7 -16 -7 -20v-6q0 -16 70 -16z" />
    <glyph glyph-name="Atilde" unicode="&#xc3;" horiz-adv-x="1348" 
d="M571 1766h25q41 0 135.5 -44.5t127 -44.5t75 42.5t79.5 42.5t37 -34q0 -70 -79 -137q-54 -46 -108 -46h-26q-48 0 -135 46t-124.5 46t-83.5 -46t-67 -46h-23q-28 0 -28 24v16q0 57 67 119t128 62zM1252 198q0 -62 -76 -108q-25 -15 -78 -15q-104 0 -133 43
q-2 4 -26.5 142.5t-55.5 176.5q-47 58 -197 58q-223 0 -263.5 -43t-74.5 -190q-13 -54 -19 -99t-16 -62q-21 -35 -81 -35h-23q-47 0 -86.5 39.5t-39.5 78.5q0 14 56 106q55 92 157 340t153 392q91 258 158 310q37 29 89 29t89 -27.5t65 -88t84.5 -233t146 -413t100.5 -263.5
t41 -65t30 -73zM787.5 571q26.5 0 26.5 18v6q0 78 -127 522q-10 35 -13 35h-3q-2 0 -92 -270.5t-90 -297.5q0 -16 50 -16h201q21 3 47.5 3z" />
    <glyph glyph-name="Adieresis" unicode="&#xc4;" horiz-adv-x="1349" 
d="M960 1763q49 0 49 -46q2 -6 2 -10l2 -14v-34q0 -45 -21.5 -77.5t-64.5 -32.5l-22 -3h-29q-62 0 -62 45q-2 6 -2 10l-2 13v30l3 23l5 22q0 26 24 50t58 24l15 3h28q12 -3 17 -3zM549 1769q71 0 71 -70v-21l-1 -4l-3 -26q-1 -4 -1 -21t-21.5 -44t-55.5 -27l-3 -1l-4 -1
l-32 -3h-3l-4 1h-10q-15 3 -16 3q-40 0 -40 36q-3 9 -3 13l-2 17v33l5 29q0 34 23.5 57.5t52.5 23.5l33 5h14zM1254 192q0 -63 -77 -108q-26 -15 -103 -15t-108 44q-2 3 -26.5 142t-55.5 177q-47 58 -197 58q-222 0 -262 -42q-57 -60 -91 -279q-10 -63 -18 -75
q-22 -35 -83 -35h-23q-49 0 -87 40t-38 76.5t36 86t73.5 119t193 466.5t163.5 412q54 101 150 101t153 -120q37 -78 113.5 -327t196.5 -541q24 -58 57 -104t33 -76zM541 567h208q68 0 68 27q0 13 -63 265t-67 272t-11 20h-3q-1 0 -91 -270t-90 -293v-5q0 -16 49 -16z" />
    <glyph glyph-name="Aring" unicode="&#xc5;" horiz-adv-x="1347" 
d="M721 1816h39q69 0 116.5 -41.5t47.5 -89.5v-21q-2 -12 -2 -16q0 -50 -66.5 -96.5t-139.5 -46.5h-33q-69 0 -116.5 41.5t-47.5 83.5v27q0 59 64 109t138 50zM1263 163q0 -48 -76 -87q-35 -18 -109 -18t-101 27t-27 114q0 176 -70 246q-46 46 -182 46q-224 0 -269 -49
q-26 -29 -56 -128.5t-30 -165t-25.5 -84t-80.5 -18.5h-23q-43 0 -86.5 35.5t-43.5 61t57 106t164 346t153 394.5t98.5 232t140.5 103q52 0 88.5 -26.5t68.5 -90.5q6 -11 156 -445.5t201.5 -506.5t51.5 -92zM802 1681q0 33 -20 58t-29.5 26t-13.5 1l-10 2h-8l-19 -4
q-13 0 -37 -30t-24 -66v-28q0 -30 20 -56.5t30.5 -27.5t12.5 -1l11 -2h8l18 4q14 0 36 27.5t22 50.5l3 21v25zM569 558h152q93 0 93 21v6q0 95 -121 518q-10 35 -14.5 35t-20.5 -59t-86.5 -271t-70.5 -234q0 -16 68 -16z" />
    <glyph glyph-name="AE" unicode="&#xc6;" horiz-adv-x="1828" 
d="M1634 1218q-5 0 -76.5 11.5t-215.5 11.5t-184 -58q-51 -74 -51 -217q0 -71 28 -99t79 -28t111 12.5t66 12.5q49 0 85.5 -35.5t36.5 -110t-22.5 -99.5t-47 -25t-87.5 16.5t-115 16.5q-103 0 -146.5 -41.5t-43.5 -167.5t46 -172t129 -46t215.5 30.5t136.5 30.5
q70 0 70 -86.5t-111 -113t-440 -26.5h-44q-118 0 -171 36q-25 17 -25 30t17 83t17 150t-39 106.5t-112 26.5q-171 0 -239 -66q-44 -42 -121.5 -197.5t-122 -155.5t-85 29t-40.5 83q0 35 104 174.5t337 630.5q49 102 88.5 213t59.5 131q43 43 136 57t281 14h48l48 -1
q281 0 370.5 -23t89.5 -89q0 -49 -60 -49zM882 1197q0 33 -13 33q-20 0 -80 -113q-228 -428 -228 -479q0 -13 105 -13h65q24 3 58.5 3t51.5 19.5t17 69.5v58l2 25l3 43l2 33q4 32 4 41l2 32l1 9l1 8l3 59v16l1 17v16l1 8v17l4 83v15z" />
    <glyph glyph-name="Ccedilla" unicode="&#xc7;" horiz-adv-x="1338" 
d="M1227 1146q0 -95 -52 -95q-8 0 -98 70t-129 92q-95 53 -199.5 53t-184.5 -49q-226 -138 -226 -537q0 -257 105.5 -394t296.5 -137q102 0 233 69q206 109 212 109q38 0 38 -39t-28 -83q-54 -85 -151 -142q-135 -79 -312 -85q13 -11 13 -41q0 -19 52.5 -66.5t52.5 -97.5
v-22q0 -62 -60.5 -111.5t-157.5 -49.5h-16l-8 1q-115 0 -115 33v13q0 43 84 43q53 0 86.5 21.5t33.5 55.5t-36 62t-36 55q0 84 39 104q-241 12 -398 184q-169 185 -169 489v36q0 320 180 526t483 206q61 0 195.5 -24t170 -46t68.5 -84.5t33 -118.5z" />
    <glyph glyph-name="Egrave" unicode="&#xc8;" horiz-adv-x="1216" 
d="M472 1818q72 0 131 -51.5t158 -183.5q27 -36 27 -54v-4q0 -13 -19 -13h-20q-66 0 -141 58q-219 170 -219 214v8q0 24 51 24l11 2h21zM787 897q108 0 108 -154q0 -96 -26.5 -126t-81.5 -30l-28 6l-55 16q-49 13 -126.5 13t-115.5 -30.5t-38 -114.5q0 -178 48 -257
q34 -58 160 -58q177 0 289 34t127 34q41 0 41 -53q0 -101 -90 -135q-59 -22 -255 -22h-78q-275 0 -437 38q-76 18 -76 70q0 24 36.5 87.5t48.5 139.5q39 252 39 497t-37 336q-7 17 -27 53.5t-20 48.5q0 57 88 72q209 36 477 36h114q125 0 164.5 -33t39.5 -95t-53 -62
q-10 0 -102.5 24.5t-264.5 24.5q-99 0 -139 -53q-61 -81 -61 -239q0 -52 29 -77.5t102 -25.5t127.5 17.5t72.5 17.5z" />
    <glyph glyph-name="Eacute" unicode="&#xc9;" horiz-adv-x="1216" 
d="M555 1514h-16q-20 0 -20 12v4q0 16 67.5 102.5t130.5 135.5t149 49l5 -1q63 0 63 -22v-8q0 -35 -243 -224q-62 -48 -136 -48zM781 18h-117q-258 0 -434 42q-74 18 -74 70q0 25 37 87t51 138q43 232 43 443t-16.5 291.5t-44.5 132t-28 59.5q0 51 56 66q179 48 503 48h76
q133 0 177 -19q67 -29 67 -109q0 -58 -53 -58q-6 0 -56 14q-127 36 -310 36q-99 0 -139 -53q-65 -87 -65 -237q0 -51 28.5 -77t102.5 -26t124.5 15.5t69.5 15.5q59 0 90 -57q16 -29 16 -112.5t-26.5 -113.5t-79.5 -30q-3 0 -64 15.5t-141 15.5t-117.5 -31.5t-37.5 -116.5
q0 -177 50 -255q37 -58 165 -58q186 0 294.5 36t120.5 36q40 0 40 -51q0 -83 -61 -120t-247 -37z" />
    <glyph glyph-name="Ecircumflex" unicode="&#xca;" horiz-adv-x="1216" 
d="M786 897q109 0 109 -152q0 -96 -26 -126.5t-81 -30.5q-2 0 -66.5 17.5t-143 17.5t-117 -30t-38.5 -113q0 -183 47 -258q38 -60 164 -60q174 0 283.5 34.5t129.5 34.5q42 0 42 -52q0 -102 -88 -135q-61 -23 -254 -23h-78q-263 0 -437 38q-77 17 -77 69q0 24 36 88t48 139
q39 248 39 457t-14 284t-42 133.5t-28 60.5q0 54 56 68q171 42 545 42l38 -1q139 0 177 -16q66 -28 66 -101.5t-53 -73.5q-7 0 -55 14q-129 37 -303 37h-9q-101 0 -140 -53q-62 -85 -62 -241q0 -52 29.5 -77.5t103 -25.5t131.5 17.5t68 17.5zM647 1811h25q50 0 91 -38
q196 -180 196 -230v-5q0 -13 -65 -13q-66 0 -165 99q-6 6 -38 32.5t-35 26.5t-99.5 -81.5t-165.5 -81.5h-7q-41 0 -41 15v5q0 41 202 226q49 45 102 45z" />
    <glyph glyph-name="Edieresis" unicode="&#xcb;" horiz-adv-x="1211" 
d="M862 1764h17q66 0 66 -53l3 -20v-23l-4 -30q0 -38 -25 -63t-50 -25q-9 -3 -14 -3l-17 -2h-18q-74 0 -74 66v37l4 26q0 42 29 66t83 24zM509 1762q46 0 46 -65v-26l-2 -18l-4 -22q0 -26 -20.5 -52t-54.5 -26l-3 -1l-4 -1l-28 -3h-11q-69 0 -69 49l-3 16v7l-1 15l1 3l3 30
q1 4 1 7q0 38 24.5 62.5t58.5 24.5l15 3h31q12 -3 20 -3zM783 897q108 0 108 -155q0 -94 -27 -124.5t-83 -30.5l-28 6l-56 16q-49 12 -126 12t-115.5 -32t-38.5 -114q0 -182 48 -257q38 -59 183 -59t260 34t134 34q41 0 41 -54q0 -100 -91 -134q-59 -22 -256 -22h-78
q-291 0 -438 38q-74 19 -74 71q0 27 37 90.5t48 137.5q39 252 39 462t-16 287.5t-42.5 131t-26.5 56.5q0 54 59 67q187 42 548 42h38q139 0 177 -17q66 -29 66 -112q0 -62 -55 -62q-7 0 -73 16t-120 24.5t-164 8.5t-149 -54q-62 -85 -62 -240q0 -52 29.5 -77.5t101 -25.5
t129 18t73.5 18z" />
    <glyph glyph-name="Igrave" unicode="&#xcc;" horiz-adv-x="707" 
d="M502 1515h-10l-5 1q-70 0 -120 39q-242 188 -242 237v4q0 25 48 25l10 2h27q72 0 144 -63q18 -16 142 -175q30 -39 30 -53v-4q0 -13 -24 -13zM181 1320q0 46 45 71.5t163 25.5h35q153 0 153 -70q0 -42 -36.5 -90.5t-54.5 -119.5q-20 -79 -20 -264l-2 -41l-2 -82l-1 -21
l-4 -163l-1 -21v-40l-1 -21v-41q0 -118 9.5 -165t43.5 -97.5t34 -86.5t-43.5 -59.5t-125.5 -23.5h-89q-81 0 -108.5 24.5t-27.5 45.5v15q0 25 35.5 75t53 114t17.5 185l3 61l1 62l4 144l2 61q1 21 1 42l3 123q0 143 -11.5 190.5t-43.5 95.5t-32 71z" />
    <glyph glyph-name="Iacute" unicode="&#xcd;" horiz-adv-x="707" 
d="M596 1823h10q65 0 65 -28q0 -42 -249 -236q-57 -44 -127 -44h-21q-19 0 -19 13v4q0 17 24 44q167 191 174 197q57 50 143 50zM272 965q0 140 -9.5 186t-42.5 95t-33 76q0 95 191 95h52q71 0 110.5 -19t39.5 -53t-37.5 -89t-55.5 -121t-18 -244q-2 -40 -2 -61l-2 -41
l-1 -41l-3 -102l-2 -82l-2 -62v-41q0 -139 10 -186.5t43 -94t33 -75.5q0 -95 -188 -95h-54q-69 0 -109 19t-40 53v15q0 24 33.5 71t52.5 102.5t19 180.5l3 62q2 41 2 61l6 206l2 83l2 61v41z" />
    <glyph glyph-name="Icircumflex" unicode="&#xce;" horiz-adv-x="712" 
d="M394 1812h16q52 0 99 -43q190 -174 190 -227v-5q0 -14 -60 -14t-125 60q-108 99 -121 99t-100.5 -80t-157.5 -80h-8q-41 0 -41 15v5q0 42 211 235q38 35 97 35zM189 1319q0 96 190 96h53q150 0 150 -71v-15q0 -24 -36.5 -75.5t-54 -115.5t-17.5 -187l-2 -41
q-1 -21 -1 -40l-2 -41q-2 -41 -2 -62l-6 -204l-2 -102q0 -140 11 -186.5t44 -96t33 -72.5q0 -96 -170 -96h-89q-64 0 -98.5 21t-34.5 50v15q0 25 35.5 75t52.5 111.5t17 166.5q5 100 5 123l2 82l2 41l1 41l3 102l2 103q0 160 -10 206.5t-43 96.5t-33 75z" />
    <glyph glyph-name="Idieresis" unicode="&#xcf;" horiz-adv-x="711" 
d="M497 1690q0 22 24.5 46.5t58.5 24.5l15 3h32l24 -4q42 0 42 -70v-18l-1 -4l-3 -27q-1 -4 -1 -7q0 -43 -29.5 -66.5t-76.5 -23.5h-18q-67 0 -67 40l-5 31v33q5 20 5 42zM231 1766q68 0 68 -46l3 -14v-7l1 -10v-15q0 -126 -106 -126h-25q-18 6 -31 6q-33 0 -33 40
q-2 6 -2 10l-2 17v22l2 19l4 22q0 31 23.5 54.5t55.5 23.5q6 2 10 2l18 2h14zM188 1330q0 43 68 70q38 15 135 15h36q156 0 156 -83q0 -32 -35.5 -79.5t-54 -115t-18.5 -202.5l-4 -102l-1 -41l-1 -21l-3 -123q-1 -21 -1 -41l-3 -122q0 -161 7.5 -206t43 -101.5t35.5 -87.5
q0 -85 -201 -85h-36q-157 0 -157 83q0 30 38.5 84.5t54.5 134.5t16 257l4 144l2 62q1 21 1 41l3 124q0 161 -7.5 206t-42.5 103t-35 86z" />
    <glyph glyph-name="Eth" unicode="&#xd0;" horiz-adv-x="1453" 
d="M1272 809v-55q0 -353 -191 -555q-92 -98 -218.5 -148.5t-344.5 -50.5h-22l-23 1h-45q-231 0 -231 44q1 7 29 65q71 142 71 455v9q0 47 -65 68t-65 73t53 73q71 28 83 53t12 167t-11.5 195.5t-32 95.5t-20.5 63q0 50 165 50l224 5q153 0 255.5 -31t191 -114t137 -207.5
t48.5 -255.5zM500 1048q0 -163 42 -203q21 -20 106 -32.5t109.5 -27t24.5 -61t-24.5 -58t-118.5 -25.5t-118 -52q-53 -85 -53 -356v-15q0 -38 30 -51t112 -13t172 41q183 83 265 307q45 124 45 226v42q0 196 -156 365q-53 57 -135 94t-185 37h-17q-74 0 -89 -20.5t-15 -92.5
q5 -85 5 -105z" />
    <glyph glyph-name="Ntilde" unicode="&#xd1;" horiz-adv-x="1454" 
d="M433 1562v23q0 61 66 121.5t130.5 60.5t153.5 -47t124.5 -47t83 47.5t72.5 47.5l8 -1q37 0 37 -25l-1 -7v-8q0 -60 -65.5 -120.5t-129 -60.5t-152 47t-125.5 47t-84.5 -47.5t-73.5 -47.5h-8q-36 0 -36 17zM1092 393q19 0 19 360t-4 401.5t-14 93.5t-10 68q0 41 41.5 62
t103 21t88.5 -30t27 -57t-31 -118t-36.5 -159t-19.5 -479.5t-18 -432.5q-12 -66 -56 -66q-103 0 -200 124q-46 59 -300 464.5t-275 405.5q-35 0 -35 -208l-3 -132l-1 -132q0 -155 5 -208.5t16 -113t11 -106.5t-64.5 -84.5t-144.5 -37.5t-80 59q0 6 41.5 76t48.5 158
q20 240 20 537.5t-6 327.5t-22 79t-16 67q1 42 69 42q149 0 264 -121q45 -47 296.5 -454t285.5 -407z" />
    <glyph glyph-name="Ograve" unicode="&#xd2;" horiz-adv-x="1475" 
d="M513 1788v8q0 29 70 29h6l5 -1q82 0 136 -47t158 -186q31 -41 31 -62q0 -13 -25 -13h-16q-72 0 -129 44q-236 184 -236 228zM768 1442h59q91 0 181 -48q176 -94 251 -320q41 -126 41 -261v-71q0 -147 -44 -284q-90 -283 -278 -395q-120 -71 -234 -71h-40q-102 0 -191 43
q-183 88 -260 324q-42 129 -42 261v71v6q0 141 45 282q95 300 312 410q103 53 200 53zM423 706v-54q0 -240 91 -380q90 -139 232 -139h2q142 0 241 160q40 65 70 180.5t30 237.5v54q0 226 -86 373t-236 147h-3q-73 0 -132 -43q-124 -89 -178 -297q-31 -120 -31 -239z" />
    <glyph glyph-name="Oacute" unicode="&#xd3;" horiz-adv-x="1476" 
d="M646 1529v8q0 15 68.5 103t130.5 136t135 48h27q59 0 59 -28v-5q0 -53 -235 -217q-79 -55 -140 -55h-21q-24 0 -24 10zM792 1441h39q99 0 193 -53q94 -52 155 -142q123 -180 123 -457l-1 -23v-24v-6q0 -136 -43 -273q-87 -281 -282 -403q-115 -72 -235 -72h-59
q-90 0 -180 45q-181 90 -256 339q-36 120 -36 242v47q0 325 171 560q79 109 187 164.5t224 55.5zM733 133h26q58 0 124 42t114 130q93 172 93 406v72q0 224 -91 363t-218 139h-14q-142 0 -243 -161q-42 -68 -72 -183.5t-30 -234.5v-54q0 -230 89 -376q39 -65 98 -104
t124 -39z" />
    <glyph glyph-name="Ocircumflex" unicode="&#xd4;" horiz-adv-x="1472" 
d="M777 1815h16q53 0 94 -38q198 -182 198 -234v-5q0 -14 -58.5 -14t-128.5 59q-116 98 -122.5 98t-99.5 -79t-155 -79h-15q-41 0 -41 15v6q0 54 202 225q54 46 110 46zM785 1441h20q103 0 195 -45q180 -87 257 -323q41 -123 41 -260v-47q0 -337 -181 -570
q-77 -98 -181.5 -150.5t-218.5 -52.5l-20 1h-19q-96 0 -186 48q-189 100 -259 354q-31 113 -31 243v24q0 158 45.5 304.5t127 255t188 163.5t222.5 55zM1084 711v54q0 241 -91 380t-218 139h-13q-139 0 -236 -149q-46 -71 -77.5 -188.5t-31.5 -240.5v-54q0 -240 96 -387
q41 -64 98.5 -97.5t115.5 -33.5h26q62 0 124.5 41.5t106.5 117.5q100 171 100 418z" />
    <glyph glyph-name="Otilde" unicode="&#xd5;" horiz-adv-x="1473" 
d="M638 1771h26q49 0 134 -45t125 -45t80 44t78 44t38 -24v-8q0 -66 -66 -126.5t-136 -60.5l-9 1q-58 0 -143 45t-122.5 45t-82 -44.5t-80.5 -44.5t-36 24v16q0 57 66 118t128 61zM737 -9h-40q-227 0 -361 182q-133 182 -133 468v24v7q0 155 45 298q89 288 301 411
q108 62 218 62h59q91 -1 185 -49q189 -97 259 -359q29 -108 29 -220v-71v-6q0 -134 -43 -271q-91 -294 -300 -414q-108 -62 -219 -62zM1084 696v90q0 214 -88 358t-220 144h-13q-75 0 -142.5 -48t-113.5 -137q-89 -171 -89 -412v-18q0 -237 82 -382q42 -74 103 -114.5
t124 -40.5h27q62 0 123 42q121 82 177 296q30 116 30 222z" />
    <glyph glyph-name="Odieresis" unicode="&#xd6;" horiz-adv-x="1473" 
d="M877 1612v37q0 54 24.5 84.5t65.5 30.5l15 3h29q71 0 71 -68v-38l-4 -26q0 -38 -25 -63t-58 -25l-14 -3h-8l-11 -1h-3l-4 1q-78 0 -78 68zM591 1769h35q12 -3 16 -3q46 0 46 -69v-18l-1 -4l-3 -26q-1 -4 -1 -21t-21.5 -44t-55.5 -27q-10 -3 -14 -3l-21 -2h-11
q-66 0 -66 39l-5 30v29l5 33q0 35 25.5 60.5t71.5 25.5zM777 1442h39q94 0 185 -44q167 -81 247 -295q50 -136 50 -278v-71q0 -153 -47 -305t-131 -256q-166 -206 -411 -206q-342 0 -464 376q-39 120 -39 263v24l1 24q0 155 45 297q94 297 307 413q106 58 218 58zM1086 712
v72q0 224 -90.5 362.5t-217.5 138.5h-27q-47 0 -105 -32q-125 -68 -186 -277q-39 -130 -39 -251v-90q0 -212 89 -358q40 -66 98 -104.5t122 -38.5h27q68 0 133.5 50t109.5 134q86 165 86 394z" />
    <glyph glyph-name="multiply" unicode="&#xd7;" horiz-adv-x="1253" 
d="M988 214q-31 0 -194.5 144t-168.5 144q-13 0 -176 -143t-186 -143t-51.5 27.5t-28.5 42.5t162 157.5t162 154.5t-158 146t-158 167q0 12 36 46t51 34q32 0 194.5 -143t168 -143t173.5 142.5t189.5 142.5t49.5 -28t28 -45.5t-161.5 -154.5t-161.5 -156q0 -11 158.5 -145.5
t158.5 -167.5q0 -12 -36.5 -45.5t-50.5 -33.5z" />
    <glyph glyph-name="Oslash" unicode="&#xd8;" horiz-adv-x="1491" 
d="M1259 1246q0 -2 40.5 -132t40.5 -221v-79q0 -144 -55 -306t-156 -281.5t-224.5 -171.5t-277.5 -52q-42 0 -127.5 19t-117.5 19t-79.5 -41.5t-80 -41.5t-32.5 43q0 23 39.5 84.5t39.5 88.5t-21.5 85t-40.5 123t-19 210.5t48 299t141 273t218.5 187t272.5 67.5
q65 0 142 -15l23 -5l43 -11q42 -9 68.5 -9t75 37.5t63.5 37.5h15q31 0 31 -33t-35 -89t-35 -86zM377 639v-51q0 -135 35 -193q8 -13 13 -13t53 68.5t65.5 95.5t22.5 34l21 30q13 21 102 148t118 164q185 234 185 261v9q0 24 -45 57.5t-103 33.5h-33q-180 0 -318 -203
q-48 -70 -82 -192t-34 -249zM1156 764v52q0 129 -35 199q-11 21 -18.5 21t-173.5 -237t-279.5 -388.5t-113.5 -171.5q0 -37 50.5 -69.5t112.5 -32.5h33q88 1 168 51q160 100 218 312q38 136 38 264z" />
    <glyph glyph-name="Ugrave" unicode="&#xd9;" horiz-adv-x="1408" 
d="M819 1517q-57 0 -138 63q-203 158 -203 207v8q0 19 53 19h26q76 0 147 -62q176 -154 176 -223q0 -14 -25 -14h-20q-12 2 -16 2zM1042 1320q0 36 39 58t104.5 22t98.5 -26.5t33 -64.5t-33 -101.5t-41.5 -108.5t-17 -378t-64 -459.5t-175 -196t-267.5 -69.5
q-422 0 -498 340q-21 93 -21 216t2 198l1 37q2 49 2 74l3 111q1 37 1 96t-30.5 122.5t-30.5 97t35 73.5t86 40q107 0 152 -26t45 -78q0 -9 -14 -61q-48 -178 -48 -651q0 -164 24 -235.5t60 -117.5q74 -95 248 -95q91 0 162.5 50t107.5 133q60 138 60 588q0 228 -12 316
t-12 96z" />
    <glyph glyph-name="Uacute" unicode="&#xda;" horiz-adv-x="1409" 
d="M970 1818h10q59 0 59 -25q0 -42 -233 -223q-67 -52 -140 -52h-21q-24 0 -24 14q0 59 196 231q63 55 153 55zM272 1403q195 0 195 -104q-1 -16 -13 -60q-49 -171 -49 -598v-17q0 -172 20 -252q40 -162 163 -211q57 -23 148 -23t164 51.5t108 132.5q61 142 61 625
q0 207 -12.5 276.5t-12.5 103t39 55.5t104 22t97.5 -26t32.5 -63.5t-32.5 -100.5t-41 -105.5t-15 -291.5t-18.5 -366q-29 -267 -221 -381q-120 -71 -268 -71q-420 0 -498 341q-20 89 -20 301l1 38q2 75 5.5 204.5t3.5 188t-30.5 122t-30.5 80.5q0 53 34.5 91t85.5 38z" />
    <glyph glyph-name="Ucircumflex" unicode="&#xdb;" horiz-adv-x="1408" 
d="M496 1522h-23q-34 0 -34 14v6q0 39 202 224q48 44 107 44h8l8 -1q48 0 92 -40q199 -182 199 -225v-5q0 -11 -58.5 -11t-126.5 62q-105 96 -112 96t-104 -82t-158 -82zM1043 1323q0 79 156 79h31q31 0 58 -32.5t27 -65.5t-32 -95t-38 -93t-20 -381.5t-65.5 -473
t-173.5 -193.5t-280 -71q-431 0 -493 376q-13 78 -13 190.5t2 187.5l3 74q1 25 1 75l4 146q0 80 -31 144.5t-31 97.5t35.5 73.5t87.5 40.5q107 0 151.5 -26.5t44.5 -78.5q-1 -12 -13 -57q-12 -44 -20 -86q-28 -139 -29 -570q0 -244 79 -344q43 -55 101 -78.5t151 -23.5
t164.5 50.5t107.5 133.5q59 138 59 588q0 228 -12 316t-12 97z" />
    <glyph glyph-name="Udieresis" unicode="&#xdc;" horiz-adv-x="1408" 
d="M1049 1657l-3 -22q0 -44 -31 -68.5t-80 -24.5h-7l-4 1h-10q-15 3 -17 3q-49 0 -49 69v30l5 29q0 35 22.5 57.5t51.5 22.5q10 3 14 3l18 2h25l26 -4q37 0 37 -42l3 -20v-32zM658 1695v-26q0 -122 -103 -122h-32l-22 4q-43 0 -43 69v22l4 29q0 40 25 65t60 25l7 2h7l8 1h24
l22 -4q43 0 43 -65zM1045 1323q0 78 159 78q51 0 83 -27.5t32 -66t-32.5 -101t-41 -107t-17 -377t-63 -462t-177.5 -199t-271 -69.5q-421 0 -497 344q-20 90 -20 263l9 411q0 103 -7 124.5t-30.5 66t-23.5 84t35 78t89 38.5q105 0 149.5 -26t44.5 -81q0 -9 -14 -62t-20 -84
t-17 -190t-11 -321.5t16 -252.5q32 -173 171 -228q55 -22 147 -22t164 52t107 134q60 142 60 627q0 190 -12 270t-12 106z" />
    <glyph glyph-name="Yacute" unicode="&#xdd;" horiz-adv-x="1271" 
d="M600 1520h-16q-25 0 -25 13v4q0 64 194 234q61 53 152 53h5q65 0 65 -26v-4q0 -62 -241 -223q-77 -51 -134 -51zM744 400q0 -102 26.5 -195.5t26.5 -94.5q0 -48 -62 -84q-36 -21 -116 -21h-25q-59 0 -98 19t-39 54t23.5 86t39 122.5t15.5 222.5q0 80 -46 186t-132.5 290
t-103.5 210q-82 129 -82 146q0 41 31 57.5t97 16.5h25q101 0 145 -46q25 -26 25 -120.5t145 -397.5q28 -58 36 -58q33 0 130 219.5t97 307.5q0 53 38 73t146 20q71 0 71 -39v-17q0 -33 -59 -104.5t-115 -182.5q-176 -344 -184 -363q-55 -121 -55 -307z" />
    <glyph glyph-name="Thorn" unicode="&#xde;" horiz-adv-x="1239" 
d="M971 1065q121 -107 121 -292t-120 -309q-62 -64 -131.5 -94t-168 -51t-111.5 -29q-70 -41 -70 -92q0 -7 8.5 -29t8.5 -53t-54 -62t-128 -31h-42q-121 0 -121 54q0 35 36.5 96t48.5 141q46 296 46 652q0 154 -10 194t-34 91t-24 86q0 60 112 60h21q90 0 139 -34t49 -83
l-7 -42q0 -38 60 -57q8 -3 96 -13t152 -30.5t123 -72.5zM513 476h49q24 3 43 3q122 0 211.5 82t89.5 201v46q0 87 -60.5 136.5t-157.5 49.5h-52q-97 0 -126.5 -21t-29.5 -86l-3 -26q-8 -68 -8 -95l-3 -35q-2 -18 -2 -26l-3 -35q-2 -16 -2 -26l-3 -34l-2 -34l-2 -16l-1 -33
q0 -51 62 -51z" />
    <glyph glyph-name="germandbls" unicode="&#xdf;" horiz-adv-x="1183" 
d="M168 14q-59 0 -59 39q0 29 27.5 83.5t38 137t10.5 230t-5 199.5l-8 72q-6 54 -6 72q0 74 44.5 235t96 224t132.5 105t202.5 42t211.5 -64q114 -81 114 -219q0 -87 -55 -177q-96 -158 -96 -171q0 -52 85 -133.5t129.5 -155t44.5 -164.5v-39q0 -50 -29.5 -116t-86.5 -116
q-106 -92 -265 -92q-49 0 -88 21.5t-39 71.5q0 35 106.5 55t157.5 75.5t51 158.5q0 27 -22.5 81.5t-109.5 131.5q-131 115 -131 187q0 54 80 173t80 206q0 49 -37.5 93t-108.5 44t-130 -50.5t-86 -156.5q-52 -200 -52 -814q0 -146 -33 -197q-47 -72 -164 -72z" />
    <glyph glyph-name="agrave" unicode="&#xe0;" horiz-adv-x="1071" 
d="M361 1449h26q71 0 120 -43t116 -143.5t67 -111.5v-7q0 -10 -23 -10h-21q-64 0 -127 55q-216 189 -216 231v4q0 25 58 25zM410 1q-256 0 -256 247q0 228 277 324q32 11 107.5 31.5t104.5 35.5q57 29 57 91t-44 101.5t-118 39.5t-166 -50t-146 -50t-54 62.5t119 119
t253 56.5h25q74 0 141.5 -25.5t107.5 -70.5q68 -75 68 -226q0 -42 -15 -177t-15 -209t26 -124t26 -77t-29.5 -50t-76.5 -23t-89.5 24t-56 24t-102 -37t-144.5 -37zM693 424v33q0 30 -31 30h-20q-134 0 -235 -70.5t-101 -152.5v-29q0 -32 30 -62t82 -30h20q92 0 171.5 70.5
t79.5 180.5q4 24 4 30z" />
    <glyph glyph-name="aacute" unicode="&#xe1;" horiz-adv-x="1071" 
d="M476 1135h-26q-21 0 -21 12v4q0 18 32 59q131 168 149 184q65 57 137 57h33q52 0 52 -23v-8q0 -50 -227 -227q-75 -58 -129 -58zM886 688q0 -41 -16 -185t-16 -207t26.5 -118t26.5 -78.5t-30 -47t-74.5 -23.5t-92.5 24t-63.5 24t-96 -37t-141.5 -37h-21q-114 0 -174 66
q-60 65 -60 193q0 211 278 309q30 11 45 15l69 18q73 22 99 35q56 29 56 90.5t-45.5 102t-116.5 40.5t-164 -50.5t-129 -50.5q-72 0 -72 66t125 119.5t245 53.5h25q161 0 249 -96q68 -75 68 -226zM692 458q0 30 -30 30h-21q-144 0 -239.5 -74t-95.5 -160v-6
q0 -47 31.5 -74.5t74.5 -27.5h32q106 0 185 89q59 66 59 160q2 12 2 19l2 11v33z" />
    <glyph glyph-name="acircumflex" unicode="&#xe2;" 
d="M800 1143h-15q-59 0 -125 66q-105 105 -111 105t-99 -85.5t-151 -85.5h-8l-7 1q-40 0 -40 14q0 59 207 249q41 38 95 38h8l8 -1q55 0 103 -52q179 -195 179 -231v-5q0 -13 -44 -13zM876 692q0 -41 -15 -176t-15 -207t26 -126t26 -78.5t-28 -47.5t-75 -23t-93 24t-63 24
t-96.5 -36.5t-143.5 -36.5h-20q-115 0 -175.5 67.5t-60.5 194t102 213.5q68 58 174 94q17 6 100 28.5t112 37.5q58 30 58 90t-44.5 100t-118.5 40t-166 -50t-129 -50q-71 0 -71 66q0 59 119.5 116t253.5 57h25q164 0 249 -95q69 -76 69 -226zM682 434v21q0 35 -32 35h-21
q-125 0 -248 -82q-85 -57 -85 -146v-17q0 -43 31.5 -70.5t80.5 -27.5h19q12 2 18 2q96 0 166.5 79.5t70.5 205.5z" />
    <glyph glyph-name="atilde" unicode="&#xe3;" 
d="M401 1392h25q55 0 135 -45t120.5 -45t82 45t66.5 45h15q34 0 34 -27l-1 -8v-8q0 -59 -64 -118t-126 -59h-17q-54 0 -136 46t-121 46t-83.5 -44.5t-78.5 -44.5t-34 19v15q0 49 74 130q49 53 109 53zM898 108.5q0 -24.5 -29.5 -47.5t-77 -23t-92 24t-61.5 24t-96.5 -36.5
t-142.5 -36.5h-21q-114 0 -174 65q-60 64 -61 192q0 213 277 309q21 7 100.5 29t110.5 37q57 29 57 90.5t-44.5 101.5t-118 40t-161 -50t-149.5 -50q-53 0 -53 62.5t120.5 118.5t251.5 56h26q145 0 231.5 -78t86.5 -220l-32 -420q0 -55 26 -109t26 -78.5zM681 435v27
q0 29 -31 29h-20q-126 0 -229.5 -69t-103.5 -152v-29q0 -40 34 -65.5t83 -25.5h6q21 3 31 3q89 0 174 96q56 63 56 186z" />
    <glyph glyph-name="adieresis" unicode="&#xe4;" 
d="M791 1385q44 0 44 -42q2 -6 2 -10l2 -17v-23l-2 -19l-4 -22q0 -32 -22.5 -54.5t-52.5 -22.5l-3 -1l-4 -1l-29 -3h-11q-67 0 -67 37q-4 12 -4 16l-2 21v18l1 4v7l6 33q0 77 73 77l29 5h24q12 -3 20 -3zM263 1317.5q0 17.5 21.5 44.5t57.5 27q6 2 10 2l18 2h17q20 -5 29 -5
q39 0 39 -67v-18l-1 -4l-3 -26q-1 -4 -1 -7q0 -38 -25.5 -63.5t-74.5 -25.5h-24l-28 5q-35 0 -35 37q-2 6 -2 10l-2 10v32l3 25q1 4 1 21.5zM895 120v-17q0 -27 -31 -50t-76.5 -23t-90 24t-61.5 24t-97.5 -37t-141.5 -37h-20q-106 0 -170.5 60t-64.5 162v46q0 201 278 301
q28 10 45 15l23 6q114 31 145 47q57 29 57 89.5t-44 101.5t-119 41t-166 -49.5t-146.5 -49.5t-55.5 59.5t96 110.5q129 68 289 68q331 0 331 -323q0 -37 -16 -184.5t-16 -203t9.5 -82.5t26 -56t16.5 -43zM650 488h-21q-15 -3 -23 -3q-113 0 -226 -79q-85 -60 -85 -151v-6
q0 -43 29.5 -72.5t82.5 -29.5h19q12 2 18 2q95 0 164 78t69 175q2 12 2 18l2 23q0 45 -31 45z" />
    <glyph glyph-name="aring" unicode="&#xe5;" horiz-adv-x="1057" 
d="M338 1308q0 73 68 120.5t143 47.5h14q83 0 135 -46.5t52 -108.5l-1 -6q0 -69 -63.5 -118.5t-140.5 -49.5h-27q-70 0 -124 42t-54 91l-2 11v17zM839 283q0 -63 27 -117t27 -79t-31.5 -48.5t-75.5 -23.5t-89.5 24.5t-61 24.5t-96.5 -37t-144 -37h-20q-105 0 -170.5 59
t-65.5 162v23q0 142 102 229q64 54 176 95q9 3 102 30.5t111 37.5q56 31 56 92.5t-46 101.5t-118.5 40t-162 -51t-146.5 -51t-57 62t120.5 119.5t251.5 57.5h26q147 0 232 -79.5t85 -221.5q0 -56 -16 -203t-16 -210zM458 1321v-29l4 -23q0 -19 24 -43t47 -24h14q31 0 57 33
t26 70v25l-4 24q0 19 -24 43t-52 24h-3l-23 -4q-16 0 -41 -31t-25 -65zM676 445q0 34 -31 34h-20q-12 -2 -18 -2q-128 0 -236 -84q-80 -62 -80 -147v-6l1 -6q0 -38 29 -67t81 -29h13l6 1q111 0 181.5 79t70.5 182l2 12l1 22v11z" />
    <glyph glyph-name="ae" unicode="&#xe6;" horiz-adv-x="1578" 
d="M893 380q0 -92 68 -145.5t149 -53.5t191.5 40.5t134.5 40.5q37 0 37 -38q0 -63 -105 -116.5t-223 -53.5h-35q-161 0 -284 95q-57 43 -70.5 43t-84 -46t-137 -67t-169 -21t-189 64t-86.5 179q0 60 36 121q79 134 298 181q36 8 102.5 18t90.5 18q53 19 53 70t-45 90.5
t-117.5 39.5t-161 -52t-127.5 -52q-49 0 -49 63q0 55 114 103.5t223.5 48.5t183.5 -29q18 -7 56.5 -29t58.5 -22t64 20q136 62 213 63h35q169 0 278.5 -100t109.5 -242q0 -86 -70.5 -114t-358.5 -36q-88 -3 -126 -12q-58 -14 -58 -69zM929 620h48l6 1l99 5q141 0 186 15
q28 9 28 42v6l-1 5v15q-2 10 -2 15q0 45 -46 91t-108 46h-36q-12 -2 -18 -2q-56 0 -123.5 -67.5t-67.5 -142.5v-5q0 -24 35 -24zM674 439q0 42 -42 42h-17q-15 -3 -30 -3q-99 0 -210 -74q-76 -51 -76 -139v-17q0 -40 29 -69t68 -29l12 -2h25l6 1q81 0 152.5 62.5t71.5 125.5
q6 34 6 41l1 5l1 6l2 23v11l1 10v6z" />
    <glyph glyph-name="ccedilla" unicode="&#xe7;" horiz-adv-x="1018" 
d="M882 237q34 0 34 -47q0 -68 -124 -135t-222 -67h-9q13 -8 19 -34q10 -38 57 -75.5t47 -96.5v-14l-1 -8q0 -61 -60 -110t-148 -49h-32q-24 3 -38 3q-77 0 -77 33v12q0 44 90 44q54 0 82 25t28 53t-35.5 55.5t-35.5 67t26 80.5q6 10 18 14q-175 8 -296 145
q-108 124 -108 325v26q0 220 132 370q59 67 141 107t171 40h69q122 0 215.5 -56.5t93.5 -122.5v-19q0 -81 -52.5 -81t-137 67t-178.5 67q-50 0 -100 -30q-141 -83 -141 -344q0 -150 69 -240t200 -90q61 0 169 42.5t134 42.5z" />
    <glyph glyph-name="egrave" unicode="&#xe8;" 
d="M427 1448q64 0 109 -52q170 -194 170 -244v-7q0 -10 -27 -10h-16q-54 0 -125 55q-219 170 -219 231v4q0 26 66 26h16q15 -3 26 -3zM933 176q0 -65 -121 -117t-239 -52q-318 0 -421 255q-35 88 -35 178v24q0 111 42.5 209t109 166.5t166 113t194.5 44.5h21q132 0 213 -81
t81 -198v-41q0 -89 -67 -122q-41 -20 -242 -38.5t-251 -35.5q-71 -24 -71 -87q0 -97 73.5 -170.5t188.5 -73.5q74 0 180.5 35.5t126.5 35.5q51 0 51 -45zM379 622h35l6 1l130 6q214 0 214 36v22q0 72 -52.5 124.5t-129.5 52.5h-26q-86 0 -155.5 -69.5t-69.5 -140.5v-16
q0 -16 48 -16z" />
    <glyph glyph-name="eacute" unicode="&#xe9;" 
d="M449 1145v8q0 17 36 63q130 167 146 181q61 53 129 53h37q54 0 54 -23v-7q0 -25 -233 -232q-60 -53 -119 -53h-27q-23 0 -23 10zM944 719v-40q0 -91 -68 -122q-42 -19 -237 -37t-236 -31q-88 -27 -88 -92q0 -110 77.5 -177t181.5 -67q65 0 180 35.5t125 35.5q51 0 51 -44
q0 -60 -97 -107q-128 -62 -270 -62h-24q-202 0 -321 142q-99 117 -99 311q0 93 36.5 191t105.5 174t172 121t197 45h42q119 0 195.5 -83t76.5 -193zM763 675v11l-1 6q0 76 -55.5 124.5t-123.5 48.5h-32q-73 0 -147 -65.5t-74 -154.5v-5q0 -22 55 -22h30l6 1l284 12l21 2
q37 0 37 42z" />
    <glyph glyph-name="ecircumflex" unicode="&#xea;" 
d="M577 1445h16q48 0 79 -28.5t69.5 -78.5t86 -107t47.5 -68v-5q0 -13 -58.5 -13t-144 85.5t-95.5 85.5t-96.5 -86.5t-140.5 -86.5h-32q-33 0 -33 14q0 60 207 250q41 38 95 38zM931 179q0 -66 -121 -118t-249 -52h-24q-190 0 -309 127q-48 52 -80 131.5t-32 172.5v47
q0 101 48 199q95 195 278 270q100 41 187 41h22q130 0 213 -80t83 -205.5t-68 -156.5q-26 -12 -243 -37t-234 -30q-88 -24 -88 -91q0 -112 78.5 -178t202.5 -66q45 0 160 35.5t125 35.5q51 0 51 -45zM374 624h52l6 1l118 5q214 0 214 37v22l-1 6q0 72 -55.5 121.5
t-132.5 49.5h-13q-83 0 -157 -65.5t-74 -145.5v-15q0 -16 43 -16z" />
    <glyph glyph-name="edieresis" unicode="&#xeb;" horiz-adv-x="1048" 
d="M856 1244.5q0 -15.5 -20.5 -41t-48.5 -25.5l-31 -6h-29q-63 0 -63 44q-2 6 -2 10l-2 17v29l4 26q0 38 24.5 62.5t58.5 24.5l18 3h28l23 -4q41 0 41 -44l2 -7v-7l2 -17v-11l-1 -4l-3 -30q-1 -4 -1 -19.5zM281 1279q5 28 5 29q0 32 23.5 55.5t53.5 23.5q6 2 10 2l11 2h27
q12 -3 20 -3q41 0 41 -38l2 -6l3 -27v-15l-1 -4v-11q-5 -28 -5 -29q0 -32 -23 -55t-50 -23q-9 -3 -14 -3l-18 -2h-17l-25 4q-40 0 -40 44l-2 6v7l-2 21v7l1 4v11zM933 719v-40q0 -89 -68 -123q-39 -20 -234 -38t-242 -31q-88 -24 -88 -92q0 -101 74.5 -172.5t186.5 -71.5
q64 0 178 35t130 35q51 0 51 -46q0 -60 -117 -113.5t-255 -53.5h-23q-188 0 -309 129q-49 53 -80.5 133t-31.5 172v23q1 110 43 208q89 205 283 284q100 41 187 41h21q132 0 213 -81t81 -198zM363 622h47l6 1l118 6q164 0 191 8t27 40l-1 5v6q0 80 -55.5 128.5t-123.5 48.5
h-26q-87 0 -156.5 -69.5t-69.5 -141.5v-11q0 -21 43 -21z" />
    <glyph glyph-name="igrave" unicode="&#xec;" horiz-adv-x="626" 
d="M439 1136h-10l-6 1q-62 0 -113 45q-230 201 -230 241v4q0 26 69 26h5q78 0 132 -47q4 -4 39 -48.5t41 -53.5l28 -39l31 -40q42 -54 42 -71v-8q0 -10 -28 -10zM336 8h-73q-61 0 -86.5 23.5t-25.5 49.5v12q0 18 26 72.5t41.5 133t15.5 263.5t-9 228t-32.5 83.5t-23.5 70.5
t36 44.5t142 14.5h12q54 0 65 -51v-149l-3 -86v-29l-6 -201q0 -195 29 -283t29 -92v-11q0 -41 -40.5 -67t-96.5 -26z" />
    <glyph glyph-name="iacute" unicode="&#xed;" horiz-adv-x="625" 
d="M252 1136h-11q-29 0 -29 14v4q0 14 87.5 126.5t102.5 124.5q62 48 135 48h17q60 0 60 -25q0 -57 -237 -241q-66 -51 -125 -51zM317 7h-37q-124 0 -124 74v12q0 25 25.5 71.5t42 128t16.5 265t-7 226.5t-32.5 84.5t-25.5 73.5t36 46.5t142 14.5h11q55 0 66 -51v-150
l-10 -316q0 -202 29.5 -280t29.5 -94q0 -57 -59 -90q-27 -15 -103 -15z" />
    <glyph glyph-name="icircumflex" unicode="&#xee;" horiz-adv-x="616" 
d="M332 1445h16q51 0 91 -40q187 -187 187 -242v-5q0 -14 -41 -14h-16q-57 0 -142.5 85.5t-94.5 85.5t-94.5 -85.5t-144.5 -85.5h-15q-41 0 -41 14v5q0 43 201 244q38 38 94 38zM468 105q0 -31 -36 -62t-100 -31h-73q-56 0 -83 23t-27 51v11q0 21 26.5 76.5t41.5 133
t15 260.5t-8 221.5t-32.5 85t-24.5 76t34.5 43t129.5 13.5h24q42 0 59 -31q8 -14 8 -99l-5 -142l-5 -158q0 -224 3.5 -267t28 -108t24.5 -96z" />
    <glyph glyph-name="idieresis" unicode="&#xef;" horiz-adv-x="616" 
d="M430 1304q0 35 24 59t57 24l14 3h32q9 -3 20 -3q40 0 40 -36q3 -9 3 -13l2 -17v-29l-5 -33q0 -35 -23.5 -58.5t-54.5 -23.5q-8 -2 -11 -2l-18 -2h-14l-35 6q-30 0 -30 30q-4 12 -4 16l-2 20v26l1 4l3 22q1 4 1 7zM51 1263q0 73 28.5 101.5t82.5 28.5h11q12 -4 29 -4
q39 0 39 -32q4 -12 4 -16l2 -20v-22l-2 -19l-4 -22q0 -26 -20 -51t-50 -25q-14 -4 -17 -4l-21 -2h-7l-3 1h-10q-15 3 -16 3q-40 0 -40 35l-5 23v7l-1 14v4zM469 114q0 -53 -50 -85q-32 -21 -111 -21h-37q-24 2 -49.5 2t-50 23t-24.5 49v12q0 11 27 74t41 136t14 256.5
t-6.5 223.5t-32 85.5t-25.5 76.5t35 45t131 14h35q39 0 52 -40q5 -15 5 -118l-3 -70l-2 -72l-2 -43v-29l-3 -86q0 -201 5.5 -248t28 -106.5t22.5 -78.5z" />
    <glyph glyph-name="eth" unicode="&#xf0;" horiz-adv-x="1131" 
d="M399 1179q0 13 22.5 47t22.5 62t-38.5 69.5t-38.5 54.5q0 30 51 30t128 -35t107 -35t81 7l22 3q37 6 41 6q66 0 66 -41q0 -15 -18.5 -53t-18.5 -74t52 -127t82.5 -188.5t30.5 -230.5v-28q0 -295 -135 -481q-130 -180 -370 -180q-130 0 -219 95q-49 52 -77 129.5
t-28 145.5v57q0 92 36 201q68 204 246 295q67 34 166 41.5t99 51.5q0 52 -52.5 95t-110.5 43l-56 -3q-91 0 -91 43zM785 540l-3 64q0 104 -57 171.5t-130 67.5h-9q-104 0 -164.5 -107.5t-60.5 -273.5v-33q0 -133 53.5 -222t138.5 -89h17q93 0 154.5 109t61.5 290v12z" />
    <glyph glyph-name="ntilde" unicode="&#xf1;" horiz-adv-x="1165" 
d="M332 1174h-15q-36 0 -36 25v8q0 65 66 126t134 61h9q53 0 135 -46t123.5 -46t82.5 44.5t77 44.5t36 -20v-23q0 -61 -85 -133q-45 -38 -102.5 -38t-155 46t-125.5 46t-79.5 -47.5t-64.5 -47.5zM947 39q-161 0 -161 103q0 11 12 89q12 75 12 263v16q0 200 -40 279t-145 79
q-52 0 -106 -34t-85 -90q-60 -110 -60 -361q0 -92 7.5 -138t7.5 -77q0 -60 -68 -94q-48 -24 -142 -24q-74 0 -74 68q0 22 24 65.5t31 87.5q24 161 24 333t-14.5 229t-14.5 75t30 37t87 19t101.5 -33t56 -33t40.5 17l22 14q110 71 203 71h27q64 0 125.5 -33.5t97.5 -90.5
q54 -85 54 -304l-3 -147l1 -57q0 -92 8 -115.5t29 -65t21 -70t-25 -53.5t-58 -25h-25z" />
    <glyph glyph-name="ograve" unicode="&#xf2;" horiz-adv-x="1134" 
d="M414 1452h10q75 0 132 -50q1 -1 40.5 -51.5t44.5 -58.5l44 -59l3 -5l3 -4l4 -4q37 -48 37 -68v-8q0 -10 -28 -10h-15q-64 0 -123 52q-223 195 -223 236v4q0 26 71 26zM993 574v-35q0 -224 -128 -389q-56 -72 -137.5 -116t-180.5 -44h-15q-161 0 -262.5 125t-101.5 324v17
l1 17q0 236 136 401q62 75 142 112t154 37h43q146 0 247.5 -125t101.5 -324zM363 507v-59q0 -136 57 -231t149 -95h9q97 0 159 110.5t62 275.5v35q0 142 -55.5 240.5t-150.5 98.5h-8q-97 0 -159.5 -111t-62.5 -264z" />
    <glyph glyph-name="oacute" unicode="&#xf3;" horiz-adv-x="1132" 
d="M813 1453q60 0 60 -26q0 -57 -248 -250q-54 -42 -112 -42h-16q-28 0 -28 11v8q0 16 33 58q137 176 154 191q55 48 119 48l11 2h27zM615 1023h29q61 0 130.5 -32t114.5 -90q101 -131 101 -324v-18q0 -238 -130 -406q-57 -73 -139 -117.5t-167 -44.5h-43q-64 0 -130.5 30.5
t-115.5 90.5q-101 125 -101 307v52q0 95 30 197q65 219 244 312q83 43 177 43zM360 519v-81q0 -125 57 -220t148 -95h9q97 0 159 110.5t62 274.5v36q0 141 -55.5 239.5t-141.5 98.5h-17q-97 0 -159 -110t-62 -253z" />
    <glyph glyph-name="ocircumflex" unicode="&#xf4;" horiz-adv-x="1125" 
d="M596 1446h16q53 0 97 -48q184 -201 184 -236v-5q0 -13 -59 -13t-124 65q-104 104 -115.5 104t-113.5 -102q-68 -68 -133 -68h-7l-8 1q-40 0 -40 15q0 42 202 244q43 43 101 43zM156 440v34q0 120 38 220q78 207 236 289q83 43 164 43h43q150 0 250 -124.5t100 -305.5v-33
l-1 -18q0 -101 -34 -207q-65 -202 -239 -298q-79 -43 -177 -43h-15q-158 0 -262 120q-103 122 -103 323zM593 884h-26q-89 0 -151.5 -111t-62.5 -263v-48q0 -147 57.5 -242.5t149.5 -95.5h8q88 0 154 99t66 239l2 24l1 36v23q0 142 -55.5 240.5t-142.5 98.5z" />
    <glyph glyph-name="otilde" unicode="&#xf5;" horiz-adv-x="1123" 
d="M458 1394h25q33 0 130.5 -46t128 -46t72 45.5t77.5 45.5t36 -18v-24q0 -58 -64.5 -117t-126.5 -59h-17l-8 1q-34 0 -130.5 45.5t-127.5 45.5t-72.5 -45.5t-78 -45.5t-36.5 26v8q0 59 62.5 121.5t129.5 62.5zM157 424v51q1 219 125 384q60 79 145 123.5t180 44.5l15 -1h14
q62 0 130.5 -31.5t116.5 -90.5q101 -125 101 -307v-52q0 -92 -31.5 -200.5t-96.5 -186.5q-135 -162 -322 -163h-14q-164 0 -263.5 123.5t-99.5 305.5zM592 886h-17q-97 0 -159.5 -111.5t-62.5 -263.5v-47q0 -148 57 -243t149 -95h9q100 0 160.5 114t60.5 284v12
q0 153 -55.5 251.5t-141.5 98.5z" />
    <glyph glyph-name="odieresis" unicode="&#xf6;" horiz-adv-x="1124" 
d="M812 1389q39 0 57.5 -15t18.5 -60v-18q0 -63 -24 -93t-62 -30l-14 -3h-36q-15 3 -16 3q-45 0 -45 44q-2 8 -2 10l-2 18v22l1 4l3 26q1 4 1 20t22 42.5t59 26.5l18 3h21zM353 1180q-39 0 -39 32q-3 9 -3 13l-3 20v29l1 3l3 22q1 4 1 8q0 34 25.5 59.5t70.5 25.5h31
q9 -3 19 -3q40 0 40 -35l2 -6l3 -24v-25l-7 -44q0 -73 -69 -73l-25 -5h-34q-15 3 -16 3zM157 438v34q0 96 31.5 201t94.5 185q130 166 323 167h14q165 0 263.5 -127t98.5 -321v-17q0 -234 -120 -396q-61 -82 -145.5 -127.5t-168.5 -45.5h-43q-65 0 -132.5 32.5t-113.5 88.5
q-102 126 -102 326zM789 504v36q0 153 -57 248t-145 95h-18q-91 0 -153.5 -111.5t-62.5 -259.5v-58q0 -141 57 -236t145 -95h9l9 1q92 0 154 110.5t62 269.5z" />
    <glyph glyph-name="divide" unicode="&#xf7;" horiz-adv-x="1242" 
d="M620 893q-52 0 -72 20t-20 67v3q0 51 22 78t58 27q16 4 20 4l28 2h9l4 -1l30 -3q4 -1 8 -1q57 0 57 -79v-10q0 -47 -22.5 -75t-65.5 -28q-8 -2 -11 -2l-21 -2h-24zM338 537q-151 0 -172.5 6t-21.5 39v39q0 46 34.5 51t481.5 5h266q173 0 194.5 -6.5t21.5 -47.5v-20
q0 -55 -32 -60t-485 -5l-23 -1h-264zM765 251v-23l-4 -19q0 -62 -73 -62l-3 -1l-4 -1l-37 -3h-9q-115 0 -115 71l-3 20v13q0 34 20.5 59.5t60.5 25.5q8 2 12 2l20 2h30l32 -4q73 0 73 -80z" />
    <glyph glyph-name="oslash" unicode="&#xf8;" horiz-adv-x="1152" 
d="M976 1057h12q34 0 34 -44q0 -20 -29 -65t-29 -65.5t16 -59t30.5 -85t14.5 -121.5v-19q0 -119 -42.5 -236t-122.5 -201q-148 -154 -367 -154l-144 11q-45 0 -86 -37.5t-69 -37.5q-34 0 -34 44q0 20 31 68.5t31 69t-17 58.5q-44 98 -44 225q0 251 167 438q136 153 361 153
l159 -12q33 0 74.5 35t53.5 35zM347 376q0 -73 25 -73q2 0 115 163t127 180q121 145 121 173v6q0 10 -24 31t-68 21h-20q-107 0 -191.5 -113t-84.5 -262l-1 -9l-1 -8l-1 -24v-47q3 -24 3 -38zM844 611q0 89 -28 89q-7 0 -54 -68t-65 -92q-245 -327 -245 -355v-6
q0 -11 27 -32.5t80 -21.5h7q114 0 195.5 109t81.5 247l1 9l1 8l1 26v64q-2 16 -2 23z" />
    <glyph glyph-name="ugrave" unicode="&#xf9;" horiz-adv-x="1163" 
d="M397 1450h16q87 0 142.5 -55.5t113.5 -142.5t58 -101.5t-34 -14.5h-10q-55 0 -122 52q-223 173 -223 238q0 24 59 24zM778 865q0 105 188 105q49 0 49 -96t-7 -185l-6 -52q-1 -5 -6.5 -65.5t-5.5 -93.5l-2 -54v-80q0 -87 20 -150l7 -21q12 -38 12 -40v-21q0 -18 -17 -35
q-32 -32 -128 -32q-37 0 -80.5 32.5t-46 32.5t-99.5 -50.5t-179.5 -50.5t-149.5 35.5t-106.5 111t-39.5 383.5q0 164 -6 215.5t-30 103.5t-24 69q0 50 74 50q126 0 156 -61q16 -32 16 -312.5t24.5 -344.5t62 -91t91 -27t108 29.5t86.5 86.5q60 105 60 347q0 83 -10.5 155.5
t-10.5 105.5z" />
    <glyph glyph-name="uacute" unicode="&#xfa;" horiz-adv-x="1163" 
d="M525 1137h-27q-23 0 -23 16t72 112t124 141.5t126 45.5h27q54 0 54 -21v-7q0 -53 -238 -238q-63 -49 -115 -49zM778 866q0 105 188 105q50 0 50 -88q0 -123 -14.5 -248.5t-14.5 -236.5t7 -148.5t20 -75t13 -58t-17 -37.5q-32 -32 -129 -32q-38 0 -80 32.5t-45 32.5
t-100 -50.5t-173 -50.5h-26q-78 0 -140 41.5t-99 110.5t-37 308.5t-5.5 285.5t-30 99.5t-24.5 69.5q0 49 51 49h24q127 0 156 -61q16 -34 16 -312.5t24.5 -343t62 -90.5t92.5 -26t107.5 29t86.5 87q59 99 59 347q0 63 -7 132l-3 24l-7 45q-5 35 -5 60z" />
    <glyph glyph-name="ucircumflex" unicode="&#xfb;" horiz-adv-x="1153" 
d="M595 1445h24q47 0 93 -50q181 -197 181 -231v-5q0 -14 -43 -14h-16q-59 0 -145 86t-100 86l-115 -105q-70 -64 -141 -64q-41 0 -41 14q0 51 209 243q44 40 94 40zM1004 768.5q0 -23.5 -11.5 -143t-11.5 -241t19 -186.5l7 -20q12 -34 12 -41v-20q0 -19 -16 -35
q-33 -33 -129 -33q-38 0 -79 33t-45.5 33t-100.5 -50t-172 -50h-27q-79 0 -141 41.5t-92 97.5q-43 81 -43 415q0 151 -8.5 200.5t-30.5 93t-22 66.5q0 51 74 51q126 0 156 -60q16 -32 16 -313.5t24 -344t61 -90t91.5 -27.5t109 30.5t84.5 84.5q61 109 61 348q0 62 -7 131
l-6 47l-4 22q-4 29 -4 70t47 68.5t140 27.5q52 0 52 -88l-2 -47q-2 -47 -2 -70.5z" />
    <glyph glyph-name="udieresis" unicode="&#xfc;" horiz-adv-x="1158" 
d="M804 1390h21q66 0 66 -44q2 -6 2 -9l2 -17v-29l-1 -4l-3 -22q-1 -4 -1 -7q0 -33 -25.5 -58.5t-79.5 -25.5h-17l-26 4q-44 0 -44 60v39l4 26q0 35 26 61t76 26zM511 1314v-11l-1 -4l-3 -30q-1 -4 -1 -7q0 -37 -25.5 -62.5t-78.5 -25.5h-17q-68 0 -68 46q-2 6 -2 10l-2 17
v22l2 18l4 22q0 36 28.5 58.5t67.5 22.5h28l28 -5q40 0 40 -71zM1028 115q0 -73 -138 -73q-49 0 -86 32.5t-51 32.5t-40 -16l-22 -14q-110 -72 -199 -72h-27q-66 0 -126.5 30.5t-97.5 81.5q-62 87 -62 325l1 58l1 28v83q0 132 -9 168t-30.5 81t-21.5 61q0 56 68 56
q127 0 161 -57q18 -32 18 -314q1 -282 23 -345q44 -124 152 -124q67 0 122.5 37t84.5 95q52 102 52 325q0 83 -10.5 162t-10.5 103q0 111 180 111q35 0 46.5 -19.5t11.5 -105.5t-14 -210t-14 -234t6 -147t19 -82t13 -57z" />
    <glyph glyph-name="yacute" unicode="&#xfd;" horiz-adv-x="1048" 
d="M839 1436v-8q0 -50 -239 -236q-64 -50 -114 -50h-27q-22 0 -22 10v4q0 17 42 71q133 170 150 184q60 47 130 47h27q53 0 53 -22zM146 917q0 76 114 76t144 -73q7 -17 14 -103.5t60 -301.5t72 -215q32 0 123 320q44 155 50.5 231.5t10.5 86.5q21 57 101 57h23q79 0 79 -54
q0 -36 -46 -134.5t-69 -159.5t-126.5 -366t-168.5 -430t-138.5 -189t-179.5 -64t-106 63q0 57 96 90t140 81q83 90 83 181.5t-92 372t-108 319.5q-76 181 -76 212z" />
    <glyph glyph-name="thorn" unicode="&#xfe;" horiz-adv-x="1169" 
d="M184 1352q0 34 87 34h23q76 0 102 -43q16 -27 16 -151l-1 -49l-1 -25l-1 -73q0 -70 29 -70q12 0 80 29t136 29q68 -1 134 -31q138 -64 193 -220q36 -100 36 -207v-32q0 -244 -138 -410q-119 -142 -322 -142q-74 0 -121 -27.5t-47 -63t22.5 -91.5t22.5 -86t-52 -61
t-121 -31h-24q-101 0 -101 43v18q0 14 18 56q45 107 63 300q35 399 35 748t-30 444q-5 15 -21.5 51t-16.5 61zM828 557q0 130 -53 218t-141 88l-8 -1h-8q-33 0 -79.5 -28t-80 -99t-33.5 -278v-64l1 -10l1 -31l2 -40q0 -71 31 -114q49 -69 119 -69h33q86 0 150 107t64 239
l2 23v59z" />
    <glyph glyph-name="ydieresis" unicode="&#xff;" horiz-adv-x="1057" 
d="M675 1273l6 32q0 34 27.5 55.5t59.5 21.5l14 2h24l23 -4q37 0 37 -34q2 -6 2 -10l3 -20v-29l-1 -4v-7q-4 -16 -4 -22q0 -39 -29.5 -62.5t-80.5 -23.5h-7q-75 0 -75 72v18l1 4v11zM287 1237v29l1 3l3 22q1 4 1 7q0 35 25.5 60.5t70.5 25.5h34q12 -3 16 -3q41 0 41 -38
q2 -8 2 -10l2 -14v-32l-1 -4v-7q-4 -16 -4 -36.5t-23 -43.5t-51 -23q-10 -3 -14 -3l-21 -2h-11q-71 0 -71 69zM232 -390q-117 0 -117 57.5t99 94.5q214 80 214 290q0 60 -91.5 340t-103.5 308q-78 186 -78 219q0 69 143 69q82 0 110 -67q10 -23 16.5 -105t28.5 -176
q78 -335 100 -335q33 0 123 309q45 154 52 233t8 83q20 61 95 61h24q56 0 70 -16.5t14 -45.5t-45 -123.5t-62 -139.5q-301 -813 -309 -828q-121 -228 -291 -228z" />
    <glyph glyph-name="dotlessi" unicode="&#x131;" horiz-adv-x="619" 
d="M330 996h23q43 0 59 -32q8 -16 8 -113l-5 -142v-29l-4 -129q0 -211 3.5 -256.5t27.5 -108.5t24 -71v-23q0 -45 -58 -79q-26 -15 -78 -15h-74q-59 0 -85 24t-26 51v11q0 23 23 69q53 106 53 239q2 28 2 42l4 116v104q0 142 -32 197t-32 85t35.5 45t131.5 15z" />
    <glyph glyph-name="Lslash" unicode="&#x141;" horiz-adv-x="1185" 
d="M1017 246q83 0 83 -105v-26q0 -74 -49 -92q-29 -11 -380 -11l-129 -1h-64q-187 0 -239 16.5t-52 63.5q0 25 20.5 89t30.5 115.5t10 162.5q0 66 -44 66q-67 0 -67 51v21q0 29 56 91t69.5 100.5t13.5 170t-10.5 171t-30 90.5t-19.5 72q0 51 38.5 77.5t91.5 26.5h26
q158 0 158 -93q0 -26 -27.5 -116t-27.5 -150q0 -100 70 -100q20 0 55.5 12.5t62.5 12.5q44 0 44 -49.5t-107 -141.5t-130 -144t-23 -219.5t33 -209t141.5 -41.5t166.5 17t134 45t95 28z" />
    <glyph glyph-name="lslash" unicode="&#x142;" horiz-adv-x="674" 
d="M381 1451h39q64 0 71 -60q1 -6 1 -18q0 -39 -8 -144q-10 -131 -10 -197v-6q1 -66 43 -66l56 10q39 0 39 -43.5t-70.5 -112t-93 -123.5t-22.5 -222t12 -214t35 -87.5t23 -65.5q0 -95 -179 -95h-20q-101 0 -101 112q0 25 14 141q15 120 15 203t-45 98q-75 25 -75 63t45 85
q89 93 96 107q34 74 34 256l2 44v43q0 69 -14 117l-32 109q0 24 29.5 45t115.5 21z" />
    <glyph glyph-name="OE" unicode="&#x152;" horiz-adv-x="1940" 
d="M1563 1398q94 0 167 -38t73 -81q0 -29 -90 -29l-214 7q-127 0 -191 -67t-64 -224q0 -104 103 -104q38 0 88.5 15.5t94.5 15.5q94 0 94 -140q0 -68 -26.5 -110.5t-79.5 -42.5q-14 0 -81.5 18.5t-129 18.5t-92.5 -41.5t-31 -191.5t46.5 -194.5t150.5 -44.5t205 11.5
t135.5 11.5t34.5 -16q0 -60 -111 -113q-81 -39 -196 -39q-12 0 -154 11.5t-217 11.5t-167 -11.5t-138 -11.5h-43q-247 0 -395 166.5t-148 415.5v44q0 156 61 318q61 164 152 258q170 176 469 176q75 0 156.5 -9.5t151.5 -9.5l346 19h40zM990 1011q0 148 -41.5 207.5
t-139.5 59.5h-40q-73 0 -145 -51q-146 -104 -203 -326q-32 -124 -32 -234v-68q0 -197 88 -326t218 -129h14q69 0 120 29t71 79q34 88 60 278q28 205 28 346l2 76v59z" />
    <glyph glyph-name="oe" unicode="&#x153;" horiz-adv-x="1673" 
d="M1010 366q0 -67 65 -127t176 -60q60 0 172.5 45t120.5 45q34 0 34 -48q0 -12 -33 -50.5t-126 -77.5t-223 -39t-235 73q-63 44 -83 44q-20 -1 -70 -35q-120 -83 -291.5 -83t-294.5 119q-55 53 -86 129.5t-31 159.5v29q0 94 37 183q76 182 264 251q85 31 170 31h30
q125 0 237 -79q55 -40 69.5 -40t80.5 38.5t124 58t175.5 19.5t219 -84t101.5 -198v-26q0 -106 -86 -140q-62 -24 -253.5 -37.5t-210.5 -18.5q-53 -15 -53 -82zM1323 628q90 0 90 64v11l-1 5q0 70 -46.5 111t-112.5 41h-6l-6 -1h-12q-12 -2 -17 -2q-67 0 -133.5 -76.5
t-66.5 -139.5v-9q0 -25 45 -25h17l6 1l163 11l35 4l22 2q17 3 23 3zM528 131h17q90 0 155 115.5t65 316.5v11q0 127 -43.5 213.5t-129.5 86.5h-9l-8 -1q-94 0 -162 -121t-68 -301v-11q0 -139 51 -224t132 -85z" />
    <glyph glyph-name="Scaron" unicode="&#x160;" horiz-adv-x="1158" 
d="M623 1533h-16q-53 0 -93 36q-198 180 -198 230v5q0 13 43 13h8q80 0 191 -111q49 -49 62 -49t118 96q70 64 143 64h8q43 0 43 -19q0 -34 -208 -225q-44 -40 -101 -40zM97 252q0 91 59 91q29 0 108.5 -65.5t151 -100t176.5 -34.5t178.5 60t73.5 158t-88 168
q-44 35 -233.5 121.5t-256.5 149.5q-106 99 -106 233q0 170 116 277t310 107q63 0 193.5 -23.5t159.5 -41.5q81 -50 81 -156q0 -82 -64 -82q-18 0 -93.5 56t-136 82t-159 26t-157.5 -59t-59 -145.5t96 -152.5q37 -25 231.5 -115t260.5 -158q101 -103 101 -242
q0 -185 -127 -294t-324 -109h-36q-41 0 -182.5 27t-179 49t-66 71t-28.5 102z" />
    <glyph glyph-name="scaron" unicode="&#x161;" horiz-adv-x="937" 
d="M747 1446h16q42 0 42 -14v-5q0 -54 -201 -238q-47 -43 -100 -43h-8l-8 1q-48 0 -78 28t-59 66t-87 104t-58 82v5q0 14 42 14h15q56 0 125 -64l55 -55q53 -53 62 -53t95 86t147 86zM812 846q0 -65 -51 -65q-17 0 -115 54t-171.5 54t-119 -32t-45.5 -91t77 -105
q26 -15 163.5 -72t189.5 -103q86 -76 86 -195t-94 -200.5t-262 -81.5t-290 47q-87 33 -87 115v20q0 72 63 72q21 0 73 -37.5t71 -47.5q87 -49 172.5 -49t133 37.5t47.5 99t-70 107.5q-19 13 -168 78.5t-201 115.5q-74 72 -74 183t91.5 185.5t248.5 74.5t261 -41
q71 -28 71 -123z" />
    <glyph glyph-name="Ydieresis" unicode="&#x178;" horiz-adv-x="1255" 
d="M947 1767q81 0 81 -69v-33l-4 -27q0 -26 -24.5 -56.5t-55.5 -30.5l-29 -5h-22l-24 4q-48 0 -48 48q-4 12 -4 17l-2 21v11l4 30q0 33 26.5 59.5t57.5 26.5q6 2 11 2l18 2h15zM424 1647l5 33q0 31 27.5 58.5t61.5 27.5l22 3h18q74 0 74 -56q2 -6 2 -10l2 -18v-15l-1 -3
l-5 -33q0 -29 -28 -57t-75 -28h-25l-4 1h-7q-6 2 -10 2q-53 0 -53 53q-2 6 -2 10l-2 18v14zM527 520q0 87 -97.5 310.5t-130 288.5t-80.5 122t-48 92.5t31.5 54t130.5 18.5t132.5 -30t33.5 -87q0 -96 147 -430q25 -57 36 -57q37 0 162 254q65 132 78.5 171t16.5 80.5
t14 57.5q31 44 143.5 44t112.5 -55q0 -25 -65 -103.5t-184 -280.5t-170 -319.5t-51 -354.5q0 -47 23 -110t23 -93t-46.5 -57t-121.5 -27h-53q-57 0 -93.5 22t-36.5 56.5t27.5 85.5t46.5 126t19 221z" />
    <glyph glyph-name="Zcaron" unicode="&#x17d;" horiz-adv-x="1218" 
d="M957 1823h23q39 0 39 -18q0 -43 -218 -227q-54 -46 -108 -46l-8 1h-8q-46 0 -85 36q-190 174 -190 229v5q0 19 58 19t143.5 -78.5t96 -78.5t104 79t153.5 79zM187 1268q0 47 30 83t75.5 45.5t433.5 9.5h258q99 0 131 -13t32 -61q0 -70 -379.5 -576t-379.5 -540.5t29 -46
t165.5 -11.5t224.5 21.5t158.5 47.5t99.5 26q49 0 49 -92q0 -43 -30 -79.5t-78.5 -52t-270.5 -15.5h-340q-205 0 -249 9q-59 12 -59 75t382.5 573t382.5 559q0 33 -143 33t-222 -17.5t-151.5 -44t-97.5 -26.5q-51 0 -51 93z" />
    <glyph glyph-name="zcaron" unicode="&#x17e;" horiz-adv-x="975" 
d="M802 1456h15q47 0 47 -18q0 -47 -217 -246q-48 -44 -92 -44h-24q-50 0 -90 44q-176 192 -176 242q0 21 58.5 21t137.5 -85.5t93.5 -85.5t100.5 86t147 86zM81 78q0 43 52.5 118t269.5 335.5t217 291t-117 30.5t-199.5 -27t-110.5 -27q-49 0 -49 86q0 58 39.5 83.5
t129.5 25.5l26 -1h53l348 -6q112 0 121 -3q29 -9 29 -51t-36.5 -96t-264 -335t-227.5 -309q0 -40 118 -40t168.5 12.5t102 29.5t82.5 17q47 0 47 -85q0 -115 -193 -115h-26l-26 1h-53l-350 9q-111 0 -123 4q-28 9 -28 52z" />
    <glyph glyph-name="florin" unicode="&#x192;" horiz-adv-x="1091" 
d="M845 839q0 -42 -85 -86.5t-114.5 -109.5t-89.5 -366.5t-123 -405.5q-115 -190 -293 -190h-26q-57 0 -88.5 18.5t-31.5 34.5q0 100 104 100q68 0 111 25t74.5 99.5t76 313t44.5 314.5t-33.5 154t-33.5 84q0 21 51.5 61.5t73.5 74.5t75 170.5t118 204.5q100 105 247 105
q104 0 150 -38q21 -17 21 -44.5t-21.5 -54.5t-70.5 -27q-4 0 -37.5 6.5t-67.5 6.5q-66 0 -115 -74.5t-49 -194.5q0 -69 51 -110q82 -66 82 -71z" />
    <glyph glyph-name="circumflex" unicode="&#x2c6;" horiz-adv-x="878" 
d="M489 1480h16q56 0 105 -53q176 -192 176 -235q0 -20 -60 -20t-144 84t-97 84t-104.5 -84.5t-152.5 -84.5h-16q-45 0 -45 15v5q0 39 213 236q57 53 109 53z" />
    <glyph glyph-name="caron" unicode="&#x2c7;" horiz-adv-x="928" 
d="M776 1474h16q40 0 40 -19v-5q0 -56 -227 -248q-54 -46 -96 -46h-8q-57 0 -98 37.5t-172 208.5q-28 36 -28 53.5t55 17.5t151.5 -89t101.5 -89l125 107q84 72 140 72z" />
    <glyph glyph-name="uni02C9" unicode="&#x2c9;" horiz-adv-x="884" 
d="M794 1326v-21l-1 -7v-7q0 -69 -27 -76q-8 -2 -282 -2h-103l-30 -1h-123q-37 0 -37 23v21l1 7v15q2 14 2 21q0 42 22.5 45.5t293.5 3.5l116 1h131q37 0 37 -23z" />
    <glyph glyph-name="breve" unicode="&#x2d8;" horiz-adv-x="875" 
d="M184 1405v16q0 24 46 24t82.5 -53t74 -73t94 -20t98.5 19.5t84.5 74.5t86.5 55h16q28 0 28 -21q0 -32 -33.5 -90.5t-102 -111t-170.5 -52.5h-37q-103 0 -185 75.5t-82 156.5z" />
    <glyph glyph-name="dotaccent" unicode="&#x2d9;" horiz-adv-x="844" 
d="M501 1433q79 0 79 -65l3 -23v-19q0 -58 -30 -88t-61 -30l-31 -5h-28q-83 0 -83 83v24q0 50 29 85t74 35l24 3h24z" />
    <glyph glyph-name="ring" unicode="&#x2da;" horiz-adv-x="839" 
d="M271 1357q0 60 63 123t160 63l7 -1h6q63 0 116.5 -41.5t53.5 -116.5v-6q0 -72 -62.5 -134.5t-148.5 -62.5h-33q-61 0 -110.5 43.5t-49.5 90.5l-2 12v30zM562 1357v33l-4 21q0 12 -21 38t-47 26h-18q-25 0 -58 -33t-33 -91l1 -4q0 -42 23 -70.5t47 -28.5h21q25 0 57 32
t32 77z" />
    <glyph glyph-name="ogonek" unicode="&#x2db;" horiz-adv-x="827" 
d="M254 -238v29q0 59 64 144.5t122 85.5h32q28 0 28 -18q0 -8 -22.5 -35t-46.5 -63.5t-24 -85t32 -69t97.5 -20.5t65.5 -33v-18q0 -17 -17 -31q-40 -32 -116 -32h-15q-88 0 -144 40.5t-56 105.5z" />
    <glyph glyph-name="tilde" unicode="&#x2dc;" horiz-adv-x="910" 
d="M347 1428h35q47 0 134 -46t126.5 -46t83 43.5t80.5 43.5t37 -28v-16q0 -59 -68.5 -117t-132.5 -58h-9l-8 1q-43 0 -140.5 46t-130.5 46t-80.5 -43.5t-83.5 -43.5t-36 35q0 58 67.5 120.5t125.5 62.5z" />
    <glyph glyph-name="hungarumlaut" unicode="&#x2dd;" horiz-adv-x="893" 
d="M835 1519q60 0 60 -25v-7q0 -57 -228 -256q-53 -46 -93 -46h-20q-28 0 -28 18q0 10 80 130t90 130q54 54 108 54l10 2h21zM248 1185h-21q-31 0 -31 18v4q0 15 39.5 74t70 109.5t55.5 79.5q46 52 116 52h21q10 -2 15 -2q49 0 49 -27v-4q0 -66 -208 -248q-64 -56 -106 -56z
" />
    <glyph glyph-name="Omega" unicode="&#x3a9;" horiz-adv-x="1544" 
d="M1103 13q-207 0 -207 79q0 68 109.5 235t133.5 223q54 128 54 253q0 239 -101 361t-275 122t-288 -138q-56 -68 -92 -170.5t-36 -221.5t26.5 -205t103 -231.5t76.5 -208.5t-53 -82t-184.5 -19t-185.5 24q-79 35 -79 93q0 85 30 85q13 0 86 -19.5t133.5 -19.5t60.5 35.5
t-69 127.5t-114 197t-45 247q0 296 190 475q190 178 467 178h6q119 0 224 -41q216 -83 297 -302q39 -107 39 -247q0 -247 -186 -470q-121 -145 -121 -167q0 -29 64.5 -29t139.5 18.5t85 18.5q22 0 22 -46q0 -80 -103 -129q-55 -26 -208 -26z" />
    <glyph glyph-name="mu" unicode="&#x3bc;" horiz-adv-x="1231" 
d="M1058 128q0 -101 -132 -101q-38 0 -81.5 37t-70.5 37t-119.5 -38.5t-138.5 -45.5q-131 -19 -135 -23q-30 -27 -45.5 -149.5t-45.5 -175t-93 -52.5h-21q-51 0 -51 117v59q0 22 7 89t14 139l6 66q6 61 7 67l12 132q32 352 32 488.5t13 164.5q21 44 89 44h29q54 0 73.5 -37
t19.5 -103.5t-15.5 -239.5t-15.5 -263.5t44 -139t106 -48.5q128 0 206 136q53 93 80 441q8 101 19 142q25 94 102 94q45 0 67.5 -30t22.5 -64.5t-14 -216.5t-14 -255t21.5 -165t21.5 -106z" />
    <glyph glyph-name="pi" unicode="&#x3c0;" horiz-adv-x="1270" 
d="M1063 998q115 0 115 -46v-20q0 -46 -72 -97t-90 -94q-44 -107 -44 -405q0 -99 35 -153q7 -11 34.5 -35.5t27.5 -44.5t-31 -44.5t-103 -24.5t-115 80.5t-43 253.5q0 81 15 209.5t15 166t-31 63.5t-135 26t-126 -52q-10 -24 -27.5 -136t-49 -271.5t-49.5 -216.5
q-40 -124 -121 -124q-72 0 -72 47q0 11 28 103q88 282 88 487q0 51 -23.5 78.5t-88.5 36t-65 59.5q0 31 27 63t126.5 59t409.5 27l61 2l275 3h29z" />
    <glyph glyph-name="endash" unicode="&#x2013;" horiz-adv-x="1101" 
d="M913 638q125 0 125 -38v-9l-1 -11v-10q0 -49 -17 -63t-116 -14h-312l-11 1h-111l-45 -1h-233l-11 1h-21l-42 2q-40 0 -40 34v30q0 43 12 59q14 18 89 18l44 1h690z" />
    <glyph glyph-name="emdash" unicode="&#x2014;" horiz-adv-x="1859" 
d="M1794 596v-33q0 -64 -78 -71q-23 -2 -803 -2l-18 -1h-149l-75 -1h-467q-127 0 -127 36v33q0 59 44 67t292 8h505l19 -1l112 1h635q110 0 110 -36z" />
    <glyph glyph-name="quoteleft" unicode="&#x2018;" horiz-adv-x="614" 
d="M476 1458h12q23 0 23 -29v-5q0 -5 -50.5 -81t-50.5 -133q0 -2 35 -60.5t35 -110.5q0 -116 -109 -116h-21q-54 0 -81 27t-27 98v46q0 111 72 228q41 67 93 101.5t69 34.5z" />
    <glyph glyph-name="quoteright" unicode="&#x2019;" horiz-adv-x="613" 
d="M332 1456h29q54 0 76.5 -25t22.5 -78v-53q0 -128 -86 -252.5t-159 -124.5h-6q-27 0 -27 26v15q0 12 25 40q81 89 81 165q0 5 -31 56.5t-31 101.5q0 129 106 129z" />
    <glyph glyph-name="quotesinglbase" unicode="&#x201a;" horiz-adv-x="581" 
d="M397 173v-30q0 -137 -84 -273.5t-169 -136.5q-28 0 -28 36l1 5q0 11 23 39q78 95 78 168q0 17 -24 63q-23 44 -23 96v4l2 30q0 37 26 66t70 29h34q50 0 72 -22t22 -74z" />
    <glyph glyph-name="quotedblleft" unicode="&#x201c;" horiz-adv-x="937" 
d="M879 1440v-15q0 -14 -25.5 -42t-52.5 -68.5t-27 -94.5q0 -2 35 -60t35 -119q0 -109 -104 -109h-21q-61 0 -81.5 32t-20.5 99v31q3 24 3 38q0 110 83 221t143 111h12q21 0 21 -24zM463 1464h12q23 0 23 -29v-10q0 -13 -26 -45q-74 -90 -75 -161q0 -11 34.5 -60.5
t34.5 -111.5q0 -115 -109 -115h-21q-103 0 -103 102l-1 8l-1 7l-1 23v15l1 8v15q2 16 2 23q0 101 79.5 216t150.5 115z" />
    <glyph glyph-name="quotedblright" unicode="&#x201d;" horiz-adv-x="938" 
d="M704 1462h7q54 0 78 -21.5t24 -80.5v-45q0 -117 -78 -244q-46 -75 -96.5 -108.5t-67.5 -33.5h-6q-25 0 -25 26v9q0 4 55.5 78t55.5 132q0 18 -18.5 42.5t-31 49.5t-12.5 73l2 30q0 40 29.5 66.5t83.5 26.5zM314 1462h21q55 0 77.5 -25t22.5 -93v-23q0 -127 -69 -239
q-44 -71 -98 -111.5t-79 -40.5h-11q-21 0 -21 25v15q0 12 25 40q81 89 81 166q0 18 -19 43.5t-31 49t-12 72.5q0 121 113 121z" />
    <glyph glyph-name="quotedblbase" unicode="&#x201e;" horiz-adv-x="911" 
d="M754 182v-44q0 -125 -73 -244q-95 -155 -167 -155h-11q-21 0 -21 29v9q0 12 49 71l5 5q52 78 52 123q0 9 -25.5 65t-25.5 107q0 123 104 123h26q46 0 66.5 -20.5t20.5 -68.5zM375 138l-2 -38q0 -119 -91 -240t-150 -121h-12q-26 0 -26 32v4q0 15 29 51q72 91 72 157
q0 10 -25.5 61t-25.5 105q0 122 116 122h21q51 0 73 -22t22 -88v-15z" />
    <glyph glyph-name="dagger" unicode="&#x2020;" horiz-adv-x="1104" 
d="M486 1305q0 81 21.5 106t77 25t67 -22t11.5 -90l-23 -249q0 -60 69 -60l124 9q77 0 77 -73q0 -52 -33.5 -73.5t-120 -21.5t-104.5 -50.5t-18 -148.5t-3 -173l-2 -50q-3 -50 -4.5 -87.5t-5 -98t-3.5 -120.5l-2 -51q-2 -51 -2 -129.5t-17.5 -113t-64.5 -34.5q-57 0 -64 79
q-2 23 -2 73l5 255v51l1 51v177l7 241q0 77 -24.5 102.5t-128.5 25.5t-104 80v19q0 69 92 69l123 -8q54 0 61 45q1 6 1 22q-1 33 -5 107q-6 109 -6 116z" />
    <glyph glyph-name="daggerdbl" unicode="&#x2021;" horiz-adv-x="1110" 
d="M594 1435q53 0 64 -19t11 -56l-20 -217q0 -56 16.5 -73.5t90.5 -17.5l26 1q35 2 52 2q78 0 78 -56q0 -70 -59 -92q-19 -7 -92.5 -11.5t-99 -21t-25.5 -104.5l14 -173q0 -124 36 -174q20 -28 80 -40.5t77 -22t17 -51.5q0 -74 -136 -95q-65 -10 -89 -24.5t-24 -74.5
l11 -220q0 -56 -20.5 -83.5t-71.5 -27.5q-76 0 -76 76l20 249q0 48 -23 71t-92.5 34.5t-92.5 27.5t-23 63q0 56 90 73t110 61q44 95 44 330q0 88 -39 110q-17 9 -92 14t-90 12q-37 19 -37 63.5t30 65t74 20.5l27 -1l54 -4q64 0 76 18.5t12 79.5l-10 186q0 53 24.5 77.5
t77.5 24.5z" />
    <glyph glyph-name="bullet" unicode="&#x2022;" horiz-adv-x="966" 
d="M492 954h16q96 0 158.5 -81t62.5 -186v-10q0 -117 -73.5 -203.5t-171.5 -86.5h-8q-93 0 -161 74t-68 184v28q0 109 73 195t172 86z" />
    <glyph glyph-name="ellipsis" unicode="&#x2026;" horiz-adv-x="1799" 
d="M1369 169l2 22q0 58 40.5 87t94.5 29h9l4 -1h9l16 -2q74 0 74 -95v-21l-1 -5v-9q-2 -8 -2 -13q0 -41 -30.5 -76.5t-78.5 -35.5l-22 -3h-21l-5 1h-8q-8 2 -12 2q-70 0 -70 89v27zM867 44q-91 0 -91 92v30q0 62 31.5 100t81.5 38l26 3h9l33 -4q61 0 61 -60l3 -12l2 -21v-31
l-4 -26q0 -36 -29 -70.5t-71 -34.5l-22 -4h-30zM184 171l3 22q0 51 37.5 83t95.5 32h13l17 -2l21 -3q60 0 60 -71l3 -26v-17l-1 -5v-9q-2 -8 -2 -13q0 -54 -37 -86t-87 -32h-34q-12 3 -21 3q-66 0 -66 76l-3 26v8l1 5v9z" />
    <glyph glyph-name="perthousand" unicode="&#x2030;" horiz-adv-x="2190" 
d="M726 1166v-56q0 -159 -91 -271t-214 -112l-10 1q-103 0 -164 83t-61 212v11l1 12q0 83 28 164t73 132q85 98 202 98l10 -1q101 0 163.5 -80t62.5 -193zM1331 1403q0 -9 -29 -57q-276 -461 -818 -1246q-63 -92 -112 -92h-16q-47 0 -47 19q0 9 29 57q276 461 818 1246
q63 92 112 92h17q46 0 46 -19zM1575 341q0 145 94.5 254t211.5 109h19q90 0 151.5 -78.5t61.5 -206.5v-23q0 -161 -80 -277q-45 -65 -103.5 -98t-114.5 -33h-29q-94 0 -153.5 81t-59.5 193v45q2 22 2 34zM888 275v34q0 148 71 258q39 60 96 99.5t125 39.5h29q92 0 155 -80.5
t63 -224.5l-1 -11q0 -165 -87 -281.5t-216 -116.5h-10q-100 0 -162.5 80t-62.5 203zM593 1149q0 77 -26 124t-69 47h-10q-56 0 -100.5 -82t-44.5 -194v-42l1 -7v-13q2 -14 2 -20q0 -53 29.5 -92t63.5 -39h5q50 0 97 67t47 159q3 21 3 29l2 36v27zM1878 586h-10l-5 -1
q-52 0 -92 -80t-40 -178v-57q0 -70 28 -120t74 -50h5q40 0 86.5 60t46.5 156q3 21 3 29l2 36v21l-4 53q0 58 -32 94.5t-62 36.5zM1130 100h10l5 1q56 0 94 83.5t38 174.5v56l-2 20l-2 26q0 53 -31.5 89t-65.5 36l-5 -1q-45 0 -90 -64t-45 -158q-2 -14 -2 -22l-2 -35v-22
q0 -77 27 -130.5t71 -53.5z" />
    <glyph glyph-name="guilsinglleft" unicode="&#x2039;" horiz-adv-x="698" 
d="M575 919v-9q0 -28 -129.5 -192t-129.5 -171q0 -21 108 -179t108 -204q0 -38 -47 -38t-164 150q-193 248 -193 266.5t184.5 214.5t216.5 196h8q38 0 38 -34z" />
    <glyph glyph-name="guilsinglright" unicode="&#x203a;" horiz-adv-x="697" 
d="M135 161v8q0 26 129.5 192.5t129.5 173.5q0 20 -107.5 177t-107.5 198.5t42.5 41.5t112.5 -84q244 -293 244 -337q0 -21 -180 -212t-214 -191h-9q-40 0 -40 33z" />
    <glyph glyph-name="fraction" unicode="&#x2044;" horiz-adv-x="503" 
d="M688 1426q47 0 47 -15.5t-49 -95.5t-110.5 -183.5t-107 -178t-67 -112.5t-109.5 -181t-162 -270.5t-91 -156t-59.5 -101.5t-56.5 -94q-45 -68 -97.5 -68t-52.5 18q0 50 800 1355q51 83 99 83h16z" />
    <glyph glyph-name="Euro" unicode="&#x20ac;" horiz-adv-x="1210" 
d="M433 704q0 -44 41 -59q18 -7 121.5 -16t149.5 -21.5t46 -48.5q0 -44 -103.5 -69.5t-141 -49.5t-37.5 -68q0 -88 110 -152q72 -42 192 -42q35 0 116.5 12t84.5 12q52 0 52 -40q0 -64 -121 -118q-94 -42 -211 -42q-205 0 -335 116q-74 66 -160 281q-23 57 -48 83
q-69 71 -69 75q0 35 46.5 67t46.5 75t-41.5 65t-41.5 48t45 71q103 103 135 154q86 135 165 199q156 126 338 126h37q126 0 189.5 -38t63.5 -103.5t-57 -65.5q-16 0 -87.5 22.5t-149.5 22.5t-153.5 -60t-75.5 -113.5t32.5 -71t145 -34.5t112.5 -63q0 -39 -62 -56
q-36 -10 -171.5 -20.5t-152.5 -16.5q-51 -17 -51 -61z" />
    <glyph glyph-name="trademark" unicode="&#x2122;" horiz-adv-x="1735" 
d="M833 1380q0 31 68 31q98 0 147 -81q9 -15 79 -182l44 -110q40 -101 44 -101q13 0 88.5 180.5t97.5 215.5q49 77 145 77q59 0 59 -36q0 -2 -8.5 -55t-8.5 -241.5t16.5 -251t16.5 -81.5q0 -35 -77 -35q-39 0 -62.5 28t-23.5 75l1 23l2 24l3 165q0 176 -23 176
q-11 0 -83.5 -181.5t-87.5 -212.5q-30 -63 -71 -63t-129 230.5t-102 230.5q-23 0 -23 -221.5t-9 -237.5q-20 -35 -75 -35t-55 35l3 17l16 41q24 70 24 278l2 147q0 31 -9 88.5t-9 62.5zM677 1361v-29q0 -43 -27 -43q-7 0 -50.5 14.5t-70.5 14.5q-45 0 -55 -56
q-7 -38 -7 -203.5t2.5 -199.5t16 -73.5t13.5 -58.5q0 -48 -68 -48h-53q-75 0 -75 53q0 3 15.5 50t19.5 106t4 213.5t-7 177.5q-11 37 -48 37t-75.5 -15.5t-51.5 -15.5q-20 0 -20 36v29q0 61 46 74q22 6 234 6l146 1q63 0 87 -15.5t24 -54.5z" />
    <glyph glyph-name="uni2126" unicode="&#x2126;" horiz-adv-x="1517" 
d="M1409 167q0 -79 -63.5 -117t-261.5 -38t-198 77q0 71 108.5 230.5t145 258t36.5 224.5q0 240 -103 364t-278 124t-292 -152q-116 -152 -116 -389q0 -120 29 -211t107.5 -227t78.5 -191t-39.5 -81.5t-145.5 -26.5h-91q-116 0 -160 23q-75 39 -75 111.5t36 72.5l29 -5
l34 -13l38 -11q50 -12 116 -12t66 37q0 22 -74 110q-169 201 -169 463t169 442q186 200 485 200q121 0 229 -40q218 -81 304 -299q44 -111 44 -266q0 -259 -208 -486q-95 -103 -95 -131t66 -28t146.5 19.5t81.5 19.5q20 0 20 -52z" />
    <glyph glyph-name="partialdiff" unicode="&#x2202;" horiz-adv-x="1121" 
d="M381 1262q-63 0 -63 43.5t83 82t170 38.5h24q95 0 176 -47q151 -88 205 -281q34 -119 34 -237v-52q0 -149 -44 -305t-122 -270q-157 -231 -400 -231h-2q-127 0 -212.5 85.5t-85.5 230.5v25q0 96 38 195.5t106 173.5q142 155 334 155q55 0 109.5 -18.5t72.5 -18.5
q50 0 50 136t-83 227.5t-227 91.5q-10 0 -71.5 -12t-91.5 -12zM351 341v-31q0 -95 35 -145.5t82 -50.5h7q34 0 87.5 34.5t113.5 126.5q143 221 143 347v30q0 69 -49 114.5t-129 45.5l-17 2h-17l-7 -1q-50 0 -95.5 -45.5t-79.5 -113.5q-74 -148 -74 -313z" />
    <glyph glyph-name="uni2206" unicode="&#x2206;" horiz-adv-x="1327" 
d="M1194 73q0 -42 -88 -51t-502 -9h-117l-39 -1h-116l-58 -1h-19q-137 0 -137 33.5t31 105t170.5 407.5t208.5 508t84 206q59 128 121 128q73 0 125 -161q336 -1034 336 -1165zM394 144h185l13 1h12q344 0 344 42v12q0 32 -91 350t-142 531q-14 57 -28 57q-4 0 -26.5 -63
t-32 -87t-38.5 -104t-59 -157t-47 -125t-22 -60t-19 -50l-31 -83l-11 -27q-41 -111 -65 -156.5t-24 -51.5v-8q0 -21 82 -21z" />
    <glyph glyph-name="product" unicode="&#x220f;" horiz-adv-x="1541" 
d="M173 1369q0 51 95 64.5t482 13.5h390q157 0 227.5 -15t70.5 -51q0 -14 -24 -63q-71 -144 -100.5 -360.5t-29.5 -746.5q0 -146 8 -181.5t35 -84.5t27 -57q0 -39 -27 -64q-63 -59 -135 -59q-150 0 -151 102l5 31l15 74q20 116 25.5 391t12.5 443.5t7 297.5t-33.5 163.5
t-278.5 34.5t-277 -52q-41 -66 -41 -403l-3 -145q-1 -43 -2 -97l-2 -96q-6 -291 -6 -384.5t12 -177.5l10 -70q0 -111 -159 -111q-58 0 -102.5 39t-44.5 65.5t32.5 77.5t46.5 137.5t14 349.5l8 388q0 188 -21 288.5t-53.5 175.5t-32.5 82z" />
    <glyph glyph-name="summation" unicode="&#x2211;" horiz-adv-x="1337" 
d="M1180 -16q43 0 43 -52q0 -85 -68 -132t-195 -47l-123 -3q-125 -3 -168 -3h-297q-151 0 -195 16q-61 22 -61 87q0 43 260.5 380t260.5 378q0 27 -230.5 358t-230.5 388.5t78 79.5q45 13 200 13h212l42 -1q42 -1 83 -1l42 -2l41 -1l123 1q212 0 212 -133q0 -63 -55 -63
q-16 0 -80.5 20t-143.5 30.5t-318 10.5q-145 0 -145 -36t196 -313.5t196 -318.5t-228 -330.5t-228 -338t235 -48.5l166 2q108 0 160.5 10.5t119 29.5t96.5 19z" />
    <glyph glyph-name="minus" unicode="&#x2212;" horiz-adv-x="1202" 
d="M1040 656q61 0 61 -48v-10l-1 -10v-10q0 -43 -12.5 -53.5t-68.5 -10.5h-850q-50 0 -50 38v40q0 55 38 61q13 2 475 2l148 1h260z" />
    <glyph glyph-name="uni2219" unicode="&#x2219;" horiz-adv-x="602" 
d="M173 594v24q0 72 37.5 104.5t89.5 32.5h33q117 0 117 -124v-19q0 -61 -33 -99t-94 -38h-33l-27 4q-37 0 -63.5 31.5t-26.5 83.5z" />
    <glyph glyph-name="radical" unicode="&#x221a;" horiz-adv-x="1286" 
d="M693 -75q-62 0 -108 78.5t-170 377.5t-166 299l-24 -3l-50 -10q-59 0 -59 39t30 59q89 60 163.5 60t105.5 -45.5t132.5 -281t132.5 -235.5q26 0 157.5 470.5t204 657t115.5 254.5t89 68t46 -42q0 -8 -78 -195.5t-132.5 -354.5t-160.5 -571.5t-143.5 -514.5t-84.5 -110z
" />
    <glyph glyph-name="infinity" unicode="&#x221e;" horiz-adv-x="1560" 
d="M1184 306h-37q-131 0 -256 119q-81 78 -82.5 78t-69 -62.5t-133 -96t-153.5 -33.5q-130 0 -218.5 85.5t-88.5 209.5v19q0 129 95 213.5t233 84.5t257 -120q64 -64 91 -64q1 0 28 28q83 86 155 124t158 38h20q127 0 212.5 -85.5t85.5 -212.5v-20q0 -119 -89 -212t-208 -93
zM1147 829h-27q-70 0 -132 -56q-128 -115 -128 -157.5t103 -145.5q60 -60 131 -60h26q77 0 135.5 65t58.5 138v29q0 74 -51 130.5t-116 56.5zM455 431h14q70 0 170.5 82t100.5 102v6q0 45 -107 113t-161 68h-7l-7 -1q-78 0 -143.5 -59t-65.5 -119v-25q0 -59 60 -113t146 -54
z" />
    <glyph glyph-name="integral" unicode="&#x222b;" horiz-adv-x="909" 
d="M385 613q0 612 64 808q37 114 109 171.5t152 57.5h25q67 0 100.5 -27.5t33.5 -41.5v-21q0 -30 -27.5 -55.5t-76.5 -25.5l-76 16q-61 0 -88.5 -95t-27.5 -328l-1 -26q-1 -26 -1 -53l-2 -106v-52l-1 -53v-52q0 -619 -61 -814q-38 -123 -108 -184.5t-151.5 -61.5t-125 25.5
t-43.5 61.5t27.5 62.5t76.5 26.5l74 -18q63 0 93 94.5t30 342.5l1 26q1 27 1 54l1 26v54l1 26v54l1 55v53z" />
    <glyph glyph-name="approxequal" unicode="&#x2248;" horiz-adv-x="1219" 
d="M1092 920q47 0 47 -60.5t-89.5 -131t-183.5 -70.5t-244 72t-212.5 72t-142 -58.5t-86.5 -58.5q-47 0 -47 62t91.5 130.5t192.5 68.5l12 -1q72 0 228 -71.5t211 -71.5t135 59t88 59zM403 557h24q87 0 224 -71.5t225 -71.5q51 0 124 57.5t89 57.5q46 0 46 -63.5t-91.5 -132
t-181.5 -68.5h-12q-82 0 -232 72t-213 72t-138 -58.5t-91 -58.5q-46 0 -46 61.5t90 132.5t183 71z" />
    <glyph glyph-name="notequal" unicode="&#x2260;" horiz-adv-x="1233" 
d="M1096 408.5q0 -58.5 -38.5 -68t-236 -9.5t-247 -27.5t-92 -118.5t-63 -110.5t-62.5 -19.5t-42 57q0 18 23.5 77.5t23.5 76.5q0 38 -67 46q-108 14 -122 24q-31 24 -31 82q0 40 66 53q26 5 139.5 5t144 20t71.5 95t41 96t-192 21t-218 8q-49 15 -49 75t46 70q32 7 231.5 7
t253.5 33q37 23 88.5 132t97.5 109q61 0 61 -40t-24 -95.5t-24 -63.5q0 -33 28.5 -44t90.5 -14.5t83.5 -22.5t21.5 -65.5t-46 -62.5q-31 -11 -154 -11t-153.5 -22t-71.5 -96.5t-41 -94t194 -19.5t219 -8q50 -16 50 -74.5z" />
    <glyph glyph-name="lessequal" unicode="&#x2264;" horiz-adv-x="1200" 
d="M1066 293q0 -46 -25 -46q-15 0 -150 67.5t-389 181t-308.5 144t-54.5 87t61 88.5q6 3 244.5 116t317.5 148.5t173 81t114.5 45.5t20.5 -47q0 -77 -97 -136q-24 -15 -312 -151l-308 -146q0 -5 272.5 -126.5t356.5 -172.5t84 -134zM198 121h66l11 -1l347 -5
q385 0 427.5 -6.5t42.5 -41.5v-52q0 -50 -73 -50h-76l-11 1h-45l-22 1h-45l-22 1h-45l-22 1h-46l-22 1h-68q-386 0 -428.5 6.5t-42.5 52.5v31q0 61 74 61z" />
    <glyph glyph-name="greaterequal" unicode="&#x2265;" horiz-adv-x="1201" 
d="M878 728q0 1 -142 66l-76 34q-70 31 -228 108t-176 88q-89 54 -89 138q0 43 28 43q14 0 112 -50.5t366.5 -174t340.5 -161.5t72 -84v-19q0 -45 -47 -71t-307.5 -143t-392 -184.5t-143.5 -67.5q-30 0 -30 34v17q0 67 85 123q46 30 336.5 163.5t290.5 140.5zM198 -31
q-41 0 -52.5 10.5t-11.5 54.5l1 10q0 56 35 62q51 8 449 8l369 8h22q65 0 77 -11t12 -54v-10q0 -56 -37 -62q-51 -8 -456 -8l-34 -1h-23l-22 -1h-22l-22 -1h-22l-56 -2h-22l-22 -1h-22l-22 -1h-22l-32 -1h-65z" />
    <glyph glyph-name="lozenge" unicode="&#x25ca;" horiz-adv-x="1189" 
d="M1038 710v-16q0 -9 -315 -583q-84 -154 -118 -154h-14q-48 0 -98.5 88.5t-179 363.5t-128.5 278v16q0 38 362 677q35 61 82 61t91 -78q72 -127 195 -389.5t123 -263.5zM338 700q0 -42 211 -483q50 -104 51 -104t143 284t142 298t-93 216.5t-127.5 285.5t-40 83
t-73 -140.5t-140.5 -280.5t-73 -159z" />
    </font>
</defs>
</svg>
