<?xml version="1.0" standalone="no"?>
<!DOCTYPE svg PUBLIC "-//W3C//DTD SVG 1.1//EN" "http://www.w3.org/Graphics/SVG/1.1/DTD/svg11.dtd" >
<svg>
<metadata>
Created by FontForge 20110222 at Fri Oct 18 00:49:27 2013
 By Orthosie Webhosting
Copyright (c) 2013, wmk69 (wmk69@o2.pl)
with Reserved Font Names 'ConsolaMono' and 'Consola Mono'.

This Font Software is licensed under the SIL Open Font License, Version 1.1.
This license is available with a FAQ at:
http://scripts.sil.org/OFL
</metadata>
<defs>
<font id="ConsolaMono" horiz-adv-x="1200" >
  <font-face 
    font-family="Consola Mono"
    font-weight="400"
    font-stretch="normal"
    units-per-em="2048"
    panose-1="2 13 5 9 2 4 4 6 2 4"
    ascent="1638"
    descent="-410"
    x-height="1100"
    cap-height="1500"
    bbox="0 -421 1250 2019"
    underline-thickness="122"
    underline-position="-81"
    unicode-range="U+0020-FFFD"
  />
<missing-glyph 
d="M200 0v1500h800v-1500h-800zM268 68h664v1364h-664v-1364z" />
    <glyph glyph-name=".notdef" 
d="M200 0v1500h800v-1500h-800zM268 68h664v1364h-664v-1364z" />
    <glyph glyph-name=".null" horiz-adv-x="0" 
 />
    <glyph glyph-name="nonmarkingreturn" 
 />
    <glyph glyph-name="space" unicode=" " 
 />
    <glyph glyph-name="exclam" unicode="!" 
d="M600 244q59 0 94 -36q40 -41 40 -96t-40 -94q-39 -38 -94 -38q-57 0 -94 36q-40 39 -40 96t40 94.5t94 37.5zM490 1500h220l-40 -1130h-140z" />
    <glyph glyph-name="quotedbl" unicode="&#x22;" 
d="M648 1500h188l-30 -484h-128zM364 1500h188l-30 -484h-128z" />
    <glyph glyph-name="numbersign" unicode="#" 
d="M370 168v347h-184v150h184v170h-184v150h184v347h150v-347h170v347h150v-347h174v-150h-174v-170h174v-150h-174v-347h-150v347h-170v-347h-150zM520 665h170v170h-170v-170z" />
    <glyph glyph-name="dollar" unicode="$" 
d="M150 434h180q0 -121 65 -203q60 -76 150 -93v609l-156 79q-191 102 -191 317q0 165 111 269q98 92 236 106v242h110v-244q130 -16 222 -104q107 -102 107 -269h-168q-1 100 -64 159q-43 40 -97 55v-464l136 -68q259 -122 259 -391q0 -180 -119 -314q-109 -121 -276 -137
v-242l-110 1v241q-165 17 -279 138q-116 123 -116 313zM545 947v414q-64 -12 -115 -56q-64 -55 -64 -145q0 -108 101 -174zM655 692v-553q85 18 148 94q67 81 67 201q0 138 -128 214z" />
    <glyph glyph-name="percent" unicode="%" 
d="M699 205q51 -53 131 -53q84 0 134.5 50.5t50.5 131.5q0 77 -49 127q-52 54 -133 54t-132 -48q-53 -52 -53 -133q0 -76 51 -129zM494 339q0 131 98 229q97 97 240 97q141 0 240 -97q98 -96 98 -235q0 -142 -98 -236q-101 -97 -240 -97q-142 0 -240 100t-98 239zM235 1060
q51 -53 131 -53q84 0 134.5 50.5t50.5 131.5q0 77 -49 127q-52 54 -133 54t-132 -48q-53 -52 -53 -133q0 -76 51 -129zM1021 1382l119 -97l-964 -1149l-119 97zM30 1194q0 131 98 229q97 97 240 97q141 0 240 -97q98 -96 98 -235q0 -142 -98 -236q-101 -97 -240 -97
q-142 0 -240 100t-98 239z" />
    <glyph glyph-name="ampersand" unicode="&#x26;" 
d="M1132 0h-191l-92 152q-155 -172 -331 -172q-205 0 -331 140q-119 134 -119 314q0 269 259 391q-193 102 -193 318q0 163 111 269q114 108 284 108q171 0 284 -108q107 -103 107 -269h-168q-1 100 -64 159q-67 63 -161 63q-92 0 -161 -60q-63 -55 -63 -177q0 -113 71 -178
q59 -54 207 -54l280 -474q55 117 55 327q0 51 -8 154h188q0 -389 -145 -617zM495 734q-109 -19 -167 -86q-80 -92 -80 -214t67 -201q85 -100 203 -100q134 0 253 147z" />
    <glyph glyph-name="quotesingle" unicode="'" 
d="M506 1500h188l-30 -484h-128z" />
    <glyph glyph-name="parenleft" unicode="(" 
d="M679 1760h167q-163 -232 -247 -508q-73 -241 -73 -502q0 -270 73 -503q82 -268 247 -507h-167q-172 279 -248 519q-77 246 -77 491q0 255 77 491q81 248 248 519z" />
    <glyph glyph-name="parenright" unicode=")" 
d="M354 1760h167q167 -271 248 -519q77 -236 77 -491q0 -245 -77 -491q-76 -240 -248 -519h-167q165 239 247 507q73 233 73 503q0 261 -73 502q-84 276 -247 508z" />
    <glyph glyph-name="asterisk" unicode="*" 
d="M680 672h-160v295l-239 -157l-80 138l259 138l-259 138l80 138l239 -157v295h160v-295l239 157l80 -138l-259 -138l259 -138l-80 -138l-239 157v-295z" />
    <glyph glyph-name="plus" unicode="+" 
d="M186 670v160h334v334h160v-334h334v-160h-334v-334h-160v334h-334z" />
    <glyph glyph-name="comma" unicode="," 
d="M662 202q54 -95 54 -209q0 -175 -231 -285v116q72 68 72 167q0 62 -58 141z" />
    <glyph glyph-name="hyphen" unicode="-" 
d="M186 670v160h828v-160h-828z" />
    <glyph glyph-name="period" unicode="." 
d="M600 244q59 0 94 -36q40 -41 40 -96t-40 -94q-39 -38 -94 -38q-57 0 -94 36q-40 39 -40 96t40 94.5t94 37.5z" />
    <glyph glyph-name="slash" unicode="/" 
d="M1160 1760l-941 -2020h-179l943 2020h177z" />
    <glyph glyph-name="zero" unicode="0" 
d="M600 -20q-258 0 -384 237q-106 200 -106 533t106 533q126 237 384 237q260 0 384 -237q106 -203 106 -533t-106 -533q-124 -237 -384 -237zM600 133q152 0 242 169q78 146 78 448q0 164 -23 282l-539 -730q95 -169 242 -169zM305 454l537 744q-90 169 -242 169
q-151 0 -242 -169q-78 -145 -78 -448q0 -175 25 -296z" />
    <glyph glyph-name="one" unicode="1" 
d="M250 0v160h334v1140l-334 -360v210l324 350h180v-1340h324v-160h-828z" />
    <glyph glyph-name="two" unicode="2" 
d="M150 0v160q0 161 191 317l361 304q168 141 168 285q0 110 -67 201q-76 100 -203 100t-205 -98q-65 -82 -65 -203h-180q0 190 116 313q133 141 334 141q205 0 331 -140q119 -134 119 -314q0 -215 -216 -395l-403 -337q-101 -86 -101 -174h720v-160h-900z" />
    <glyph glyph-name="three" unicode="3" 
d="M150 434h180q0 -121 65 -203q78 -98 205 -98q120 0 203 100q67 81 67 201q0 122 -79.5 214.5t-253.5 92.5v155q150 0 207 54q71 63 71 178q0 122 -63 177q-69 60 -161 60q-94 0 -161 -63q-63 -59 -64 -159h-168q0 166 107 269q113 108 284 108q170 0 284 -108
q111 -106 111 -269q0 -216 -193 -318q259 -122 259 -391q0 -180 -119 -314q-126 -140 -331 -140q-201 0 -334 141q-116 123 -116 313z" />
    <glyph glyph-name="four" unicode="4" 
d="M810 0v321h-710q202 693 710 1179h180v-1500h-180zM810 1300q-308 -348 -498 -819h498v819z" />
    <glyph glyph-name="five" unicode="5" 
d="M150 434h180q0 -121 65 -203q78 -98 205 -98q128 0 204 118q66 102 66 237q0 149 -78 247q-79 100 -192 100q-112 0 -186 -94l-175 97l102 662h616v-160h-473l-60 -413q80 61 182 61q190 0 314 -139q130 -146 130 -358q0 -204 -115 -353q-121 -158 -335 -158
q-201 0 -334 141q-116 123 -116 313z" />
    <glyph glyph-name="six" unicode="6" 
d="M620 133q128 0 204 118q66 102 66 237q0 148 -78 247q-79 100 -192 100t-192 -100q-78 -99 -78 -247q0 -138 66 -237q79 -118 204 -118zM1053 1166h-186q-7 17 -15 32q-90 169 -232 169q-141 0 -232 -169q-78 -145 -78 -448q117 238 316 238q189 0 314 -139
q130 -145 130 -358q0 -204 -115 -353q-121 -158 -335 -158q-258 0 -384 237q-106 200 -106 533q0 334 106 533q126 237 384 237q259 0 384 -237q31 -59 49 -117z" />
    <glyph glyph-name="seven" unicode="7" 
d="M260 0q282 435 410 780q124 335 168 560h-688v160h900q-51 -382 -212 -770q-174 -420 -380 -730h-198z" />
    <glyph glyph-name="eight" unicode="8" 
d="M870 432q0 122 -67 203q-80 97 -201 97q-129 0 -206 -98q-66 -85 -66 -203q0 -115 66 -200q77 -98 206 -98q121 0 201 97q67 81 67 202zM815 1126q0 109 -61 176q-57 63 -154 63q-93 0 -152 -60q-63 -64 -63 -179q0 -111 63 -179q56 -60 152 -60q97 0 154 63
q61 67 61 176zM150 434q0 269 259 391q-193 102 -193 318q0 163 111 269q114 108 273 108t273 -108q111 -106 111 -269q0 -216 -193 -318q259 -122 259 -391q0 -180 -119 -314q-126 -140 -331 -140t-331 140q-119 134 -119 314z" />
    <glyph glyph-name="nine" unicode="9" 
d="M580 1367q-128 0 -204 -118q-66 -102 -66 -237q0 -148 78 -247q79 -100 192 -100t192 100q78 99 78 247q0 138 -66 237q-79 118 -204 118zM147 334h186q7 -17 15 -32q90 -169 232 -169q141 0 232 169q78 145 78 448q-117 -238 -316 -238q-189 0 -314 139
q-130 145 -130 358q0 204 115 353q121 158 335 158q258 0 384 -237q106 -200 106 -533q0 -334 -106 -533q-126 -237 -384 -237q-259 0 -384 237q-31 59 -49 117z" />
    <glyph glyph-name="colon" unicode=":" 
d="M600 880q59 0 94 -36q40 -41 40 -96t-40 -94q-39 -38 -94 -38q-57 0 -94 36q-40 39 -40 96t40 94.5t94 37.5zM600 244q59 0 94 -36q40 -41 40 -96t-40 -94q-39 -38 -94 -38q-57 0 -94 36q-40 39 -40 96t40 94.5t94 37.5z" />
    <glyph glyph-name="semicolon" unicode=";" 
d="M600 880q59 0 94 -36q40 -41 40 -96t-40 -94q-39 -38 -94 -38q-57 0 -94 36q-40 39 -40 96t40 94.5t94 37.5zM652 202q54 -95 54 -209q0 -175 -231 -285v116q72 68 72 167q0 62 -58 141z" />
    <glyph glyph-name="less" unicode="&#x3c;" 
d="M200 796l717 414l80 -139l-556 -321l556 -322l-80 -139l-717 415v92z" />
    <glyph glyph-name="equal" unicode="=" 
d="M186 830v160h828v-160h-828zM186 510v160h828v-160h-828z" />
    <glyph glyph-name="greater" unicode="&#x3e;" 
d="M1000 796v-92l-717 -415l-80 139l556 322l-556 321l80 139z" />
    <glyph glyph-name="question" unicode="?" 
d="M600 244q59 0 94 -36q40 -41 40 -96t-40 -94q-39 -38 -94 -38q-57 0 -94 36q-40 39 -40 96t40 94.5t94 37.5zM150 1066q0 190 116 313q133 141 334 141q205 0 331 -140q119 -134 119 -314q0 -211 -217 -376q-149 -113 -149 -312h-167q0 278 185 403q168 116 168 285
q0 120 -67 201q-83 100 -203 100q-127 0 -205 -98q-65 -82 -65 -203h-180z" />
    <glyph glyph-name="at" unicode="@" 
d="M1090 0h-180v72q-66 -92 -158 -92q-146 0 -240 96q-98 100 -98 243q0 139 101 237q86 83 235 83q97 0 160 -85v131q0 118 -57 187q-78 95 -194 95q-173 0 -278 -157q-91 -136 -91 -460q0 -309 78 -448q95 -169 232 -169q91 0 160 69l108 -133q-108 -89 -268 -89
q-260 0 -384 237q-106 202 -106 535q0 349 148 560q146 208 401 208q212 0 332 -152q99 -125 99 -283v-685zM616 178q48 -56 136 -56q72 0 132 60q15 15 26 33v195q-10 17 -24 31q-54 54 -133 54q-83 0 -132 -48q-51 -52 -51 -133.5t46 -135.5z" />
    <glyph glyph-name="A" unicode="A" 
d="M50 0q134 720 460 1500h180q338 -780 460 -1500h-180q-57 341 -150 670h-439q-91 -325 -151 -670h-180zM429 830h343q-76 244 -172 480q-95 -234 -171 -480z" />
    <glyph glyph-name="B" unicode="B" 
d="M330 1347v-447h166q144 0 210 62.5t66 161t-67 157.5q-72 66 -209 66h-166zM330 747v-594h216q161 0 254 87q80 75 80 211q0 122 -80 209t-254 87h-216zM150 0v1500h346q210 0 331 -113q112 -106 112 -262q0 -198 -187 -278q87 -18 149 -67q149 -117 149 -330
q0 -211 -140 -331q-135 -119 -364 -119h-396z" />
    <glyph glyph-name="C" unicode="C" 
d="M1033 334q-23 -67 -49 -117q-124 -237 -384 -237q-258 0 -384 237q-106 200 -106 533q0 334 106 533q126 237 384 237q259 0 384 -237q31 -59 49 -117h-186q-7 17 -15 32q-90 169 -232 169q-141 0 -232 -169q-78 -145 -78 -448q0 -309 78 -448q95 -169 232 -169
q142 0 232 169q8 15 15 32h186z" />
    <glyph glyph-name="D" unicode="D" 
d="M329 153h222q193 0 282 169q77 146 77 428q0 283 -78 428q-91 169 -282 169h-220zM150 0v1500h400q309 0 434 -237q106 -201 106 -513q0 -310 -105 -513q-124 -237 -434 -237h-401z" />
    <glyph glyph-name="E" unicode="E" 
d="M186 0v1500h760v-160h-580v-510h455v-160h-455v-510h648v-160h-828z" />
    <glyph glyph-name="F" unicode="F" 
d="M220 0v1500h760v-160h-580v-510h455v-160h-455v-670h-180z" />
    <glyph glyph-name="G" unicode="G" 
d="M1090 830v-80q0 -330 -106 -533q-124 -237 -384 -237q-258 0 -384 237q-106 200 -106 533q0 334 106 533q126 237 384 237q259 0 384 -237q31 -59 49 -117h-186q-7 17 -15 32q-90 169 -232 169q-141 0 -232 -169q-78 -145 -78 -448q0 -309 78 -448q95 -169 232 -169
q142 0 232 169q67 126 76 368l-313 -1v160z" />
    <glyph glyph-name="H" unicode="H" 
d="M150 1500h180v-670h540v670h180v-1500h-180v670h-540v-670h-180v1500z" />
    <glyph glyph-name="I" unicode="I" 
d="M186 0v160h324v1180h-324v160h828v-160h-324v-1180h324v-160h-828z" />
    <glyph glyph-name="J" unicode="J" 
d="M100 434h180q0 -121 65 -203q78 -98 205 -98q120 0 203 100q67 81 67 201v906h-540v160h720v-1066q0 -180 -119 -314q-126 -140 -331 -140q-201 0 -334 141q-116 123 -116 313z" />
    <glyph glyph-name="K" unicode="K" 
d="M150 0v1500h180v-872q350 406 505 872h180q-151 -422 -388 -748q263 -336 423 -752h-182q-148 348 -347 622q-81 -112 -191 -226v-396h-180z" />
    <glyph glyph-name="L" unicode="L" 
d="M186 0v1500h180v-1340h648v-160h-828z" />
    <glyph glyph-name="M" unicode="M" 
d="M150 0v1500h180q216 -360 270 -740q67 378 270 740h180v-1500h-160v1232q-200 -404 -200 -774h-180q0 370 -200 774v-1232h-160z" />
    <glyph glyph-name="N" unicode="N" 
d="M150 0v1500h180q402 -466 560 -1038v1038h160v-1500h-160q-244 843 -580 1264v-1264h-160z" />
    <glyph glyph-name="O" unicode="O" 
d="M600 133q142 0 232 169q78 146 78 448q0 298 -78 448q-90 169 -232 169q-141 0 -232 -169q-78 -145 -78 -448q0 -309 78 -448q95 -169 232 -169zM600 -20q-258 0 -384 237q-106 200 -106 533t106 533q126 237 384 237q260 0 384 -237q106 -203 106 -533t-106 -533
q-124 -237 -384 -237z" />
    <glyph glyph-name="P" unicode="P" 
d="M150 0v1500h396q203 0 339 -119q165 -144 165 -381q0 -241 -166 -384q-133 -116 -338 -116h-216v-500h-180zM330 1347v-694h216q147 0 229 87q95 101 95 260t-99 258q-90 89 -225 89h-216z" />
    <glyph glyph-name="Q" unicode="Q" 
d="M514 587l126 91l219 -313q51 142 51 385q0 298 -78 448q-90 169 -232 169q-141 0 -232 -169q-78 -145 -78 -448q0 -309 78 -448q95 -169 232 -169q100 0 174 83zM600 -20q-258 0 -384 237q-106 200 -106 533t106 533q126 237 384 237q260 0 384 -237q106 -203 106 -533
t-106 -533l-9 -17l140 -200l-126 -91l-116 165q-109 -94 -273 -94z" />
    <glyph glyph-name="R" unicode="R" 
d="M330 1347v-694h216q147 0 229 87q95 101 95 260t-99 258q-90 89 -225 89h-216zM150 0v1500h396q203 0 339 -119q165 -144 165 -381q0 -243 -166 -384q-49 -42 -107 -69l323 -547h-209l-297 502q-23 -2 -48 -2h-216v-500h-180z" />
    <glyph glyph-name="S" unicode="S" 
d="M150 434h180q0 -121 65 -203q78 -98 205 -98q120 0 203 100q67 81 67 201q0 138 -128 214l-353 178q-191 102 -191 317q0 163 111 269q114 108 284 108q171 0 284 -108q107 -103 107 -269h-168q-1 100 -64 159q-67 63 -161 63q-92 0 -161 -60q-64 -56 -64 -145
q0 -108 101 -174l324 -161q259 -122 259 -391q0 -180 -119 -314q-126 -140 -331 -140q-201 0 -334 141q-116 123 -116 313z" />
    <glyph glyph-name="T" unicode="T" 
d="M510 0v1340h-360v160h900v-160h-360v-1340h-180z" />
    <glyph glyph-name="U" unicode="U" 
d="M150 1500h180v-1066q0 -121 65 -203q78 -98 205 -98q122 0 205 100q65 78 65 201v1066h180v-1066q0 -183 -119 -314q-127 -140 -331 -140q-201 0 -334 141q-116 122 -116 313v1066z" />
    <glyph glyph-name="V" unicode="V" 
d="M510 0q-326 780 -460 1500h180q114 -680 370 -1310q250 616 370 1310h180q-134 -720 -460 -1500h-180z" />
    <glyph glyph-name="W" unicode="W" 
d="M430 0h-180q-190 742 -240 1500h180q41 -760 166 -1280q104 302 146 816h182q47 -496 164 -823q124 513 162 1287h180q-56 -754 -240 -1500h-180q-111 310 -178 686q-56 -370 -162 -686z" />
    <glyph glyph-name="X" unicode="X" 
d="M100 0q206 267 401 609q-239 461 -401 891h180q152 -398 320 -723q162 323 320 723h180q-156 -430 -401 -891q195 -342 401 -609h-206q-151 195 -294 435q-143 -240 -294 -435h-206z" />
    <glyph glyph-name="Y" unicode="Y" 
d="M510 0v592q-260 478 -410 908h180q142 -400 320 -733q186 329 320 733h180q-144 -430 -410 -908v-592h-180z" />
    <glyph glyph-name="Z" unicode="Z" 
d="M150 0v160q474 584 659 1180h-589v160h830q-225 -756 -683 -1340h683v-160h-900z" />
    <glyph glyph-name="bracketleft" unicode="[" 
d="M348 1760h504v-160h-334v-1700h334v-160h-504v2020z" />
    <glyph glyph-name="backslash" unicode="\" 
d="M40 1760h177l943 -2020h-179z" />
    <glyph glyph-name="bracketright" unicode="]" 
d="M348 -260v160h334v1700h-334v160h504v-2020h-504z" />
    <glyph glyph-name="asciicircum" unicode="^" 
d="M185 1181l391 319h48l391 -319l-103 -123l-311 270l-313 -270z" />
    <glyph glyph-name="underscore" unicode="_" 
d="M186 -192v160h828v-160h-828z" />
    <glyph glyph-name="grave" unicode="`" 
d="M411 1426l162 94l216 -434l-110 -64z" />
    <glyph glyph-name="a" unicode="a" 
d="M1002 0h-180v237q-83 -257 -309 -257q-162 0 -252 106q-81 95 -81 213q0 177 141 276q110 78 260 78h236q0 140 -31 199q-59 112 -191 112q-159 0 -222 -130l-115 126q121 160 360 160q203 0 313 -162q71 -105 71 -304v-654zM822 507h-238q-112 0 -176 -59
q-56 -52 -56 -141q0 -67 44 -115q54 -59 153 -59q105 0 173 86q100 124 100 288z" />
    <glyph glyph-name="b" unicode="b" 
d="M600 137q136 0 199 129q51 105 51 284t-51 284q-63 129 -199 129q-122 0 -185 -129q-51 -105 -51 -284t51 -284q63 -129 185 -129zM186 0v1500h180v-538q69 158 234 158q193 0 314 -160q116 -153 116 -410t-116 -410q-121 -160 -314 -160q-178 0 -234 158v-138h-180z" />
    <glyph glyph-name="c" unicode="c" 
d="M1005 334q-31 -113 -91 -194q-119 -160 -314 -160q-193 0 -314 160q-116 153 -116 410t116 410q121 160 314 160q195 0 314 -160q60 -81 91 -195h-180q-11 38 -26 69q-62 129 -199 129q-136 0 -199 -129q-51 -105 -51 -284t51 -284q63 -129 199 -129q137 0 199 129
q15 31 26 68h180z" />
    <glyph glyph-name="d" unicode="d" 
d="M600 137q122 0 185 129q51 105 51 284t-51 284q-63 129 -185 129q-136 0 -199 -129q-51 -105 -51 -284t51 -284q63 -129 199 -129zM1014 0h-180v138q-56 -158 -234 -158q-193 0 -314 160q-116 153 -116 410t116 410q121 160 314 160q165 0 234 -158v538h180v-1500z" />
    <glyph glyph-name="e" unicode="e" 
d="M1005 334q-31 -114 -91 -194q-120 -160 -314 -160q-193 0 -314 160q-116 153 -116 410t116 410q121 160 314 160q192 0 314 -160q108 -142 115 -374l-667 -193q13 -73 39 -127q62 -129 199 -129t199 129q15 31 26 68h180zM350 550l490 142q-12 83 -41 142
q-63 129 -199 129t-199 -129q-51 -105 -51 -284z" />
    <glyph glyph-name="f" unicode="f" 
d="M510 0v800h-324v160h324v139q0 197 91 309q96 112 273 112q176 0 276 -117l-92 -122q-72 86 -173 86q-96 0 -144 -62q-51 -65 -51 -206v-139h324v-160h-324v-800h-180z" />
    <glyph glyph-name="g" unicode="g" 
d="M600 963q-136 0 -199 -129q-51 -105 -51 -284t51 -284q63 -129 199 -129q122 0 185 129q51 105 51 284t-51 284q-63 129 -185 129zM264 -252l137 89q63 -100 183 -100q136 0 199 129q51 105 51 272q-69 -158 -234 -158q-193 0 -314 160q-116 153 -116 410t116 410
q121 160 314 160q178 0 234 -158v138h180v-950q0 -259 -116 -410q-124 -160 -317 -160q-192 0 -317 168z" />
    <glyph glyph-name="h" unicode="h" 
d="M186 0v1500h180v-637q85 257 317 257q142 0 240 -112q91 -104 91 -309v-699h-180v699q0 141 -51 206q-48 62 -144 62q-101 0 -173 -86q-100 -119 -100 -289v-592h-180z" />
    <glyph glyph-name="i" unicode="i" 
d="M560 1520q59 0 94 -36q40 -41 40 -96t-40 -94q-39 -38 -94 -38q-57 0 -94 36q-40 39 -40 96t40 94.5t94 37.5zM1150 97q-100 -117 -275 -117q-178 0 -274 112q-91 106 -91 309v539h-324v160h504v-699q0 -140 51 -206q48 -62 144 -62q101 0 173 86z" />
    <glyph glyph-name="j" unicode="j" 
d="M669 1520q59 0 94 -36q40 -41 40 -96t-40 -94q-39 -38 -94 -38q-57 0 -94 36q-40 39 -40 96t40 94.5t94 37.5zM159 -303l92 122q72 -86 173 -86q96 0 144 62q51 66 51 206v939h-324v160h504v-1099q0 -207 -91 -309q-100 -112 -273 -112q-176 0 -276 117z" />
    <glyph glyph-name="k" unicode="k" 
d="M186 0v1500h180v-1135q338 283 449 735h180q-71 -292 -246 -548q157 -240 265 -552h-182q-82 236 -198 405q-115 -123 -268 -248v-157h-180z" />
    <glyph glyph-name="l" unicode="l" 
d="M1150 97q-100 -117 -276 -117q-173 0 -273 112q-91 102 -91 309v939h-324v160h504v-1099q0 -140 51 -206q48 -62 144 -62q101 0 173 86z" />
    <glyph glyph-name="m" unicode="m" 
d="M154 0v1100h160v-114q55 134 166 134q127 0 168 -140q48 140 195 140q111 0 167 -116q36 -73 36 -239v-765h-160v765q0 104 -10 136q-23 73 -79 73q-69 0 -101 -65q-15 -30 -15 -144v-765h-160v765q0 108 -11 143q-21 66 -76 66q-70 0 -99 -68q-21 -48 -21 -141v-765
h-160z" />
    <glyph glyph-name="n" unicode="n" 
d="M186 0v1100h180v-237q85 257 317 257q142 0 240 -112q91 -104 91 -309v-699h-180v699q0 141 -51 206q-48 62 -144 62q-101 0 -173 -86q-100 -119 -100 -289v-592h-180z" />
    <glyph glyph-name="o" unicode="o" 
d="M600 137q136 0 199 129q51 105 51 284t-51 284q-63 129 -199 129t-199 -129q-51 -105 -51 -284t51 -284q63 -129 199 -129zM600 -20q-193 0 -314 160q-116 153 -116 410t116 410q121 160 314 160t314 -160q116 -153 116 -410t-116 -410q-121 -160 -314 -160z" />
    <glyph glyph-name="p" unicode="p" 
d="M600 963q-122 0 -185 -129q-51 -105 -51 -284t51 -284q63 -129 185 -129q136 0 199 129q51 105 51 284t-51 284q-63 129 -199 129zM186 1100h180v-138q56 158 234 158q193 0 314 -160q116 -153 116 -410t-116 -410q-121 -160 -314 -160q-165 0 -234 158v-538h-180v1500z
" />
    <glyph glyph-name="q" unicode="q" 
d="M600 963q-136 0 -199 -129q-51 -105 -51 -284t51 -284q63 -129 199 -129q122 0 185 129q51 105 51 284t-51 284q-63 129 -185 129zM600 -20q-193 0 -314 160q-116 153 -116 410t116 410q121 160 314 160q178 0 234 -158v138h180v-1330q64 40 107 108t69 122v-240
q-41 -66 -133 -116q-81 -44 -223 -44v538q-69 -158 -234 -158z" />
    <glyph glyph-name="r" unicode="r" 
d="M186 0v1100h180v-237q85 257 317 257q159 0 251 -110q80 -96 80 -245h-180q0 93 -44 142q-54 60 -134 60q-118 0 -190 -86q-100 -119 -100 -289v-592h-180z" />
    <glyph glyph-name="s" unicode="s" 
d="M207 357h168q1 -100 64 -159q67 -63 161 -63q99 0 161 60q57 56 57 145q0 101 -119 141l-240 75q-216 83 -216 260q0 145 118 235q90 69 226 69q155 0 253 -108q82 -90 82 -218h-169q0 69 -43 120q-45 53 -126 53q-74 0 -128 -37q-48 -36 -48 -101q0 -81 133 -123
l206 -64q246 -79 246 -299q0 -149 -111 -255q-114 -108 -284 -108q-171 0 -284 108q-107 103 -107 269z" />
    <glyph glyph-name="t" unicode="t" 
d="M874 -20q-173 0 -273 112q-91 102 -91 309v539h-324v160h324v400h180v-400h324v-160h-324v-539q0 -140 51 -206q48 -62 144 -62q101 0 173 86l92 -122q-100 -117 -276 -117z" />
    <glyph glyph-name="u" unicode="u" 
d="M1014 0h-180v237q-85 -257 -317 -257q-142 0 -240 112q-91 104 -91 309v699h180v-699q0 -141 51 -206q48 -62 144 -62q101 0 173 86q100 119 100 289v592h180v-1100z" />
    <glyph glyph-name="v" unicode="v" 
d="M510 0q-252 376 -410 1100h180q154 -660 322 -902q180 242 318 902h180q-158 -724 -410 -1100h-180z" />
    <glyph glyph-name="w" unicode="w" 
d="M310 0q-178 542 -246 1100h180q44 -550 168 -900q98 210 98 636h181q0 -426 98 -636q123 350 167 900h180q-69 -558 -245 -1100h-180q-73 222 -111 392q-37 -170 -110 -392h-180z" />
    <glyph glyph-name="x" unicode="x" 
d="M130 0q194 176 362 392q-237 314 -362 708h197q87 -304 273 -590q184 280 273 590h197q-125 -378 -361 -708q159 -212 361 -392h-225q-140 115 -245 263q-111 -146 -245 -263h-225z" />
    <glyph glyph-name="y" unicode="y" 
d="M517 -20q-142 0 -240 112q-91 104 -91 309v699h180v-699q0 -141 51 -206q48 -62 144 -62q101 0 173 86q100 119 100 289v592h180v-950q0 -261 -116 -410q-125 -160 -319 -160q-190 0 -315 168l137 89q63 -100 183 -100q136 0 199 129q51 105 51 284v87
q-85 -257 -317 -257z" />
    <glyph glyph-name="z" unicode="z" 
d="M186 0v160q405 398 587 780h-551v160h792q-129 -473 -608 -940h608v-160h-828z" />
    <glyph glyph-name="braceleft" unicode="{" 
d="M1014 1760v-160h-152q-182 0 -182 -180v-410q0 -186 -142 -260q142 -61 142 -260v-410q0 -180 182 -180h152v-160h-152q-352 0 -352 340v410q0 180 -172 180h-152v160h152q172 0 172 180v410q0 340 352 340h152z" />
    <glyph glyph-name="bar" unicode="|" 
d="M520 1760h160v-2020h-160v2020z" />
    <glyph glyph-name="braceright" unicode="}" 
d="M186 1760h152q352 0 352 -340v-410q0 -180 172 -180h152v-160h-152q-172 0 -172 -180v-410q0 -340 -352 -340h-152v160h152q182 0 182 180v410q0 199 142 260q-142 74 -142 260v410q0 180 -182 180h-152v160z" />
    <glyph glyph-name="asciitilde" unicode="~" 
d="M186 618q50 316 233 316q109 0 213 -107q94 -97 151 -97t86 147h145q-57 -316 -221 -316q-91 0 -225 128q-80 77 -144 77q-68 0 -96 -148h-142z" />
    <glyph glyph-name="uni00A0" unicode="&#xa0;" 
 />
    <glyph glyph-name="exclamdown" unicode="&#xa1;" 
d="M600 856q-59 0 -94 36q-40 41 -40 96t40 94q39 38 94 38q57 0 94 -36q40 -39 40 -96t-40 -94.5t-94 -37.5zM710 -400h-220l40 1130h140z" />
    <glyph glyph-name="cent" unicode="&#xa2;" 
d="M1005 334q-31 -112 -91 -194q-101 -137 -259 -157v-242l-110 1v241q-156 20 -259 157q-116 154 -116 410t116 410q103 137 259 157v231h110v-231q157 -20 259 -157q60 -80 91 -195h-180q-11 38 -26 69q-49 101 -144 123v-814q95 22 144 123q15 31 26 68h180zM545 143v814
q-95 -22 -144 -123q-51 -105 -51 -284t51 -284q49 -101 144 -123z" />
    <glyph glyph-name="sterling" unicode="&#xa3;" 
d="M80 0v160h106v504h-106v160h106v319q0 163 111 269q114 108 284 108q171 0 284 -108q107 -103 107 -269h-168q-1 100 -64 159q-67 63 -161 63q-81 0 -150 -60q-63 -55 -63 -177v-304h339v-160h-339v-504h651v-160h-937z" />
    <glyph glyph-name="currency" unicode="&#xa4;" 
d="M458 618q51 -53 131 -53q84 0 134.5 50.5t50.5 131.5q0 77 -49 127q-52 54 -133 54t-132 -48q-53 -52 -53 -133q0 -76 51 -129zM185 448l120 120q-51 78 -51 178q0 102 54 182l-123 124l113 113l128 -128q74 41 166 41q98 0 176 -47l134 134l113 -113l-133 -133
q48 -74 48 -173q0 -95 -44 -168l129 -130l-113 -113l-129 129q-80 -51 -181 -51q-95 0 -171 44l-123 -122z" />
    <glyph glyph-name="yen" unicode="&#xa5;" 
d="M510 0v490h-324v120h314l-63 120h-251v120h190q-167 338 -276 650h180q125 -351 277 -650h88q158 296 275 650h180q-105 -312 -274 -650h188v-120h-249l-65 -120h314v-120h-324v-490h-180z" />
    <glyph glyph-name="brokenbar" unicode="&#xa6;" 
d="M520 1760h160v-930h-160v930zM520 670h160v-930h-160v930z" />
    <glyph glyph-name="section" unicode="&#xa7;" 
d="M935 1194h-169q0 69 -43 120q-45 53 -126 53q-76 0 -128 -37q-48 -34 -48 -101q0 -81 133 -123l206 -64q246 -79 246 -299q0 -135 -91 -235l-141 87q57 56 57 145q0 101 -119 141l-240 75q-216 83 -216 260q0 145 118 235q90 69 226 69q155 0 253 -108q82 -90 82 -218z
M265 306h169q0 -69 43 -120q45 -53 126 -53q76 0 128 37q48 34 48 101q0 81 -133 123l-206 64q-246 79 -246 299q0 135 91 235l141 -87q-57 -56 -57 -145q0 -101 119 -141l240 -75q216 -83 216 -260q0 -145 -118 -235q-90 -69 -226 -69q-155 0 -253 108q-82 90 -82 218z" />
    <glyph glyph-name="dieresis" unicode="&#xa8;" 
d="M766 1520q59 0 94 -36q40 -41 40 -96t-40 -94q-39 -38 -94 -38q-57 0 -94 36q-40 39 -40 96t40 94.5t94 37.5zM434 1520q59 0 94 -36q40 -41 40 -96t-40 -94q-39 -38 -94 -38q-57 0 -94 36q-40 39 -40 96t40 94.5t94 37.5z" />
    <glyph glyph-name="copyright" unicode="&#xa9;" 
d="M820 962q-16 -61 -50 -106q-66 -88 -173 -88q-106 0 -173 88q-62 81 -62 217t62 217q67 88 173 88q105 0 173 -88q35 -45 50 -108h-132q-4 13 -9 24q-25 54 -82 54t-82 -54q-23 -49 -23 -133t23 -133q26 -54 82 -54q55 0 82 54q5 10 8 22h133zM600 1454q-158 0 -264 -111
q-109 -113 -109 -274t110.5 -272.5t265.5 -111.5q153 0 261 112q109 113 109 272t-110.5 272t-262.5 113zM600 615q-183 0 -316 129q-135 131 -135 322q0 189 133 322q132 132 318 132t318 -132t132 -320t-132 -320.5t-318 -132.5z" />
    <glyph glyph-name="ordfeminine" unicode="&#xaa;" 
d="M812 920h-130v55q-50 -65 -134 -65q-93 0 -142 60q-45 55 -45 120q0 100 79 154q61 42 142 42h97q-1 49 -13 71q-25 45 -78 45q-66 0 -93 -54l-91 84q66 88 196 88q112 0 173 -90q38 -56 39 -163v-347zM583 1184q-47 0 -74 -28q-25 -26 -25 -61q0 -30 19 -49
q24 -24 62 -24q50 0 85 48q24 36 31 114h-98zM236 670v140h728v-140h-728z" />
    <glyph glyph-name="guillemotleft" unicode="&#xab;" 
d="M865 336l-322 390v49l322 391l123 -103l-270 -311l270 -313zM472 336l-322 390v49l322 391l123 -103l-270 -311l270 -313z" />
    <glyph glyph-name="logicalnot" unicode="&#xac;" 
d="M186 670v160h828v-521h-160v361h-668z" />
    <glyph glyph-name="uni00AD" unicode="&#xad;" 
d="M186 670v160h828v-160h-828z" />
    <glyph glyph-name="registered" unicode="&#xae;" 
d="M542 1250v-183h78q43 0 64 39q15 28 15 60q0 37 -25 62q-23 22 -54 22h-78zM410 771v600h210q82 0 146 -55q63 -53 63 -146q0 -100 -59 -156q-23 -22 -46 -34l143 -179q106 111 106 268q0 159 -110.5 272t-262.5 113q-157 0 -264 -111q-109 -114 -109 -274
q0 -161 110.5 -272.5t265.5 -111.5q134 0 234 86h-118l-120 175h-57v-175h-132zM600 615q-183 0 -316 129q-135 131 -135 322q0 189 133 322q132 132 318 132t318 -132t132 -320t-132 -320.5t-318 -132.5z" />
    <glyph glyph-name="macron" unicode="&#xaf;" 
d="M186 1532v160h828v-160h-828z" />
    <glyph glyph-name="degree" unicode="&#xb0;" 
d="M483 1272.5q0 -51.5 34 -88t84 -36.5t84 36.5t34 88t-34 87.5t-84 36t-84 -36t-34 -87.5zM350 1270q0 104 73 177t177 73t177 -73t73 -177t-73 -177t-177 -73t-177 73t-73 177z" />
    <glyph glyph-name="plusminus" unicode="&#xb1;" 
d="M186 780v160h334v334h160v-334h334v-160h-334v-334h-160v334h-334zM186 233v160h828v-160h-828z" />
    <glyph glyph-name="uni00B2" unicode="&#xb2;" 
d="M350 700v105q0 92 105 178l180 152q75 63 75 123q0 50 -29 86q-32 40 -81 40q-51 0 -83 -40q-27 -34 -27 -86h-140q0 105 65 174q74 78 185 78q122 0 188 -79q62 -74 62 -173q0 -119 -117 -217l-201 -168q-26 -22 -36 -43h354v-130h-500z" />
    <glyph glyph-name="uni00B3" unicode="&#xb3;" 
d="M490 952q0 -52 27 -86q33 -40 83 -40q49 0 82 41q28 34 28 85q0 52 -33 90t-109 38v128q66 0 87 20q27 26 27 71q0 50 -22 70q-27 23 -64 23q-38 0 -64 -24q-24 -22 -24 -62h-134q0 94 61 153q63 61 159 61t160 -61q63 -60 63 -153q0 -99 -73 -157q106 -68 106 -197
q0 -100 -66 -174q-70 -78 -184 -78q-111 0 -185 78q-65 69 -65 174h140z" />
    <glyph glyph-name="acute" unicode="&#xb4;" 
d="M627 1520l162 -94l-268 -404l-110 64z" />
    <glyph glyph-name="uni00B5" unicode="&#xb5;" 
d="M1014 0h-180v237q-85 -257 -317 -257q-83 0 -151 38v-418h-180v1500h180v-699q0 -141 51 -206q48 -62 144 -62q101 0 173 86q100 119 100 289v592h180v-1100z" />
    <glyph glyph-name="paragraph" unicode="&#xb6;" 
d="M1016 0h-130v1360h-146v-1360h-140v595q-186 1 -318 133t-132 320t132 320q133 132 318 132h416v-1500z" />
    <glyph glyph-name="periodcentered" unicode="&#xb7;" 
d="M600 880q59 0 94 -36q40 -41 40 -96t-40 -94q-39 -38 -94 -38q-57 0 -94 36q-40 39 -40 96t40 94.5t94 37.5z" />
    <glyph glyph-name="cedilla" unicode="&#xb8;" 
d="M485 159q230 -104 230 -285q0 -194 -214 -284v189q82 39 82 111q0 94 -98 153v116z" />
    <glyph glyph-name="uni00B9" unicode="&#xb9;" 
d="M368 700v130h162v476l-162 -175v179l176 190h126v-670h162v-130h-464z" />
    <glyph glyph-name="ordmasculine" unicode="&#xba;" 
d="M600 1402q-57 0 -82 -54q-23 -49 -23 -133t23 -133q26 -54 82 -54q57 0 82 54q23 50 23 133q0 85 -23 133q-26 54 -82 54zM600 1520q106 0 173 -88q62 -81 62 -217t-62 -217q-67 -88 -173 -88t-173 88q-62 81 -62 217t62 217q67 88 173 88zM236 670v140h728v-140h-728z
" />
    <glyph glyph-name="guillemotright" unicode="&#xbb;" 
d="M335 336l-123 103l270 313l-270 311l123 103l322 -391v-49zM728 336l-123 103l270 313l-270 311l123 103l322 -391v-49z" />
    <glyph glyph-name="onequarter" unicode="&#xbc;" 
d="M58 700v130h162v476l-162 -175v179l176 190h126v-670h162v-130h-464zM979 0v160h-363q108 361 378 640h125v-800h-140zM979 290v336q-107 -138 -186 -336h186zM981 1437l134 -75l-750 -1299l-134 75z" />
    <glyph glyph-name="onehalf" unicode="&#xbd;" 
d="M89 700v130h122v476l-162 -175v179l176 190h126v-670h122v-130h-384zM911 1437l134 -75l-750 -1299l-134 75zM648 0v105q0 92 105 178l180 152q75 63 75 123q0 50 -29 86q-32 40 -81 40q-51 0 -83 -40q-27 -34 -27 -86h-140q0 105 65 174q74 78 185 78q122 0 188 -79
q62 -74 62 -173q0 -119 -117 -217l-201 -168q-26 -22 -36 -43h354v-130h-500z" />
    <glyph glyph-name="threequarters" unicode="&#xbe;" 
d="M190 952q0 -52 27 -86q33 -40 83 -40q49 0 82 41q28 34 28 85q0 52 -33 90t-109 38v128q66 0 87 20q27 26 27 71q0 50 -22 70q-27 23 -64 23q-38 0 -64 -24q-24 -22 -24 -62h-134q0 94 61 153q63 61 159 61t160 -61q63 -60 63 -153q0 -99 -73 -157q106 -68 106 -197
q0 -100 -66 -174q-70 -78 -184 -78q-111 0 -185 78q-65 69 -65 174h140zM979 0v160h-363q108 361 378 640h125v-800h-140zM979 290v336q-107 -138 -186 -336h186zM981 1437l134 -75l-750 -1299l-134 75z" />
    <glyph glyph-name="questiondown" unicode="&#xbf;" 
d="M600 1120q59 0 94 -36q40 -41 40 -96t-40 -94q-39 -38 -94 -38q-57 0 -94 36q-40 39 -40 96t40 94.5t94 37.5zM1050 34q0 -190 -116 -313q-133 -141 -334 -141q-205 0 -331 140q-119 134 -119 314q0 211 217 376q149 113 149 312h167q0 -278 -185 -403
q-168 -116 -168 -285q0 -120 67 -201q83 -100 203 -100q127 0 205 98q65 82 65 203h180z" />
    <glyph glyph-name="Agrave" unicode="&#xc0;" 
d="M50 0q134 720 460 1500h180q338 -780 460 -1500h-180q-57 341 -150 670h-439q-91 -325 -151 -670h-180zM429 830h343q-76 244 -172 480q-95 -234 -171 -480zM500 1930l160 -314l-110 -64l-212 284z" />
    <glyph glyph-name="Aacute" unicode="&#xc1;" 
d="M50 0q134 720 460 1500h180q338 -780 460 -1500h-180q-57 341 -150 670h-439q-91 -325 -151 -670h-180zM429 830h343q-76 244 -172 480q-95 -234 -171 -480zM706 1930l162 -94l-212 -284l-110 64z" />
    <glyph glyph-name="Acircumflex" unicode="&#xc2;" 
d="M50 0q134 720 460 1500h180q338 -780 460 -1500h-180q-57 341 -150 670h-439q-91 -325 -151 -670h-180zM429 830h343q-76 244 -172 480q-95 -234 -171 -480zM338 1646l212 284h106l212 -284l-111 -72l-154 192l-156 -192z" />
    <glyph glyph-name="Atilde" unicode="&#xc3;" 
d="M50 0q134 720 460 1500h180q338 -780 460 -1500h-180q-57 341 -150 670h-439q-91 -325 -151 -670h-180zM429 830h343q-76 244 -172 480q-95 -234 -171 -480zM339 1657q25 227 173 227q77 0 119 -70q36 -60 55 -60q54 0 68 89h103q-25 -227 -173 -227q-77 0 -120 77
q-32 57 -52 57q-54 0 -70 -93h-103z" />
    <glyph glyph-name="Adieresis" unicode="&#xc4;" 
d="M50 0q134 720 460 1500h180q338 -780 460 -1500h-180q-57 341 -150 670h-439q-91 -325 -151 -670h-180zM429 830h343q-76 244 -172 480q-95 -234 -171 -480zM766 1881q59 0 94 -36q40 -41 40 -96t-40 -94q-39 -38 -94 -38q-57 0 -94 36q-40 39 -40 96t40 94.5t94 37.5z
M434 1881q59 0 94 -36q40 -41 40 -96t-40 -94q-39 -38 -94 -38q-57 0 -94 36q-40 39 -40 96t40 94.5t94 37.5z" />
    <glyph glyph-name="Aring" unicode="&#xc5;" 
d="M50 0q134 720 460 1500h180q338 -780 460 -1500h-180q-57 341 -150 670h-439q-91 -325 -151 -670h-180zM429 830h343q-76 244 -172 480q-95 -234 -171 -480zM539 1745q0 -25 18 -46q17 -20 43 -20q28 0 44 19q17 20 17 47q0 25 -18 46q-17 20 -43 20t-43.5 -19.5
t-17.5 -46.5zM429 1744q0 70 50 118t121 48q72 0 121 -48q50 -49 50 -118q0 -70 -50 -118t-121 -48t-121 48.5t-50 117.5z" />
    <glyph glyph-name="AE" unicode="&#xc6;" 
d="M10 0q146 810 460 1500h656v-160h-318v-510h248v-160h-248v-510h382v-160h-542v670h-324q-84 -323 -144 -670h-170zM648 830v510h-90q-106 -225 -190 -510h280z" />
    <glyph glyph-name="Ccedilla" unicode="&#xc7;" 
d="M1033 334q-23 -68 -49 -117q-102 -195 -295 -229q26 -53 26 -114q0 -194 -214 -284v189q82 39 82 111q0 51 -29 92q-224 20 -338 235q-106 200 -106 533q0 334 106 533q126 237 384 237q259 0 384 -237q31 -59 49 -117h-186q-7 17 -15 32q-90 169 -232 169
q-141 0 -232 -169q-78 -145 -78 -448q0 -309 78 -448q95 -169 232 -169q142 0 232 169q8 15 15 32h186z" />
    <glyph glyph-name="Egrave" unicode="&#xc8;" 
d="M186 0v1500h760v-160h-580v-510h455v-160h-455v-510h648v-160h-828zM500 1930l160 -314l-110 -64l-212 284z" />
    <glyph glyph-name="Eacute" unicode="&#xc9;" 
d="M186 0v1500h760v-160h-580v-510h455v-160h-455v-510h648v-160h-828zM706 1930l162 -94l-212 -284l-110 64z" />
    <glyph glyph-name="Ecircumflex" unicode="&#xca;" 
d="M338 1646l212 284h106l212 -284l-111 -72l-154 192l-156 -192zM186 0v1500h760v-160h-580v-510h455v-160h-455v-510h648v-160h-828z" />
    <glyph glyph-name="Edieresis" unicode="&#xcb;" 
d="M766 1881q59 0 94 -36q40 -41 40 -96t-40 -94q-39 -38 -94 -38q-57 0 -94 36q-40 39 -40 96t40 94.5t94 37.5zM434 1881q59 0 94 -36q40 -41 40 -96t-40 -94q-39 -38 -94 -38q-57 0 -94 36q-40 39 -40 96t40 94.5t94 37.5zM186 0v1500h760v-160h-580v-510h455v-160h-455
v-510h648v-160h-828z" />
    <glyph glyph-name="Igrave" unicode="&#xcc;" 
d="M500 1930l160 -314l-110 -64l-212 284zM186 0v160h324v1180h-324v160h828v-160h-324v-1180h324v-160h-828z" />
    <glyph glyph-name="Iacute" unicode="&#xcd;" 
d="M706 1930l162 -94l-212 -284l-110 64zM186 0v160h324v1180h-324v160h828v-160h-324v-1180h324v-160h-828z" />
    <glyph glyph-name="Icircumflex" unicode="&#xce;" 
d="M338 1646l212 284h106l212 -284l-111 -72l-154 192l-156 -192zM186 0v160h324v1180h-324v160h828v-160h-324v-1180h324v-160h-828z" />
    <glyph glyph-name="Idieresis" unicode="&#xcf;" 
d="M766 1881q59 0 94 -36q40 -41 40 -96t-40 -94q-39 -38 -94 -38q-57 0 -94 36q-40 39 -40 96t40 94.5t94 37.5zM434 1881q59 0 94 -36q40 -41 40 -96t-40 -94q-39 -38 -94 -38q-57 0 -94 36q-40 39 -40 96t40 94.5t94 37.5zM186 0v160h324v1180h-324v160h828v-160h-324
v-1180h324v-160h-828z" />
    <glyph glyph-name="Eth" unicode="&#xd0;" 
d="M329 153h222q193 0 282 169q77 146 77 428q0 283 -78 428q-91 169 -282 169h-220v-527h324v-140h-325v-527zM150 0v680h-70v140h70v680h400q309 0 434 -237q106 -201 106 -513q0 -310 -105 -513q-124 -237 -434 -237h-401z" />
    <glyph glyph-name="Ntilde" unicode="&#xd1;" 
d="M339 1657q25 227 173 227q77 0 119 -70q36 -60 55 -60q54 0 68 89h103q-25 -227 -173 -227q-77 0 -120 77q-32 57 -52 57q-54 0 -70 -93h-103zM150 0v1500h180q402 -466 560 -1038v1038h160v-1500h-160q-244 843 -580 1264v-1264h-160z" />
    <glyph glyph-name="Ograve" unicode="&#xd2;" 
d="M600 133q142 0 232 169q78 146 78 448q0 298 -78 448q-90 169 -232 169q-141 0 -232 -169q-78 -145 -78 -448q0 -309 78 -448q95 -169 232 -169zM600 -20q-258 0 -384 237q-106 200 -106 533t106 533q126 237 384 237q260 0 384 -237q106 -203 106 -533t-106 -533
q-124 -237 -384 -237zM500 1930l160 -314l-110 -64l-212 284z" />
    <glyph glyph-name="Oacute" unicode="&#xd3;" 
d="M600 133q142 0 232 169q78 146 78 448q0 298 -78 448q-90 169 -232 169q-141 0 -232 -169q-78 -145 -78 -448q0 -309 78 -448q95 -169 232 -169zM600 -20q-258 0 -384 237q-106 200 -106 533t106 533q126 237 384 237q260 0 384 -237q106 -203 106 -533t-106 -533
q-124 -237 -384 -237zM706 1930l162 -94l-212 -284l-110 64z" />
    <glyph glyph-name="Ocircumflex" unicode="&#xd4;" 
d="M338 1646l212 284h106l212 -284l-111 -72l-154 192l-156 -192zM600 133q142 0 232 169q78 146 78 448q0 298 -78 448q-90 169 -232 169q-141 0 -232 -169q-78 -145 -78 -448q0 -309 78 -448q95 -169 232 -169zM600 -20q-258 0 -384 237q-106 200 -106 533t106 533
q126 237 384 237q260 0 384 -237q106 -203 106 -533t-106 -533q-124 -237 -384 -237z" />
    <glyph glyph-name="Otilde" unicode="&#xd5;" 
d="M339 1657q25 227 173 227q77 0 119 -70q36 -60 55 -60q54 0 68 89h103q-25 -227 -173 -227q-77 0 -120 77q-32 57 -52 57q-54 0 -70 -93h-103zM600 133q142 0 232 169q78 146 78 448q0 298 -78 448q-90 169 -232 169q-141 0 -232 -169q-78 -145 -78 -448q0 -309 78 -448
q95 -169 232 -169zM600 -20q-258 0 -384 237q-106 200 -106 533t106 533q126 237 384 237q260 0 384 -237q106 -203 106 -533t-106 -533q-124 -237 -384 -237z" />
    <glyph glyph-name="Odieresis" unicode="&#xd6;" 
d="M766 1881q59 0 94 -36q40 -41 40 -96t-40 -94q-39 -38 -94 -38q-57 0 -94 36q-40 39 -40 96t40 94.5t94 37.5zM434 1881q59 0 94 -36q40 -41 40 -96t-40 -94q-39 -38 -94 -38q-57 0 -94 36q-40 39 -40 96t40 94.5t94 37.5zM600 133q142 0 232 169q78 146 78 448
q0 298 -78 448q-90 169 -232 169q-141 0 -232 -169q-78 -145 -78 -448q0 -309 78 -448q95 -169 232 -169zM600 -20q-258 0 -384 237q-106 200 -106 533t106 533q126 237 384 237q260 0 384 -237q106 -203 106 -533t-106 -533q-124 -237 -384 -237z" />
    <glyph glyph-name="multiply" unicode="&#xd7;" 
d="M364 401l-113 113l236 236l-236 236l113 113l236 -236l236 236l113 -113l-236 -236l236 -236l-113 -113l-236 236z" />
    <glyph glyph-name="Oslash" unicode="&#xd8;" 
d="M130 0l101 190q-7 13 -15 27q-106 200 -106 533q0 334 106 533q126 237 384 237q174 0 287 -106l46 86h137l-101 -190q8 -13 15 -27q106 -212 106 -533q0 -330 -106 -533q-124 -237 -384 -237q-172 0 -285 105l-46 -85h-139zM600 133q142 0 232 169q78 146 78 448
q0 226 -45 367l-463 -868q85 -116 198 -116zM334 381l466 870q-82 116 -200 116q-141 0 -232 -169q-78 -145 -78 -448q0 -232 44 -369z" />
    <glyph glyph-name="Ugrave" unicode="&#xd9;" 
d="M150 1500h180v-1066q0 -121 65 -203q78 -98 205 -98q122 0 205 100q65 78 65 201v1066h180v-1066q0 -183 -119 -314q-127 -140 -331 -140q-201 0 -334 141q-116 122 -116 313v1066zM500 1930l160 -314l-110 -64l-212 284z" />
    <glyph glyph-name="Uacute" unicode="&#xda;" 
d="M150 1500h180v-1066q0 -121 65 -203q78 -98 205 -98q122 0 205 100q65 78 65 201v1066h180v-1066q0 -183 -119 -314q-127 -140 -331 -140q-201 0 -334 141q-116 122 -116 313v1066zM706 1930l162 -94l-212 -284l-110 64z" />
    <glyph glyph-name="Ucircumflex" unicode="&#xdb;" 
d="M338 1646l212 284h106l212 -284l-111 -72l-154 192l-156 -192zM150 1500h180v-1066q0 -121 65 -203q78 -98 205 -98q122 0 205 100q65 78 65 201v1066h180v-1066q0 -183 -119 -314q-127 -140 -331 -140q-201 0 -334 141q-116 122 -116 313v1066z" />
    <glyph glyph-name="Udieresis" unicode="&#xdc;" 
d="M766 1881q59 0 94 -36q40 -41 40 -96t-40 -94q-39 -38 -94 -38q-57 0 -94 36q-40 39 -40 96t40 94.5t94 37.5zM434 1881q59 0 94 -36q40 -41 40 -96t-40 -94q-39 -38 -94 -38q-57 0 -94 36q-40 39 -40 96t40 94.5t94 37.5zM150 1500h180v-1066q0 -121 65 -203
q78 -98 205 -98q122 0 205 100q65 78 65 201v1066h180v-1066q0 -183 -119 -314q-127 -140 -331 -140q-201 0 -334 141q-116 122 -116 313v1066z" />
    <glyph glyph-name="Yacute" unicode="&#xdd;" 
d="M510 0v592q-260 478 -410 908h180q142 -400 320 -733q186 329 320 733h180q-144 -430 -410 -908v-592h-180zM706 1930l162 -94l-212 -284l-110 64z" />
    <glyph glyph-name="Thorn" unicode="&#xde;" 
d="M330 403h216q147 0 229 87q95 101 95 260t-99 258q-90 89 -225 89h-216v-694zM150 0v1500h180v-250h216q203 0 339 -119q165 -144 165 -381q0 -239 -166 -384q-133 -116 -338 -116h-216v-250h-180z" />
    <glyph glyph-name="germandbls" unicode="&#xdf;" 
d="M198 0v1143q0 166 107 269q113 108 284 108q170 0 284 -108q111 -106 111 -269q0 -216 -193 -318q259 -122 259 -391q0 -180 -119 -314q-126 -140 -331 -140v153q120 0 203 100q67 81 67 201q0 122 -79.5 214.5t-253.5 92.5v155q148 0 207 54q71 65 71 178q0 122 -63 177
q-69 60 -161 60q-105 0 -161 -63q-51 -57 -52 -159v-1143h-180z" />
    <glyph glyph-name="agrave" unicode="&#xe0;" 
d="M1002 0h-180v237q-83 -257 -309 -257q-162 0 -252 106q-81 95 -81 213q0 177 141 276q110 78 260 78h236q0 140 -31 199q-59 112 -191 112q-159 0 -222 -130l-115 126q121 160 360 160q203 0 313 -162q71 -105 71 -304v-654zM822 507h-238q-112 0 -176 -59
q-56 -52 -56 -141q0 -67 44 -115q54 -59 153 -59q105 0 173 86q100 124 100 288zM496 1528l160 -314l-110 -64l-212 284z" />
    <glyph glyph-name="aacute" unicode="&#xe1;" 
d="M1002 0h-180v237q-83 -257 -309 -257q-162 0 -252 106q-81 95 -81 213q0 177 141 276q110 78 260 78h236q0 140 -31 199q-59 112 -191 112q-159 0 -222 -130l-115 126q121 160 360 160q203 0 313 -162q71 -105 71 -304v-654zM822 507h-238q-112 0 -176 -59
q-56 -52 -56 -141q0 -67 44 -115q54 -59 153 -59q105 0 173 86q100 124 100 288zM706 1528l162 -94l-212 -284l-110 64z" />
    <glyph glyph-name="acircumflex" unicode="&#xe2;" 
d="M338 1244l212 284h106l212 -284l-111 -72l-154 192l-156 -192zM1002 0h-180v237q-83 -257 -309 -257q-162 0 -252 106q-81 95 -81 213q0 177 141 276q110 78 260 78h236q0 140 -31 199q-59 112 -191 112q-159 0 -222 -130l-115 126q121 160 360 160q203 0 313 -162
q71 -105 71 -304v-654zM822 507h-238q-112 0 -176 -59q-56 -52 -56 -141q0 -67 44 -115q54 -59 153 -59q105 0 173 86q100 124 100 288z" />
    <glyph glyph-name="atilde" unicode="&#xe3;" 
d="M342 1298q25 227 173 227q77 0 119 -70q36 -60 55 -60q54 0 68 89h103q-25 -227 -173 -227q-77 0 -120 77q-32 57 -52 57q-54 0 -70 -93h-103zM1002 0h-180v237q-83 -257 -309 -257q-162 0 -252 106q-81 95 -81 213q0 177 141 276q110 78 260 78h236q0 140 -31 199
q-59 112 -191 112q-159 0 -222 -130l-115 126q121 160 360 160q203 0 313 -162q71 -105 71 -304v-654zM822 507h-238q-112 0 -176 -59q-56 -52 -56 -141q0 -67 44 -115q54 -59 153 -59q105 0 173 86q100 124 100 288z" />
    <glyph glyph-name="adieresis" unicode="&#xe4;" 
d="M766 1520q59 0 94 -36q40 -41 40 -96t-40 -94q-39 -38 -94 -38q-57 0 -94 36q-40 39 -40 96t40 94.5t94 37.5zM434 1520q59 0 94 -36q40 -41 40 -96t-40 -94q-39 -38 -94 -38q-57 0 -94 36q-40 39 -40 96t40 94.5t94 37.5zM1002 0h-180v237q-83 -257 -309 -257
q-162 0 -252 106q-81 95 -81 213q0 177 141 276q110 78 260 78h236q0 140 -31 199q-59 112 -191 112q-159 0 -222 -130l-115 126q121 160 360 160q203 0 313 -162q71 -105 71 -304v-654zM822 507h-238q-112 0 -176 -59q-56 -52 -56 -141q0 -67 44 -115q54 -59 153 -59
q105 0 173 86q100 124 100 288z" />
    <glyph glyph-name="aring" unicode="&#xe5;" 
d="M1002 0h-180v237q-83 -257 -309 -257q-162 0 -252 106q-81 95 -81 213q0 177 141 276q110 78 260 78h236q0 140 -31 199q-59 112 -191 112q-159 0 -222 -130l-115 126q121 160 360 160q203 0 313 -162q71 -105 71 -304v-654zM822 507h-238q-112 0 -176 -59
q-56 -52 -56 -141q0 -67 44 -115q54 -59 153 -59q105 0 173 86q100 124 100 288zM539 1387q0 -25 18 -46q17 -20 43 -20q28 0 44 19q17 20 17 47q0 25 -18 46q-17 20 -43 20t-43.5 -19.5t-17.5 -46.5zM429 1386q0 70 50 118t121 48q72 0 121 -48q50 -49 50 -118
q0 -70 -50 -118t-121 -48t-121 48.5t-50 117.5z" />
    <glyph glyph-name="ae" unicode="&#xe6;" 
d="M1114 334q-1 -169 -81 -262q-79 -92 -218 -92q-86 0 -132 20h-168v64q-43 -84 -130 -84q-143 0 -218 92q-81 99 -81 263q0 153 89 259q80 96 230 96h120v76q0 100 -31 142q-42 57 -118 58q-77 0 -130 -58q-20 -22 -26 -40l-116 97q19 40 42 65q84 90 239 90
q133 0 217 -113q82 113 213 113q141 0 218 -92q81 -97 81 -263v-183l-434 -194v-54q0 -89 26 -142q29 -59 109 -59q77 0 115 59q37 58 37 142h147zM680 549l287 113v103q0 91 -33 140q-42 63 -114 63q-71 0 -107 -54q-33 -50 -33 -149v-216zM524 537h-119q-89 0 -131 -63
q-32 -48 -32 -139q0 -92 32 -139q41 -62 120 -63q130 0 130 163v241z" />
    <glyph glyph-name="ccedilla" unicode="&#xe7;" 
d="M1005 334q-31 -112 -91 -194q-90 -122 -226 -151q27 -53 27 -115q0 -194 -214 -284v189q82 39 82 111q0 51 -29 92q-162 18 -268 158q-116 153 -116 410t116 410q121 160 314 160q195 0 314 -160q60 -81 91 -195h-180q-11 38 -26 69q-62 129 -199 129q-136 0 -199 -129
q-51 -105 -51 -284t51 -284q63 -129 199 -129q137 0 199 129q15 31 26 68h180z" />
    <glyph glyph-name="egrave" unicode="&#xe8;" 
d="M1005 334q-31 -114 -91 -194q-120 -160 -314 -160q-193 0 -314 160q-116 153 -116 410t116 410q121 160 314 160q192 0 314 -160q108 -142 115 -374l-667 -193q13 -73 39 -127q62 -129 199 -129t199 129q15 31 26 68h180zM350 550l490 142q-12 83 -41 142
q-63 129 -199 129t-199 -129q-51 -105 -51 -284zM496 1528l160 -314l-110 -64l-212 284z" />
    <glyph glyph-name="eacute" unicode="&#xe9;" 
d="M1005 334q-31 -114 -91 -194q-120 -160 -314 -160q-193 0 -314 160q-116 153 -116 410t116 410q121 160 314 160q192 0 314 -160q108 -142 115 -374l-667 -193q13 -73 39 -127q62 -129 199 -129t199 129q15 31 26 68h180zM350 550l490 142q-12 83 -41 142
q-63 129 -199 129t-199 -129q-51 -105 -51 -284zM706 1528l162 -94l-212 -284l-110 64z" />
    <glyph glyph-name="ecircumflex" unicode="&#xea;" 
d="M338 1244l212 284h106l212 -284l-111 -72l-154 192l-156 -192zM1005 334q-31 -114 -91 -194q-120 -160 -314 -160q-193 0 -314 160q-116 153 -116 410t116 410q121 160 314 160q192 0 314 -160q108 -142 115 -374l-667 -193q13 -73 39 -127q62 -129 199 -129t199 129
q15 31 26 68h180zM350 550l490 142q-12 83 -41 142q-63 129 -199 129t-199 -129q-51 -105 -51 -284z" />
    <glyph glyph-name="edieresis" unicode="&#xeb;" 
d="M766 1520q59 0 94 -36q40 -41 40 -96t-40 -94q-39 -38 -94 -38q-57 0 -94 36q-40 39 -40 96t40 94.5t94 37.5zM434 1520q59 0 94 -36q40 -41 40 -96t-40 -94q-39 -38 -94 -38q-57 0 -94 36q-40 39 -40 96t40 94.5t94 37.5zM1005 334q-31 -114 -91 -194
q-120 -160 -314 -160q-193 0 -314 160q-116 153 -116 410t116 410q121 160 314 160q192 0 314 -160q108 -142 115 -374l-667 -193q13 -73 39 -127q62 -129 199 -129t199 129q15 31 26 68h180zM350 550l490 142q-12 83 -41 142q-63 129 -199 129t-199 -129q-51 -105 -51 -284
z" />
    <glyph glyph-name="igrave" unicode="&#xec;" 
d="M1150 97q-100 -117 -275 -117q-178 0 -274 112q-91 106 -91 309v539h-324v160h504v-699q0 -140 51 -206q48 -62 144 -62q101 0 173 86zM496 1528l160 -314l-110 -64l-212 284z" />
    <glyph glyph-name="iacute" unicode="&#xed;" 
d="M1150 97q-100 -117 -275 -117q-178 0 -274 112q-91 106 -91 309v539h-324v160h504v-699q0 -140 51 -206q48 -62 144 -62q101 0 173 86zM706 1528l162 -94l-212 -284l-110 64z" />
    <glyph glyph-name="icircumflex" unicode="&#xee;" 
d="M263 1244l212 284h106l212 -284l-111 -72l-154 192l-156 -192zM1150 97q-100 -117 -275 -117q-178 0 -274 112q-91 106 -91 309v539h-324v160h504v-699q0 -140 51 -206q48 -62 144 -62q101 0 173 86z" />
    <glyph glyph-name="idieresis" unicode="&#xef;" 
d="M678 1520q59 0 94 -36q40 -41 40 -96t-40 -94q-39 -38 -94 -38q-57 0 -94 36q-40 39 -40 96t40 94.5t94 37.5zM346 1520q59 0 94 -36q40 -41 40 -96t-40 -94q-39 -38 -94 -38q-57 0 -94 36q-40 39 -40 96t40 94.5t94 37.5zM1150 97q-100 -117 -275 -117q-178 0 -274 112
q-91 106 -91 309v539h-324v160h504v-699q0 -140 51 -206q48 -62 144 -62q101 0 173 86z" />
    <glyph glyph-name="eth" unicode="&#xf0;" 
d="M352 1459q97 61 228 61q160 0 269 -91l168 135l93 -102l-171 -137q13 -20 25 -42q106 -194 106 -533q0 -333 -106 -533q-126 -237 -384 -237q-214 0 -335 158q-115 150 -115 353q0 213 130 358q126 139 314 139q225 0 328 -291q0 383 -70 511q-6 11 -12 21l-196 -157
l-93 102l198 159q-64 47 -145 47q-90 0 -150 -48zM580 133q125 0 204 118q66 99 66 237q0 148 -78 247q-79 100 -192 100t-192 -100q-78 -99 -78 -247q0 -135 66 -237q76 -118 204 -118z" />
    <glyph glyph-name="ntilde" unicode="&#xf1;" 
d="M342 1298q25 227 173 227q77 0 119 -70q36 -60 55 -60q54 0 68 89h103q-25 -227 -173 -227q-77 0 -120 77q-32 57 -52 57q-54 0 -70 -93h-103zM186 0v1100h180v-237q85 257 317 257q142 0 240 -112q91 -104 91 -309v-699h-180v699q0 141 -51 206q-48 62 -144 62
q-101 0 -173 -86q-100 -119 -100 -289v-592h-180z" />
    <glyph glyph-name="ograve" unicode="&#xf2;" 
d="M600 137q136 0 199 129q51 105 51 284t-51 284q-63 129 -199 129t-199 -129q-51 -105 -51 -284t51 -284q63 -129 199 -129zM600 -20q-193 0 -314 160q-116 153 -116 410t116 410q121 160 314 160t314 -160q116 -153 116 -410t-116 -410q-121 -160 -314 -160zM496 1528
l160 -314l-110 -64l-212 284z" />
    <glyph glyph-name="oacute" unicode="&#xf3;" 
d="M600 137q136 0 199 129q51 105 51 284t-51 284q-63 129 -199 129t-199 -129q-51 -105 -51 -284t51 -284q63 -129 199 -129zM600 -20q-193 0 -314 160q-116 153 -116 410t116 410q121 160 314 160t314 -160q116 -153 116 -410t-116 -410q-121 -160 -314 -160zM706 1528
l162 -94l-212 -284l-110 64z" />
    <glyph glyph-name="ocircumflex" unicode="&#xf4;" 
d="M338 1244l212 284h106l212 -284l-111 -72l-154 192l-156 -192zM600 137q136 0 199 129q51 105 51 284t-51 284q-63 129 -199 129t-199 -129q-51 -105 -51 -284t51 -284q63 -129 199 -129zM600 -20q-193 0 -314 160q-116 153 -116 410t116 410q121 160 314 160t314 -160
q116 -153 116 -410t-116 -410q-121 -160 -314 -160z" />
    <glyph glyph-name="otilde" unicode="&#xf5;" 
d="M342 1298q25 227 173 227q77 0 119 -70q36 -60 55 -60q54 0 68 89h103q-25 -227 -173 -227q-77 0 -120 77q-32 57 -52 57q-54 0 -70 -93h-103zM600 137q136 0 199 129q51 105 51 284t-51 284q-63 129 -199 129t-199 -129q-51 -105 -51 -284t51 -284q63 -129 199 -129z
M600 -20q-193 0 -314 160q-116 153 -116 410t116 410q121 160 314 160t314 -160q116 -153 116 -410t-116 -410q-121 -160 -314 -160z" />
    <glyph glyph-name="odieresis" unicode="&#xf6;" 
d="M766 1520q59 0 94 -36q40 -41 40 -96t-40 -94q-39 -38 -94 -38q-57 0 -94 36q-40 39 -40 96t40 94.5t94 37.5zM434 1520q59 0 94 -36q40 -41 40 -96t-40 -94q-39 -38 -94 -38q-57 0 -94 36q-40 39 -40 96t40 94.5t94 37.5zM600 137q136 0 199 129q51 105 51 284t-51 284
q-63 129 -199 129t-199 -129q-51 -105 -51 -284t51 -284q63 -129 199 -129zM600 -20q-193 0 -314 160q-116 153 -116 410t116 410q121 160 314 160t314 -160q116 -153 116 -410t-116 -410q-121 -160 -314 -160z" />
    <glyph glyph-name="divide" unicode="&#xf7;" 
d="M600 1192q59 0 94 -36q40 -41 40 -96t-40 -94q-39 -38 -94 -38q-57 0 -94 36q-40 39 -40 96t40 94.5t94 37.5zM600 556q59 0 94 -36q40 -41 40 -96t-40 -94q-39 -38 -94 -38q-57 0 -94 36q-40 39 -40 96t40 94.5t94 37.5zM186 670v160h828v-160h-828z" />
    <glyph glyph-name="oslash" unicode="&#xf8;" 
d="M237 0l65 121q-8 9 -16 19q-116 145 -116 410q0 257 116 410q121 160 314 160q116 0 206 -58l20 38h137l-64 -121q7 -9 15 -19q116 -145 116 -410q0 -257 -116 -410q-121 -160 -314 -160q-115 0 -204 57l-20 -37h-139zM600 137q136 0 199 129q51 104 51 284
q0 160 -41 261l-338 -634q53 -40 129 -40zM391 288l340 634q-54 41 -131 41q-136 0 -199 -129q-51 -105 -51 -284q0 -161 41 -262z" />
    <glyph glyph-name="ugrave" unicode="&#xf9;" 
d="M1014 0h-180v237q-85 -257 -317 -257q-142 0 -240 112q-91 104 -91 309v699h180v-699q0 -141 51 -206q48 -62 144 -62q101 0 173 86q100 119 100 289v592h180v-1100zM496 1528l160 -314l-110 -64l-212 284z" />
    <glyph glyph-name="uacute" unicode="&#xfa;" 
d="M1014 0h-180v237q-85 -257 -317 -257q-142 0 -240 112q-91 104 -91 309v699h180v-699q0 -141 51 -206q48 -62 144 -62q101 0 173 86q100 119 100 289v592h180v-1100zM706 1528l162 -94l-212 -284l-110 64z" />
    <glyph glyph-name="ucircumflex" unicode="&#xfb;" 
d="M338 1244l212 284h106l212 -284l-111 -72l-154 192l-156 -192zM1014 0h-180v237q-85 -257 -317 -257q-142 0 -240 112q-91 104 -91 309v699h180v-699q0 -141 51 -206q48 -62 144 -62q101 0 173 86q100 119 100 289v592h180v-1100z" />
    <glyph glyph-name="udieresis" unicode="&#xfc;" 
d="M766 1520q59 0 94 -36q40 -41 40 -96t-40 -94q-39 -38 -94 -38q-57 0 -94 36q-40 39 -40 96t40 94.5t94 37.5zM434 1520q59 0 94 -36q40 -41 40 -96t-40 -94q-39 -38 -94 -38q-57 0 -94 36q-40 39 -40 96t40 94.5t94 37.5zM1014 0h-180v237q-85 -257 -317 -257
q-142 0 -240 112q-91 104 -91 309v699h180v-699q0 -141 51 -206q48 -62 144 -62q101 0 173 86q100 119 100 289v592h180v-1100z" />
    <glyph glyph-name="yacute" unicode="&#xfd;" 
d="M517 -20q-142 0 -240 112q-91 104 -91 309v699h180v-699q0 -141 51 -206q48 -62 144 -62q101 0 173 86q100 119 100 289v592h180v-950q0 -261 -116 -410q-125 -160 -319 -160q-190 0 -315 168l137 89q63 -100 183 -100q136 0 199 129q51 105 51 284v87
q-85 -257 -317 -257zM706 1528l162 -94l-212 -284l-110 64z" />
    <glyph glyph-name="thorn" unicode="&#xfe;" 
d="M600 963q-122 0 -185 -129q-51 -105 -51 -284t51 -284q63 -129 185 -129q136 0 199 129q51 105 51 284t-51 284q-63 129 -199 129zM196 1500h170v-538q56 158 234 158q193 0 314 -160q116 -153 116 -410t-116 -410q-121 -160 -314 -160q-165 0 -234 158v-538h-170v1900z
" />
    <glyph glyph-name="ydieresis" unicode="&#xff;" 
d="M766 1520q59 0 94 -36q40 -41 40 -96t-40 -94q-39 -38 -94 -38q-57 0 -94 36q-40 39 -40 96t40 94.5t94 37.5zM434 1520q59 0 94 -36q40 -41 40 -96t-40 -94q-39 -38 -94 -38q-57 0 -94 36q-40 39 -40 96t40 94.5t94 37.5zM517 -20q-142 0 -240 112q-91 104 -91 309v699
h180v-699q0 -141 51 -206q48 -62 144 -62q101 0 173 86q100 119 100 289v592h180v-950q0 -261 -116 -410q-125 -160 -319 -160q-190 0 -315 168l137 89q63 -100 183 -100q136 0 199 129q51 105 51 284v87q-85 -257 -317 -257z" />
    <glyph glyph-name="Amacron" unicode="&#x100;" 
d="M50 0q134 720 460 1500h180q338 -780 460 -1500h-180q-57 341 -150 670h-439q-91 -325 -151 -670h-180zM429 830h343q-76 244 -172 480q-95 -234 -171 -480zM370 1670v160h468v-160h-468z" />
    <glyph glyph-name="amacron" unicode="&#x101;" 
d="M1002 0h-180v237q-83 -257 -309 -257q-162 0 -252 106q-81 95 -81 213q0 177 141 276q110 78 260 78h236q0 140 -31 199q-59 112 -191 112q-159 0 -222 -130l-115 126q121 160 360 160q203 0 313 -162q71 -105 71 -304v-654zM822 507h-238q-112 0 -176 -59
q-56 -52 -56 -141q0 -67 44 -115q54 -59 153 -59q105 0 173 86q100 124 100 288zM366 1310v160h468v-160h-468z" />
    <glyph glyph-name="Abreve" unicode="&#x102;" 
d="M50 0q134 720 460 1500h180q338 -780 460 -1500h-180q-57 341 -150 670h-439q-91 -325 -151 -670h-180zM429 830h343q-76 244 -172 480q-95 -234 -171 -480zM306 1861h137q63 -77 149 -77q101 0 154 77h134q-101 -229 -288 -229q-194 0 -286 229z" />
    <glyph glyph-name="abreve" unicode="&#x103;" 
d="M314 1488h137q63 -77 149 -77q101 0 154 77h134q-101 -229 -288 -229q-194 0 -286 229zM1002 0h-180v237q-83 -257 -309 -257q-162 0 -252 106q-81 95 -81 213q0 177 141 276q110 78 260 78h236q0 140 -31 199q-59 112 -191 112q-159 0 -222 -130l-115 126
q121 160 360 160q203 0 313 -162q71 -105 71 -304v-654zM822 507h-238q-112 0 -176 -59q-56 -52 -56 -141q0 -67 44 -115q54 -59 153 -59q105 0 173 86q100 124 100 288z" />
    <glyph glyph-name="Aogonek" unicode="&#x104;" 
d="M429 830h343q-76 244 -172 480q-95 -234 -171 -480zM50 0q134 720 460 1500h180q338 -780 460 -1500h-178q-44 -47 -44 -110q0 -72 82 -111v-189q-214 90 -214 284q0 148 153 244q-52 280 -129 552h-439q-91 -325 -151 -670h-180z" />
    <glyph glyph-name="aogonek" unicode="&#x105;" 
d="M822 507h-238q-112 0 -176 -59q-56 -52 -56 -141q0 -67 44 -115q54 -59 153 -59q104 0 173 86q100 125 100 288zM1002 0h-56q-44 -47 -44 -110q0 -72 82 -111v-189q-214 90 -214 284q0 86 52 155v208q-83 -257 -309 -257q-162 0 -252 106q-81 95 -81 213q0 177 141 276
q111 78 260 78h236q0 140 -31 199q-59 112 -191 112q-159 0 -222 -130l-115 126q121 160 360 160q203 0 313 -162q71 -105 71 -304v-654z" />
    <glyph glyph-name="Cacute" unicode="&#x106;" 
d="M1033 334q-23 -67 -49 -117q-124 -237 -384 -237q-258 0 -384 237q-106 200 -106 533q0 334 106 533q126 237 384 237q259 0 384 -237q31 -59 49 -117h-186q-7 17 -15 32q-90 169 -232 169q-141 0 -232 -169q-78 -145 -78 -448q0 -309 78 -448q95 -169 232 -169
q142 0 232 169q8 15 15 32h186zM706 1930l162 -94l-212 -284l-110 64z" />
    <glyph glyph-name="cacute" unicode="&#x107;" 
d="M1005 334q-31 -113 -91 -194q-119 -160 -314 -160q-193 0 -314 160q-116 153 -116 410t116 410q121 160 314 160q195 0 314 -160q60 -81 91 -195h-180q-11 38 -26 69q-62 129 -199 129q-136 0 -199 -129q-51 -105 -51 -284t51 -284q63 -129 199 -129q137 0 199 129
q15 31 26 68h180zM706 1528l162 -94l-212 -284l-110 64z" />
    <glyph glyph-name="Ccircumflex" unicode="&#x108;" 
d="M338 1646l212 284h106l212 -284l-111 -72l-154 192l-156 -192zM1033 334q-23 -67 -49 -117q-124 -237 -384 -237q-258 0 -384 237q-106 200 -106 533q0 334 106 533q126 237 384 237q259 0 384 -237q31 -59 49 -117h-186q-7 17 -15 32q-90 169 -232 169q-141 0 -232 -169
q-78 -145 -78 -448q0 -309 78 -448q95 -169 232 -169q142 0 232 169q8 15 15 32h186z" />
    <glyph glyph-name="ccircumflex" unicode="&#x109;" 
d="M338 1244l212 284h106l212 -284l-111 -72l-154 192l-156 -192zM1005 334q-31 -113 -91 -194q-119 -160 -314 -160q-193 0 -314 160q-116 153 -116 410t116 410q121 160 314 160q195 0 314 -160q60 -81 91 -195h-180q-11 38 -26 69q-62 129 -199 129q-136 0 -199 -129
q-51 -105 -51 -284t51 -284q63 -129 199 -129q137 0 199 129q15 31 26 68h180z" />
    <glyph glyph-name="Cdotaccent" unicode="&#x10a;" 
d="M600 1881q59 0 94 -36q40 -41 40 -96t-40 -94q-39 -38 -94 -38q-57 0 -94 36q-40 39 -40 96t40 94.5t94 37.5zM1033 334q-23 -67 -49 -117q-124 -237 -384 -237q-258 0 -384 237q-106 200 -106 533q0 334 106 533q126 237 384 237q259 0 384 -237q31 -59 49 -117h-186
q-7 17 -15 32q-90 169 -232 169q-141 0 -232 -169q-78 -145 -78 -448q0 -309 78 -448q95 -169 232 -169q142 0 232 169q8 15 15 32h186z" />
    <glyph glyph-name="cdotaccent" unicode="&#x10b;" 
d="M600 1520q59 0 94 -36q40 -41 40 -96t-40 -94q-39 -38 -94 -38q-57 0 -94 36q-40 39 -40 96t40 94.5t94 37.5zM1005 334q-31 -113 -91 -194q-119 -160 -314 -160q-193 0 -314 160q-116 153 -116 410t116 410q121 160 314 160q195 0 314 -160q60 -81 91 -195h-180
q-11 38 -26 69q-62 129 -199 129q-136 0 -199 -129q-51 -105 -51 -284t51 -284q63 -129 199 -129q137 0 199 129q15 31 26 68h180z" />
    <glyph glyph-name="Ccaron" unicode="&#x10c;" 
d="M869 1858l-212 -284h-106l-212 284l111 72l154 -192l156 192zM1033 334q-23 -67 -49 -117q-124 -237 -384 -237q-258 0 -384 237q-106 200 -106 533q0 334 106 533q126 237 384 237q259 0 384 -237q31 -59 49 -117h-186q-7 17 -15 32q-90 169 -232 169q-141 0 -232 -169
q-78 -145 -78 -448q0 -309 78 -448q95 -169 232 -169q142 0 232 169q8 15 15 32h186z" />
    <glyph glyph-name="ccaron" unicode="&#x10d;" 
d="M868 1456l-212 -284h-106l-212 284l111 72l154 -192l156 192zM1005 334q-31 -113 -91 -194q-119 -160 -314 -160q-193 0 -314 160q-116 153 -116 410t116 410q121 160 314 160q195 0 314 -160q60 -81 91 -195h-180q-11 38 -26 69q-62 129 -199 129q-136 0 -199 -129
q-51 -105 -51 -284t51 -284q63 -129 199 -129q137 0 199 129q15 31 26 68h180z" />
    <glyph glyph-name="Dcaron" unicode="&#x10e;" 
d="M869 1858l-212 -284h-106l-212 284l111 72l154 -192l156 192zM329 153h222q193 0 282 169q77 146 77 428q0 283 -78 428q-91 169 -282 169h-220zM150 0v1500h400q309 0 434 -237q106 -201 106 -513q0 -310 -105 -513q-124 -237 -434 -237h-401z" />
    <glyph glyph-name="dcaron" unicode="&#x10f;" 
d="M510 137q122 0 185 129q51 105 51 284t-51 284q-63 129 -185 129q-136 0 -199 -129q-51 -105 -51 -284t51 -284q63 -129 199 -129zM924 0h-180v138q-56 -158 -234 -158q-193 0 -314 160q-116 153 -116 410t116 410q121 160 314 160q165 0 234 -158v538h180v-1500z
M1041 1519l176 -64l-160 -317l-119 44z" />
    <glyph glyph-name="Dcroat" unicode="&#x110;" 
d="M329 153h222q193 0 282 169q77 146 77 428q0 283 -78 428q-91 169 -282 169h-220v-527h324v-140h-325v-527zM150 0v680h-70v140h70v680h400q309 0 434 -237q106 -201 106 -513q0 -310 -105 -513q-124 -237 -434 -237h-401z" />
    <glyph glyph-name="dcroat" unicode="&#x111;" 
d="M1014 0h-180v138q-56 -158 -234 -158q-193 0 -314 160q-116 153 -116 410t116 410q121 160 314 160q165 0 234 -158v256h-288v140h288v142h180v-142h106v-140h-106v-1218zM600 137q122 0 185 129q51 105 51 284t-51 284q-63 129 -185 129q-136 0 -199 -129
q-51 -105 -51 -284t51 -284q63 -129 199 -129z" />
    <glyph glyph-name="Emacron" unicode="&#x112;" 
d="M186 0v1500h760v-160h-580v-510h455v-160h-455v-510h648v-160h-828zM370 1670v160h468v-160h-468z" />
    <glyph glyph-name="emacron" unicode="&#x113;" 
d="M1005 334q-31 -114 -91 -194q-120 -160 -314 -160q-193 0 -314 160q-116 153 -116 410t116 410q121 160 314 160q192 0 314 -160q108 -142 115 -374l-667 -193q13 -73 39 -127q62 -129 199 -129t199 129q15 31 26 68h180zM350 550l490 142q-12 83 -41 142
q-63 129 -199 129t-199 -129q-51 -105 -51 -284zM366 1310v160h468v-160h-468z" />
    <glyph glyph-name="Ebreve" unicode="&#x114;" 
d="M306 1861h137q63 -77 149 -77q101 0 154 77h134q-101 -229 -288 -229q-194 0 -286 229zM186 0v1500h760v-160h-580v-510h455v-160h-455v-510h648v-160h-828z" />
    <glyph glyph-name="ebreve" unicode="&#x115;" 
d="M314 1488h137q63 -77 149 -77q101 0 154 77h134q-101 -229 -288 -229q-194 0 -286 229zM1005 334q-31 -114 -91 -194q-120 -160 -314 -160q-193 0 -314 160q-116 153 -116 410t116 410q121 160 314 160q192 0 314 -160q108 -142 115 -374l-667 -193q13 -73 39 -127
q62 -129 199 -129t199 129q15 31 26 68h180zM350 550l490 142q-12 83 -41 142q-63 129 -199 129t-199 -129q-51 -105 -51 -284z" />
    <glyph glyph-name="Edotaccent" unicode="&#x116;" 
d="M600 1881q59 0 94 -36q40 -41 40 -96t-40 -94q-39 -38 -94 -38q-57 0 -94 36q-40 39 -40 96t40 94.5t94 37.5zM186 0v1500h760v-160h-580v-510h455v-160h-455v-510h648v-160h-828z" />
    <glyph glyph-name="edotaccent" unicode="&#x117;" 
d="M600 1520q59 0 94 -36q40 -41 40 -96t-40 -94q-39 -38 -94 -38q-57 0 -94 36q-40 39 -40 96t40 94.5t94 37.5zM1005 334q-31 -114 -91 -194q-120 -160 -314 -160q-193 0 -314 160q-116 153 -116 410t116 410q121 160 314 160q192 0 314 -160q108 -142 115 -374l-667 -193
q13 -73 39 -127q62 -129 199 -129t199 129q15 31 26 68h180zM350 550l490 142q-12 83 -41 142q-63 129 -199 129t-199 -129q-51 -105 -51 -284z" />
    <glyph glyph-name="Eogonek" unicode="&#x118;" 
d="M186 0v1500h760v-160h-580v-510h455v-160h-455v-510h648v-160h-61q-44 -47 -44 -110q0 -72 82 -111v-189q-214 90 -214 284q0 69 33 126h-624z" />
    <glyph glyph-name="eogonek" unicode="&#x119;" 
d="M350 550l490 142q-12 83 -41 142q-63 129 -199 129t-199 -129q-51 -105 -51 -284zM1005 334q-31 -113 -91 -194q-44 -59 -99 -97q-98 -59 -98 -153q0 -72 82 -111v-189q-214 90 -214 284q0 57 23 106q-201 0 -322 160q-116 153 -116 410t116 410q121 160 314 160
q192 0 314 -160q108 -142 115 -374l-667 -193q13 -73 39 -127q62 -129 199 -129t199 129q15 31 26 68h180z" />
    <glyph glyph-name="Ecaron" unicode="&#x11a;" 
d="M869 1858l-212 -284h-106l-212 284l111 72l154 -192l156 192zM186 0v1500h760v-160h-580v-510h455v-160h-455v-510h648v-160h-828z" />
    <glyph glyph-name="ecaron" unicode="&#x11b;" 
d="M868 1456l-212 -284h-106l-212 284l111 72l154 -192l156 192zM1005 334q-31 -114 -91 -194q-120 -160 -314 -160q-193 0 -314 160q-116 153 -116 410t116 410q121 160 314 160q192 0 314 -160q108 -142 115 -374l-667 -193q13 -73 39 -127q62 -129 199 -129t199 129
q15 31 26 68h180zM350 550l490 142q-12 83 -41 142q-63 129 -199 129t-199 -129q-51 -105 -51 -284z" />
    <glyph glyph-name="Gcircumflex" unicode="&#x11c;" 
d="M338 1646l212 284h106l212 -284l-111 -72l-154 192l-156 -192zM1090 830v-80q0 -330 -106 -533q-124 -237 -384 -237q-258 0 -384 237q-106 200 -106 533q0 334 106 533q126 237 384 237q259 0 384 -237q31 -59 49 -117h-186q-7 17 -15 32q-90 169 -232 169
q-141 0 -232 -169q-78 -145 -78 -448q0 -309 78 -448q95 -169 232 -169q142 0 232 169q67 126 76 368l-313 -1v160z" />
    <glyph glyph-name="gcircumflex" unicode="&#x11d;" 
d="M338 1244l212 284h106l212 -284l-111 -72l-154 192l-156 -192zM600 963q-136 0 -199 -129q-51 -105 -51 -284t51 -284q63 -129 199 -129q122 0 185 129q51 105 51 284t-51 284q-63 129 -185 129zM264 -252l137 89q63 -100 183 -100q136 0 199 129q51 105 51 272
q-69 -158 -234 -158q-193 0 -314 160q-116 153 -116 410t116 410q121 160 314 160q178 0 234 -158v138h180v-950q0 -259 -116 -410q-124 -160 -317 -160q-192 0 -317 168z" />
    <glyph glyph-name="Gbreve" unicode="&#x11e;" 
d="M306 1861h137q63 -77 149 -77q101 0 154 77h134q-101 -229 -288 -229q-194 0 -286 229zM1090 830v-80q0 -330 -106 -533q-124 -237 -384 -237q-258 0 -384 237q-106 200 -106 533q0 334 106 533q126 237 384 237q259 0 384 -237q31 -59 49 -117h-186q-7 17 -15 32
q-90 169 -232 169q-141 0 -232 -169q-78 -145 -78 -448q0 -309 78 -448q95 -169 232 -169q142 0 232 169q67 126 76 368l-313 -1v160z" />
    <glyph glyph-name="gbreve" unicode="&#x11f;" 
d="M314 1488h137q63 -77 149 -77q101 0 154 77h134q-101 -229 -288 -229q-194 0 -286 229zM600 963q-136 0 -199 -129q-51 -105 -51 -284t51 -284q63 -129 199 -129q122 0 185 129q51 105 51 284t-51 284q-63 129 -185 129zM264 -252l137 89q63 -100 183 -100q136 0 199 129
q51 105 51 272q-69 -158 -234 -158q-193 0 -314 160q-116 153 -116 410t116 410q121 160 314 160q178 0 234 -158v138h180v-950q0 -259 -116 -410q-124 -160 -317 -160q-192 0 -317 168z" />
    <glyph glyph-name="Gdotaccent" unicode="&#x120;" 
d="M600 1881q59 0 94 -36q40 -41 40 -96t-40 -94q-39 -38 -94 -38q-57 0 -94 36q-40 39 -40 96t40 94.5t94 37.5zM1090 830v-80q0 -330 -106 -533q-124 -237 -384 -237q-258 0 -384 237q-106 200 -106 533q0 334 106 533q126 237 384 237q259 0 384 -237q31 -59 49 -117
h-186q-7 17 -15 32q-90 169 -232 169q-141 0 -232 -169q-78 -145 -78 -448q0 -309 78 -448q95 -169 232 -169q142 0 232 169q67 126 76 368l-313 -1v160z" />
    <glyph glyph-name="gdotaccent" unicode="&#x121;" 
d="M600 1520q59 0 94 -36q40 -41 40 -96t-40 -94q-39 -38 -94 -38q-57 0 -94 36q-40 39 -40 96t40 94.5t94 37.5zM600 963q-136 0 -199 -129q-51 -105 -51 -284t51 -284q63 -129 199 -129q122 0 185 129q51 105 51 284t-51 284q-63 129 -185 129zM264 -252l137 89
q63 -100 183 -100q136 0 199 129q51 105 51 272q-69 -158 -234 -158q-193 0 -314 160q-116 153 -116 410t116 410q121 160 314 160q178 0 234 -158v138h180v-950q0 -259 -116 -410q-124 -160 -317 -160q-192 0 -317 168z" />
    <glyph glyph-name="Gcommaaccent" unicode="&#x122;" 
d="M1090 830v-80q0 -330 -106 -533q-124 -237 -384 -237q-258 0 -384 237q-106 200 -106 533q0 334 106 533q126 237 384 237q259 0 384 -237q31 -59 49 -117h-186q-7 17 -15 32q-90 169 -232 169q-141 0 -232 -169q-78 -145 -78 -448q0 -309 78 -448q95 -169 232 -169
q142 0 232 169q67 126 76 368l-313 -1v160zM494 -410l-162 94l212 284l110 -64z" />
    <glyph glyph-name="gcommaaccent" unicode="&#x123;" 
d="M600 963q-136 0 -199 -129q-51 -105 -51 -284t51 -284q63 -129 199 -129q122 0 185 129q51 105 51 284t-51 284q-63 129 -185 129zM264 -252l137 89q63 -100 183 -100q136 0 199 129q51 105 51 272q-69 -158 -234 -158q-193 0 -314 160q-116 153 -116 410t116 410
q121 160 314 160q178 0 234 -158v138h180v-950q0 -259 -116 -410q-124 -160 -317 -160q-192 0 -317 168zM706 1528l162 -94l-212 -284l-110 64z" />
    <glyph glyph-name="Hcircumflex" unicode="&#x124;" 
d="M338 1646l212 284h106l212 -284l-111 -72l-154 192l-156 -192zM150 1500h180v-670h540v670h180v-1500h-180v670h-540v-670h-180v1500z" />
    <glyph glyph-name="hcircumflex" unicode="&#x125;" 
d="M338 1646l212 284h106l212 -284l-111 -72l-154 192l-156 -192zM186 0v1500h180v-637q85 257 317 257q142 0 240 -112q91 -104 91 -309v-699h-180v699q0 141 -51 206q-48 62 -144 62q-101 0 -173 -86q-100 -119 -100 -289v-592h-180z" />
    <glyph glyph-name="Hbar" unicode="&#x126;" 
d="M150 0v1218h-70v140h70v142h180v-142h540v142h180v-142h70v-140h-70v-1218h-180v670h-540v-670h-180zM870 1218h-540v-388h540v388z" />
    <glyph glyph-name="hbar" unicode="&#x127;" 
d="M186 0v1218h-106v140h106v142h180v-142h288v-140h-288v-355q85 257 317 257q142 0 240 -112q91 -104 91 -309v-699h-180v699q0 141 -51 206q-48 62 -144 62q-101 0 -173 -86q-100 -119 -100 -289v-592h-180z" />
    <glyph glyph-name="Itilde" unicode="&#x128;" 
d="M339 1657q25 227 173 227q77 0 119 -70q36 -60 55 -60q54 0 68 89h103q-25 -227 -173 -227q-77 0 -120 77q-32 57 -52 57q-54 0 -70 -93h-103zM186 0v160h324v1180h-324v160h828v-160h-324v-1180h324v-160h-828z" />
    <glyph glyph-name="itilde" unicode="&#x129;" 
d="M291 1298q25 227 173 227q77 0 119 -70q36 -60 55 -60q54 0 68 89h103q-25 -227 -173 -227q-77 0 -120 77q-32 57 -52 57q-54 0 -70 -93h-103zM1150 97q-100 -117 -275 -117q-178 0 -274 112q-91 106 -91 309v539h-324v160h504v-699q0 -140 51 -206q48 -62 144 -62
q101 0 173 86z" />
    <glyph glyph-name="Imacron" unicode="&#x12a;" 
d="M370 1670v160h468v-160h-468zM186 0v160h324v1180h-324v160h828v-160h-324v-1180h324v-160h-828z" />
    <glyph glyph-name="imacron" unicode="&#x12b;" 
d="M1150 97q-100 -117 -275 -117q-178 0 -274 112q-91 106 -91 309v539h-324v160h504v-699q0 -140 51 -206q48 -62 144 -62q101 0 173 86zM366 1310v160h468v-160h-468z" />
    <glyph glyph-name="Ibreve" unicode="&#x12c;" 
d="M306 1861h137q63 -77 149 -77q101 0 154 77h134q-101 -229 -288 -229q-194 0 -286 229zM186 0v160h324v1180h-324v160h828v-160h-324v-1180h324v-160h-828z" />
    <glyph glyph-name="ibreve" unicode="&#x12d;" 
d="M254 1488h137q63 -77 149 -77q101 0 154 77h134q-101 -229 -288 -229q-194 0 -286 229zM1150 97q-100 -117 -275 -117q-178 0 -274 112q-91 106 -91 309v539h-324v160h504v-699q0 -140 51 -206q48 -62 144 -62q101 0 173 86z" />
    <glyph glyph-name="Iogonek" unicode="&#x12e;" 
d="M186 0v160h324v1180h-324v160h828v-160h-324v-1180h324v-160h-61q-44 -47 -44 -110q0 -72 82 -111v-189q-214 90 -214 284q0 69 33 126h-624z" />
    <glyph glyph-name="iogonek" unicode="&#x12f;" 
d="M560 1520q59 0 94 -36q40 -41 40 -96t-40 -94q-39 -38 -94 -38q-57 0 -94 36q-40 39 -40 96t40 94.5t94 37.5zM1150 97q-35 -42 -80 -69q-76 -55 -76 -138q0 -72 82 -111v-189q-214 90 -214 284q0 57 23 106q-188 0 -284 112q-91 106 -91 309v539h-324v160h504v-699
q0 -140 51 -206q48 -62 144 -62q101 0 173 86z" />
    <glyph glyph-name="Idotaccent" unicode="&#x130;" 
d="M600 1881q59 0 94 -36q40 -41 40 -96t-40 -94q-39 -38 -94 -38q-57 0 -94 36q-40 39 -40 96t40 94.5t94 37.5zM186 0v160h324v1180h-324v160h828v-160h-324v-1180h324v-160h-828z" />
    <glyph glyph-name="dotlessi" unicode="&#x131;" 
d="M1150 97q-100 -117 -275 -117q-178 0 -274 112q-91 106 -91 309v539h-324v160h504v-699q0 -140 51 -206q48 -62 144 -62q101 0 173 86z" />
    <glyph glyph-name="IJ" unicode="&#x132;" 
d="M619 1500h461l1 -1058q0 -216 -68 -332q-76 -130 -223 -130q-152 0 -226 136q-59 108 -59 326h168q0 -134 25 -213q31 -96 102 -96q60 0 92 91q25 67 25 218v898h-298v160zM30 0v160h147v1180h-147v160h463v-160h-156v-1180h156v-160h-463z" />
    <glyph glyph-name="ij" unicode="&#x133;" 
d="M60 1100h364v-699q0 -136 56 -207q48 -61 149 -61v-153q-178 0 -274 112q-91 106 -91 309v539h-204v160zM294 1520q59 0 94 -36q40 -41 40 -96t-40 -94q-39 -38 -94 -38q-57 0 -94 36q-40 39 -40 96t40 94.5t94 37.5zM884 1520q59 0 94 -36q40 -41 40 -96t-40 -94
q-39 -38 -94 -38q-57 0 -94 36q-40 39 -40 96t40 94.5t94 37.5zM374 -303l92 122q72 -86 173 -86q97 0 152 59q63 71 63 209v939h-224v160h384v-1099q0 -207 -91 -309q-100 -112 -273 -112q-176 0 -276 117z" />
    <glyph glyph-name="Jcircumflex" unicode="&#x134;" 
d="M429 1646l212 284h106l212 -284l-111 -72l-154 192l-156 -192zM100 434h180q0 -121 65 -203q78 -98 205 -98q120 0 203 100q67 81 67 201v906h-540v160h720v-1066q0 -180 -119 -314q-126 -140 -331 -140q-201 0 -334 141q-116 123 -116 313z" />
    <glyph glyph-name="jcircumflex" unicode="&#x135;" 
d="M370 1244l212 284h106l212 -284l-111 -72l-154 192l-156 -192zM159 -303l92 122q72 -86 173 -86q96 0 144 62q51 66 51 206v939h-324v160h504v-1099q0 -207 -91 -309q-100 -112 -273 -112q-176 0 -276 117z" />
    <glyph glyph-name="Kcommaaccent" unicode="&#x136;" 
d="M150 0v1500h180v-872q350 406 505 872h180q-151 -422 -388 -748q263 -336 423 -752h-182q-148 348 -347 622q-81 -112 -191 -226v-396h-180zM494 -410l-162 94l212 284l110 -64z" />
    <glyph glyph-name="kcommaaccent" unicode="&#x137;" 
d="M186 0v1500h180v-1135q338 283 449 735h180q-71 -292 -246 -548q157 -240 265 -552h-182q-82 236 -198 405q-115 -123 -268 -248v-157h-180zM494 -410l-162 94l212 284l110 -64z" />
    <glyph glyph-name="kgreenlandic" unicode="&#x138;" 
d="M186 0v1100h180v-735q338 283 449 735h180q-71 -292 -246 -548q157 -240 265 -552h-182q-82 236 -198 405q-115 -123 -268 -248v-157h-180z" />
    <glyph glyph-name="Lacute" unicode="&#x139;" 
d="M186 0v1500h180v-1340h648v-160h-828zM424 1930l162 -94l-212 -284l-110 64z" />
    <glyph glyph-name="lacute" unicode="&#x13a;" 
d="M1150 97q-100 -117 -276 -117q-173 0 -273 112q-91 102 -91 309v939h-324v160h504v-1099q0 -140 51 -206q48 -62 144 -62q101 0 173 86zM665 1930l162 -94l-212 -284l-110 64z" />
    <glyph glyph-name="Lcommaaccent" unicode="&#x13b;" 
d="M186 0v1500h180v-1340h648v-160h-828zM494 -410l-162 94l212 284l110 -64z" />
    <glyph glyph-name="lcommaaccent" unicode="&#x13c;" 
d="M1150 97q-100 -117 -276 -117q-173 0 -273 112q-91 102 -91 309v939h-324v160h504v-1099q0 -140 51 -206q48 -62 144 -62q101 0 173 86zM494 -410l-162 94l212 284l110 -64z" />
    <glyph glyph-name="Lcaron" unicode="&#x13d;" 
d="M186 0v1500h180v-1340h648v-160h-828zM706 1528l162 -94l-212 -284l-110 64z" />
    <glyph glyph-name="lcaron" unicode="&#x13e;" 
d="M1150 97q-100 -117 -276 -117q-173 0 -273 112q-91 102 -91 309v939h-324v160h504v-1099q0 -140 51 -206q48 -62 144 -62q101 0 173 86zM938 1528l162 -94l-212 -284l-110 64z" />
    <glyph glyph-name="Ldot" unicode="&#x13f;" 
d="M683 1120q59 0 94 -36q40 -41 40 -96t-40 -94q-39 -38 -94 -38q-57 0 -94 36q-40 39 -40 96t40 94.5t94 37.5zM186 0v1500h180v-1340h648v-160h-828z" />
    <glyph glyph-name="ldot" unicode="&#x140;" 
d="M925 1120q59 0 94 -36q40 -41 40 -96t-40 -94q-39 -38 -94 -38q-57 0 -94 36q-40 39 -40 96t40 94.5t94 37.5zM1150 97q-100 -117 -276 -117q-173 0 -273 112q-91 102 -91 309v939h-324v160h504v-1099q0 -140 51 -206q48 -62 144 -62q101 0 173 86z" />
    <glyph glyph-name="Lslash" unicode="&#x141;" 
d="M186 0v431l-94 101l94 79v889h180v-738l361 302l93 -102l-454 -380v-422h648v-160h-828z" />
    <glyph glyph-name="lslash" unicode="&#x142;" 
d="M1150 97q-100 -117 -276 -117q-173 0 -273 112q-91 102 -91 309v169l-176 -147l-93 102l269 225v590h-324v160h504v-599l186 156l93 -102l-279 -234v-320q0 -140 51 -206q48 -62 144 -62q101 0 173 86z" />
    <glyph glyph-name="Nacute" unicode="&#x143;" 
d="M150 0v1500h180q402 -466 560 -1038v1038h160v-1500h-160q-244 843 -580 1264v-1264h-160zM706 1930l162 -94l-212 -284l-110 64z" />
    <glyph glyph-name="nacute" unicode="&#x144;" 
d="M186 0v1100h180v-237q85 257 317 257q142 0 240 -112q91 -104 91 -309v-699h-180v699q0 141 -51 206q-48 62 -144 62q-101 0 -173 -86q-100 -119 -100 -289v-592h-180zM706 1528l162 -94l-212 -284l-110 64z" />
    <glyph glyph-name="Ncommaaccent" unicode="&#x145;" 
d="M150 0v1500h180q402 -466 560 -1038v1038h160v-1500h-160q-244 843 -580 1264v-1264h-160zM494 -410l-162 94l212 284l110 -64z" />
    <glyph glyph-name="ncommaaccent" unicode="&#x146;" 
d="M186 0v1100h180v-237q85 257 317 257q142 0 240 -112q91 -104 91 -309v-699h-180v699q0 141 -51 206q-48 62 -144 62q-101 0 -173 -86q-100 -119 -100 -289v-592h-180z" />
    <glyph glyph-name="Ncaron" unicode="&#x147;" 
d="M869 1858l-212 -284h-106l-212 284l111 72l154 -192l156 192zM150 0v1500h180q402 -466 560 -1038v1038h160v-1500h-160q-244 843 -580 1264v-1264h-160z" />
    <glyph glyph-name="ncaron" unicode="&#x148;" 
d="M868 1456l-212 -284h-106l-212 284l111 72l154 -192l156 192zM186 0v1100h180v-237q85 257 317 257q142 0 240 -112q91 -104 91 -309v-699h-180v699q0 141 -51 206q-48 62 -144 62q-101 0 -173 -86q-100 -119 -100 -289v-592h-180z" />
    <glyph glyph-name="napostrophe" unicode="&#x149;" 
d="M186 0v1100h180v-237q85 257 317 257q142 0 240 -112q91 -104 91 -309v-699h-180v699q0 141 -51 206q-48 62 -144 62q-101 0 -173 -86q-100 -119 -100 -289v-592h-180zM170 1432l162 -94l-212 -284l-110 64z" />
    <glyph glyph-name="Eng" unicode="&#x14a;" 
d="M150 0v1500h180q402 -466 560 -1038v1038h160v-1500q0 -185 -98 -284q-125 -126 -355 -126v131q149 0 231 86q61 64 62 193q-244 843 -580 1264v-1264h-160z" />
    <glyph glyph-name="eng" unicode="&#x14b;" 
d="M186 0v1100h180v-237q85 257 317 257q142 0 240 -112q91 -104 91 -309v-699q0 -185 -98 -284q-125 -126 -355 -126v135q142 0 213 77q60 65 60 198v699q0 141 -51 206q-48 62 -144 62q-101 0 -173 -86q-100 -119 -100 -289v-592h-180z" />
    <glyph glyph-name="Omacron" unicode="&#x14c;" 
d="M600 133q142 0 232 169q78 146 78 448q0 298 -78 448q-90 169 -232 169q-141 0 -232 -169q-78 -145 -78 -448q0 -309 78 -448q95 -169 232 -169zM600 -20q-258 0 -384 237q-106 200 -106 533t106 533q126 237 384 237q260 0 384 -237q106 -203 106 -533t-106 -533
q-124 -237 -384 -237zM370 1670v160h468v-160h-468z" />
    <glyph glyph-name="omacron" unicode="&#x14d;" 
d="M600 137q136 0 199 129q51 105 51 284t-51 284q-63 129 -199 129t-199 -129q-51 -105 -51 -284t51 -284q63 -129 199 -129zM600 -20q-193 0 -314 160q-116 153 -116 410t116 410q121 160 314 160t314 -160q116 -153 116 -410t-116 -410q-121 -160 -314 -160zM366 1310
v160h468v-160h-468z" />
    <glyph glyph-name="Obreve" unicode="&#x14e;" 
d="M306 1861h137q63 -77 149 -77q101 0 154 77h134q-101 -229 -288 -229q-194 0 -286 229zM600 133q142 0 232 169q78 146 78 448q0 298 -78 448q-90 169 -232 169q-141 0 -232 -169q-78 -145 -78 -448q0 -309 78 -448q95 -169 232 -169zM600 -20q-258 0 -384 237
q-106 200 -106 533t106 533q126 237 384 237q260 0 384 -237q106 -203 106 -533t-106 -533q-124 -237 -384 -237z" />
    <glyph glyph-name="obreve" unicode="&#x14f;" 
d="M314 1488h137q63 -77 149 -77q101 0 154 77h134q-101 -229 -288 -229q-194 0 -286 229zM600 137q136 0 199 129q51 105 51 284t-51 284q-63 129 -199 129t-199 -129q-51 -105 -51 -284t51 -284q63 -129 199 -129zM600 -20q-193 0 -314 160q-116 153 -116 410t116 410
q121 160 314 160t314 -160q116 -153 116 -410t-116 -410q-121 -160 -314 -160z" />
    <glyph glyph-name="Ohungarumlaut" unicode="&#x150;" 
d="M600 133q142 0 232 169q78 146 78 448q0 298 -78 448q-90 169 -232 169q-141 0 -232 -169q-78 -145 -78 -448q0 -309 78 -448q95 -169 232 -169zM600 -20q-258 0 -384 237q-106 200 -106 533t106 533q126 237 384 237q260 0 384 -237q106 -203 106 -533t-106 -533
q-124 -237 -384 -237zM553 1930l162 -94l-212 -284l-110 64zM825 1930l162 -94l-212 -284l-110 64z" />
    <glyph glyph-name="ohungarumlaut" unicode="&#x151;" 
d="M600 137q136 0 199 129q51 105 51 284t-51 284q-63 129 -199 129t-199 -129q-51 -105 -51 -284t51 -284q63 -129 199 -129zM600 -20q-193 0 -314 160q-116 153 -116 410t116 410q121 160 314 160t314 -160q116 -153 116 -410t-116 -410q-121 -160 -314 -160zM542 1528
l162 -94l-212 -284l-110 64zM814 1528l162 -94l-212 -284l-110 64z" />
    <glyph glyph-name="OE" unicode="&#x152;" 
d="M648 153v1194q-200 0 -291 -169q-78 -145 -78 -428q0 -282 77 -428q89 -169 292 -169zM1190 0h-542q-311 0 -434 237q-105 203 -105 513q0 312 106 513q125 237 433 237h478v-160h-308v-510h238v-160h-238v-510h372v-160z" />
    <glyph glyph-name="oe" unicode="&#x153;" 
d="M1115 334q-1 -170 -80 -262t-214 -92q-155 0 -224 126q-85 -126 -213 -126q-153 0 -225 94q-74 95 -74 260v431q0 167 86 266q77 88 213 89q140 0 216 -128q82 128 220 128q136 0 214 -92q81 -97 81 -263v-183l-429 -194v-54q0 -96 24 -138q38 -62 117 -62q74 0 107 64
q24 46 24 136h157zM825 968q-72 0 -108 -57q-31 -49 -31 -146v-216l272 110v106q0 98 -27 141q-40 62 -106 62zM522 334v431q0 96 -32 143q-41 59 -108 60q-70 0 -106 -54q-27 -42 -27 -149v-431q0 -97 22 -134q42 -67 114 -67q80 0 117 77q20 42 20 124z" />
    <glyph glyph-name="Racute" unicode="&#x154;" 
d="M330 1347v-694h216q147 0 229 87q95 101 95 260t-99 258q-90 89 -225 89h-216zM150 0v1500h396q203 0 339 -119q165 -144 165 -381q0 -243 -166 -384q-49 -42 -107 -69l323 -547h-209l-297 502q-23 -2 -48 -2h-216v-500h-180zM706 1930l162 -94l-212 -284l-110 64z" />
    <glyph glyph-name="racute" unicode="&#x155;" 
d="M186 0v1100h180v-237q85 257 317 257q159 0 251 -110q80 -96 80 -245h-180q0 93 -44 142q-54 60 -134 60q-118 0 -190 -86q-100 -119 -100 -289v-592h-180zM706 1528l162 -94l-212 -284l-110 64z" />
    <glyph glyph-name="Rcommaaccent" unicode="&#x156;" 
d="M330 1347v-694h216q147 0 229 87q95 101 95 260t-99 258q-90 89 -225 89h-216zM150 0v1500h396q203 0 339 -119q165 -144 165 -381q0 -243 -166 -384q-49 -42 -107 -69l323 -547h-209l-297 502q-23 -2 -48 -2h-216v-500h-180zM494 -410l-162 94l212 284l110 -64z" />
    <glyph glyph-name="rcommaaccent" unicode="&#x157;" 
d="M186 0v1100h180v-237q85 257 317 257q159 0 251 -110q80 -96 80 -245h-180q0 93 -44 142q-54 60 -134 60q-118 0 -190 -86q-100 -119 -100 -289v-592h-180zM228 -410l-162 94l212 284l110 -64z" />
    <glyph glyph-name="Rcaron" unicode="&#x158;" 
d="M330 1347v-694h216q147 0 229 87q95 101 95 260t-99 258q-90 89 -225 89h-216zM150 0v1500h396q203 0 339 -119q165 -144 165 -381q0 -243 -166 -384q-49 -42 -107 -69l323 -547h-209l-297 502q-23 -2 -48 -2h-216v-500h-180zM338 1836l162 94l103 -202l103 202l162 -94
l-212 -284h-106z" />
    <glyph glyph-name="rcaron" unicode="&#x159;" 
d="M868 1456l-212 -284h-106l-212 284l111 72l154 -192l156 192zM186 0v1100h180v-237q85 257 317 257q159 0 251 -110q80 -96 80 -245h-180q0 93 -44 142q-54 60 -134 60q-118 0 -190 -86q-100 -119 -100 -289v-592h-180z" />
    <glyph glyph-name="Sacute" unicode="&#x15a;" 
d="M150 434h180q0 -121 65 -203q78 -98 205 -98q120 0 203 100q67 81 67 201q0 138 -128 214l-353 178q-191 102 -191 317q0 163 111 269q114 108 284 108q171 0 284 -108q107 -103 107 -269h-168q-1 100 -64 159q-67 63 -161 63q-92 0 -161 -60q-64 -56 -64 -145
q0 -108 101 -174l324 -161q259 -122 259 -391q0 -180 -119 -314q-126 -140 -331 -140q-201 0 -334 141q-116 123 -116 313zM706 1930l162 -94l-212 -284l-110 64z" />
    <glyph glyph-name="sacute" unicode="&#x15b;" 
d="M207 357h168q1 -100 64 -159q67 -63 161 -63q99 0 161 60q57 56 57 145q0 101 -119 141l-240 75q-216 83 -216 260q0 145 118 235q90 69 226 69q155 0 253 -108q82 -90 82 -218h-169q0 69 -43 120q-45 53 -126 53q-74 0 -128 -37q-48 -36 -48 -101q0 -81 133 -123
l206 -64q246 -79 246 -299q0 -149 -111 -255q-114 -108 -284 -108q-171 0 -284 108q-107 103 -107 269zM706 1528l162 -94l-212 -284l-110 64z" />
    <glyph glyph-name="Scircumflex" unicode="&#x15c;" 
d="M338 1646l212 284h106l212 -284l-111 -72l-154 192l-156 -192zM150 434h180q0 -121 65 -203q78 -98 205 -98q120 0 203 100q67 81 67 201q0 138 -128 214l-353 178q-191 102 -191 317q0 163 111 269q114 108 284 108q171 0 284 -108q107 -103 107 -269h-168
q-1 100 -64 159q-67 63 -161 63q-92 0 -161 -60q-64 -56 -64 -145q0 -108 101 -174l324 -161q259 -122 259 -391q0 -180 -119 -314q-126 -140 -331 -140q-201 0 -334 141q-116 123 -116 313z" />
    <glyph glyph-name="scircumflex" unicode="&#x15d;" 
d="M338 1244l212 284h106l212 -284l-111 -72l-154 192l-156 -192zM207 357h168q1 -100 64 -159q67 -63 161 -63q99 0 161 60q57 56 57 145q0 101 -119 141l-240 75q-216 83 -216 260q0 145 118 235q90 69 226 69q155 0 253 -108q82 -90 82 -218h-169q0 69 -43 120
q-45 53 -126 53q-74 0 -128 -37q-48 -36 -48 -101q0 -81 133 -123l206 -64q246 -79 246 -299q0 -149 -111 -255q-114 -108 -284 -108q-171 0 -284 108q-107 103 -107 269z" />
    <glyph glyph-name="Scedilla" unicode="&#x15e;" 
d="M150 434h180q0 -121 65 -203q78 -98 205 -98q120 0 203 100q67 81 67 201q0 138 -128 214l-353 178q-191 102 -191 317q0 163 111 269q114 108 284 108q171 0 284 -108q107 -103 107 -269h-168q-1 100 -64 159q-67 63 -161 63q-92 0 -161 -60q-64 -56 -64 -145
q0 -108 101 -174l324 -161q259 -122 259 -391q0 -183 -119 -314q-98 -108 -243 -133q27 -52 27 -113q0 -194 -214 -284v189q82 39 82 111q0 51 -29 92q-171 14 -288 139q-116 124 -116 313z" />
    <glyph glyph-name="scedilla" unicode="&#x15f;" 
d="M207 357h168q1 -100 64 -159q67 -63 161 -63q99 0 161 60q57 56 57 145q0 101 -119 141l-240 75q-216 83 -216 260q0 145 118 235q90 69 226 69q155 0 253 -108q82 -90 82 -218h-169q0 69 -43 120q-45 53 -126 53q-74 0 -128 -37q-48 -36 -48 -101q0 -81 133 -123
l206 -64q246 -79 246 -299q0 -149 -111 -255q-82 -78 -194 -100q27 -52 27 -114q0 -194 -214 -284v189q82 39 82 111q0 51 -29 92q-142 12 -240 106q-107 103 -107 269z" />
    <glyph glyph-name="Scaron" unicode="&#x160;" 
d="M869 1858l-212 -284h-106l-212 284l111 72l154 -192l156 192zM150 434h180q0 -121 65 -203q78 -98 205 -98q120 0 203 100q67 81 67 201q0 138 -128 214l-353 178q-191 102 -191 317q0 163 111 269q114 108 284 108q171 0 284 -108q107 -103 107 -269h-168
q-1 100 -64 159q-67 63 -161 63q-92 0 -161 -60q-64 -56 -64 -145q0 -108 101 -174l324 -161q259 -122 259 -391q0 -180 -119 -314q-126 -140 -331 -140q-201 0 -334 141q-116 123 -116 313z" />
    <glyph glyph-name="scaron" unicode="&#x161;" 
d="M868 1456l-212 -284h-106l-212 284l111 72l154 -192l156 192zM207 357h168q1 -100 64 -159q67 -63 161 -63q99 0 161 60q57 56 57 145q0 101 -119 141l-240 75q-216 83 -216 260q0 145 118 235q90 69 226 69q155 0 253 -108q82 -90 82 -218h-169q0 69 -43 120
q-45 53 -126 53q-74 0 -128 -37q-48 -36 -48 -101q0 -81 133 -123l206 -64q246 -79 246 -299q0 -149 -111 -255q-114 -108 -284 -108q-171 0 -284 108q-107 103 -107 269z" />
    <glyph glyph-name="Tcommaaccent" unicode="&#x162;" 
d="M510 0v1340h-360v160h900v-160h-360v-1208q176 -100 176 -258q0 -194 -214 -284v189q82 39 82 111q0 63 -44 110h-180z" />
    <glyph glyph-name="tcommaaccent" unicode="&#x163;" 
d="M1150 97q-97 -114 -266 -117q23 -49 23 -106q0 -194 -213 -284v189q82 40 82 111q0 78 -65 121q-63 28 -110 81q-91 103 -91 309v539h-324v160h324v400h180v-400h324v-160h-324v-539q0 -140 51 -206q48 -62 144 -62q101 0 173 86z" />
    <glyph glyph-name="Tcaron" unicode="&#x164;" 
d="M869 1858l-212 -284h-106l-212 284l111 72l154 -192l156 192zM510 0v1340h-360v160h900v-160h-360v-1340h-180z" />
    <glyph glyph-name="tcaron" unicode="&#x165;" 
d="M874 -20q-173 0 -273 112q-91 102 -91 309v539h-324v160h324v400h180v-400h324v-160h-324v-539q0 -140 51 -206q48 -62 144 -62q101 0 173 86l92 -122q-100 -117 -276 -117zM943 1528l162 -94l-212 -284l-110 64z" />
    <glyph glyph-name="Tbar" unicode="&#x166;" 
d="M510 0v630h-197v140h197v570h-360v160h900v-160h-360v-570h197v-140h-197v-630h-180z" />
    <glyph glyph-name="tbar" unicode="&#x167;" 
d="M313 582v140h197v218h-324v160h324v400h180v-400h324v-160h-324v-218h197v-140h-197v-181q0 -140 51 -206q48 -62 144 -62q101 0 173 86l92 -122q-100 -117 -276 -117q-173 0 -273 112q-91 102 -91 309v181h-197z" />
    <glyph glyph-name="Utilde" unicode="&#x168;" 
d="M339 1657q25 227 173 227q77 0 119 -70q36 -60 55 -60q54 0 68 89h103q-25 -227 -173 -227q-77 0 -120 77q-32 57 -52 57q-54 0 -70 -93h-103zM150 1500h180v-1066q0 -121 65 -203q78 -98 205 -98q122 0 205 100q65 78 65 201v1066h180v-1066q0 -183 -119 -314
q-127 -140 -331 -140q-201 0 -334 141q-116 122 -116 313v1066z" />
    <glyph glyph-name="utilde" unicode="&#x169;" 
d="M342 1298q25 227 173 227q77 0 119 -70q36 -60 55 -60q54 0 68 89h103q-25 -227 -173 -227q-77 0 -120 77q-32 57 -52 57q-54 0 -70 -93h-103zM1014 0h-180v237q-85 -257 -317 -257q-142 0 -240 112q-91 104 -91 309v699h180v-699q0 -141 51 -206q48 -62 144 -62
q101 0 173 86q100 119 100 289v592h180v-1100z" />
    <glyph glyph-name="Umacron" unicode="&#x16a;" 
d="M150 1500h180v-1066q0 -121 65 -203q78 -98 205 -98q122 0 205 100q65 78 65 201v1066h180v-1066q0 -183 -119 -314q-127 -140 -331 -140q-201 0 -334 141q-116 122 -116 313v1066zM370 1670v160h468v-160h-468z" />
    <glyph glyph-name="umacron" unicode="&#x16b;" 
d="M1014 0h-180v237q-85 -257 -317 -257q-142 0 -240 112q-91 104 -91 309v699h180v-699q0 -141 51 -206q48 -62 144 -62q101 0 173 86q100 119 100 289v592h180v-1100zM366 1310v160h468v-160h-468z" />
    <glyph glyph-name="Ubreve" unicode="&#x16c;" 
d="M306 1861h137q63 -77 149 -77q101 0 154 77h134q-101 -229 -288 -229q-194 0 -286 229zM150 1500h180v-1066q0 -121 65 -203q78 -98 205 -98q122 0 205 100q65 78 65 201v1066h180v-1066q0 -183 -119 -314q-127 -140 -331 -140q-201 0 -334 141q-116 122 -116 313v1066z
" />
    <glyph glyph-name="ubreve" unicode="&#x16d;" 
d="M314 1488h137q63 -77 149 -77q101 0 154 77h134q-101 -229 -288 -229q-194 0 -286 229zM1014 0h-180v237q-85 -257 -317 -257q-142 0 -240 112q-91 104 -91 309v699h180v-699q0 -141 51 -206q48 -62 144 -62q101 0 173 86q100 119 100 289v592h180v-1100z" />
    <glyph glyph-name="Uring" unicode="&#x16e;" 
d="M150 1500h180v-1066q0 -121 65 -203q78 -98 205 -98q122 0 205 100q65 78 65 201v1066h180v-1066q0 -183 -119 -314q-127 -140 -331 -140q-201 0 -334 141q-116 122 -116 313v1066zM539 1745q0 -25 18 -46q17 -20 43 -20q28 0 44 19q17 20 17 47q0 25 -18 46
q-17 20 -43 20t-43.5 -19.5t-17.5 -46.5zM429 1744q0 70 50 118t121 48q72 0 121 -48q50 -49 50 -118q0 -70 -50 -118t-121 -48t-121 48.5t-50 117.5z" />
    <glyph glyph-name="uring" unicode="&#x16f;" 
d="M1014 0h-180v237q-85 -257 -317 -257q-142 0 -240 112q-91 104 -91 309v699h180v-699q0 -141 51 -206q48 -62 144 -62q101 0 173 86q100 119 100 289v592h180v-1100zM539 1387q0 -25 18 -46q17 -20 43 -20q28 0 44 19q17 20 17 47q0 25 -18 46q-17 20 -43 20t-43.5 -19.5
t-17.5 -46.5zM429 1386q0 70 50 118t121 48q72 0 121 -48q50 -49 50 -118q0 -70 -50 -118t-121 -48t-121 48.5t-50 117.5z" />
    <glyph glyph-name="Uhungarumlaut" unicode="&#x170;" 
d="M150 1500h180v-1066q0 -121 65 -203q78 -98 205 -98q122 0 205 100q65 78 65 201v1066h180v-1066q0 -183 -119 -314q-127 -140 -331 -140q-201 0 -334 141q-116 122 -116 313v1066zM553 1930l162 -94l-212 -284l-110 64zM825 1930l162 -94l-212 -284l-110 64z" />
    <glyph glyph-name="uhungarumlaut" unicode="&#x171;" 
d="M1014 0h-180v237q-85 -257 -317 -257q-142 0 -240 112q-91 104 -91 309v699h180v-699q0 -141 51 -206q48 -62 144 -62q101 0 173 86q100 119 100 289v592h180v-1100zM542 1528l162 -94l-212 -284l-110 64zM814 1528l162 -94l-212 -284l-110 64z" />
    <glyph glyph-name="Uogonek" unicode="&#x172;" 
d="M150 1500h180v-1066q0 -121 65 -203q78 -98 205 -98q122 0 205 100q65 78 65 201v1066h180v-1066q0 -185 -119 -314q-48 -52 -106 -85q-85 -57 -85 -145q0 -72 82 -111v-189q-214 90 -214 284q0 57 23 107q-15 -1 -31 -1q-200 0 -334 141q-116 122 -116 313v1066z" />
    <glyph glyph-name="uogonek" unicode="&#x173;" 
d="M1014 0h-57q-44 -47 -44 -110q0 -72 82 -111v-189q-214 90 -214 284q0 87 53 156v207q-85 -257 -317 -257q-142 0 -240 112q-91 104 -91 309v699h180v-699q0 -141 51 -206q48 -62 144 -62q101 0 173 86q100 119 100 289v592h180v-1100z" />
    <glyph glyph-name="Wcircumflex" unicode="&#x174;" 
d="M338 1646l212 284h106l212 -284l-111 -72l-154 192l-156 -192zM430 0h-180q-190 742 -240 1500h180q41 -760 166 -1280q104 302 146 816h182q47 -496 164 -823q124 513 162 1287h180q-56 -754 -240 -1500h-180q-111 310 -178 686q-56 -370 -162 -686z" />
    <glyph glyph-name="wcircumflex" unicode="&#x175;" 
d="M338 1244l212 284h106l212 -284l-111 -72l-154 192l-156 -192zM310 0q-178 542 -246 1100h180q44 -550 168 -900q98 210 98 636h181q0 -426 98 -636q123 350 167 900h180q-69 -558 -245 -1100h-180q-73 222 -111 392q-37 -170 -110 -392h-180z" />
    <glyph glyph-name="Ycircumflex" unicode="&#x176;" 
d="M338 1646l212 284h106l212 -284l-111 -72l-154 192l-156 -192zM510 0v592q-260 478 -410 908h180q142 -400 320 -733q186 329 320 733h180q-144 -430 -410 -908v-592h-180z" />
    <glyph glyph-name="ycircumflex" unicode="&#x177;" 
d="M338 1244l212 284h106l212 -284l-111 -72l-154 192l-156 -192zM517 -20q-142 0 -240 112q-91 104 -91 309v699h180v-699q0 -141 51 -206q48 -62 144 -62q101 0 173 86q100 119 100 289v592h180v-950q0 -261 -116 -410q-125 -160 -319 -160q-190 0 -315 168l137 89
q63 -100 183 -100q136 0 199 129q51 105 51 284v87q-85 -257 -317 -257z" />
    <glyph glyph-name="Ydieresis" unicode="&#x178;" 
d="M766 1881q59 0 94 -36q40 -41 40 -96t-40 -94q-39 -38 -94 -38q-57 0 -94 36q-40 39 -40 96t40 94.5t94 37.5zM434 1881q59 0 94 -36q40 -41 40 -96t-40 -94q-39 -38 -94 -38q-57 0 -94 36q-40 39 -40 96t40 94.5t94 37.5zM510 0v592q-260 478 -410 908h180
q142 -400 320 -733q186 329 320 733h180q-144 -430 -410 -908v-592h-180z" />
    <glyph glyph-name="Zacute" unicode="&#x179;" 
d="M150 0v160q474 584 659 1180h-589v160h830q-225 -756 -683 -1340h683v-160h-900zM706 1930l162 -94l-212 -284l-110 64z" />
    <glyph glyph-name="zacute" unicode="&#x17a;" 
d="M186 0v160q405 398 587 780h-551v160h792q-129 -473 -608 -940h608v-160h-828zM706 1528l162 -94l-212 -284l-110 64z" />
    <glyph glyph-name="Zdotaccent" unicode="&#x17b;" 
d="M620 1881q59 0 94 -36q40 -41 40 -96t-40 -94q-39 -38 -94 -38q-57 0 -94 36q-40 39 -40 96t40 94.5t94 37.5zM150 0v160q474 584 659 1180h-589v160h830q-225 -756 -683 -1340h683v-160h-900z" />
    <glyph glyph-name="zdotaccent" unicode="&#x17c;" 
d="M600 1520q59 0 94 -36q40 -41 40 -96t-40 -94q-39 -38 -94 -38q-57 0 -94 36q-40 39 -40 96t40 94.5t94 37.5zM186 0v160q405 398 587 780h-551v160h792q-129 -473 -608 -940h608v-160h-828z" />
    <glyph glyph-name="Zcaron" unicode="&#x17d;" 
d="M869 1858l-212 -284h-106l-212 284l111 72l154 -192l156 192zM150 0v160q474 584 659 1180h-589v160h830q-225 -756 -683 -1340h683v-160h-900z" />
    <glyph glyph-name="zcaron" unicode="&#x17e;" 
d="M868 1456l-212 -284h-106l-212 284l111 72l154 -192l156 192zM186 0v160q405 398 587 780h-551v160h792q-129 -473 -608 -940h608v-160h-828z" />
    <glyph glyph-name="longs" unicode="&#x17f;" 
d="M510 0v800h-324v160h324v139q0 200 91 309q93 112 273 112q176 0 276 -117l-92 -122q-72 86 -173 86q-96 0 -144 -62q-51 -65 -51 -206v-1099h-180z" />
    <glyph glyph-name="uni0180" unicode="&#x180;" 
d="M600 137q136 0 199 129q51 105 51 284t-51 284q-63 129 -199 129q-122 0 -185 -129q-51 -105 -51 -284t51 -284q63 -129 185 -129zM186 0v1218h-106v140h106v142h180v-142h288v-140h-288v-256q69 158 234 158q193 0 314 -160q116 -153 116 -410t-116 -410
q-121 -160 -314 -160q-178 0 -234 158v-138h-180z" />
    <glyph glyph-name="uni0181" unicode="&#x181;" 
d="M420 747v-594h166q161 0 254 87q80 75 80 211q0 122 -80 209t-254 87h-166zM420 1347v-447h116q144 0 210 62.5t66 161t-67 157.5q-72 66 -209 66h-116zM240 0v1347q-101 0 -101 -205h-139q0 358 240 358h296q210 0 331 -113q112 -106 112 -262q0 -198 -187 -278
q87 -18 149 -67q149 -117 149 -330q0 -208 -140 -331q-135 -119 -364 -119h-346z" />
    <glyph glyph-name="uni0182" unicode="&#x182;" 
d="M330 153h216q135 0 225 89q99 99 99 258t-95 260q-82 87 -229 87h-216v-694zM150 0v1500h778v-160h-598v-340h216q205 0 338 -116q166 -145 166 -384q0 -237 -165 -381q-136 -119 -339 -119h-396z" />
    <glyph glyph-name="uni0183" unicode="&#x183;" 
d="M186 0v1500h728v-160h-548v-378q69 158 234 158q193 0 314 -160q116 -153 116 -410t-116 -410q-121 -160 -314 -160q-178 0 -234 158v-138h-180zM600 137q136 0 199 129q51 105 51 284t-51 284q-63 129 -199 129q-122 0 -185 -129q-51 -105 -51 -284t51 -284
q63 -129 185 -129z" />
    <glyph glyph-name="uni0184" unicode="&#x184;" 
d="M150 0v1120h-150l150 380h180v-500h216q205 0 338 -116q166 -143 166 -384q0 -237 -165 -381q-136 -119 -339 -119h-396zM330 153h216q135 0 225 89q99 99 99 258t-95 260q-82 87 -229 87h-216v-694z" />
    <glyph glyph-name="uni0185" unicode="&#x185;" 
d="M186 0v1120h-150l150 380h180v-538q69 158 234 158q193 0 314 -160q116 -153 116 -410t-116 -410q-121 -160 -314 -160q-178 0 -234 158v-138h-180zM600 137q136 0 199 129q51 105 51 284t-51 284q-63 129 -199 129q-122 0 -185 -129q-51 -105 -51 -284t51 -284
q63 -129 185 -129z" />
    <glyph glyph-name="uni0186" unicode="&#x186;" 
d="M167 334h186q7 -17 15 -32q90 -169 232 -169q137 0 232 169q78 139 78 448q0 303 -78 448q-91 169 -232 169q-142 0 -232 -169q-8 -15 -15 -32h-186q18 58 49 117q125 237 384 237q258 0 384 -237q106 -199 106 -533q0 -333 -106 -533q-126 -237 -384 -237
q-260 0 -384 237q-26 50 -49 117z" />
    <glyph glyph-name="uni0187" unicode="&#x187;" 
d="M1033 334q-23 -67 -49 -117q-124 -237 -384 -237q-258 0 -384 237q-106 200 -106 533q0 334 106 533q126 237 384 237q206 0 328 -150q62 150 242 150v-153q-137 0 -137 -201h-186q-7 17 -15 32q-90 169 -232 169q-141 0 -232 -169q-78 -145 -78 -448q0 -309 78 -448
q95 -169 232 -169q142 0 232 169q8 15 15 32h186z" />
    <glyph glyph-name="uni0188" unicode="&#x188;" 
d="M1005 334q-31 -113 -91 -194q-119 -160 -314 -160q-193 0 -314 160q-116 153 -116 410t116 410q121 160 314 160q185 0 302 -144q64 144 240 144v-154q-137 0 -137 -201h-180q-11 38 -26 69q-62 129 -199 129q-136 0 -199 -129q-51 -105 -51 -284t51 -284
q63 -129 199 -129q137 0 199 129q15 31 26 68h180z" />
    <glyph glyph-name="uni0189" unicode="&#x189;" 
d="M329 153h222q193 0 282 169q77 146 77 428q0 283 -78 428q-91 169 -282 169h-220v-527h324v-140h-325v-527zM150 0v680h-70v140h70v680h400q309 0 434 -237q106 -201 106 -513q0 -310 -105 -513q-124 -237 -434 -237h-401z" />
    <glyph glyph-name="uni018A" unicode="&#x18a;" 
d="M419 153h142q193 0 282 169q77 146 77 428q0 283 -78 428q-91 169 -282 169h-140zM240 0v1347q-101 0 -101 -205h-139q0 358 240 358h320q309 0 434 -237q106 -201 106 -513q0 -310 -105 -513q-124 -237 -434 -237h-321z" />
    <glyph glyph-name="uni018B" unicode="&#x18b;" 
d="M870 153v694h-216q-147 0 -229 -87q-95 -101 -95 -260t99 -258q90 -89 225 -89h216zM1050 0h-396q-203 0 -339 119q-165 144 -165 381q0 239 166 384q133 116 338 116h216v340h-598v160h778v-1500z" />
    <glyph glyph-name="uni018C" unicode="&#x18c;" 
d="M1014 0h-180v138q-56 -158 -234 -158q-193 0 -314 160q-116 153 -116 410t116 410q121 160 314 160q165 0 234 -158v378h-548v160h728v-1500zM600 137q122 0 185 129q51 105 51 284t-51 284q-63 129 -185 129q-136 0 -199 -129q-51 -105 -51 -284t51 -284
q63 -129 199 -129z" />
    <glyph glyph-name="uni018D" unicode="&#x18d;" 
d="M600 1120q193 0 314 -160q116 -153 116 -410q0 -255 -116 -410q-63 -84 -147 -124q83 -76 83 -182q0 -110 -73.5 -172t-177.5 -62h-315v160h315q44 0 70 30q24 28 24 76q0 65 -31 90q-29 23 -62 24q-193 0 -314 160q-116 153 -116 410t116 410q121 160 314 160zM600 963
q-136 0 -199 -129q-51 -105 -51 -284t51 -284q63 -129 199 -129t199 129q51 105 51 284t-51 284q-63 129 -199 129z" />
    <glyph glyph-name="uni018E" unicode="&#x18e;" 
d="M1014 0h-828v160h648v510h-455v160h455v510h-580v160h760v-1500z" />
    <glyph glyph-name="uni018F" unicode="&#x18f;" 
d="M167 1166q23 67 49 117q125 237 384 237q258 0 384 -237q106 -200 106 -533t-106 -533q-126 -237 -384 -237q-259 0 -384 237q-93 176 -106 453l794 238q-16 190 -72 290q-95 169 -232 169q-142 0 -232 -169q-8 -15 -15 -32h-186zM910 750l-610 -186q21 -174 68 -262
q91 -169 232 -169t232 169q78 145 78 448z" />
    <glyph glyph-name="uni0190" unicode="&#x190;" 
d="M1108 312v-185q-287 -147 -508 -147q-205 0 -331 140q-119 134 -119 314q0 269 259 391q-193 102 -193 318q0 163 111 269q114 108 284 108q155 0 342 -72v-165q-177 84 -342 84q-88 0 -159 -70q-62 -63 -62 -171q0 -104 73 -172q61 -58 200 -58v-155
q-174 0 -253.5 -92.5t-79.5 -214.5q0 -120 67 -201q83 -100 203 -100q242 0 508 179z" />
    <glyph glyph-name="uni0191" unicode="&#x191;" 
d="M230 0v1500h750v-160h-580v-510h455v-160h-455v-670q0 -185 -98 -284q-125 -126 -302 -126v135q101 0 169 74q61 67 61 201z" />
    <glyph glyph-name="florin" unicode="&#x192;" 
d="M50 -303l92 122q72 -86 173 -86t151 61q54 66 54 206v800h-334v160h334v139q0 199 92 305q100 116 262 116q176 0 276 -117l-92 -122q-72 86 -173 86q-96 0 -144 -62q-51 -65 -51 -206v-139h324v-160h-324v-800q0 -206 -91 -308q-100 -112 -273 -112q-176 0 -276 117z
" />
    <glyph glyph-name="uni0193" unicode="&#x193;" 
d="M1090 830v-80q0 -330 -106 -533q-124 -237 -384 -237q-258 0 -384 237q-106 200 -106 533q0 334 106 533q126 237 384 237q206 0 327 -150q63 150 243 150v-153q-137 0 -137 -201h-186q-7 17 -15 32q-90 169 -232 169q-141 0 -232 -169q-78 -145 -78 -448q0 -309 78 -448
q95 -169 232 -169q142 0 232 169q67 126 76 368l-313 -1v160z" />
    <glyph glyph-name="uni0194" unicode="&#x194;" 
d="M100 1500h180q148 -400 319 -744q174 342 321 744h180q-156 -430 -401 -891q137 -260 237 -567q21 -65 21 -132q0 -111 -71 -207q-91 -123 -286 -123q-192 0 -286 123q-71 93 -71 207q0 63 21 132q100 316 237 567q-239 461 -401 891zM599 463q-117 -249 -171 -439
q-14 -50 -14 -94q0 -64 32 -116q49 -80 152 -80q105 0 156 80q32 50 32 116q0 48 -14 94q-63 208 -173 439z" />
    <glyph glyph-name="uni0195" unicode="&#x195;" 
d="M150 0v1500h170v-637q62 257 221 257q125 0 170 -150q24 -79 24 -271v-364q0 -112 16 -150q26 -61 85 -61q55 0 81 65q19 48 19 146v286h160v-286q0 -180 -68 -267q-69 -88 -190 -88q-130 0 -196 79q-77 92 -77 276v364q0 170 -10 207q-14 56 -56 56q-50 0 -90 -83
q-89 -184 -89 -287v-592h-170z" />
    <glyph glyph-name="uni0196" unicode="&#x196;" 
d="M1150 97q-100 -117 -275 -117q-178 0 -274 112q-91 106 -91 309v939h-324v160h828v-160h-324v-939q0 -140 51 -206q48 -62 144 -62q101 0 173 86z" />
    <glyph glyph-name="uni0197" unicode="&#x197;" 
d="M186 0v160h324v470h-197v140h197v570h-324v160h828v-160h-324v-570h197v-140h-197v-470h324v-160h-828z" />
    <glyph glyph-name="uni0198" unicode="&#x198;" 
d="M150 0v1500h180v-872q224 240 383 677q78 215 207 215q128 0 202 -221l-126 -94q-36 140 -71 140t-59 -80q-97 -313 -239 -513q263 -336 423 -752h-182q-148 348 -347 622q-81 -112 -191 -226v-396h-180z" />
    <glyph glyph-name="uni0199" unicode="&#x199;" 
d="M186 0v1110q0 185 98 284q125 126 355 126v-135q-142 0 -213 -77q-60 -65 -60 -198v-745q338 283 449 735h180q-71 -292 -246 -548q157 -240 265 -552h-182q-82 236 -198 405q-115 -123 -268 -248v-157h-180z" />
    <glyph glyph-name="uni019A" unicode="&#x19a;" 
d="M1150 97q-100 -117 -276 -117q-173 0 -273 112q-91 102 -91 309v229h-197v140h197v570h-324v160h504v-730h197v-140h-197v-229q0 -140 51 -206q48 -62 144 -62q101 0 173 86z" />
    <glyph glyph-name="uni019B" unicode="&#x19b;" 
d="M100 0l348 1112l-186 -86l-59 126l176 83q-77 116 -195 265h206q73 -90 142 -194l191 89l59 -127l-175 -82q281 -470 493 -1186h-180q-162 504 -366 920l-274 -920h-180z" />
    <glyph glyph-name="uni019C" unicode="&#x19c;" 
d="M1080 0h-160v114q-55 -134 -200 -134q-127 0 -168 140q-48 -140 -195 -140q-144 0 -202 127q-35 77 -35 228v1165h160v-1165q0 -91 14 -137q23 -72 109 -72q69 0 101 65q15 30 15 144v1165h160v-1165q0 -108 11 -143q21 -66 92 -66q59 0 97 71q41 76 41 138v1165h160
v-1500z" />
    <glyph glyph-name="uni019D" unicode="&#x19d;" 
d="M0 -275q59 0 117 89q33 52 33 186v1500h180q402 -466 560 -1038v1038h160v-1500h-160q-244 843 -580 1264v-1264q0 -174 -68 -264q-110 -146 -242 -146v135z" />
    <glyph glyph-name="uni019E" unicode="&#x19e;" 
d="M186 0v1100h180v-237q85 257 317 257q127 0 240 -112q91 -90 91 -309v-1099h-180v1099q0 141 -51 206q-48 62 -144 62q-101 0 -173 -86q-100 -119 -100 -289v-592h-180z" />
    <glyph glyph-name="uni019F" unicode="&#x19f;" 
d="M600 -20q-258 0 -384 237q-106 200 -106 533t106 533q126 237 384 237q260 0 384 -237q106 -203 106 -533t-106 -533q-124 -237 -384 -237zM600 133q142 0 232 169q67 126 77 378h-618q9 -259 77 -378q97 -169 232 -169zM291 820h617q-9 250 -76 378q-88 169 -232 169
q-141 0 -232 -169q-67 -125 -77 -378z" />
    <glyph glyph-name="Ohorn" unicode="&#x1a0;" 
d="M600 -20q-258 0 -384 237q-106 200 -106 533t106 533q126 237 384 237q251 0 373 -218q44 35 44 198h173q0 -255 -171 -295q71 -185 71 -455q0 -330 -106 -533q-124 -237 -384 -237zM600 133q142 0 232 169q78 146 78 448t-78 448q-90 169 -232 169q-141 0 -232 -169
q-78 -145 -78 -448q0 -309 78 -448q95 -169 232 -169z" />
    <glyph glyph-name="ohorn" unicode="&#x1a1;" 
d="M600 -20q-193 0 -314 160q-116 153 -116 410t116 410q121 160 314 160q192 0 314 -160q13 -17 25 -36q26 48 26 176h173q0 -236 -147 -288q39 -113 39 -262q0 -257 -116 -410q-121 -160 -314 -160zM600 137q136 0 199 129q51 105 51 284t-51 284q-63 129 -199 129
t-199 -129q-51 -105 -51 -284t51 -284q63 -129 199 -129z" />
    <glyph glyph-name="uni01A2" unicode="&#x1a2;" 
d="M430 1370q-76 0 -124 -79q-62 -102 -62 -539q0 -431 62 -543q44 -79 124 -79t126 79q62 106 62 543q0 427 -62 539q-44 79 -126 79zM960 0v1290l-191 -195q20 -146 20 -345q0 -502 -125 -661q-86 -109 -233 -109q-148 0 -233 109q-125 160 -125 661t125 661
q85 109 233 109q147 0 233 -109q42 -53 70 -145l216 234h170v-1500h-160z" />
    <glyph glyph-name="uni01A3" unicode="&#x1a3;" 
d="M598 550q0 247 -52 341q-44 79 -134 79q-76 0 -127 -77q-55 -84 -55 -343t55 -343q51 -77 127 -77q89 0 134 79q52 94 52 341zM1100 1100v-1500h-160v1290l-172 -176q10 -75 10 -162q0 -306 -124 -463q-86 -109 -243 -109q-132 0 -227 111q-124 145 -124 459
q0 313 124 459q94 111 227 111q159 0 243 -109q44 -57 72 -131l204 220h170z" />
    <glyph glyph-name="uni01A4" unicode="&#x1a4;" 
d="M420 1347v-694h166q147 0 229 87q95 101 95 260t-99 258q-90 89 -225 89h-166zM240 0v1347q-101 0 -101 -205h-139q0 358 240 358h346q203 0 339 -119q165 -144 165 -381q0 -240 -166 -384q-134 -116 -338 -116h-166v-500h-180z" />
    <glyph glyph-name="uni01A5" unicode="&#x1a5;" 
d="M586 1520v-135q-95 0 -165 -76q-55 -60 -55 -209v-138q56 158 234 158q193 0 314 -160q116 -153 116 -410t-116 -410q-121 -160 -314 -160q-165 0 -234 158v-538h-180v1500q0 195 98 294q125 126 302 126zM600 963q-122 0 -185 -129q-51 -105 -51 -284t51 -284
q63 -129 185 -129q136 0 199 129q51 105 51 284t-51 284q-63 129 -199 129z" />
    <glyph glyph-name="uni01A6" unicode="&#x1a6;" 
d="M200 0v1500h180v-400h199q150 0 267 -80q146 -100 146 -284t-135 -282q-29 -21 -52 -36l359 -818h-186l-326 773q-35 -5 -73 -5h-199v-368h-180zM380 947v-426h200q104 0 163 53q69 63 69 162q0 111 -73 167q-57 44 -159 44h-200z" />
    <glyph glyph-name="uni01A7" unicode="&#x1a7;" 
d="M1050 434q0 -190 -116 -313q-133 -141 -334 -141q-205 0 -331 140q-119 134 -119 314q0 269 259 391l324 161q101 66 101 174q0 89 -64 145q-69 60 -161 60q-94 0 -161 -63q-63 -59 -64 -159h-168q0 166 107 269q113 108 284 108q170 0 284 -108q111 -106 111 -269
q0 -215 -191 -317l-353 -178q-128 -76 -128 -214q0 -120 67 -201q83 -100 203 -100q127 0 205 98q65 82 65 203h180z" />
    <glyph glyph-name="uni01A8" unicode="&#x1a8;" 
d="M993 357q0 -166 -107 -269q-113 -108 -284 -108q-170 0 -284 108q-111 106 -111 255q0 220 246 299l206 64q133 42 133 123q0 65 -48 101q-54 37 -128 37q-81 0 -126 -53q-43 -51 -43 -120h-169q0 128 82 218q98 108 253 108q136 0 226 -69q118 -90 118 -235
q0 -177 -216 -260l-240 -75q-119 -40 -119 -141q0 -89 57 -145q62 -60 161 -60q94 0 161 63q63 59 64 159h168z" />
    <glyph glyph-name="uni01A9" unicode="&#x1a9;" 
d="M150 0v160q188 390 472 611q-282 277 -472 729h830v-160h-568q164 -330 440 -571q-354 -301 -513 -609h711v-160h-900z" />
    <glyph glyph-name="uni01AA" unicode="&#x1aa;" 
d="M510 1161v113q0 52 -16 77q-21 34 -64 34q-37 0 -66 -31q-30 -33 -30 -83q0 -45 31 -78q31 -32 77 -32h68zM1150 -303q-100 -117 -276 -117q-173 0 -273 112q-91 102 -91 309v1019h-70q-107 0 -177 73q-73 73 -73 177t73 177t177 73t177 -73t73 -177v-110h197v-140h-197
v-1019q0 -140 51 -206q48 -62 144 -62q101 0 173 86z" />
    <glyph glyph-name="uni01AB" unicode="&#x1ab;" 
d="M510 1500h180v-400h324v-160h-324v-539q0 -140 51 -206q48 -62 144 -62q97 0 169 86v-219q0 -185 -98 -284q-125 -126 -302 -126v135q95 0 165 76q55 60 55 179q-173 0 -273 112q-91 102 -91 309v539h-324v160h324v400z" />
    <glyph glyph-name="uni01AC" unicode="&#x1ac;" 
d="M510 0v1340q-131 0 -210 -71q-75 -69 -75 -169h-135q0 177 126 302q99 98 294 98h540v-160h-360v-1340h-180z" />
    <glyph glyph-name="uni01AD" unicode="&#x1ad;" 
d="M186 1100h324q0 195 98 294q125 126 302 126v-135q-95 0 -165 -76q-55 -60 -55 -209h324v-160h-324v-539q0 -140 51 -206q48 -62 144 -62q101 0 173 86l92 -122q-100 -117 -276 -117q-173 0 -273 112q-91 102 -91 309v539h-324v160z" />
    <glyph glyph-name="uni01AE" unicode="&#x1ae;" 
d="M510 0v1340h-360v160h900v-160h-370v-1340q0 -135 59 -200q69 -75 171 -75v-135q-177 0 -302 126q-98 99 -98 284z" />
    <glyph glyph-name="Uhorn" unicode="&#x1af;" 
d="M50 1500h180v-1066q0 -121 65 -203q78 -98 205 -98q122 0 205 100q65 78 65 201v1066h180v-205q101 0 101 205h139q0 -302 -240 -302v-764q0 -191 -119 -314q-135 -140 -331 -140q-201 0 -334 141q-116 122 -116 313v1066z" />
    <glyph glyph-name="uhorn" unicode="&#x1b0;" 
d="M950 0h-180v237q-85 -257 -317 -257q-142 0 -240 112q-91 104 -91 309v699h180v-699q0 -141 51 -206q48 -62 144 -62q101 0 173 86q100 119 100 289v592h180v-205q101 0 101 205h139q0 -302 -240 -302v-798z" />
    <glyph glyph-name="uni01B1" unicode="&#x1b1;" 
d="M1074 1520v-160h-242q72 -42 127 -127q131 -202 131 -498q0 -298 -106 -498q-126 -237 -384 -237q-260 0 -384 237q-106 203 -106 483q0 302 127 502q57 88 131 138h-242v160h384v-222q-82 -38 -142 -150q-78 -146 -78 -378q0 -302 78 -448q90 -169 232 -169
q141 0 232 169q78 145 78 448q0 240 -78 378q-62 110 -142 149v223h384z" />
    <glyph glyph-name="uni01B2" unicode="&#x1b2;" 
d="M186 1500h180v-1166q0 -76 47 -137.5t115 -61.5q141 0 251 173q138 217 138 544q0 378 -224 648h193q209 -283 209 -654q0 -364 -179 -628q-162 -238 -386 -238q-145 0 -246 97q-98 95 -98 257v1166z" />
    <glyph glyph-name="uni01B3" unicode="&#x1b3;" 
d="M480 0v592q-260 478 -410 908h180q139 -414 329 -747q116 185 204 552q51 215 207 215q128 0 202 -221l-126 -94q-43 139 -76 139q-40 0 -54 -79q-73 -395 -276 -673v-592h-180z" />
    <glyph glyph-name="uni01B4" unicode="&#x1b4;" 
d="M10 1100h180q106 -494 322 -925q156 310 271 730q59 215 207 215q128 0 202 -221l-126 -94q-43 139 -76 139t-54 -79q-172 -646 -572 -1265h-206q146 194 254 400q-224 382 -402 1100z" />
    <glyph glyph-name="uni01B5" unicode="&#x1b5;" 
d="M150 0v160q190 234 333 470h-140v140h221q156 284 245 570h-589v160h830q-115 -388 -292 -730h159v-140h-235q-140 -247 -315 -470h683v-160h-900z" />
    <glyph glyph-name="uni01B6" unicode="&#x1b6;" 
d="M186 0v160q157 154 280 306h-124v140h231q121 169 200 334h-551v160h792q-68 -248 -231 -494h133v-140h-234q-119 -153 -276 -306h608v-160h-828z" />
    <glyph glyph-name="uni01B7" unicode="&#x1b7;" 
d="M92 312q266 -179 508 -179q120 0 203 100q67 81 67 201q0 144 -104 224q-114 88 -305 88v153q203 204 334 441h-575v160h830q-166 -364 -413 -621q81 -14 154 -54q259 -137 259 -391q0 -180 -119 -314q-126 -140 -331 -140q-221 0 -508 147v185z" />
    <glyph glyph-name="uni01B8" unicode="&#x1b8;" 
d="M1108 312v-185q-287 -147 -508 -147q-205 0 -331 140q-119 134 -119 314q0 254 259 391q73 40 154 54q-247 257 -413 621h830v-160h-575q131 -237 334 -441v-153q-191 0 -305 -88q-104 -80 -104 -224q0 -120 67 -201q83 -100 203 -100q242 0 508 179z" />
    <glyph glyph-name="uni01B9" unicode="&#x1b9;" 
d="M1050 -154v-170q-222 -96 -400 -96q-205 0 -331 140q-119 134 -119 314q0 260 259 391q75 37 154 54q-247 257 -413 621h730v-160h-475q131 -237 334 -441v-153q-193 0 -305 -88q-104 -82 -104 -224q0 -120 67 -201q83 -100 203 -100q192 0 400 113z" />
    <glyph glyph-name="uni01BA" unicode="&#x1ba;" 
d="M232 1100h730q-122 -280 -320 -482q313 -41 313 -275q0 -147 -111 -255q-114 -108 -284 -108q-173 0 -224 -27q-32 -17 -32 -80q0 -153 252 -153v-130q-406 0 -406 283q0 136 64 190q83 70 346 70q97 0 163 62q57 53 57 145q0 176 -302 176v154q160 121 229 270h-475v160
z" />
    <glyph glyph-name="uni01BB" unicode="&#x1bb;" 
d="M150 0v160q0 161 191 317l201 169h-168v140h334q162 139 162 280q0 113 -67 201q-76 100 -203 100t-205 -98q-65 -82 -65 -203h-180q0 190 116 313q133 141 334 141q205 0 331 -140q119 -134 119 -314q0 -148 -103 -280h101v-140h-244l-373 -312q-101 -86 -101 -174h720
v-160h-900z" />
    <glyph glyph-name="uni01BC" unicode="&#x1bc;" 
d="M150 434h180q0 -121 65 -203q78 -98 205 -98q128 0 204 118q66 102 66 237q0 149 -78 247q-79 100 -192 100q-112 0 -186 -94l-175 97l77 502h-100v160h741v-160h-473l-60 -413q80 61 182 61q190 0 314 -139q130 -146 130 -358q0 -203 -115 -353q-121 -158 -335 -158
q-201 0 -334 141q-116 123 -116 313z" />
    <glyph glyph-name="uni01BD" unicode="&#x1bd;" 
d="M150 34h180q0 -121 65 -203q78 -98 205 -98q128 0 204 118q66 102 66 237q0 149 -78 247q-79 100 -192 100q-112 0 -186 -94l-175 97l77 502h-100v160h741v-160h-473l-60 -413q80 61 182 61q190 0 314 -139q130 -146 130 -358q0 -203 -115 -353q-121 -158 -335 -158
q-201 0 -334 141q-116 123 -116 313z" />
    <glyph glyph-name="uni01BE" unicode="&#x1be;" 
d="M207 357h168q1 -100 64 -159q67 -63 161 -63q99 0 161 60q57 56 57 145q0 101 -119 141q-189 64 -189 270v189h-324v160h324v400h180v-400h324v-160h-324v-189q0 -91 57 -109q246 -79 246 -299q0 -149 -111 -255q-114 -108 -284 -108q-171 0 -284 108q-107 103 -107 269z
" />
    <glyph glyph-name="uni01BF" unicode="&#x1bf;" 
d="M200 1100h180v-227q130 247 317 247q119 0 213 -79q118 -99 118 -290q0 -247 -225 -456l-423 -399v-296h-180v1500zM848 751q0 107 -50 161q-50 55 -125 55q-133 0 -224 -175q-69 -133 -69 -333v-393l348 380q120 126 120 305z" />
    <glyph glyph-name="uni01C0" unicode="&#x1c0;" 
d="M690 0h-180v1500h180v-1500z" />
    <glyph glyph-name="uni01C1" unicode="&#x1c1;" 
d="M480 0h-180v1500h180v-1500zM900 0h-180v1500h180v-1500z" />
    <glyph glyph-name="uni01C2" unicode="&#x1c2;" 
d="M186 400v160h334v380h-334v160h334v400h160v-400h334v-160h-334v-380h334v-160h-334v-400h-160v400h-334z" />
    <glyph glyph-name="uni01C3" unicode="&#x1c3;" 
d="M690 370h-180v1130h180v-1130zM600 244q59 0 94 -36q40 -41 40 -96t-40 -94q-39 -38 -94 -38q-57 0 -94 36q-40 39 -40 96t40 94.5t94 37.5z" />
    <glyph glyph-name="uni01C4" unicode="&#x1c4;" 
d="M1184 1858l-212 -284h-106l-212 284l111 72l157 -238l153 238zM612 0v140q285 541 364 1220h-294v140h468q-84 -735 -360 -1360h360v-140h-538zM229 133q120 0 220 189q77 146 77 428q0 275 -78 428q-96 189 -218 189zM80 0v1500h176q189 0 314 -237q106 -201 106 -513
q0 -310 -105 -513q-124 -237 -314 -237h-177z" />
    <glyph glyph-name="uni01C5" unicode="&#x1c5;" 
d="M1186 1456l-212 -284h-106l-212 284l111 72l157 -238l153 238zM612 0v140q292 404 364 820h-294v140h468q-90 -564 -360 -960h360v-140h-538zM229 133q120 0 220 189q77 146 77 428q0 275 -78 428q-96 189 -218 189zM80 0v1500h176q189 0 314 -237q106 -201 106 -513
q0 -310 -105 -513q-124 -237 -314 -237h-177z" />
    <glyph glyph-name="uni01C6" unicode="&#x1c6;" 
d="M1186 1456l-212 -284h-106l-212 284l111 72l157 -238l153 238zM617 0h-150v113q-49 -133 -157 -133q-113 0 -174 108q-86 153 -86 462q0 297 98 458q68 112 168 112q103 0 151 -124v504h150v-1500zM468 552q0 244 -42 339q-35 79 -94 79q-53 0 -87 -74q-45 -98 -45 -344
q0 -255 47 -352q34 -70 85 -70q54 0 93 76q43 85 43 346zM687 0v140q238 404 324 820h-294v140h468q-94 -564 -340 -960h340v-140h-498z" />
    <glyph glyph-name="uni01C7" unicode="&#x1c7;" 
d="M658 1500h461l1 -1058q0 -216 -68 -332q-76 -130 -223 -130q-152 0 -226 136q-59 108 -59 326h168q0 -136 25 -213q31 -96 102 -96q58 0 92 91q25 67 25 218v918h-298v140zM82 0v1500h160v-1360h296v-140h-456z" />
    <glyph glyph-name="uni01C8" unicode="&#x1c8;" 
d="M186 0v1500h160v-1360h371v-140h-531zM374 -303l92 122q72 -86 173 -86q100 0 152 59q63 71 63 209v959h-204v140h364v-1099q0 -207 -91 -309q-100 -112 -273 -112q-176 0 -276 117zM884 1520q59 0 94 -36q40 -41 40 -96t-40 -94q-39 -38 -94 -38q-57 0 -94 36
q-40 39 -40 96t40 94.5t94 37.5z" />
    <glyph glyph-name="uni01C9" unicode="&#x1c9;" 
d="M374 -303l92 122q72 -86 173 -86q100 0 152 59q63 71 63 209v959h-204v140h364v-1099q0 -207 -91 -309q-100 -112 -273 -112q-176 0 -276 117zM60 1500h364v-1099q0 -136 56 -207q48 -61 149 -61v-153q-178 0 -274 112q-91 106 -91 309v959h-204v140zM884 1520
q59 0 94 -36q40 -41 40 -96t-40 -94q-39 -38 -94 -38q-57 0 -94 36q-40 39 -40 96t40 94.5t94 37.5z" />
    <glyph glyph-name="uni01CA" unicode="&#x1ca;" 
d="M80 0v1500h180q163 -519 244 -1038v1038h150v-1500h-160q-122 576 -270 1264v-1264h-144zM678 19l80 138q32 -39 82 -39q87 0 121 93q15 41 15 131v1018h-218v140h361l1 -1158q0 -150 -48 -234q-72 -128 -243 -128q-90 0 -151 39z" />
    <glyph glyph-name="uni01CB" unicode="&#x1cb;" 
d="M80 0v1500h180q163 -519 244 -1038v1038h150v-1500h-160q-122 576 -270 1264v-1264h-144zM474 -303l92 122q72 -86 173 -86q100 0 152 59q63 71 63 209v959h-204v140h364v-1099q0 -207 -91 -309q-100 -112 -273 -112q-176 0 -276 117zM984 1520q59 0 94 -36
q40 -41 40 -96t-40 -94q-39 -38 -94 -38q-57 0 -94 36q-40 39 -40 96t40 94.5t94 37.5z" />
    <glyph glyph-name="uni01CC" unicode="&#x1cc;" 
d="M525 0v699q0 159 -18 207q-21 55 -77 55q-51 0 -91 -82q-89 -184 -89 -287v-592h-160v1100h160v-237q62 257 237 257q121 0 178 -151q30 -79 30 -270v-699h-170zM984 1520q59 0 94 -36q40 -41 40 -96t-40 -94q-39 -38 -94 -38q-57 0 -94 36q-40 39 -40 96t40 94.5
t94 37.5zM474 -303l92 122q72 -86 173 -86q100 0 152 59q63 71 63 209v959h-204v140h364v-1099q0 -207 -91 -309q-100 -112 -273 -112q-176 0 -276 117z" />
    <glyph glyph-name="uni01CD" unicode="&#x1cd;" 
d="M869 1858l-212 -284h-106l-212 284l111 72l154 -192l156 192zM50 0q134 720 460 1500h180q338 -780 460 -1500h-180q-57 341 -150 670h-439q-91 -325 -151 -670h-180zM429 830h343q-76 244 -172 480q-95 -234 -171 -480z" />
    <glyph glyph-name="uni01CE" unicode="&#x1ce;" 
d="M868 1456l-212 -284h-106l-212 284l111 72l154 -192l156 192zM1002 0h-180v237q-83 -257 -309 -257q-162 0 -252 106q-81 95 -81 213q0 177 141 276q110 78 260 78h236q0 140 -31 199q-59 112 -191 112q-159 0 -222 -130l-115 126q121 160 360 160q203 0 313 -162
q71 -105 71 -304v-654zM822 507h-238q-112 0 -176 -59q-56 -52 -56 -141q0 -67 44 -115q54 -59 153 -59q105 0 173 86q100 124 100 288z" />
    <glyph glyph-name="uni01CF" unicode="&#x1cf;" 
d="M869 1858l-212 -284h-106l-212 284l111 72l154 -192l156 192zM186 0v160h324v1180h-324v160h828v-160h-324v-1180h324v-160h-828z" />
    <glyph glyph-name="uni01D0" unicode="&#x1d0;" 
d="M868 1456l-212 -284h-106l-212 284l111 72l154 -192l156 192zM1150 97q-100 -117 -275 -117q-178 0 -274 112q-91 106 -91 309v539h-324v160h504v-699q0 -140 51 -206q48 -62 144 -62q101 0 173 86z" />
    <glyph glyph-name="uni01D1" unicode="&#x1d1;" 
d="M869 1858l-212 -284h-106l-212 284l111 72l154 -192l156 192zM600 133q142 0 232 169q78 146 78 448q0 298 -78 448q-90 169 -232 169q-141 0 -232 -169q-78 -145 -78 -448q0 -309 78 -448q95 -169 232 -169zM600 -20q-258 0 -384 237q-106 200 -106 533t106 533
q126 237 384 237q260 0 384 -237q106 -203 106 -533t-106 -533q-124 -237 -384 -237z" />
    <glyph glyph-name="uni01D2" unicode="&#x1d2;" 
d="M868 1456l-212 -284h-106l-212 284l111 72l154 -192l156 192zM600 137q136 0 199 129q51 105 51 284t-51 284q-63 129 -199 129t-199 -129q-51 -105 -51 -284t51 -284q63 -129 199 -129zM600 -20q-193 0 -314 160q-116 153 -116 410t116 410q121 160 314 160t314 -160
q116 -153 116 -410t-116 -410q-121 -160 -314 -160z" />
    <glyph glyph-name="uni01D3" unicode="&#x1d3;" 
d="M869 1858l-212 -284h-106l-212 284l111 72l154 -192l156 192zM150 1500h180v-1066q0 -121 65 -203q78 -98 205 -98q122 0 205 100q65 78 65 201v1066h180v-1066q0 -183 -119 -314q-127 -140 -331 -140q-201 0 -334 141q-116 122 -116 313v1066z" />
    <glyph glyph-name="uni01D4" unicode="&#x1d4;" 
d="M868 1456l-212 -284h-106l-212 284l111 72l154 -192l156 192zM1014 0h-180v237q-85 -257 -317 -257q-142 0 -240 112q-91 104 -91 309v699h180v-699q0 -141 51 -206q48 -62 144 -62q101 0 173 86q100 119 100 289v592h180v-1100z" />
    <glyph glyph-name="uni01D5" unicode="&#x1d5;" 
d="M434 1459q-59 0 -94 36q-40 41 -40 96t40 94q39 38 94 38q57 0 94 -36q40 -39 40 -96t-40 -94.5t-94 -37.5zM766 1459q-59 0 -94 36q-40 41 -40 96t40 94q39 38 94 38q57 0 94 -36q40 -39 40 -96t-40 -94.5t-94 -37.5zM833 1944v-160h-468v160h468zM150 1350h180v-916
q0 -121 65 -203q78 -98 205 -98q122 0 205 100q65 78 65 201v916h180v-916q0 -183 -119 -314q-127 -140 -331 -140q-201 0 -334 141q-116 122 -116 313v916z" />
    <glyph glyph-name="uni01D6" unicode="&#x1d6;" 
d="M433 1212q-59 0 -94 36q-40 41 -40 96t40 94q39 38 94 38q57 0 94 -36q40 -39 40 -96t-40 -94.5t-94 -37.5zM765 1212q-59 0 -94 36q-40 41 -40 96t40 94q39 38 94 38q57 0 94 -36q40 -39 40 -96t-40 -94.5t-94 -37.5zM832 1697v-160h-468v160h468zM1014 0h-180v237
q-85 -257 -317 -257q-142 0 -240 112q-91 104 -91 309v699h180v-699q0 -141 51 -206q48 -62 144 -62q101 0 173 86q100 119 100 289v592h180v-1100z" />
    <glyph glyph-name="uni01D7" unicode="&#x1d7;" 
d="M758 1647q59 0 94 -36q40 -41 40 -96t-40 -94q-39 -38 -94 -38q-57 0 -94 36q-40 39 -40 96t40 94.5t94 37.5zM426 1647q59 0 94 -36q40 -41 40 -96t-40 -94q-39 -38 -94 -38q-57 0 -94 36q-40 39 -40 96t40 94.5t94 37.5zM698 2019l162 -94l-212 -284l-110 64zM150 1350
h180v-916q0 -121 65 -203q78 -98 205 -98q122 0 205 100q65 78 65 201v916h180v-916q0 -183 -119 -314q-127 -140 -331 -140q-201 0 -334 141q-116 122 -116 313v916z" />
    <glyph glyph-name="uni01D8" unicode="&#x1d8;" 
d="M770 1520q59 0 94 -36q40 -41 40 -96t-40 -94q-39 -38 -94 -38q-57 0 -94 36q-40 39 -40 96t40 94.5t94 37.5zM438 1520q59 0 94 -36q40 -41 40 -96t-40 -94q-39 -38 -94 -38q-57 0 -94 36q-40 39 -40 96t40 94.5t94 37.5zM710 1930l162 -94l-212 -284l-110 64zM1014 0
h-180v237q-85 -257 -317 -257q-142 0 -240 112q-91 104 -91 309v699h180v-699q0 -141 51 -206q48 -62 144 -62q101 0 173 86q100 119 100 289v592h180v-1100z" />
    <glyph glyph-name="uni01D9" unicode="&#x1d9;" 
d="M857 1947l-212 -284h-106l-212 284l111 72l154 -192l156 192zM758 1647q59 0 94 -36q40 -41 40 -96t-40 -94q-39 -38 -94 -38q-57 0 -94 36q-40 39 -40 96t40 94.5t94 37.5zM426 1647q59 0 94 -36q40 -41 40 -96t-40 -94q-39 -38 -94 -38q-57 0 -94 36q-40 39 -40 96
t40 94.5t94 37.5zM150 1350h180v-916q0 -121 65 -203q78 -98 205 -98q122 0 205 100q65 78 65 201v916h180v-916q0 -183 -119 -314q-127 -140 -331 -140q-201 0 -334 141q-116 122 -116 313v916z" />
    <glyph glyph-name="uni01DA" unicode="&#x1da;" 
d="M870 1858l-212 -284h-106l-212 284l111 72l154 -192l156 192zM770 1520q59 0 94 -36q40 -41 40 -96t-40 -94q-39 -38 -94 -38q-57 0 -94 36q-40 39 -40 96t40 94.5t94 37.5zM438 1520q59 0 94 -36q40 -41 40 -96t-40 -94q-39 -38 -94 -38q-57 0 -94 36q-40 39 -40 96
t40 94.5t94 37.5zM1014 0h-180v237q-85 -257 -317 -257q-142 0 -240 112q-91 104 -91 309v699h180v-699q0 -141 51 -206q48 -62 144 -62q101 0 173 86q100 119 100 289v592h180v-1100z" />
    <glyph glyph-name="uni01DB" unicode="&#x1db;" 
d="M758 1647q59 0 94 -36q40 -41 40 -96t-40 -94q-39 -38 -94 -38q-57 0 -94 36q-40 39 -40 96t40 94.5t94 37.5zM426 1647q59 0 94 -36q40 -41 40 -96t-40 -94q-39 -38 -94 -38q-57 0 -94 36q-40 39 -40 96t40 94.5t94 37.5zM512 2019l160 -314l-110 -64l-212 284z
M150 1350h180v-916q0 -121 65 -203q78 -98 205 -98q122 0 205 100q65 78 65 201v916h180v-916q0 -183 -119 -314q-127 -140 -331 -140q-201 0 -334 141q-116 122 -116 313v916z" />
    <glyph glyph-name="uni01DC" unicode="&#x1dc;" 
d="M511 1930l160 -314l-110 -64l-212 284zM770 1520q59 0 94 -36q40 -41 40 -96t-40 -94q-39 -38 -94 -38q-57 0 -94 36q-40 39 -40 96t40 94.5t94 37.5zM438 1520q59 0 94 -36q40 -41 40 -96t-40 -94q-39 -38 -94 -38q-57 0 -94 36q-40 39 -40 96t40 94.5t94 37.5zM1014 0
h-180v237q-85 -257 -317 -257q-142 0 -240 112q-91 104 -91 309v699h180v-699q0 -141 51 -206q48 -62 144 -62q101 0 173 86q100 119 100 289v592h180v-1100z" />
    <glyph glyph-name="uni01DD" unicode="&#x1dd;" 
d="M194 766q31 114 91 194q120 160 314 160q193 0 314 -160q116 -153 116 -410t-116 -410q-121 -160 -314 -160q-192 0 -314 160q-108 142 -115 374l667 193q-13 73 -39 127q-62 129 -199 129t-199 -129q-15 -31 -26 -68h-180zM849 550l-490 -142q12 -83 41 -142
q63 -129 199 -129t199 129q51 105 51 284z" />
    <glyph glyph-name="uni01DE" unicode="&#x1de;" 
d="M434 1459q-59 0 -94 36q-40 41 -40 96t40 94q39 38 94 38q57 0 94 -36q40 -39 40 -96t-40 -94.5t-94 -37.5zM766 1459q-59 0 -94 36q-40 41 -40 96t40 94q39 38 94 38q57 0 94 -36q40 -39 40 -96t-40 -94.5t-94 -37.5zM833 1944v-160h-468v160h468zM50 0
q168 654 460 1350h180q290 -688 460 -1350h-180q-68 276 -150 520h-439q-81 -246 -151 -520h-180zM429 680h343q-76 244 -172 480q-95 -234 -171 -480z" />
    <glyph glyph-name="uni01DF" unicode="&#x1df;" 
d="M433 1212q-59 0 -94 36q-40 41 -40 96t40 94q39 38 94 38q57 0 94 -36q40 -39 40 -96t-40 -94.5t-94 -37.5zM765 1212q-59 0 -94 36q-40 41 -40 96t40 94q39 38 94 38q57 0 94 -36q40 -39 40 -96t-40 -94.5t-94 -37.5zM832 1697v-160h-468v160h468zM1002 0h-180v237
q-83 -257 -309 -257q-162 0 -252 106q-81 95 -81 213q0 177 141 276q110 78 260 78h236q0 140 -31 199q-59 112 -191 112q-159 0 -222 -130l-115 126q121 160 360 160q203 0 313 -162q71 -105 71 -304v-654zM822 507h-238q-112 0 -176 -59q-56 -52 -56 -141q0 -67 44 -115
q54 -59 153 -59q105 0 173 86q100 124 100 288z" />
    <glyph glyph-name="uni01E0" unicode="&#x1e0;" 
d="M833 1944v-160h-468v160h468zM50 0q168 654 460 1350h180q290 -688 460 -1350h-180q-68 276 -150 520h-439q-81 -246 -151 -520h-180zM429 680h343q-76 244 -172 480q-95 -234 -171 -480zM600 1459q-59 0 -94 36q-40 41 -40 96t40 94q39 38 94 38q57 0 94 -36
q40 -39 40 -96t-40 -94.5t-94 -37.5z" />
    <glyph glyph-name="uni01E1" unicode="&#x1e1;" 
d="M832 1697v-160h-468v160h468zM1002 0h-180v237q-83 -257 -309 -257q-162 0 -252 106q-81 95 -81 213q0 177 141 276q110 78 260 78h236q0 140 -31 199q-59 112 -191 112q-159 0 -222 -130l-115 126q121 160 360 160q203 0 313 -162q71 -105 71 -304v-654zM822 507h-238
q-112 0 -176 -59q-56 -52 -56 -141q0 -67 44 -115q54 -59 153 -59q105 0 173 86q100 124 100 288zM600 1212q-59 0 -94 36q-40 41 -40 96t40 94q39 38 94 38q57 0 94 -36q40 -39 40 -96t-40 -94.5t-94 -37.5z" />
    <glyph glyph-name="uni01E2" unicode="&#x1e2;" 
d="M470 1670v160h468v-160h-468zM10 0q146 810 460 1500h656v-160h-318v-510h248v-160h-248v-510h382v-160h-542v670h-324q-84 -323 -144 -670h-170zM648 830v510h-90q-106 -225 -190 -510h280z" />
    <glyph glyph-name="uni01E3" unicode="&#x1e3;" 
d="M366 1310v160h468v-160h-468zM1114 334q-1 -169 -81 -262q-79 -92 -218 -92q-86 0 -132 20h-168v64q-43 -84 -130 -84q-143 0 -218 92q-81 99 -81 263q0 153 89 259q80 96 230 96h120v76q0 100 -31 142q-42 57 -118 58q-77 0 -130 -58q-20 -22 -26 -40l-116 97
q19 40 42 65q84 90 239 90q133 0 217 -113q82 113 213 113q141 0 218 -92q81 -97 81 -263v-183l-434 -194v-54q0 -89 26 -142q29 -59 109 -59q77 0 115 59q37 58 37 142h147zM680 549l287 113v103q0 91 -33 140q-42 63 -114 63q-71 0 -107 -54q-33 -50 -33 -149v-216z
M524 537h-119q-89 0 -131 -63q-32 -48 -32 -139q0 -92 32 -139q41 -62 120 -63q130 0 130 163v241z" />
    <glyph glyph-name="uni01E4" unicode="&#x1e4;" 
d="M1090 830v-80q0 -138 -19 -254h49v-140h-80q-23 -76 -56 -139q-124 -237 -384 -237q-258 0 -384 237q-106 200 -106 533q0 334 106 533q126 237 384 237q259 0 384 -237q31 -59 49 -117h-186q-7 17 -15 32q-90 169 -232 169q-141 0 -232 -169q-78 -145 -78 -448
q0 -309 78 -448q95 -169 232 -169q144 0 232 169q13 25 24 54h-310v140h346q12 78 16 174l-313 -1v160z" />
    <glyph glyph-name="uni01E5" unicode="&#x1e5;" 
d="M264 -252l137 89q63 -100 183 -100q136 0 199 129q51 105 51 272q-69 -158 -234 -158q-193 0 -314 160q-116 153 -116 410t116 410q121 160 314 160q178 0 234 -158v138h180v-486h106v-140h-106v-324q0 -259 -116 -410q-124 -160 -317 -160q-192 0 -317 168zM600 963
q-136 0 -199 -129q-51 -105 -51 -284t51 -284q63 -129 199 -129q122 0 185 129q40 82 48 208h-287v140h288q-7 135 -49 220q-64 129 -185 129z" />
    <glyph glyph-name="Gcaron" unicode="&#x1e6;" 
d="M869 1858l-212 -284h-106l-212 284l111 72l154 -192l156 192zM1090 830v-80q0 -330 -106 -533q-124 -237 -384 -237q-258 0 -384 237q-106 200 -106 533q0 334 106 533q126 237 384 237q259 0 384 -237q31 -59 49 -117h-186q-7 17 -15 32q-90 169 -232 169
q-141 0 -232 -169q-78 -145 -78 -448q0 -309 78 -448q95 -169 232 -169q142 0 232 169q67 126 76 368l-313 -1v160z" />
    <glyph glyph-name="gcaron" unicode="&#x1e7;" 
d="M868 1456l-212 -284h-106l-212 284l111 72l154 -192l156 192zM600 963q-136 0 -199 -129q-51 -105 -51 -284t51 -284q63 -129 199 -129q122 0 185 129q51 105 51 284t-51 284q-63 129 -185 129zM264 -252l137 89q63 -100 183 -100q136 0 199 129q51 105 51 272
q-69 -158 -234 -158q-193 0 -314 160q-116 153 -116 410t116 410q121 160 314 160q178 0 234 -158v138h180v-950q0 -259 -116 -410q-124 -160 -317 -160q-192 0 -317 168z" />
    <glyph glyph-name="uni01E8" unicode="&#x1e8;" 
d="M869 1858l-212 -284h-106l-212 284l111 72l154 -192l156 192zM150 0v1500h180v-872q350 406 505 872h180q-151 -422 -388 -748q263 -336 423 -752h-182q-148 348 -347 622q-81 -112 -191 -226v-396h-180z" />
    <glyph glyph-name="uni01E9" unicode="&#x1e9;" 
d="M869 1858l-212 -284h-106l-212 284l111 72l154 -192l156 192zM186 0v1500h180v-1135q338 283 449 735h180q-71 -292 -246 -548q157 -240 265 -552h-182q-82 236 -198 405q-115 -123 -268 -248v-157h-180z" />
    <glyph glyph-name="uni01EA" unicode="&#x1ea;" 
d="M625 -20q-283 0 -409 237q-106 200 -106 533t106 533q126 237 384 237q260 0 384 -237q106 -203 106 -533t-106 -533q-60 -115 -152 -174q-98 -58 -98 -153q0 -72 82 -111v-189q-214 90 -214 284q0 56 23 106zM600 133q142 0 232 169q78 146 78 448t-78 448
q-90 169 -232 169q-141 0 -232 -169q-78 -145 -78 -448q0 -309 78 -448q95 -169 232 -169z" />
    <glyph glyph-name="uni01EB" unicode="&#x1eb;" 
d="M606 -20q-199 0 -320 160q-116 153 -116 410t116 410q121 160 314 160t314 -160q116 -153 116 -410q0 -258 -116 -410q-45 -59 -100 -97q-98 -57 -98 -153q0 -72 82 -111v-189q-214 90 -214 284q0 57 22 106zM600 137q136 0 199 129q51 105 51 284t-51 284
q-63 129 -199 129t-199 -129q-51 -105 -51 -284t51 -284q63 -129 199 -129z" />
    <glyph glyph-name="uni01EC" unicode="&#x1ec;" 
d="M625 -20q-283 0 -409 237q-106 200 -106 533t106 533q126 237 384 237q260 0 384 -237q106 -203 106 -533t-106 -533q-60 -115 -152 -174q-98 -58 -98 -153q0 -72 82 -111v-189q-214 90 -214 284q0 56 23 106zM600 133q142 0 232 169q78 146 78 448t-78 448
q-90 169 -232 169q-141 0 -232 -169q-78 -145 -78 -448q0 -309 78 -448q95 -169 232 -169zM370 1670v160h468v-160h-468z" />
    <glyph glyph-name="uni01ED" unicode="&#x1ed;" 
d="M606 -20q-199 0 -320 160q-116 153 -116 410t116 410q121 160 314 160t314 -160q116 -153 116 -410q0 -258 -116 -410q-45 -59 -100 -97q-98 -57 -98 -153q0 -72 82 -111v-189q-214 90 -214 284q0 57 22 106zM600 137q136 0 199 129q51 105 51 284t-51 284
q-63 129 -199 129t-199 -129q-51 -105 -51 -284t51 -284q63 -129 199 -129zM366 1310v160h468v-160h-468z" />
    <glyph glyph-name="uni01EE" unicode="&#x1ee;" 
d="M869 1858l-212 -284h-106l-212 284l111 72l154 -192l156 192zM92 312q266 -179 508 -179q120 0 203 100q67 81 67 201q0 144 -104 224q-114 88 -305 88v153q203 204 334 441h-575v160h830q-166 -364 -413 -621q81 -14 154 -54q259 -137 259 -391q0 -180 -119 -314
q-126 -140 -331 -140q-221 0 -508 147v185z" />
    <glyph glyph-name="uni01EF" unicode="&#x1ef;" 
d="M868 1456l-212 -284h-106l-212 284l111 72l154 -192l156 192zM150 -154q208 -113 400 -113q120 0 203 100q67 81 67 201q0 142 -104 224q-112 88 -305 88v153q203 204 334 441h-475v160h730q-166 -364 -413 -621q79 -17 154 -54q259 -131 259 -391q0 -180 -119 -314
q-126 -140 -331 -140q-178 0 -400 96v170z" />
    <glyph glyph-name="uni01F0" unicode="&#x1f0;" 
d="M868 1456l-212 -284h-106l-212 284l111 72l154 -192l156 192zM159 -303l92 122q72 -86 173 -86q96 0 144 62q51 66 51 206v939h-324v160h504v-1099q0 -207 -91 -309q-100 -112 -273 -112q-176 0 -276 117z" />
    <glyph glyph-name="uni01F1" unicode="&#x1f1;" 
d="M612 0v140q285 541 364 1220h-294v140h468q-84 -735 -360 -1360h360v-140h-538zM229 133q120 0 220 189q77 146 77 428q0 275 -78 428q-96 189 -218 189zM80 0v1500h176q189 0 314 -237q106 -201 106 -513q0 -310 -105 -513q-124 -237 -314 -237h-177z" />
    <glyph glyph-name="uni01F2" unicode="&#x1f2;" 
d="M612 0v140q292 404 364 820h-294v140h468q-90 -564 -360 -960h360v-140h-538zM229 133q120 0 220 189q77 146 77 428q0 275 -78 428q-96 189 -218 189zM80 0v1500h176q189 0 314 -237q106 -201 106 -513q0 -310 -105 -513q-124 -237 -314 -237h-177z" />
    <glyph glyph-name="uni01F3" unicode="&#x1f3;" 
d="M617 0h-150v113q-49 -133 -157 -133q-113 0 -174 108q-86 153 -86 462q0 297 98 458q68 112 168 112q103 0 151 -124v504h150v-1500zM468 552q0 244 -42 339q-35 79 -94 79q-53 0 -87 -74q-45 -98 -45 -344q0 -255 47 -352q34 -70 85 -70q54 0 93 76q43 85 43 346zM687 0
v140q238 404 324 820h-294v140h468q-94 -564 -340 -960h340v-140h-498z" />
    <glyph glyph-name="uni01F4" unicode="&#x1f4;" 
d="M706 1930l162 -94l-212 -284l-110 64zM1090 830v-80q0 -330 -106 -533q-124 -237 -384 -237q-258 0 -384 237q-106 200 -106 533q0 334 106 533q126 237 384 237q259 0 384 -237q31 -59 49 -117h-186q-7 17 -15 32q-90 169 -232 169q-141 0 -232 -169q-78 -145 -78 -448
q0 -309 78 -448q95 -169 232 -169q142 0 232 169q67 126 76 368l-313 -1v160z" />
    <glyph glyph-name="uni01F5" unicode="&#x1f5;" 
d="M706 1528l162 -94l-212 -284l-110 64zM600 963q-136 0 -199 -129q-51 -105 -51 -284t51 -284q63 -129 199 -129q122 0 185 129q51 105 51 284t-51 284q-63 129 -185 129zM264 -252l137 89q63 -100 183 -100q136 0 199 129q51 105 51 272q-69 -158 -234 -158
q-193 0 -314 160q-116 153 -116 410t116 410q121 160 314 160q178 0 234 -158v138h180v-950q0 -259 -116 -410q-124 -160 -317 -160q-192 0 -317 168z" />
    <glyph glyph-name="uni01F6" unicode="&#x1f6;" 
d="M150 0v1500h170v-670h245v670h170v-1165q0 -112 16 -150q26 -61 85 -61q55 0 81 65q19 48 19 146v545h160v-545q0 -180 -68 -267q-69 -88 -190 -88q-130 0 -196 79q-77 90 -77 276v335h-245v-670h-170z" />
    <glyph glyph-name="uni01F7" unicode="&#x1f7;" 
d="M160 1500h170v-227q130 247 317 247q198 0 322 -158q121 -154 121 -388q0 -358 -337 -679l-423 -399v-296h-170v1900zM330 66l348 380q232 260 232 528q0 198 -108 319q-67 74 -179 74q-136 0 -224 -168q-69 -133 -69 -340v-793z" />
    <glyph glyph-name="uni01F8" unicode="&#x1f8;" 
d="M500 1930l160 -314l-110 -64l-212 284zM150 0v1500h180q402 -466 560 -1038v1038h160v-1500h-160q-244 843 -580 1264v-1264h-160z" />
    <glyph glyph-name="uni01F9" unicode="&#x1f9;" 
d="M496 1528l160 -314l-110 -64l-212 284zM186 0v1100h180v-237q85 257 317 257q142 0 240 -112q91 -104 91 -309v-699h-180v699q0 141 -51 206q-48 62 -144 62q-101 0 -173 -86q-100 -119 -100 -289v-592h-180z" />
    <glyph glyph-name="Aringacute" unicode="&#x1fa;" 
d="M50 0q134 720 460 1500h180q338 -780 460 -1500h-180q-57 341 -150 670h-439q-91 -325 -151 -670h-180zM429 830h343q-76 244 -172 480q-95 -234 -171 -480zM439 1745q0 -25 18 -46q17 -20 43 -20q28 0 44 19q17 20 17 47q0 25 -18 46q-17 20 -43 20t-43.5 -19.5
t-17.5 -46.5zM329 1744q0 70 50 118t121 48q72 0 121 -48q50 -49 50 -118q0 -70 -50 -118t-121 -48t-121 48.5t-50 117.5zM832 1962l162 -94l-212 -284l-110 64z" />
    <glyph glyph-name="aringacute" unicode="&#x1fb;" 
d="M439 1387q0 -25 18 -46q17 -20 43 -20q28 0 44 19q17 20 17 47q0 25 -18 46q-17 20 -43 20t-43.5 -19.5t-17.5 -46.5zM329 1386q0 70 50 118t121 48q72 0 121 -48q50 -49 50 -118q0 -70 -50 -118t-121 -48t-121 48.5t-50 117.5zM832 1604l162 -94l-212 -284l-110 64z
M1002 0h-180v237q-83 -257 -309 -257q-162 0 -252 106q-81 95 -81 213q0 177 141 276q110 78 260 78h236q0 140 -31 199q-59 112 -191 112q-159 0 -222 -130l-115 126q121 160 360 160q203 0 313 -162q71 -105 71 -304v-654zM822 507h-238q-112 0 -176 -59q-56 -52 -56 -141
q0 -67 44 -115q54 -59 153 -59q105 0 173 86q100 124 100 288z" />
    <glyph glyph-name="AEacute" unicode="&#x1fc;" 
d="M10 0q146 810 460 1500h656v-160h-318v-510h248v-160h-248v-510h382v-160h-542v670h-324q-84 -323 -144 -670h-170zM648 830v510h-90q-106 -225 -190 -510h280zM706 1930l162 -94l-212 -284l-110 64z" />
    <glyph glyph-name="aeacute" unicode="&#x1fd;" 
d="M1114 334q-1 -169 -81 -262q-79 -92 -218 -92q-86 0 -132 20h-168v64q-43 -84 -130 -84q-143 0 -218 92q-81 99 -81 263q0 153 89 259q80 96 230 96h120v76q0 100 -31 142q-42 57 -118 58q-77 0 -130 -58q-20 -22 -26 -40l-116 97q19 40 42 65q84 90 239 90
q133 0 217 -113q82 113 213 113q141 0 218 -92q81 -97 81 -263v-183l-434 -194v-54q0 -89 26 -142q29 -59 109 -59q77 0 115 59q37 58 37 142h147zM680 549l287 113v103q0 91 -33 140q-42 63 -114 63q-71 0 -107 -54q-33 -50 -33 -149v-216zM524 537h-119q-89 0 -131 -63
q-32 -48 -32 -139q0 -92 32 -139q41 -62 120 -63q130 0 130 163v241zM706 1528l162 -94l-212 -284l-110 64z" />
    <glyph glyph-name="Oslashacute" unicode="&#x1fe;" 
d="M130 0l101 190q-7 13 -15 27q-106 200 -106 533q0 334 106 533q126 237 384 237q174 0 287 -106l46 86h137l-101 -190q8 -13 15 -27q106 -212 106 -533q0 -330 -106 -533q-124 -237 -384 -237q-172 0 -285 105l-46 -85h-139zM600 133q142 0 232 169q78 146 78 448
q0 226 -45 367l-463 -868q85 -116 198 -116zM334 381l466 870q-82 116 -200 116q-141 0 -232 -169q-78 -145 -78 -448q0 -232 44 -369zM706 1930l162 -94l-212 -284l-110 64z" />
    <glyph glyph-name="oslashacute" unicode="&#x1ff;" 
d="M237 0l65 121q-8 9 -16 19q-116 145 -116 410q0 257 116 410q121 160 314 160q116 0 206 -58l20 38h137l-64 -121q7 -9 15 -19q116 -145 116 -410q0 -257 -116 -410q-121 -160 -314 -160q-115 0 -204 57l-20 -37h-139zM600 137q136 0 199 129q51 104 51 284
q0 160 -41 261l-338 -634q53 -40 129 -40zM391 288l340 634q-54 41 -131 41q-136 0 -199 -129q-51 -105 -51 -284q0 -161 41 -262zM706 1528l162 -94l-212 -284l-110 64z" />
    <glyph glyph-name="uni0200" unicode="&#x200;" 
d="M645 1930l160 -314l-110 -64l-212 284zM373 1930l160 -314l-110 -64l-212 284zM50 0q134 720 460 1500h180q338 -780 460 -1500h-180q-57 341 -150 670h-439q-91 -325 -151 -670h-180zM429 830h343q-76 244 -172 480q-95 -234 -171 -480z" />
    <glyph glyph-name="uni0201" unicode="&#x201;" 
d="M660 1528l160 -314l-110 -64l-212 284zM388 1528l160 -314l-110 -64l-212 284zM1002 0h-180v237q-83 -257 -309 -257q-162 0 -252 106q-81 95 -81 213q0 177 141 276q110 78 260 78h236q0 140 -31 199q-59 112 -191 112q-159 0 -222 -130l-115 126q121 160 360 160
q203 0 313 -162q71 -105 71 -304v-654zM822 507h-238q-112 0 -176 -59q-56 -52 -56 -141q0 -67 44 -115q54 -59 153 -59q105 0 173 86q100 124 100 288z" />
    <glyph glyph-name="uni0202" unicode="&#x202;" 
d="M306 1632q101 229 288 229q194 0 286 -229h-137q-63 77 -149 77q-101 0 -154 -77h-134zM50 0q134 720 460 1500h180q338 -780 460 -1500h-180q-57 341 -150 670h-439q-91 -325 -151 -670h-180zM429 830h343q-76 244 -172 480q-95 -234 -171 -480z" />
    <glyph glyph-name="uni0203" unicode="&#x203;" 
d="M314 1259q101 229 288 229q194 0 286 -229h-137q-63 77 -149 77q-101 0 -154 -77h-134zM1002 0h-180v237q-83 -257 -309 -257q-162 0 -252 106q-81 95 -81 213q0 177 141 276q110 78 260 78h236q0 140 -31 199q-59 112 -191 112q-159 0 -222 -130l-115 126
q121 160 360 160q203 0 313 -162q71 -105 71 -304v-654zM822 507h-238q-112 0 -176 -59q-56 -52 -56 -141q0 -67 44 -115q54 -59 153 -59q105 0 173 86q100 124 100 288z" />
    <glyph glyph-name="uni0204" unicode="&#x204;" 
d="M645 1930l160 -314l-110 -64l-212 284zM373 1930l160 -314l-110 -64l-212 284zM186 0v1500h760v-160h-580v-510h455v-160h-455v-510h648v-160h-828z" />
    <glyph glyph-name="uni0205" unicode="&#x205;" 
d="M660 1528l160 -314l-110 -64l-212 284zM388 1528l160 -314l-110 -64l-212 284zM1005 334q-31 -114 -91 -194q-120 -160 -314 -160q-193 0 -314 160q-116 153 -116 410t116 410q121 160 314 160q192 0 314 -160q108 -142 115 -374l-667 -193q13 -73 39 -127
q62 -129 199 -129t199 129q15 31 26 68h180zM350 550l490 142q-12 83 -41 142q-63 129 -199 129t-199 -129q-51 -105 -51 -284z" />
    <glyph glyph-name="uni0206" unicode="&#x206;" 
d="M306 1632q101 229 288 229q194 0 286 -229h-137q-63 77 -149 77q-101 0 -154 -77h-134zM186 0v1500h760v-160h-580v-510h455v-160h-455v-510h648v-160h-828z" />
    <glyph glyph-name="uni0207" unicode="&#x207;" 
d="M314 1259q101 229 288 229q194 0 286 -229h-137q-63 77 -149 77q-101 0 -154 -77h-134zM1005 334q-31 -114 -91 -194q-120 -160 -314 -160q-193 0 -314 160q-116 153 -116 410t116 410q121 160 314 160q192 0 314 -160q108 -142 115 -374l-667 -193q13 -73 39 -127
q62 -129 199 -129t199 129q15 31 26 68h180zM350 550l490 142q-12 83 -41 142q-63 129 -199 129t-199 -129q-51 -105 -51 -284z" />
    <glyph glyph-name="uni0208" unicode="&#x208;" 
d="M645 1930l160 -314l-110 -64l-212 284zM373 1930l160 -314l-110 -64l-212 284zM186 0v160h324v1180h-324v160h828v-160h-324v-1180h324v-160h-828z" />
    <glyph glyph-name="uni0209" unicode="&#x209;" 
d="M610 1528l160 -314l-110 -64l-212 284zM338 1528l160 -314l-110 -64l-212 284zM1150 97q-100 -117 -275 -117q-178 0 -274 112q-91 106 -91 309v539h-324v160h504v-699q0 -140 51 -206q48 -62 144 -62q101 0 173 86z" />
    <glyph glyph-name="uni020A" unicode="&#x20a;" 
d="M306 1632q101 229 288 229q194 0 286 -229h-137q-63 77 -149 77q-101 0 -154 -77h-134zM186 0v160h324v1180h-324v160h828v-160h-324v-1180h324v-160h-828z" />
    <glyph glyph-name="uni020B" unicode="&#x20b;" 
d="M264 1259q101 229 288 229q194 0 286 -229h-137q-63 77 -149 77q-101 0 -154 -77h-134zM1150 97q-100 -117 -275 -117q-178 0 -274 112q-91 106 -91 309v539h-324v160h504v-699q0 -140 51 -206q48 -62 144 -62q101 0 173 86z" />
    <glyph glyph-name="uni020C" unicode="&#x20c;" 
d="M645 1930l160 -314l-110 -64l-212 284zM373 1930l160 -314l-110 -64l-212 284zM600 133q142 0 232 169q78 146 78 448q0 298 -78 448q-90 169 -232 169q-141 0 -232 -169q-78 -145 -78 -448q0 -309 78 -448q95 -169 232 -169zM600 -20q-258 0 -384 237q-106 200 -106 533
t106 533q126 237 384 237q260 0 384 -237q106 -203 106 -533t-106 -533q-124 -237 -384 -237z" />
    <glyph glyph-name="uni020D" unicode="&#x20d;" 
d="M660 1528l160 -314l-110 -64l-212 284zM388 1528l160 -314l-110 -64l-212 284zM600 137q136 0 199 129q51 105 51 284t-51 284q-63 129 -199 129t-199 -129q-51 -105 -51 -284t51 -284q63 -129 199 -129zM600 -20q-193 0 -314 160q-116 153 -116 410t116 410
q121 160 314 160t314 -160q116 -153 116 -410t-116 -410q-121 -160 -314 -160z" />
    <glyph glyph-name="uni020E" unicode="&#x20e;" 
d="M306 1632q101 229 288 229q194 0 286 -229h-137q-63 77 -149 77q-101 0 -154 -77h-134zM600 133q142 0 232 169q78 146 78 448q0 298 -78 448q-90 169 -232 169q-141 0 -232 -169q-78 -145 -78 -448q0 -309 78 -448q95 -169 232 -169zM600 -20q-258 0 -384 237
q-106 200 -106 533t106 533q126 237 384 237q260 0 384 -237q106 -203 106 -533t-106 -533q-124 -237 -384 -237z" />
    <glyph glyph-name="uni020F" unicode="&#x20f;" 
d="M314 1259q101 229 288 229q194 0 286 -229h-137q-63 77 -149 77q-101 0 -154 -77h-134zM600 137q136 0 199 129q51 105 51 284t-51 284q-63 129 -199 129t-199 -129q-51 -105 -51 -284t51 -284q63 -129 199 -129zM600 -20q-193 0 -314 160q-116 153 -116 410t116 410
q121 160 314 160t314 -160q116 -153 116 -410t-116 -410q-121 -160 -314 -160z" />
    <glyph glyph-name="uni0210" unicode="&#x210;" 
d="M645 1930l160 -314l-110 -64l-212 284zM373 1930l160 -314l-110 -64l-212 284zM330 1347v-694h216q147 0 229 87q95 101 95 260t-99 258q-90 89 -225 89h-216zM150 0v1500h396q203 0 339 -119q165 -144 165 -381q0 -243 -166 -384q-49 -42 -107 -69l323 -547h-209
l-297 502q-23 -2 -48 -2h-216v-500h-180z" />
    <glyph glyph-name="uni0211" unicode="&#x211;" 
d="M660 1528l160 -314l-110 -64l-212 284zM388 1528l160 -314l-110 -64l-212 284zM186 0v1100h180v-237q85 257 317 257q159 0 251 -110q80 -96 80 -245h-180q0 93 -44 142q-54 60 -134 60q-118 0 -190 -86q-100 -119 -100 -289v-592h-180z" />
    <glyph glyph-name="uni0212" unicode="&#x212;" 
d="M306 1632q101 229 288 229q194 0 286 -229h-137q-63 77 -149 77q-101 0 -154 -77h-134zM330 1347v-694h216q147 0 229 87q95 101 95 260t-99 258q-90 89 -225 89h-216zM150 0v1500h396q203 0 339 -119q165 -144 165 -381q0 -243 -166 -384q-49 -42 -107 -69l323 -547
h-209l-297 502q-23 -2 -48 -2h-216v-500h-180z" />
    <glyph glyph-name="uni0213" unicode="&#x213;" 
d="M314 1259q101 229 288 229q194 0 286 -229h-137q-63 77 -149 77q-101 0 -154 -77h-134zM186 0v1100h180v-237q85 257 317 257q159 0 251 -110q80 -96 80 -245h-180q0 93 -44 142q-54 60 -134 60q-118 0 -190 -86q-100 -119 -100 -289v-592h-180z" />
    <glyph glyph-name="uni0214" unicode="&#x214;" 
d="M645 1930l160 -314l-110 -64l-212 284zM373 1930l160 -314l-110 -64l-212 284zM150 1500h180v-1066q0 -121 65 -203q78 -98 205 -98q122 0 205 100q65 78 65 201v1066h180v-1066q0 -183 -119 -314q-127 -140 -331 -140q-201 0 -334 141q-116 122 -116 313v1066z" />
    <glyph glyph-name="uni0215" unicode="&#x215;" 
d="M660 1528l160 -314l-110 -64l-212 284zM388 1528l160 -314l-110 -64l-212 284zM1014 0h-180v237q-85 -257 -317 -257q-142 0 -240 112q-91 104 -91 309v699h180v-699q0 -141 51 -206q48 -62 144 -62q101 0 173 86q100 119 100 289v592h180v-1100z" />
    <glyph glyph-name="uni0216" unicode="&#x216;" 
d="M306 1632q101 229 288 229q194 0 286 -229h-137q-63 77 -149 77q-101 0 -154 -77h-134zM150 1500h180v-1066q0 -121 65 -203q78 -98 205 -98q122 0 205 100q65 78 65 201v1066h180v-1066q0 -183 -119 -314q-127 -140 -331 -140q-201 0 -334 141q-116 122 -116 313v1066z
" />
    <glyph glyph-name="uni0217" unicode="&#x217;" 
d="M314 1259q101 229 288 229q194 0 286 -229h-137q-63 77 -149 77q-101 0 -154 -77h-134zM1014 0h-180v237q-85 -257 -317 -257q-142 0 -240 112q-91 104 -91 309v699h180v-699q0 -141 51 -206q48 -62 144 -62q101 0 173 86q100 119 100 289v592h180v-1100z" />
    <glyph glyph-name="Scommaaccent" unicode="&#x218;" 
d="M150 434h180q0 -121 65 -203q78 -98 205 -98q120 0 203 100q67 81 67 201q0 138 -128 214l-353 178q-191 102 -191 317q0 163 111 269q114 108 284 108q171 0 284 -108q107 -103 107 -269h-168q-1 100 -64 159q-67 63 -161 63q-92 0 -161 -60q-64 -56 -64 -145
q0 -108 101 -174l324 -161q259 -122 259 -391q0 -180 -119 -314q-126 -140 -331 -140q-201 0 -334 141q-116 123 -116 313zM494 -410l-162 94l212 284l110 -64z" />
    <glyph glyph-name="scommaaccent" unicode="&#x219;" 
d="M207 357h168q1 -100 64 -159q67 -63 161 -63q99 0 161 60q57 56 57 145q0 101 -119 141l-240 75q-216 83 -216 260q0 145 118 235q90 69 226 69q155 0 253 -108q82 -90 82 -218h-169q0 69 -43 120q-45 53 -126 53q-74 0 -128 -37q-48 -36 -48 -101q0 -81 133 -123
l206 -64q246 -79 246 -299q0 -149 -111 -255q-114 -108 -284 -108q-171 0 -284 108q-107 103 -107 269zM494 -410l-162 94l212 284l110 -64z" />
    <glyph glyph-name="uni021A" unicode="&#x21a;" 
d="M494 -410l-162 94l212 284l110 -64zM510 0v1340h-360v160h900v-160h-360v-1340h-180z" />
    <glyph glyph-name="uni021B" unicode="&#x21b;" 
d="M874 -20q-173 0 -273 112q-91 102 -91 309v539h-324v160h324v400h180v-400h324v-160h-324v-539q0 -140 51 -206q48 -62 144 -62q101 0 173 86l92 -122q-100 -117 -276 -117zM494 -410l-162 94l212 284l110 -64z" />
    <glyph glyph-name="uni021C" unicode="&#x21c;" 
d="M213 -235q186 119 321 235q151 129 222 233q68 100 68 227q0 104 -69 162q-55 46 -134 46q-145 0 -278 -174v182q121 83 347 278q72 62 72 182q0 103 -58 162q-70 69 -162 69q-165 0 -342 -84v165q187 72 342 72q170 0 284 -108q111 -106 111 -269q0 -245 -200 -351
q266 -97 266 -358q0 -168 -119 -314q-89 -108 -243 -229q-197 -153 -428 -311v185z" />
    <glyph glyph-name="uni021D" unicode="&#x21d;" 
d="M314 -254q125 87 266 212q99 90 202 222q44 56 44 156q0 144 -162 144q-74 0 -182 -92v154q238 89 289 190q22 44 22 94q0 71 -49 104q-54 37 -131 37q-143 0 -295 -63v161q160 55 295 55q136 0 226 -69q117 -90 117 -237t-168 -232q208 -57 208 -258q0 -141 -108 -263
q-94 -106 -241 -226q-147 -121 -333 -255v166z" />
    <glyph glyph-name="uni021E" unicode="&#x21e;" 
d="M869 1858l-212 -284h-106l-212 284l111 72l154 -192l156 192zM150 1500h180v-670h540v670h180v-1500h-180v670h-540v-670h-180v1500z" />
    <glyph glyph-name="uni021F" unicode="&#x21f;" 
d="M869 1858l-212 -284h-106l-212 284l111 72l154 -192l156 192zM186 0v1500h180v-637q85 257 317 257q142 0 240 -112q91 -104 91 -309v-699h-180v699q0 141 -51 206q-48 62 -144 62q-101 0 -173 -86q-100 -119 -100 -289v-592h-180z" />
    <glyph glyph-name="uni0220" unicode="&#x220;" 
d="M150 0v1500h180v-237q108 257 353 257q168 0 276 -112q91 -94 91 -309v-1499h-170v1499q0 138 -61 206q-59 64 -161 64q-119 0 -196 -79q-132 -134 -132 -298v-992h-180z" />
    <glyph glyph-name="uni0221" unicode="&#x221;" 
d="M860 147q31 -34 80 -34q47 0 79 34q32 35 32 84q0 50 -32 84q-32 35 -79 35q-48 0 -80 -35t-32 -84t32 -84zM664 1500h170v-1043q48 23 106 23q104 0 177 -73t73 -177t-73 -177t-177 -73t-177 73q-38 38 -56 84q-56 -157 -227 -157q-143 0 -264 160q-116 153 -116 410
t116 410q121 160 264 160q115 0 184 -158v538zM480 137q72 0 135 129q51 105 51 284t-51 284q-63 129 -135 129q-86 0 -149 -129q-51 -105 -51 -284t51 -284q63 -129 149 -129z" />
    <glyph glyph-name="uni0222" unicode="&#x222;" 
d="M870 432q0 122 -67 203q-80 97 -201 97q-129 0 -206 -98q-66 -85 -66 -203q0 -115 66 -200q77 -98 206 -98q121 0 201 97q67 81 67 202zM873 1412q111 -106 111 -269q0 -216 -193 -318q259 -122 259 -391q0 -180 -119 -314q-126 -140 -331 -140t-331 140
q-119 134 -119 314q0 269 259 391q-193 102 -193 318q0 163 111 269l121 -107q-63 -64 -63 -179q0 -111 63 -179q56 -60 152 -60q97 0 154 63q61 67 61 176t-61 176z" />
    <glyph glyph-name="uni0223" unicode="&#x223;" 
d="M361 1051l95 -121q-48 -36 -48 -101q0 -51 31 -81q61 -60 161 -60q99 0 161 60q31 30 31 81q0 65 -48 101l95 121q118 -89 118 -235q0 -142 -161 -197q197 -86 197 -276q0 -153 -107 -255q-113 -108 -288 -108q-171 0 -284 108q-107 103 -107 255q0 202 197 275
q-161 70 -161 198q0 144 118 235zM818 340q0 89 -57 145q-61 60 -161 60t-161 -60q-57 -56 -57 -145t57 -145q61 -60 161 -60q96 0 161 60q57 53 57 145z" />
    <glyph glyph-name="uni0224" unicode="&#x224;" 
d="M150 0v160q474 584 659 1180h-589v160h830q-225 -756 -683 -1340h683v-160q0 -185 -98 -284q-125 -126 -302 -126v135q95 0 165 76q55 60 55 199h-720z" />
    <glyph glyph-name="uni0225" unicode="&#x225;" 
d="M186 0v160q405 398 587 780h-551v160h792q-129 -473 -608 -940h608v-160q0 -185 -98 -284q-125 -126 -302 -126v135q95 0 165 76q55 60 55 199h-648z" />
    <glyph glyph-name="uni0226" unicode="&#x226;" 
d="M600 1881q59 0 94 -36q40 -41 40 -96t-40 -94q-39 -38 -94 -38q-57 0 -94 36q-40 39 -40 96t40 94.5t94 37.5zM50 0q134 720 460 1500h180q338 -780 460 -1500h-180q-57 341 -150 670h-439q-91 -325 -151 -670h-180zM429 830h343q-76 244 -172 480q-95 -234 -171 -480z
" />
    <glyph glyph-name="uni0227" unicode="&#x227;" 
d="M600 1520q59 0 94 -36q40 -41 40 -96t-40 -94q-39 -38 -94 -38q-57 0 -94 36q-40 39 -40 96t40 94.5t94 37.5zM1002 0h-180v237q-83 -257 -309 -257q-162 0 -252 106q-81 95 -81 213q0 177 141 276q110 78 260 78h236q0 140 -31 199q-59 112 -191 112q-159 0 -222 -130
l-115 126q121 160 360 160q203 0 313 -162q71 -105 71 -304v-654zM822 507h-238q-112 0 -176 -59q-56 -52 -56 -141q0 -67 44 -115q54 -59 153 -59q105 0 173 86q100 124 100 288z" />
    <glyph glyph-name="uni0228" unicode="&#x228;" 
d="M186 0v1500h760v-160h-580v-510h455v-160h-455v-510h648v-160h-332q33 -57 33 -126q0 -194 -214 -284v189q82 39 82 111q0 63 -44 110h-353z" />
    <glyph glyph-name="uni0229" unicode="&#x229;" 
d="M350 550l490 142q-12 83 -41 142q-63 129 -199 129t-199 -129q-51 -105 -51 -284zM1005 334q-31 -113 -91 -194q-91 -122 -226 -151q27 -53 27 -115q0 -194 -214 -284v189q82 39 82 111q0 51 -29 92q-162 18 -268 158q-116 153 -116 410t116 410q121 160 314 160
q192 0 314 -160q108 -142 115 -374l-667 -193q13 -73 39 -127q62 -129 199 -129t199 129q15 31 26 68h180z" />
    <glyph glyph-name="uni022A" unicode="&#x22a;" 
d="M434 1459q-59 0 -94 36q-40 41 -40 96t40 94q39 38 94 38q57 0 94 -36q40 -39 40 -96t-40 -94.5t-94 -37.5zM766 1459q-59 0 -94 36q-40 41 -40 96t40 94q39 38 94 38q57 0 94 -36q40 -39 40 -96t-40 -94.5t-94 -37.5zM833 1944v-160h-468v160h468zM599 132
q135 0 233 169q78 135 78 375q0 238 -78 373q-98 169 -232 169q-132 0 -232 -169q-78 -132 -78 -373q0 -236 78 -375q95 -169 231 -169zM600 -20q-230 0 -384 236q-106 161 -106 460q0 297 106 458q155 236 384.5 236t383.5 -236q106 -162 106 -457.5t-106 -460.5
q-153 -236 -384 -236z" />
    <glyph glyph-name="uni022B" unicode="&#x22b;" 
d="M433 1212q-59 0 -94 36q-40 41 -40 96t40 94q39 38 94 38q57 0 94 -36q40 -39 40 -96t-40 -94.5t-94 -37.5zM765 1212q-59 0 -94 36q-40 41 -40 96t40 94q39 38 94 38q57 0 94 -36q40 -39 40 -96t-40 -94.5t-94 -37.5zM832 1697v-160h-468v160h468zM600 137
q136 0 199 129q51 105 51 284t-51 284q-63 129 -199 129t-199 -129q-51 -105 -51 -284t51 -284q63 -129 199 -129zM600 -20q-193 0 -314 160q-116 153 -116 410t116 410q121 160 314 160t314 -160q116 -153 116 -410t-116 -410q-121 -160 -314 -160z" />
    <glyph glyph-name="uni022C" unicode="&#x22c;" 
d="M342 1487q25 227 173 227q77 0 119 -70q36 -60 55 -60q54 0 68 89h103q-25 -227 -173 -227q-77 0 -120 77q-32 57 -52 57q-54 0 -70 -93h-103zM833 1944v-160h-468v160h468zM599 132q135 0 233 169q78 135 78 375q0 238 -78 373q-98 169 -232 169q-132 0 -232 -169
q-78 -132 -78 -373q0 -236 78 -375q95 -169 231 -169zM600 -20q-230 0 -384 236q-106 161 -106 460q0 297 106 458q155 236 384.5 236t383.5 -236q106 -162 106 -457.5t-106 -460.5q-153 -236 -384 -236z" />
    <glyph glyph-name="uni022D" unicode="&#x22d;" 
d="M342 1242q25 227 173 227q77 0 119 -70q36 -60 55 -60q54 0 68 89h103q-25 -227 -173 -227q-77 0 -120 77q-32 57 -52 57q-54 0 -70 -93h-103zM832 1697v-160h-468v160h468zM600 137q136 0 199 129q51 105 51 284t-51 284q-63 129 -199 129t-199 -129q-51 -105 -51 -284
t51 -284q63 -129 199 -129zM600 -20q-193 0 -314 160q-116 153 -116 410t116 410q121 160 314 160t314 -160q116 -153 116 -410t-116 -410q-121 -160 -314 -160z" />
    <glyph glyph-name="uni022E" unicode="&#x22e;" 
d="M600 1881q59 0 94 -36q40 -41 40 -96t-40 -94q-39 -38 -94 -38q-57 0 -94 36q-40 39 -40 96t40 94.5t94 37.5zM600 133q142 0 232 169q78 146 78 448q0 298 -78 448q-90 169 -232 169q-141 0 -232 -169q-78 -145 -78 -448q0 -309 78 -448q95 -169 232 -169zM600 -20
q-258 0 -384 237q-106 200 -106 533t106 533q126 237 384 237q260 0 384 -237q106 -203 106 -533t-106 -533q-124 -237 -384 -237z" />
    <glyph glyph-name="uni022F" unicode="&#x22f;" 
d="M600 1520q59 0 94 -36q40 -41 40 -96t-40 -94q-39 -38 -94 -38q-57 0 -94 36q-40 39 -40 96t40 94.5t94 37.5zM600 137q136 0 199 129q51 105 51 284t-51 284q-63 129 -199 129t-199 -129q-51 -105 -51 -284t51 -284q63 -129 199 -129zM600 -20q-193 0 -314 160
q-116 153 -116 410t116 410q121 160 314 160t314 -160q116 -153 116 -410t-116 -410q-121 -160 -314 -160z" />
    <glyph glyph-name="uni0230" unicode="&#x230;" 
d="M833 1944v-160h-468v160h468zM600 1459q-59 0 -94 36q-40 41 -40 96t40 94q39 38 94 38q57 0 94 -36q40 -39 40 -96t-40 -94.5t-94 -37.5zM599 132q135 0 233 169q78 135 78 375q0 238 -78 373q-98 169 -232 169q-132 0 -232 -169q-78 -132 -78 -373q0 -236 78 -375
q95 -169 231 -169zM600 -20q-230 0 -384 236q-106 161 -106 460q0 297 106 458q155 236 384.5 236t383.5 -236q106 -162 106 -457.5t-106 -460.5q-153 -236 -384 -236z" />
    <glyph glyph-name="uni0231" unicode="&#x231;" 
d="M832 1697v-160h-468v160h468zM600 1212q-59 0 -94 36q-40 41 -40 96t40 94q39 38 94 38q57 0 94 -36q40 -39 40 -96t-40 -94.5t-94 -37.5zM600 137q136 0 199 129q51 105 51 284t-51 284q-63 129 -199 129t-199 -129q-51 -105 -51 -284t51 -284q63 -129 199 -129z
M600 -20q-193 0 -314 160q-116 153 -116 410t116 410q121 160 314 160t314 -160q116 -153 116 -410t-116 -410q-121 -160 -314 -160z" />
    <glyph glyph-name="uni0232" unicode="&#x232;" 
d="M370 1670v160h468v-160h-468zM510 0v592q-260 478 -410 908h180q142 -400 320 -733q186 329 320 733h180q-144 -430 -410 -908v-592h-180z" />
    <glyph glyph-name="uni0233" unicode="&#x233;" 
d="M366 1310v160h468v-160h-468zM517 -20q-142 0 -240 112q-91 104 -91 309v699h180v-699q0 -141 51 -206q48 -62 144 -62q101 0 173 86q100 119 100 289v592h180v-950q0 -261 -116 -410q-125 -160 -319 -160q-190 0 -315 168l137 89q63 -100 183 -100q136 0 199 129
q51 105 51 284v87q-85 -257 -317 -257z" />
    <glyph glyph-name="uni0234" unicode="&#x234;" 
d="M794 147q31 -34 80 -34q47 0 79 34q32 35 32 84t-32 84t-79 35q-48 0 -80 -35t-32 -84t32 -84zM186 1500h504v-1160q70 140 195 140q95 0 167 -73t72 -177t-73 -177t-177 -73q-173 0 -273 112q-91 102 -91 309v939h-324v160z" />
    <glyph glyph-name="uni0235" unicode="&#x235;" 
d="M837 231q0 -50 32 -84q31 -34 80 -34q47 0 79 34.5t32 83.5t-32 84t-79 35q-48 -1 -80 -35t-32 -84zM150 0v1100h170v-237q62 257 237 257q131 0 178 -151q30 -96 30 -270v-359q70 140 195 140q95 0 167 -73t72 -177t-73 -177t-177 -73q-173 0 -273 112q-81 92 -81 308
v299q0 162 -18 207q-21 55 -77 55q-51 0 -91 -82q-89 -184 -89 -287v-592h-170z" />
    <glyph glyph-name="uni0236" unicode="&#x236;" 
d="M794 147q31 -34 80 -34q47 0 79 34q32 35 32 84t-32 84t-79 35q-48 0 -80 -35t-32 -84t32 -84zM510 1500h180v-400h324v-160h-324v-600q70 140 195 140q95 0 167 -73t72 -177t-73 -177t-177 -73q-177 0 -273 112q-91 105 -91 309v539h-324v160h324v400z" />
    <glyph glyph-name="uni0237" unicode="&#x237;" 
d="M159 -303l92 122q72 -86 173 -86q96 0 144 62q51 66 51 206v939h-324v160h504v-1099q0 -207 -91 -309q-100 -112 -273 -112q-176 0 -276 117z" />
    <glyph glyph-name="uni0238" unicode="&#x238;" 
d="M522 1500h160v-481q55 101 168 101q109 0 184 -92q81 -99 81 -266v-431q0 -171 -69 -260q-71 -91 -225 -91q-155 0 -224 126q-85 -126 -213 -126q-152 0 -225 94q-74 96 -74 260v431q0 169 86 266q78 89 179 89q120 0 172 -101v481zM682 765v-431q0 -82 20 -124
q37 -77 117 -77q72 0 114 67q22 37 22 134v431q0 107 -27 149q-36 54 -106 54q-67 -1 -108 -60q-32 -47 -32 -143zM522 765q0 96 -32 143q-41 59 -108 60q-70 0 -106 -54q-27 -42 -27 -149v-431q0 -97 22 -134q40 -67 114 -67q80 0 117 77q20 42 20 124v431z" />
    <glyph glyph-name="uni0239" unicode="&#x239;" 
d="M678 -400h-160v481q-55 -101 -168 -101q-109 0 -184 92q-81 99 -81 266v431q0 171 69 260q71 91 225 91q155 0 224 -126q85 126 213 126q152 0 225 -94q74 -96 74 -260v-431q0 -169 -86 -266q-78 -89 -179 -89q-120 0 -172 101v-481zM518 335v431q0 82 -20 124
q-37 77 -117 77q-72 0 -114 -67q-22 -37 -22 -134v-431q0 -107 27 -149q36 -54 106 -54q67 1 108 60q32 47 32 143zM678 335q0 -96 32 -143q41 -59 108 -60q70 0 106 54q27 42 27 149v431q0 97 -22 134q-42 67 -114 67q-80 0 -117 -77q-20 -42 -20 -124v-431z" />
    <glyph glyph-name="uni023A" unicode="&#x23a;" 
d="M50 0q134 720 460 1500h180l89 -214l115 214h137l-194 -363q220 -586 313 -1137h-180q-57 341 -150 670h-232l-358 -670h-180zM735 945l-62 -115h99zM680 1101q-38 105 -80 209q-95 -234 -171 -480h106zM317 422l133 248h-69q-34 -123 -64 -248z" />
    <glyph glyph-name="uni023B" unicode="&#x23b;" 
d="M130 0l101 190q-7 13 -15 27q-106 200 -106 533q0 334 106 533q126 237 384 237q173 0 287 -106l46 86h137l-101 -190q8 -13 15 -27q33 -67 49 -117h-141l-490 -917q85 -116 198 -116q142 0 232 169q8 15 15 32h186q-23 -68 -49 -117q-124 -237 -384 -237
q-172 0 -285 105l-46 -85h-139zM334 381l466 870q-82 116 -200 116q-141 0 -232 -169q-78 -145 -78 -448q0 -232 44 -369z" />
    <glyph glyph-name="uni023C" unicode="&#x23c;" 
d="M237 0l65 121q-8 9 -16 19q-116 145 -116 410q0 257 116 410q121 160 314 160q117 0 206 -57l20 37h137l-64 -120q8 -10 15 -20q62 -89 91 -195h-180q-7 25 -16 46l-338 -634q53 -40 129 -40q137 0 199 129q15 31 26 68h180q-31 -114 -91 -194q-119 -160 -314 -160
q-115 0 -204 57l-20 -37h-139zM391 288l340 634q-54 41 -131 41q-136 0 -199 -129q-51 -105 -51 -284q0 -161 41 -262z" />
    <glyph glyph-name="uni023D" unicode="&#x23d;" 
d="M236 0v630h-156v140h156v730h180v-730h238v-140h-238v-470h648v-160h-828z" />
    <glyph glyph-name="uni023E" unicode="&#x23e;" 
d="M130 0l380 710v630h-360v160h920l-20 -37v-123h-65l-295 -552v-788h-180v451l-241 -451h-139zM690 1046l157 294h-157v-294z" />
    <glyph glyph-name="uni023F" unicode="&#x23f;" 
d="M207 357h168q1 -100 64 -159q67 -63 161 -63q99 0 161 60q57 56 57 145q0 101 -119 141l-240 75q-216 83 -216 260q0 145 118 235q90 69 226 69q155 0 253 -108q82 -90 82 -218h-169q0 69 -43 120q-45 53 -126 53q-74 0 -128 -37q-48 -36 -48 -101q0 -82 133 -123
l206 -64q246 -79 246 -299q0 -151 -111 -255q-105 -99 -299 -108q165 -116 305 -207v-166q-181 130 -333 255q-149 122 -241 226q-107 103 -107 269z" />
    <glyph glyph-name="uni0240" unicode="&#x240;" 
d="M186 0v160q405 398 587 780h-551v160h792q-129 -473 -608 -940q155 0 246 -134q218 -321 464 -321l-116 -125q-252 0 -475 323q-67 97 -339 97z" />
    <glyph glyph-name="uni0241" unicode="&#x241;" 
d="M517 0v378q0 275 185 403q168 116 168 285q0 120 -67 201q-83 100 -203 100q-127 0 -205 -98q-65 -82 -65 -203h-180q0 190 116 313q133 141 334 141q205 0 331 -140q119 -134 119 -314q0 -211 -217 -376q-149 -113 -149 -312v-378h-167z" />
    <glyph glyph-name="uni0242" unicode="&#x242;" 
d="M510 0v249q0 208 161 303q147 86 147 208q0 89 -57 145q-62 60 -161 60q-94 0 -161 -63q-63 -59 -64 -159h-168q0 166 107 269q113 108 284 108q170 0 284 -108q111 -106 111 -255q0 -198 -228 -333q-75 -45 -75 -175v-249h-180z" />
    <glyph glyph-name="uni0243" unicode="&#x243;" 
d="M330 370v-217h216q161 0 254 87q80 75 80 211q0 122 -80 209t-254 87h-216v-237h294v-140h-294zM150 0v370h-100v140h100v990h346q210 0 331 -113q112 -106 112 -262q0 -198 -187 -278q87 -18 149 -67q149 -117 149 -330q0 -211 -140 -331q-135 -119 -364 -119h-396z
M330 1347v-447h166q144 0 210 62.5t66 161t-67 157.5q-72 66 -209 66h-166z" />
    <glyph glyph-name="uni0244" unicode="&#x244;" 
d="M150 1500h180v-734h540v734h180v-734h100v-140h-100v-192q0 -183 -119 -314q-127 -140 -331 -140q-200 0 -334 141q-116 122 -116 313v192h-100v140h100v734zM870 626h-540v-192q0 -121 65 -203q78 -98 205 -98q122 0 205 100q65 78 65 201v192z" />
    <glyph glyph-name="uni0245" unicode="&#x245;" 
d="M50 0q134 720 460 1500h180q326 -780 460 -1500h-180q-114 680 -370 1310q-250 -616 -370 -1310h-180z" />
    <glyph glyph-name="uni0246" unicode="&#x246;" 
d="M130 0l66 105v1395h874l-358 -670h109v-160h-194l-261 -488v-22h648v-160h-884zM366 441l123 229h-123v-229zM574 830l273 510h-481v-510h208z" />
    <glyph glyph-name="uni0247" unicode="&#x247;" 
d="M237 0l65 121q-8 9 -16 19q-116 145 -116 410q0 257 116 410q121 160 314 160q116 0 206 -58l20 38h137l-64 -121q7 -9 15 -19q108 -135 115 -374l-402 -116l-156 -293q53 -40 129 -40q137 0 199 129q15 31 26 68h180q-31 -114 -91 -194q-120 -160 -314 -160
q-115 0 -204 57l-20 -37h-139zM809 812l-81 -152l112 32q-10 68 -31 120zM731 922q-54 41 -131 41q-136 0 -199 -129q-51 -105 -51 -284l215 62zM391 288l72 134l-101 -29q10 -59 29 -105z" />
    <glyph glyph-name="uni0248" unicode="&#x248;" 
d="M100 434h180q0 -121 65 -203q78 -98 205 -98q120 0 203 100q67 81 67 201v196h-224v140h224v570h-540v160h720v-730h170v-140h-170v-196q0 -180 -119 -314q-126 -140 -331 -140q-201 0 -334 141q-116 123 -116 313z" />
    <glyph glyph-name="uni0249" unicode="&#x249;" 
d="M159 -303l92 122q72 -86 173 -86q96 0 144 62q51 66 51 206v389h-203v140h203v410h-324v160h504v-570h191v-140h-191v-389q0 -207 -91 -309q-100 -112 -273 -112q-176 0 -276 117zM669 1520q59 0 94 -36q40 -41 40 -96t-40 -94q-39 -38 -94 -38q-57 0 -94 36
q-40 39 -40 96t40 94.5t94 37.5z" />
    <glyph glyph-name="uni024A" unicode="&#x24a;" 
d="M1020 1500v-1500q0 -134 59 -198q71 -76 171 -77v-135q-177 0 -302 126q-98 99 -98 284v189q-106 -209 -346 -209q-222 0 -348 237q-106 199 -106 533q0 333 106 533q126 237 348 237q240 0 346 -209v189h170zM540 133q142 0 232 169q78 146 78 448t-78 448
q-90 169 -232 169q-141 0 -232 -169q-78 -145 -78 -448q0 -309 78 -448q95 -169 232 -169z" />
    <glyph glyph-name="uni024B" unicode="&#x24b;" 
d="M980 1100v-1100q0 -139 55 -199q70 -76 165 -76v-135q-177 0 -302 126q-98 99 -98 284v151q-115 -171 -278 -171q-165 0 -286 160q-116 153 -116 410t116 410q121 160 286 160q163 0 278 -171v151h180zM550 137q136 0 199 129q51 105 51 284t-51 284q-63 129 -199 129
t-199 -129q-51 -105 -51 -284t51 -284q63 -129 199 -129z" />
    <glyph glyph-name="uni024C" unicode="&#x24c;" 
d="M546 653q147 0 229 87q95 101 95 260t-99 258q-90 89 -225 89h-216v-694h216zM150 0v500h-120v153h120v847h396q203 0 339 -119q165 -144 165 -381q0 -242 -166 -384q-49 -42 -107 -69l323 -547h-209l-297 502q-23 -2 -48 -2h-216v-500h-180z" />
    <glyph glyph-name="uni024D" unicode="&#x24d;" 
d="M186 0v414h-136v140h136v546h180v-237q85 257 317 257q159 0 251 -110q80 -96 80 -245h-180q0 93 -44 142q-54 60 -134 60q-118 0 -190 -86q-100 -119 -100 -289v-38h258v-140h-258v-414h-180z" />
    <glyph glyph-name="uni024E" unicode="&#x24e;" 
d="M510 0v592q-121 222 -218 434h-242v140h180q-73 170 -130 334h180q62 -173 130 -334h385q67 160 125 334h180q-55 -164 -127 -334h177v-140h-239q-97 -212 -221 -434v-592h-180zM733 1026h-261q61 -134 128 -259q70 124 133 259z" />
    <glyph glyph-name="uni024F" unicode="&#x24f;" 
d="M186 1100h180v-334h468v334h180v-334h136v-140h-136v-476q0 -261 -116 -410q-125 -160 -319 -160q-190 0 -315 168l137 89q63 -100 183 -100q136 0 199 129q51 105 51 284v87q-85 -257 -317 -257q-142 0 -240 112q-91 104 -91 309v225h-136v140h136v334zM834 626h-468
v-225q0 -141 51 -206q48 -62 144 -62q101 0 173 86q100 119 100 289v118z" />
    <glyph glyph-name="uni0250" unicode="&#x250;" 
d="M198 1100h180v-237q83 257 309 257q162 0 252 -106q81 -95 81 -213q0 -177 -141 -276q-110 -78 -260 -78h-236q0 -140 31 -199q59 -112 191 -112q159 0 222 130l115 -126q-121 -160 -360 -160q-203 0 -313 162q-71 105 -71 304v654zM378 593h238q112 0 176 59
q56 52 56 141q0 67 -44 115q-54 59 -153 59q-105 0 -173 -86q-100 -124 -100 -288z" />
    <glyph glyph-name="uni0251" unicode="&#x251;" 
d="M600 137q122 0 185 129q51 105 51 284t-51 284q-63 129 -185 129q-136 0 -199 -129q-51 -105 -51 -284t51 -284q63 -129 199 -129zM1014 0h-180v138q-56 -158 -234 -158q-193 0 -314 160q-116 153 -116 410t116 410q121 160 314 160q165 0 234 -158v138h180v-1100z" />
    <glyph glyph-name="uni0252" unicode="&#x252;" 
d="M600 963q-122 0 -185 -129q-51 -105 -51 -284t51 -284q63 -129 185 -129q136 0 199 129q51 105 51 284t-51 284q-63 129 -199 129zM186 0v1100h180v-138q56 158 234 158q193 0 314 -160q116 -153 116 -410t-116 -410q-121 -160 -314 -160q-165 0 -234 158v-138h-180z" />
    <glyph glyph-name="uni0253" unicode="&#x253;" 
d="M600 137q136 0 199 129q51 105 51 284t-51 284q-63 129 -199 129q-122 0 -185 -129q-51 -105 -51 -284t51 -284q63 -129 185 -129zM586 1520v-135q-95 0 -165 -76q-55 -60 -55 -209v-138q69 158 234 158q193 0 314 -160q116 -153 116 -410t-116 -410q-121 -160 -314 -160
q-178 0 -234 158v-138h-180v1100q0 195 98 294q125 126 302 126z" />
    <glyph glyph-name="uni0254" unicode="&#x254;" 
d="M195 335h180q11 -38 26 -69q62 -129 199 -129q136 0 199 129q51 105 51 284t-51 284q-63 129 -199 129q-137 0 -199 -129q-15 -31 -26 -68h-180q31 113 91 194q119 160 314 160q193 0 314 -160q116 -153 116 -410t-116 -410q-121 -160 -314 -160q-195 0 -314 160
q-60 81 -91 195z" />
    <glyph glyph-name="uni0255" unicode="&#x255;" 
d="M817 234q32 35 32 84t-32 84t-80 35q-47 0 -79 -35t-32 -84t32 -84q32 -34 79 -34q49 0 80 34zM494 346q0 83 66 150q71 71 177 71q104 0 177 -71t73 -176q0 -106 -91 -212q-111 -128 -301 -128q-188 0 -309 160q-116 153 -116 410t116 410q121 160 314 160
q195 0 314 -160q60 -81 91 -195h-180q-11 38 -26 69q-62 129 -199 129q-136 0 -199 -129q-51 -105 -51 -284q0 -214 50 -291q88 -135 228 -135q-134 86 -134 222z" />
    <glyph glyph-name="uni0256" unicode="&#x256;" 
d="M834 0v138q-56 -158 -234 -158q-193 0 -314 160q-116 153 -116 410t116 410q121 160 314 160q165 0 234 -158v538h180v-1500q0 -141 45 -198q60 -77 141 -77v-135q-170 0 -279 125q-87 100 -87 285zM600 137q122 0 185 129q51 105 51 284t-51 284q-63 129 -185 129
q-136 0 -199 -129q-51 -105 -51 -284t51 -284q63 -129 199 -129z" />
    <glyph glyph-name="uni0257" unicode="&#x257;" 
d="M570 137q122 0 185 129q51 105 51 284t-51 284q-63 129 -185 129q-136 0 -199 -129q-51 -105 -51 -284t51 -284q63 -129 199 -129zM984 0h-180v138q-56 -158 -234 -158q-193 0 -314 160q-116 153 -116 410t116 410q121 160 314 160q165 0 234 -158v138q0 195 98 294
q125 126 298 126v-135q-91 0 -161 -76q-55 -60 -55 -209v-1100z" />
    <glyph glyph-name="uni0258" unicode="&#x258;" 
d="M194 334h180q11 -37 26 -68q62 -129 199 -129t199 129q26 54 39 127l-667 193q7 232 115 374q122 160 314 160q193 0 314 -160q116 -153 116 -410t-116 -410q-121 -160 -314 -160q-194 0 -314 160q-60 80 -91 194zM849 550q0 179 -51 284q-63 129 -199 129t-199 -129
q-29 -59 -41 -142z" />
    <glyph glyph-name="uni0259" unicode="&#x259;" 
d="M194 766q31 114 91 194q120 160 314 160q193 0 314 -160q116 -153 116 -410t-116 -410q-121 -160 -314 -160q-192 0 -314 160q-108 142 -115 374l667 193q-13 73 -39 127q-62 129 -199 129t-199 -129q-15 -31 -26 -68h-180zM849 550l-490 -142q12 -83 41 -142
q63 -129 199 -129t199 129q51 105 51 284z" />
    <glyph glyph-name="uni025A" unicode="&#x25a;" 
d="M799 550l-490 -142q12 -83 41 -142q63 -129 199 -129t199 129q51 105 51 284zM144 766q31 114 91 194q120 160 314 160q193 0 314 -160l145 32q0 -203 192 -203v-139q-154 0 -247 118q26 -98 26 -218q0 -257 -116 -410q-121 -160 -314 -160q-192 0 -314 160
q-108 142 -115 374l667 193q-13 73 -39 127q-62 129 -199 129t-199 -129q-15 -31 -26 -68h-180z" />
    <glyph glyph-name="uni025B" unicode="&#x25b;" 
d="M960 224v-166q-197 -78 -358 -78q-170 0 -284 108q-111 106 -111 255q0 168 195 257q-159 80 -159 216q0 145 118 235q90 69 226 69q135 0 295 -55v-161q-152 63 -295 63q-89 0 -131 -37q-48 -42 -48 -112q0 -148 226 -148v-154q-252 0 -252 -176q0 -92 57 -145
q66 -62 163 -62q173 0 358 91z" />
    <glyph glyph-name="uni025C" unicode="&#x25c;" 
d="M240 224q185 -91 358 -91q97 0 163 62q57 53 57 145q0 176 -252 176v154q226 0 226 148q0 70 -48 112q-42 37 -131 37q-143 0 -295 -63v161q160 55 295 55q136 0 226 -69q118 -90 118 -235q0 -136 -159 -216q195 -89 195 -257q0 -149 -111 -255q-114 -108 -284 -108
q-161 0 -358 78v166z" />
    <glyph glyph-name="uni025D" unicode="&#x25d;" 
d="M240 224q185 -91 358 -91q97 0 163 62q57 53 57 145q0 176 -252 176v154q226 0 226 148q0 70 -48 112q-42 37 -131 37q-143 0 -295 -63v161q160 55 295 55q136 0 226 -69q47 -36 75 -80l94 21q0 -203 192 -203v-139q-155 0 -248 120q-23 -104 -154 -170q195 -89 195 -257
q0 -149 -111 -255q-114 -108 -284 -108q-161 0 -358 78v166z" />
    <glyph glyph-name="uni025E" unicode="&#x25e;" 
d="M617 967q-134 0 -198 -133q-51 -105 -51 -284t51 -284q64 -133 197 -133q97 0 163 62q57 53 57 145q0 176 -252 176v154q226 0 226 148q0 72 -48 112q-46 37 -145 37zM618 1120q149 0 239 -69q118 -94 118 -235q0 -136 -159 -216q195 -89 195 -257q0 -149 -111 -255
q-114 -108 -284 -108q-191 0 -312 160q-116 153 -116 410t116 410q121 160 314 160z" />
    <glyph glyph-name="uni025F" unicode="&#x25f;" 
d="M159 -303l92 122q72 -86 173 -86q96 0 144 62q51 66 51 206v389h-203v140h203v410h-324v160h504v-570h191v-140h-191v-389q0 -207 -91 -309q-100 -112 -273 -112q-176 0 -276 117z" />
    <glyph glyph-name="uni0260" unicode="&#x260;" 
d="M234 -252l137 89q63 -100 183 -100q136 0 199 129q51 105 51 272q-69 -158 -234 -158q-193 0 -314 160q-116 153 -116 410t116 410q121 160 314 160q178 0 234 -158v138q0 195 98 294q125 126 298 126v-135q-91 0 -161 -76q-55 -60 -55 -209v-950q0 -259 -116 -410
q-124 -160 -317 -160q-192 0 -317 168zM570 963q-136 0 -199 -129q-51 -105 -51 -284t51 -284q63 -129 199 -129q122 0 185 129q51 105 51 284t-51 284q-63 129 -185 129z" />
    <glyph glyph-name="uni0261" unicode="&#x261;" 
d="M600 963q-136 0 -199 -129q-51 -105 -51 -284t51 -284q63 -129 199 -129q122 0 185 129q51 105 51 284t-51 284q-63 129 -185 129zM264 -252l137 89q63 -100 183 -100q136 0 199 129q51 105 51 272q-69 -158 -234 -158q-193 0 -314 160q-116 153 -116 410t116 410
q121 160 314 160q178 0 234 -158v138h180v-950q0 -259 -116 -410q-124 -160 -317 -160q-192 0 -317 168z" />
    <glyph glyph-name="uni0262" unicode="&#x262;" 
d="M1030 550q0 -254 -116 -410q-119 -160 -314 -160q-193 0 -314 160q-116 153 -116 410t116 410q121 160 314 160q195 0 314 -160q60 -81 91 -195h-180q-11 38 -26 69q-62 129 -199 129q-136 0 -199 -129q-51 -105 -51 -284t51 -284q63 -129 199 -129t199 129q26 53 38 124
h-275v160h468z" />
    <glyph glyph-name="uni0263" unicode="&#x263;" 
d="M170 1100h190q82 -394 239 -640q146 239 251 640h180q-104 -403 -331 -737q193 -191 237 -321q21 -62 21 -132q0 -111 -71 -207q-91 -123 -286 -123q-187 0 -286 123q-71 88 -71 207q0 81 21 132q63 146 232 320q-232 336 -326 738zM598 246q-105 -91 -170 -222
q-22 -45 -22 -100q0 -70 31 -119q51 -80 161 -80q100 0 157 77q35 47 35 128q0 41 -18 94q-38 109 -174 222z" />
    <glyph glyph-name="uni0264" unicode="&#x264;" 
d="M192 1100h189q82 -255 220 -416q132 164 223 416h181q-105 -271 -305 -501q193 -149 239 -254q22 -51 22 -104q0 -89 -72 -164q-93 -97 -289 -97q-189 0 -289 97q-72 70 -72 164q0 63 22 104q61 113 234 253q-204 231 -303 502zM426 331q-22 -36 -22 -79q0 -52 40 -92
q54 -54 156 -54q99 0 153 53q39 38 39 97q0 44 -18 75q-50 83 -176 167q-115 -73 -172 -167z" />
    <glyph glyph-name="uni0265" unicode="&#x265;" 
d="M186 1100h180v-699q0 -141 51 -206q48 -62 144 -62q101 0 173 86q100 119 100 289v592h180v-1500h-180v637q-85 -257 -317 -257q-142 0 -240 112q-91 104 -91 309v699z" />
    <glyph glyph-name="uni0266" unicode="&#x266;" 
d="M186 0v1100q0 195 98 294q125 126 302 126v-135q-95 0 -165 -76q-55 -60 -55 -209v-237q85 257 317 257q142 0 240 -112q91 -104 91 -309v-699h-180v699q0 141 -51 206q-48 62 -144 62q-101 0 -173 -86q-100 -119 -100 -289v-592h-180z" />
    <glyph glyph-name="uni0267" unicode="&#x267;" 
d="M186 0v1100q0 195 98 294q125 126 302 126v-135q-95 0 -165 -76q-55 -60 -55 -209v-237q85 257 317 257q142 0 240 -112q91 -104 91 -309v-699q0 -185 -98 -284q-125 -126 -355 -126v135q142 0 213 77q60 65 60 198v699q0 141 -51 206q-48 62 -144 62q-101 0 -173 -86
q-100 -119 -100 -289v-592h-180z" />
    <glyph glyph-name="uni0268" unicode="&#x268;" 
d="M1150 97q-100 -117 -275 -117q-178 0 -274 112q-91 106 -91 309v97h-186v140h186v302h-324v160h504v-462h208v-140h-208v-97q0 -140 51 -206q48 -62 144 -62q101 0 173 86zM560 1520q59 0 94 -36q40 -41 40 -96t-40 -94q-39 -38 -94 -38q-57 0 -94 36q-40 39 -40 96
t40 94.5t94 37.5z" />
    <glyph glyph-name="uni0269" unicode="&#x269;" 
d="M1150 97q-100 -117 -275 -117q-178 0 -274 112q-91 106 -91 309v539h-324v160h504v-699q0 -140 51 -206q48 -62 144 -62q101 0 173 86z" />
    <glyph glyph-name="uni026A" unicode="&#x26a;" 
d="M236 0v160h274v780h-274v160h728v-160h-274v-780h274v-160h-728z" />
    <glyph glyph-name="uni026B" unicode="&#x26b;" 
d="M1150 97q-100 -117 -276 -117q-173 0 -273 112q-91 102 -91 309v335q-46 30 -86 30q-68 0 -96 -148h-142q50 316 233 316q46 0 91 -19v425h-324v160h504v-726q55 -44 93 -44q57 0 86 147h145q-57 -316 -221 -316q-46 0 -103 33v-193q0 -140 51 -206q48 -62 144 -62
q101 0 173 86z" />
    <glyph glyph-name="uni026C" unicode="&#x26c;" 
d="M1150 97q-100 -117 -276 -117q-173 0 -273 112q-91 102 -91 309v103h-70q-107 0 -177 73q-73 73 -73 177q0 105 73 177q70 69 156 69q52 0 91 -58v398h-324v160h504v-746v-110h326v-140h-326v-103q0 -140 51 -206q48 -62 144 -62q101 0 173 86zM510 758q0 52 -16 77
q-21 34 -64 34q-37 0 -66 -31q-30 -33 -30 -83q0 -45 31 -78q31 -32 77 -32h68v113z" />
    <glyph glyph-name="uni026D" unicode="&#x26d;" 
d="M1150 -303q-100 -117 -276 -117q-173 0 -269 114q-85 101 -85 307v1339h-334v160h504v-1499q0 -140 51 -206q48 -62 144 -62q101 0 173 86z" />
    <glyph glyph-name="uni026E" unicode="&#x26e;" 
d="M250 -154q208 -113 400 -113q120 0 203 100q67 81 67 201q0 142 -104 224q-112 88 -305 88v153q241 205 344 461h-375v140h620q-166 -364 -413 -621q79 -17 154 -54q259 -131 259 -391q0 -180 -119 -314q-126 -140 -331 -140q-178 0 -400 96v170zM800 97
q-100 -117 -276 -117q-173 0 -273 112q-91 102 -91 309v959h-124v140h284v-1099q0 -129 59 -208q45 -60 156 -60q101 0 173 86z" />
    <glyph glyph-name="uni026F" unicode="&#x26f;" 
d="M1046 0h-160v114q-55 -134 -166 -134q-127 0 -168 140q-48 -140 -195 -140q-111 0 -167 116q-36 73 -36 239v765h160v-765q0 -104 10 -136q23 -73 79 -73q69 0 101 65q15 30 15 144v765h160v-765q0 -108 11 -143q21 -66 76 -66q70 0 99 68q21 48 21 141v765h160v-1100z
" />
    <glyph glyph-name="uni0270" unicode="&#x270;" 
d="M1046 -400h-160v514q-55 -134 -166 -134q-127 0 -168 140q-48 -140 -195 -140q-111 0 -167 116q-36 73 -36 239v765h160v-765q0 -104 10 -136q23 -73 79 -73q69 0 101 65q15 30 15 144v765h160v-765q0 -108 11 -143q21 -66 76 -66q70 0 99 68q21 48 21 141v765h160v-1500
z" />
    <glyph glyph-name="uni0271" unicode="&#x271;" 
d="M154 0v1100h160v-114q55 134 166 134q127 0 168 -140q48 140 195 140q111 0 167 -116q36 -73 36 -239v-765q0 -185 -98 -284q-125 -126 -355 -126v135q156 0 224 74q69 74 69 201v765q0 104 -10 136q-23 73 -79 73q-69 0 -101 -65q-15 -30 -15 -144v-765h-160v765
q0 108 -11 143q-21 66 -76 66q-70 0 -99 -68q-21 -48 -21 -141v-765h-160z" />
    <glyph glyph-name="uni0272" unicode="&#x272;" 
d="M1014 0h-180v699q0 141 -51 206q-48 62 -144 62q-101 0 -173 -86q-100 -119 -100 -289v-592q0 -185 -87 -285q-109 -125 -279 -125v135q81 0 141 77q45 57 45 198v1100h180v-237q85 257 317 257q142 0 240 -112q91 -104 91 -309v-699z" />
    <glyph glyph-name="uni0273" unicode="&#x273;" 
d="M186 0v1100h180v-237q85 257 317 257q142 0 240 -112q91 -104 91 -309v-699q0 -141 45 -198q60 -77 141 -77v-135q-170 0 -279 125q-87 100 -87 285v699q0 141 -51 206q-48 62 -144 62q-101 0 -173 -86q-100 -119 -100 -289v-592h-180z" />
    <glyph glyph-name="uni0274" unicode="&#x274;" 
d="M186 0v1100h180q339 -340 488 -752v752h160v-1100h-160q-221 587 -508 894v-894h-160z" />
    <glyph glyph-name="uni0275" unicode="&#x275;" 
d="M600 -20q-193 0 -314 160q-116 153 -116 410t116 410q121 160 314 160t314 -160q116 -153 116 -410t-116 -410q-121 -160 -314 -160zM600 137q137 0 199 129q24 50 37 116h-472q13 -66 37 -116q62 -129 199 -129zM350 522h500v28q0 179 -51 284q-63 129 -199 129
t-199 -129q-51 -105 -51 -284v-28z" />
    <glyph glyph-name="uni0276" unicode="&#x276;" 
d="M556 157v786q-182 0 -245 -129q-51 -105 -51 -264t51 -264q63 -129 245 -129zM1094 0h-538q-239 0 -360 160q-116 153 -116 390t116 390q121 160 360 160h498v-140h-338v-352h263v-140h-263v-328h378v-140z" />
    <glyph glyph-name="uni0277" unicode="&#x277;" 
d="M522 516h156v-182q0 -104 17 -142q27 -60 69 -60q86 0 119 187q20 113 20 209q0 166 -65 297q-74 149 -238 149t-238 -149q-65 -131 -65 -297q0 -96 20 -209q33 -187 119 -187q45 0 69 60q17 42 17 142v182zM414 -20q-160 0 -240 250q-44 138 -44 304q0 189 86 349
q127 237 384 237t384 -237q86 -160 86 -349q0 -166 -44 -304q-82 -250 -240 -250q-122 0 -186 122q-61 -122 -186 -122z" />
    <glyph glyph-name="uni0278" unicode="&#x278;" 
d="M520 -400v386q-157 26 -254 154q-116 153 -116 412q0 262 116 408q100 126 254 153v387h160v-385q155 -27 254 -153q116 -147 116 -408q0 -259 -116 -412q-97 -128 -254 -154v-388h-160zM680 133q93 30 149 135q51 95 51 286q0 188 -51 282q-56 103 -149 133v-836z
M520 131v836q-93 -30 -149 -133q-51 -94 -51 -282q0 -190 51 -286q56 -105 149 -135z" />
    <glyph glyph-name="uni0279" unicode="&#x279;" 
d="M1014 0h-180v237q-85 -257 -317 -257q-159 0 -251 110q-80 96 -80 245h180q0 -93 44 -142q54 -60 134 -60q118 0 190 86q100 119 100 289v592h180v-1100z" />
    <glyph glyph-name="uni027A" unicode="&#x27a;" 
d="M1014 0h-180v237q-85 -257 -317 -257q-159 0 -251 110q-80 96 -80 245h180q0 -93 44 -142q54 -60 134 -60q118 0 190 86q100 119 100 289v992h180v-1500z" />
    <glyph glyph-name="uni027B" unicode="&#x27b;" 
d="M186 335h180q0 -93 44 -142q54 -60 134 -60q118 0 190 86q100 119 100 289v592h180v-1100q0 -141 45 -198q60 -77 141 -77v-135q-170 0 -279 125q-87 100 -87 285v237q-85 -257 -317 -257q-159 0 -251 110q-80 96 -80 245z" />
    <glyph glyph-name="uni027C" unicode="&#x27c;" 
d="M186 1100h180v-237q85 257 317 257q159 0 251 -110q80 -96 80 -245h-180q0 93 -44 142q-54 60 -134 60q-118 0 -190 -86q-100 -119 -100 -289v-992h-180v1500z" />
    <glyph glyph-name="uni027D" unicode="&#x27d;" 
d="M186 0v1100h180v-237q85 257 317 257q159 0 251 -110q80 -96 80 -245h-180q0 93 -44 142q-54 60 -134 60q-118 0 -190 -86q-100 -119 -100 -289v-592q0 -141 45 -198q60 -77 141 -77v-135q-170 0 -279 125q-87 100 -87 285z" />
    <glyph glyph-name="uni027E" unicode="&#x27e;" 
d="M236 0v160h274v539q0 191 98 307q97 114 266 114q176 0 276 -117l-92 -122q-72 86 -173 86q-96 0 -144 -62q-51 -65 -51 -206v-539h274v-160h-728z" />
    <glyph glyph-name="uni027F" unicode="&#x27f;" 
d="M236 0v160h274v539q0 141 -51 206q-48 62 -144 62q-101 0 -173 -86l-92 122q100 117 276 117q169 0 266 -114q98 -116 98 -307v-539h274v-160h-728z" />
    <glyph glyph-name="uni0280" unicode="&#x280;" 
d="M200 0v1100h379q150 0 267 -80q146 -100 146 -284q0 -183 -135 -282q-15 -11 -32 -21l255 -433h-209l-219 373q-35 -5 -73 -5h-199v-368h-180zM380 521h200q104 0 163 53q69 63 69 162q0 111 -73 167q-57 44 -159 44h-200v-426z" />
    <glyph glyph-name="uni0281" unicode="&#x281;" 
d="M200 0v1100h180v-368h199q38 0 73 -5l219 373h209l-255 -433q17 -10 32 -21q135 -99 135 -282q0 -184 -146 -284q-117 -80 -267 -80h-379zM380 579v-426h200q102 0 159 44q73 56 73 167q0 99 -69 162q-59 53 -163 53h-200z" />
    <glyph glyph-name="uni0282" unicode="&#x282;" 
d="M207 357h168q1 -100 64 -159q67 -63 161 -63q99 0 161 60q57 56 57 145q0 101 -119 141l-240 75q-216 83 -216 260q0 145 118 235q90 69 226 69q155 0 253 -108q82 -90 82 -218h-169q0 69 -43 120q-45 53 -126 53q-76 0 -128 -37q-48 -34 -48 -101q0 -82 133 -123
l206 -64q246 -79 246 -299q0 -149 -111 -255q-114 -108 -245 -108q-174 0 -263 110q0 -181 68 -254q70 -76 165 -76v-135q-177 0 -302 126q-98 99 -98 284v322z" />
    <glyph glyph-name="uni0283" unicode="&#x283;" 
d="M50 -303l92 122q72 -86 173 -86q103 0 151 61q54 71 54 206v1099q0 199 92 305q100 116 262 116q176 0 276 -117l-92 -122q-72 86 -173 86q-96 0 -144 -62q-51 -65 -51 -206v-1099q0 -206 -91 -308q-100 -112 -273 -112q-176 0 -276 117z" />
    <glyph glyph-name="uni0284" unicode="&#x284;" 
d="M159 -303l92 122q72 -86 173 -86q96 0 144 62q51 66 51 206v389h-203v140h203v410h-324v160h324q0 195 98 294q125 126 302 126v-135q-95 0 -165 -76q-55 -60 -55 -209v-570h191v-140h-191v-389q0 -207 -91 -309q-100 -112 -273 -112q-176 0 -276 117z" />
    <glyph glyph-name="uni0285" unicode="&#x285;" 
d="M1150 -303q-100 -117 -276 -117q-173 0 -273 112q-91 102 -91 308v699q0 141 -51 206q-48 62 -144 62q-101 0 -173 -86l-92 122q100 117 276 117q162 0 262 -116q92 -106 92 -305v-699q0 -135 54 -206q46 -61 151 -61q101 0 173 86z" />
    <glyph glyph-name="uni0286" unicode="&#x286;" 
d="M406 -254q32 35 32 84t-32 84t-80 35q-47 0 -79 -35t-32 -84t32 -84q32 -34 79 -34q49 0 80 34zM520 1099q0 199 92 305q100 116 262 116q176 0 276 -117l-92 -122q-72 86 -173 86q-96 0 -144 -62q-51 -65 -51 -206v-1099q0 -207 -91 -309q-100 -112 -273 -112
q-104 0 -177 73t-73 177t72 177t167 73q134 0 205 -140v1160z" />
    <glyph glyph-name="uni0287" unicode="&#x287;" 
d="M510 0v400h-324v160h324v539q0 140 -51 206q-48 62 -144 62q-101 0 -173 -86l-92 122q100 117 276 117q173 0 273 -112q91 -102 91 -309v-539h324v-160h-324v-400h-180z" />
    <glyph glyph-name="uni0288" unicode="&#x288;" 
d="M1150 -303q-100 -117 -276 -117q-173 0 -269 114q-85 101 -85 307v939h-334v160h334v400h170v-400h324v-160h-324v-939q0 -140 51 -206q48 -62 144 -62q101 0 173 86z" />
    <glyph glyph-name="uni0289" unicode="&#x289;" 
d="M1014 0h-180v237q-85 -257 -317 -257q-142 0 -240 112q-91 104 -91 309v225h-136v140h136v334h180v-334h468v334h180v-334h136v-140h-136v-626zM834 626h-468v-225q0 -141 51 -206q48 -62 144 -62q101 0 173 86q100 119 100 289v118z" />
    <glyph glyph-name="uni028A" unicode="&#x28a;" 
d="M1030 1100v-160h-198q198 -153 198 -396q0 -251 -116 -404q-121 -160 -314 -160t-314 160q-116 153 -116 404q0 243 198 396h-198v160h340v-223q-63 -21 -110 -89q-50 -72 -50 -248q0 -169 51 -274q63 -129 199 -129t199 129q51 105 51 274q0 176 -50 248q-47 68 -110 89
v223h340z" />
    <glyph glyph-name="uni028B" unicode="&#x28b;" 
d="M186 1100h180v-766q0 -76 47 -137.5t115 -61.5q159 0 251 173q88 163 88 344q0 240 -174 448h193q159 -207 159 -454q0 -238 -129 -428q-162 -238 -386 -238q-145 0 -246 97q-98 95 -98 257v766z" />
    <glyph glyph-name="uni028C" unicode="&#x28c;" 
d="M100 0q158 724 410 1100h180q252 -376 410 -1100h-180q-154 660 -322 902q-180 -242 -318 -902h-180z" />
    <glyph glyph-name="uni028D" unicode="&#x28d;" 
d="M64 0q69 558 245 1100h180q73 -222 111 -392q37 170 110 392h180q178 -542 246 -1100h-180q-44 550 -168 900q-98 -210 -98 -636h-181q0 426 -98 636q-123 -350 -167 -900h-180z" />
    <glyph glyph-name="uni028E" unicode="&#x28e;" 
d="M100 0q194 814 646 1500h206q-146 -194 -254 -400q224 -382 402 -1100h-180q-106 494 -322 925q-216 -441 -318 -925h-180z" />
    <glyph glyph-name="uni028F" unicode="&#x28f;" 
d="M510 0v364q-224 316 -380 736h197q109 -346 273 -610q172 280 273 610h197q-142 -380 -380 -736v-364h-180z" />
    <glyph glyph-name="uni0290" unicode="&#x290;" 
d="M136 0v160q405 398 587 780h-551v160h792q-129 -473 -608 -940h608v-160q0 -135 58 -198q71 -77 178 -77v-135q-202 0 -322 126q-94 99 -94 284h-648z" />
    <glyph glyph-name="uni0291" unicode="&#x291;" 
d="M152 0v160q405 398 587 780h-551v160h792q-129 -473 -608 -940l368 -20q-53 56 -53 117q0 104 71 174q70 69 173 69t175 -73t72 -177t-73 -177t-177 -73h-776zM1008 167q32 35 32 84t-32 84t-80 35q-47 0 -79 -35t-32 -84t32 -84q32 -34 79 -34q49 0 80 34z" />
    <glyph glyph-name="uni0292" unicode="&#x292;" 
d="M150 -154q208 -113 400 -113q120 0 203 100q67 81 67 201q0 142 -104 224q-112 88 -305 88v153q203 204 334 441h-475v160h730q-166 -364 -413 -621q79 -17 154 -54q259 -131 259 -391q0 -180 -119 -314q-126 -140 -331 -140q-178 0 -400 96v170z" />
    <glyph glyph-name="uni0293" unicode="&#x293;" 
d="M406 -207q32 35 32 84t-32 84t-80 35q-47 0 -79 -35t-32 -84t32 -84q32 -34 79 -34q49 0 80 34zM270 1100h730q-166 -364 -413 -621q79 -17 154 -54q259 -131 259 -391q0 -180 -119 -314q-126 -140 -331 -140q-282 0 -401 119q-73 73 -73 177t74 177t178 73t174 -72
q71 -73 71 -163q0 -120 -107 -182q38 1 58 1q126 0 229 123q67 81 67 201q0 142 -104 224q-112 88 -305 88v153q203 204 334 441h-475v160z" />
    <glyph glyph-name="uni0294" unicode="&#x294;" 
d="M517 0v378q0 275 185 403q168 116 168 285q0 120 -67 201q-83 100 -203 100q-127 0 -205 -98q-65 -82 -65 -203h-180q0 190 116 313q133 141 334 141q205 0 331 -140q119 -134 119 -314q0 -211 -217 -376q-149 -113 -149 -312v-378h-167z" />
    <glyph glyph-name="uni0295" unicode="&#x295;" 
d="M516 0v378q0 199 -149 312q-217 165 -217 376q0 180 119 314q126 140 331 140q201 0 334 -141q116 -123 116 -313h-180q0 121 -65 203q-78 98 -205 98q-120 0 -203 -100q-67 -81 -67 -201q0 -169 168 -285q185 -128 185 -403v-378h-167z" />
    <glyph glyph-name="uni0296" unicode="&#x296;" 
d="M683 1500v-378q0 -275 -185 -403q-168 -116 -168 -285q0 -120 67 -201q83 -100 203 -100q127 0 205 98q65 82 65 203h180q0 -190 -116 -313q-133 -141 -334 -141q-205 0 -331 140q-119 134 -119 314q0 211 217 376q149 113 149 312v378h167z" />
    <glyph glyph-name="uni0297" unicode="&#x297;" 
d="M1033 -66q-23 -68 -49 -117q-124 -237 -384 -237q-253 0 -384 237q-116 210 -116 733q0 515 116 733q126 237 384 237q259 0 384 -237q31 -59 49 -117h-186q-7 17 -15 32q-90 169 -232 169q-136 0 -232 -169q-98 -173 -98 -648q0 -473 98 -648q95 -169 232 -169
q142 0 232 169q8 15 15 32h186z" />
    <glyph glyph-name="uni0298" unicode="&#x298;" 
d="M600 663q47 0 76 -31q32 -34 32 -80q0 -48 -32 -79q-33 -32 -76 -32q-47 0 -76 30q-32 33 -32 81t32.5 79.5t75.5 31.5zM330 553q0 -115 66 -200q77 -98 206 -98q121 0 201 97q67 81 67 202q0 115 -66 200q-77 98 -206 98q-121 0 -201 -97q-67 -81 -67 -202zM1050 551
q0 -175 -119 -309q-126 -140 -331 -140t-331 140q-119 134 -119 309q0 180 119 314q126 140 331 140t331 -140q119 -134 119 -314z" />
    <glyph glyph-name="uni0299" unicode="&#x299;" 
d="M200 0v1100h395q164 0 257 -86q91 -84 91 -198q-1 -158 -157 -208q242 -66 242 -276q0 -165 -124 -250q-122 -82 -291 -82h-413zM381 520v-367h233q128 0 175 41q59 51 59 140q0 80 -59 134q-58 52 -175 52h-233zM381 672h213q78 0 123 32q47 33 47 108q0 66 -49 105
q-39 30 -121 30h-213v-275z" />
    <glyph glyph-name="uni029A" unicode="&#x29a;" 
d="M582 967q-99 0 -145 -37q-48 -40 -48 -112q0 -148 226 -148v-154q-252 0 -252 -176q0 -92 57 -145q66 -62 163 -62q133 0 197 133q51 105 51 284t-51 284q-64 133 -198 133zM581 1120q193 0 314 -160q116 -153 116 -410t-116 -410q-121 -160 -312 -160q-170 0 -284 108
q-111 106 -111 255q0 168 195 257q-159 80 -159 216q0 141 118 235q90 69 239 69z" />
    <glyph glyph-name="uni029B" unicode="&#x29b;" 
d="M1030 550q0 -254 -116 -410q-119 -160 -314 -160q-193 0 -314 160q-116 153 -116 410t116 410q121 160 314 160q185 0 301 -143q92 99 296 99v-139q-192 0 -192 -172h-180q-11 38 -26 69q-62 129 -199 129q-136 0 -199 -129q-51 -105 -51 -284t51 -284q63 -129 199 -129
t199 129q26 53 38 124h-275v160h468z" />
    <glyph glyph-name="uni029C" unicode="&#x29c;" 
d="M186 1100h180v-472h468v472h180v-1100h-180v468h-468v-468h-180v1100z" />
    <glyph glyph-name="uni029D" unicode="&#x29d;" 
d="M619 -60h-68q-46 0 -77 -32q-31 -33 -31 -78q0 -50 30 -83q29 -31 66 -31q43 0 64 34q16 25 16 77v113zM295 1100h504v-1019h197v-140h-197v-110q0 -104 -73 -177t-177 -73t-177 73t-73 177t73 177q70 73 177 73h70v859h-324v160zM669 1520q59 0 94 -36q40 -41 40 -96
t-40 -94q-39 -38 -94 -38q-57 0 -94 36q-40 39 -40 96t40 94.5t94 37.5z" />
    <glyph glyph-name="uni029E" unicode="&#x29e;" 
d="M205 0q71 292 246 548q-157 240 -265 552h182q82 -236 198 -405q115 123 268 248v157h180v-1500h-180v1135q-338 -283 -449 -735h-180z" />
    <glyph glyph-name="uni029F" unicode="&#x29f;" 
d="M280 0v1100h180v-940h474v-160h-654z" />
    <glyph glyph-name="uni02A0" unicode="&#x2a0;" 
d="M1200 1520v-135q-91 0 -161 -76q-55 -60 -55 -209v-1330q64 40 107 108t69 122v-240q-41 -66 -133 -116q-81 -44 -223 -44v538q-69 -158 -234 -158q-193 0 -314 160q-116 153 -116 410t116 410q121 160 314 160q178 0 234 -158v138q0 195 98 294q125 126 298 126z
M570 963q-136 0 -199 -129q-51 -105 -51 -284t51 -284q63 -129 199 -129q122 0 185 129q51 105 51 284t-51 284q-63 129 -185 129z" />
    <glyph glyph-name="uni02A1" unicode="&#x2a1;" 
d="M517 0v300h-328v160h332q25 213 181 321q168 116 168 285q0 120 -67 201q-83 100 -203 100q-127 0 -205 -98q-65 -82 -65 -203h-180q0 190 116 313q133 141 334 141q205 0 331 -140q119 -134 119 -314q0 -211 -217 -376q-117 -89 -142 -230h326v-160h-333v-300h-167z" />
    <glyph glyph-name="uni02A2" unicode="&#x2a2;" 
d="M516 0v300h-333v160h326q-25 141 -142 230q-217 165 -217 376q0 180 119 314q126 140 331 140q201 0 334 -141q116 -123 116 -313h-180q0 121 -65 203q-78 98 -205 98q-120 0 -203 -100q-67 -81 -67 -201q0 -169 168 -285q156 -108 181 -321h332v-160h-328v-300h-167z
" />
    <glyph glyph-name="uni02A3" unicode="&#x2a3;" 
d="M617 0h-150v113q-49 -133 -157 -133q-113 0 -174 108q-86 153 -86 462q0 297 98 458q68 112 168 112q103 0 151 -124v504h150v-1500zM468 552q0 244 -42 339q-35 79 -94 79q-53 0 -87 -74q-45 -98 -45 -344q0 -255 47 -352q34 -70 85 -70q54 0 93 76q43 85 43 346zM687 0
v140q238 404 324 820h-294v140h468q-94 -564 -340 -960h340v-140h-498z" />
    <glyph glyph-name="uni02A4" unicode="&#x2a4;" 
d="M335 -154q208 -113 400 -113q144 0 217 100q62 85 62 202q0 149 -104 227q-93 70 -216 70v153q182 201 274 475h-303v140h520q-143 -376 -325 -650q44 -14 66 -25q259 -133 259 -391q0 -180 -119 -314q-126 -140 -331 -140q-178 0 -400 96v170zM617 0h-150v113
q-49 -133 -157 -133q-113 0 -174 108q-86 153 -86 462q0 297 98 458q68 112 168 112q103 0 151 -124v504h150v-1500zM468 552q0 244 -42 339q-35 79 -94 79q-53 0 -87 -74q-45 -98 -45 -344q0 -255 47 -352q34 -70 85 -70q54 0 93 76q43 85 43 346z" />
    <glyph glyph-name="uni02A5" unicode="&#x2a5;" 
d="M617 0v150q213 398 320 810h-299v140h459q-85 -473 -332 -950l171 -10q-31 57 -31 117q0 107 41 174q41 69 101 69t101 -73q42 -74 42 -177q0 -104 -42 -177q-43 -73 -103 -73h-428zM1091 167q19 35 19 84t-19 84q-18 35 -46 35t-46 -35q-18 -33 -18 -84q0 -48 18 -84
q18 -34 46 -34t46 34zM582 0h-150v113q-49 -133 -157 -133q-113 0 -174 108q-86 153 -86 462q0 297 98 458q68 112 168 112q103 0 151 -124v504h150v-1500zM433 552q0 244 -42 339q-35 79 -94 79q-53 0 -87 -74q-45 -98 -45 -344q0 -255 47 -352q34 -70 85 -70q54 0 93 76
q43 85 43 346z" />
    <glyph glyph-name="uni02A6" unicode="&#x2a6;" 
d="M570 356h131q1 -119 29 -156q50 -65 113 -65q74 0 108 61q26 50 26 144q0 109 -65 141l-168 75q-151 83 -151 260q0 144 83 235q63 69 158 69q108 0 177 -108q57 -89 57 -218h-128q0 87 -20 120q-32 53 -88 53q-47 0 -76 -35q-28 -34 -28 -106q0 -84 74 -120l144 -64
q172 -79 172 -299q0 -148 -78 -255q-79 -108 -198 -108q-123 0 -199 108q-73 103 -73 268zM548 -20q-178 0 -273 112q-81 96 -81 309v559h-184v140h184v400h160v-400h184v-140h-184v-559q0 -127 61 -206q47 -61 133 -61v-154z" />
    <glyph glyph-name="uni02A7" unicode="&#x2a7;" 
d="M362 -181q72 -86 173 -86q105 0 151 61q54 71 54 206v1099q0 199 92 305q100 116 273 116v-153q-95 0 -147 -61q-58 -69 -58 -207v-1099q0 -208 -89 -305q-105 -114 -265 -115q-176 0 -276 117zM618 -20q-178 0 -273 112q-81 96 -81 309v559h-184v140h184v400h160v-400
h184v-140h-184v-559q0 -127 61 -206q47 -61 133 -61v-154z" />
    <glyph glyph-name="uni02A8" unicode="&#x2a8;" 
d="M1004 317q0 49 -23 84t-57 35t-57 -35t-23 -84t23 -84q22 -34 57 -34t57 34q23 36 23 84zM1115 763h-146q-6 30 -19 69q-48 140 -125 140q-83 0 -131 -140q-32 -92 -32 -285q0 -181 32 -286q41 -134 167 -156q-111 85 -111 240q0 84 47 150q51 71 127 71q74 0 126 -71
t52 -175.5t-65 -211.5q-79 -128 -215 -128q-134 0 -221 160q-83 152 -83 409q0 261 83 409q91 162 224 162q138 0 225 -162q43 -81 65 -195zM548 -20q-178 0 -273 112q-81 96 -81 309v559h-184v140h184v400h160v-400h184v-140h-184v-559q0 -127 61 -206q47 -61 133 -61v-154
z" />
    <glyph glyph-name="uni02A9" unicode="&#x2a9;" 
d="M495 0v1100h160v-237q62 257 237 257q121 0 178 -151q30 -79 30 -270v-699q0 -185 -98 -284q-125 -126 -355 -126v135q150 0 221 77q62 67 62 198v699q0 159 -18 207q-21 55 -77 55q-51 0 -91 -82q-89 -184 -89 -287v-592h-160zM110 0v820h-100v140h100v139q0 201 90 308
q94 112 264 113q176 0 276 -117l-92 -122q-78 89 -174 89q-100 0 -151 -65q-53 -67 -53 -206v-139h184v-140h-184v-820h-160z" />
    <glyph glyph-name="uni02AA" unicode="&#x2aa;" 
d="M9 1500h334v-1099q0 -136 56 -207q48 -61 149 -61v-153q-178 0 -274 112q-91 106 -91 309v959h-174v140zM550 356h131q1 -120 29 -156q50 -65 113 -65q76 0 108 61q26 50 26 144q0 109 -65 141l-168 75q-151 83 -151 260q0 144 83 235q63 69 158 69q108 0 177 -108
q57 -89 57 -218h-128q0 87 -20 120q-32 53 -88 53q-47 0 -76 -35q-28 -34 -28 -106q0 -84 74 -120l144 -64q172 -79 172 -299q0 -148 -78 -255q-79 -108 -198 -108q-123 0 -199 108q-73 103 -73 268z" />
    <glyph glyph-name="uni02AB" unicode="&#x2ab;" 
d="M580 0v140q238 404 324 820h-294v140h468q-94 -564 -340 -960h340v-140h-498zM9 1500h334v-1099q0 -136 56 -207q48 -61 149 -61v-153q-178 0 -274 112q-91 106 -91 309v959h-174v140z" />
    <glyph glyph-name="uni02AC" unicode="&#x2ac;" 
d="M154 1250h159q19 -233 88 -435q81 205 98 435h202q17 -230 98 -435q69 202 88 435h159q-63 -288 -156 -572h-180q-67 225 -108 423q-36 -198 -112 -423h-180q-93 284 -156 572zM310 0q-93 284 -156 572h159q19 -233 88 -435q81 205 98 435h202q17 -230 98 -435
q69 202 88 435h159q-63 -288 -156 -572h-180q-67 225 -108 423q-36 -198 -112 -423h-180z" />
    <glyph glyph-name="uni02AD" unicode="&#x2ad;" 
d="M186 1100h828v-421h-160v261h-508v-261h-160v421zM186 0v421h828v-421h-160v261h-508v-261h-160z" />
    <glyph glyph-name="uni02AE" unicode="&#x2ae;" 
d="M1014 1100v-1500h-180v637q-85 -257 -317 -257q-142 0 -240 112q-91 104 -91 309v699q0 141 -52 209q-58 76 -134 76v135q154 0 270 -126q96 -107 96 -294v-699q0 -141 51 -206q48 -62 144 -62q101 0 173 86q100 119 100 289v592h180z" />
    <glyph glyph-name="uni02AF" unicode="&#x2af;" 
d="M1014 1100v-1100q0 -141 45 -198q60 -77 141 -77v-135q-170 0 -279 125q-87 100 -87 285v237q-85 -257 -317 -257q-142 0 -240 112q-91 104 -91 309v699q0 142 -52 209q-58 76 -134 76v135q154 0 270 -126q96 -105 96 -294v-699q0 -141 51 -206q48 -62 144 -62
q101 0 173 86q100 119 100 289v592h180z" />
    <glyph glyph-name="circumflex" unicode="&#x2c6;" 
d="M338 1244l212 284h106l212 -284l-111 -72l-154 192l-156 -192z" />
    <glyph glyph-name="caron" unicode="&#x2c7;" 
d="M868 1456l-212 -284h-106l-212 284l111 72l154 -192l156 192z" />
    <glyph glyph-name="uni02C9" unicode="&#x2c9;" 
d="M366 1310v160h468v-160h-468z" />
    <glyph glyph-name="breve" unicode="&#x2d8;" 
d="M314 1488h137q63 -77 149 -77q101 0 154 77h134q-101 -229 -288 -229q-194 0 -286 229z" />
    <glyph glyph-name="dotaccent" unicode="&#x2d9;" 
d="M600 1520q59 0 94 -36q40 -41 40 -96t-40 -94q-39 -38 -94 -38q-57 0 -94 36q-40 39 -40 96t40 94.5t94 37.5z" />
    <glyph glyph-name="ring" unicode="&#x2da;" 
d="M539 1387q0 -25 18 -46q17 -20 43 -20q28 0 44 19q17 20 17 47q0 25 -18 46q-17 20 -43 20t-43.5 -19.5t-17.5 -46.5zM429 1386q0 70 50 118t121 48q72 0 121 -48q50 -49 50 -118q0 -70 -50 -118t-121 -48t-121 48.5t-50 117.5z" />
    <glyph glyph-name="ogonek" unicode="&#x2db;" 
d="M715 159v-116q-98 -59 -98 -153q0 -72 82 -111v-189q-214 90 -214 284q0 181 230 285z" />
    <glyph glyph-name="tilde" unicode="&#x2dc;" 
d="M342 1298q25 227 173 227q77 0 119 -70q36 -60 55 -60q54 0 68 89h103q-25 -227 -173 -227q-77 0 -120 77q-32 57 -52 57q-54 0 -70 -93h-103z" />
    <glyph glyph-name="hungarumlaut" unicode="&#x2dd;" 
d="M542 1528l162 -94l-212 -284l-110 64zM814 1528l162 -94l-212 -284l-110 64z" />
    <glyph glyph-name="uni02F3" unicode="&#x2f3;" 
d="M539 -243q0 -25 18 -46q17 -20 43 -20q28 0 44 19q17 20 17 47q0 25 -18 46q-17 20 -43 20t-43.5 -19.5t-17.5 -46.5zM429 -244q0 70 50 118t121 48q72 0 121 -48q50 -49 50 -118q0 -70 -50 -118t-121 -48t-121 48.5t-50 117.5z" />
    <glyph glyph-name="gravecomb" unicode="&#x300;" 
d="M496 1528l160 -314l-110 -64l-212 284z" />
    <glyph glyph-name="acutecomb" unicode="&#x301;" 
d="M706 1528l162 -94l-212 -284l-110 64z" />
    <glyph glyph-name="uni0302" unicode="&#x302;" 
d="M338 1244l212 284h106l212 -284l-111 -72l-154 192l-156 -192z" />
    <glyph glyph-name="tildecomb" unicode="&#x303;" 
d="M342 1298q25 227 173 227q77 0 119 -70q36 -60 55 -60q54 0 68 89h103q-25 -227 -173 -227q-77 0 -120 77q-32 57 -52 57q-54 0 -70 -93h-103z" />
    <glyph glyph-name="uni0304" unicode="&#x304;" 
d="M366 1310v160h468v-160h-468z" />
    <glyph glyph-name="uni0306" unicode="&#x306;" 
d="M314 1488h137q63 -77 149 -77q101 0 154 77h134q-101 -229 -288 -229q-194 0 -286 229z" />
    <glyph glyph-name="uni0307" unicode="&#x307;" 
d="M600 1520q59 0 94 -36q40 -41 40 -96t-40 -94q-39 -38 -94 -38q-57 0 -94 36q-40 39 -40 96t40 94.5t94 37.5z" />
    <glyph glyph-name="uni0308" unicode="&#x308;" 
d="M766 1520q59 0 94 -36q40 -41 40 -96t-40 -94q-39 -38 -94 -38q-57 0 -94 36q-40 39 -40 96t40 94.5t94 37.5zM434 1520q59 0 94 -36q40 -41 40 -96t-40 -94q-39 -38 -94 -38q-57 0 -94 36q-40 39 -40 96t40 94.5t94 37.5z" />
    <glyph glyph-name="hookabovecomb" unicode="&#x309;" 
d="M493 1546q214 -43 214 -208q0 -133 -214 -188v97q82 7 82 82q0 77 -82 81v136z" />
    <glyph glyph-name="uni030A" unicode="&#x30a;" 
d="M539 1387q0 -25 18 -46q17 -20 43 -20q28 0 44 19q17 20 17 47q0 25 -18 46q-17 20 -43 20t-43.5 -19.5t-17.5 -46.5zM429 1386q0 70 50 118t121 48q72 0 121 -48q50 -49 50 -118q0 -70 -50 -118t-121 -48t-121 48.5t-50 117.5z" />
    <glyph glyph-name="uni030B" unicode="&#x30b;" 
d="M542 1528l162 -94l-212 -284l-110 64zM814 1528l162 -94l-212 -284l-110 64z" />
    <glyph glyph-name="uni030C" unicode="&#x30c;" 
d="M868 1456l-212 -284h-106l-212 284l111 72l154 -192l156 192z" />
    <glyph glyph-name="uni030F" unicode="&#x30f;" 
d="M660 1528l160 -314l-110 -64l-212 284zM388 1528l160 -314l-110 -64l-212 284z" />
    <glyph glyph-name="uni0311" unicode="&#x311;" 
d="M314 1259q101 229 288 229q194 0 286 -229h-137q-63 77 -149 77q-101 0 -154 -77h-134z" />
    <glyph glyph-name="uni0316" unicode="&#x316;" 
d="M706 -410l-160 314l110 64l212 -284z" />
    <glyph glyph-name="uni0317" unicode="&#x317;" 
d="M494 -410l-162 94l212 284l110 -64z" />
    <glyph glyph-name="dotbelowcomb" unicode="&#x323;" 
d="M600 -146q59 0 94 -36q40 -41 40 -96t-40 -94q-39 -38 -94 -38q-57 0 -94 36q-40 39 -40 96t40 94.5t94 37.5z" />
    <glyph glyph-name="uni0324" unicode="&#x324;" 
d="M766 -146q59 0 94 -36q40 -41 40 -96t-40 -94q-39 -38 -94 -38q-57 0 -94 36q-40 39 -40 96t40 94.5t94 37.5zM434 -146q59 0 94 -36q40 -41 40 -96t-40 -94q-39 -38 -94 -38q-57 0 -94 36q-40 39 -40 96t40 94.5t94 37.5z" />
    <glyph glyph-name="uni0325" unicode="&#x325;" 
d="M539 -243q0 -25 18 -46q17 -20 43 -20q28 0 44 19q17 20 17 47q0 25 -18 46q-17 20 -43 20t-43.5 -19.5t-17.5 -46.5zM429 -244q0 70 50 118t121 48q72 0 121 -48q50 -49 50 -118q0 -70 -50 -118t-121 -48t-121 48.5t-50 117.5z" />
    <glyph glyph-name="uni0326" unicode="&#x326;" 
d="M494 -410l-162 94l212 284l110 -64z" />
    <glyph glyph-name="uni0327" unicode="&#x327;" 
d="M485 159q230 -104 230 -285q0 -194 -214 -284v189q82 39 82 111q0 94 -98 153v116z" />
    <glyph glyph-name="uni0328" unicode="&#x328;" 
d="M715 159v-116q-98 -59 -98 -153q0 -72 82 -111v-189q-214 90 -214 284q0 181 230 285z" />
    <glyph glyph-name="uni032D" unicode="&#x32d;" 
d="M335 -338l212 284h106l212 -284l-111 -72l-154 192l-156 -192z" />
    <glyph glyph-name="uni032E" unicode="&#x32e;" 
d="M313 -181h137q63 -77 149 -77q101 0 154 77h134q-101 -229 -288 -229q-194 0 -286 229z" />
    <glyph glyph-name="uni032F" unicode="&#x32f;" 
d="M313 -410q92 229 286 229q187 0 288 -229h-134q-53 77 -154 77q-86 0 -149 -77h-137z" />
    <glyph glyph-name="uni0330" unicode="&#x330;" 
d="M341 -369q25 227 173 227q77 0 119 -70q36 -60 55 -60q54 0 68 89h103q-25 -227 -173 -227q-77 0 -120 77q-32 57 -52 57q-54 0 -70 -93h-103z" />
    <glyph glyph-name="uni0331" unicode="&#x331;" 
d="M366 -306v160h468v-160h-468z" />
    <glyph glyph-name="uni0370" unicode="&#x370;" 
d="M250 0v1500h180v-670h620v-160h-620v-670h-180z" />
    <glyph glyph-name="uni0371" unicode="&#x371;" 
d="M286 0v1100h180v-472h548v-160h-548v-468h-180z" />
    <glyph glyph-name="uni0372" unicode="&#x372;" 
d="M510 0v1360h-200v-233h-160v373h900v-373h-160v233h-200v-1360h-180z" />
    <glyph glyph-name="uni0373" unicode="&#x373;" 
d="M510 0v1360h-150v-233h-160v373h800v-373h-160v233h-150v-1360h-180z" />
    <glyph glyph-name="uni0374" unicode="&#x374;" 
d="M506 1500h188l-60 -482h-128v482z" />
    <glyph glyph-name="uni0375" unicode="&#x375;" 
d="M694 -400h-188l60 482h128v-482z" />
    <glyph glyph-name="uni0376" unicode="&#x376;" 
d="M150 0v1500h160v-1264q336 421 580 1264h160v-1500h-160v1038q-158 -572 -560 -1038h-180z" />
    <glyph glyph-name="uni0377" unicode="&#x377;" 
d="M186 0v1100h160v-894q287 307 508 894h160v-1100h-160v752q-149 -412 -488 -752h-180z" />
    <glyph glyph-name="uni037A" unicode="&#x37a;" 
d="M474 -12h177q0 -155 7 -210q5 -39 68 -70v-108q-12 -1 -24 -1q-176 5 -214 155q-14 55 -14 234z" />
    <glyph glyph-name="uni037B" unicode="&#x37b;" 
d="M195 335h180q11 -38 26 -69q62 -129 199 -129q136 0 199 129q51 105 51 284t-51 284q-63 129 -199 129q-137 0 -199 -129q-15 -31 -26 -68h-180q31 113 91 194q119 160 314 160q193 0 314 -160q116 -153 116 -410t-116 -410q-121 -160 -314 -160q-195 0 -314 160
q-60 81 -91 195z" />
    <glyph glyph-name="uni037C" unicode="&#x37c;" 
d="M621 680q59 0 94 -36q40 -41 40 -96t-40 -94q-39 -38 -94 -38q-57 0 -94 36q-40 39 -40 96t40 94.5t94 37.5zM1005 334q-31 -113 -91 -194q-119 -160 -314 -160q-193 0 -314 160q-116 153 -116 410t116 410q121 160 314 160q195 0 314 -160q60 -81 91 -195h-180
q-11 38 -26 69q-62 129 -199 129q-136 0 -199 -129q-51 -105 -51 -284t51 -284q63 -129 199 -129q137 0 199 129q15 31 26 68h180z" />
    <glyph glyph-name="uni037D" unicode="&#x37d;" 
d="M554 680q59 0 94 -36q40 -41 40 -96t-40 -94q-39 -38 -94 -38q-57 0 -94 36q-40 39 -40 96t40 94.5t94 37.5zM195 335h180q11 -38 26 -69q62 -129 199 -129q136 0 199 129q51 105 51 284t-51 284q-63 129 -199 129q-137 0 -199 -129q-15 -31 -26 -68h-180q31 113 91 194
q119 160 314 160q193 0 314 -160q116 -153 116 -410t-116 -410q-121 -160 -314 -160q-195 0 -314 160q-60 81 -91 195z" />
    <glyph glyph-name="uni037E" unicode="&#x37e;" 
d="M600 880q59 0 94 -36q40 -41 40 -96t-40 -94q-39 -38 -94 -38q-57 0 -94 36q-40 39 -40 96t40 94.5t94 37.5zM652 202q54 -95 54 -209q0 -175 -231 -285v116q72 68 72 167q0 62 -58 141z" />
    <glyph glyph-name="tonos" unicode="&#x384;" 
d="M623 1653l176 -64l-160 -317l-119 44z" />
    <glyph glyph-name="dieresistonos" unicode="&#x385;" 
d="M766 1288q59 0 94 -36q40 -41 40 -96t-40 -94q-39 -38 -94 -38q-57 0 -94 36q-40 39 -40 96t40 94.5t94 37.5zM434 1288q59 0 94 -36q40 -41 40 -96t-40 -94q-39 -38 -94 -38q-57 0 -94 36q-40 39 -40 96t40 94.5t94 37.5zM623 1653l176 -64l-160 -317l-119 44z" />
    <glyph glyph-name="Alphatonos" unicode="&#x386;" 
d="M50 0q134 720 460 1500h180q338 -780 460 -1500h-180q-57 341 -150 670h-439q-91 -325 -151 -670h-180zM429 830h343q-76 244 -172 480q-95 -234 -171 -480zM186 1519l176 -64l-160 -317l-119 44z" />
    <glyph glyph-name="anoteleia" unicode="&#x387;" 
d="M600 880q59 0 94 -36q40 -41 40 -96t-40 -94q-39 -38 -94 -38q-57 0 -94 36q-40 39 -40 96t40 94.5t94 37.5z" />
    <glyph glyph-name="Epsilontonos" unicode="&#x388;" 
d="M108 1519l176 -64l-160 -317l-119 44zM315 0v1500h760v-160h-580v-510h455v-160h-455v-510h648v-160h-828z" />
    <glyph glyph-name="Etatonos" unicode="&#x389;" 
d="M108 1519l176 -64l-160 -317l-119 44zM294 1500h180v-670h456v670h180v-1500h-180v670h-456v-670h-180v1500z" />
    <glyph glyph-name="Iotatonos" unicode="&#x38a;" 
d="M108 1519l176 -64l-160 -317l-119 44zM294 0v160h324v1180h-324v160h828v-160h-324v-1180h324v-160h-828z" />
    <glyph glyph-name="Omicrontonos" unicode="&#x38c;" 
d="M656 133q142 0 232 169q78 146 78 448q0 298 -78 448q-90 169 -232 169q-141 0 -232 -169q-78 -145 -78 -448q0 -309 78 -448q95 -169 232 -169zM656 -20q-258 0 -384 237q-106 200 -106 533t106 533q126 237 384 237q260 0 384 -237q106 -203 106 -533t-106 -533
q-124 -237 -384 -237zM118 1519l176 -64l-160 -317l-119 44z" />
    <glyph glyph-name="Upsilontonos" unicode="&#x38e;" 
d="M108 1519l176 -64l-160 -317l-119 44zM640 0v592q-228 432 -360 908h180q114 -428 270 -733q148 303 270 733h180q-134 -480 -360 -908v-592h-180z" />
    </font>
</defs>
</svg>
